<?xml version="1.0" encoding="utf-8"?>
<COLLADA xmlns="http://www.collada.org/2005/11/COLLADASchema" version="1.4.1" xmlns:xsi="http://www.w3.org/2001/XMLSchema-instance">
  <asset>
    <contributor>
      <author>Blender User</author>
      <authoring_tool>Blender 4.2.0 commit date:2024-07-16, commit time:07:50, hash:bf738fd35afe</authoring_tool>
    </contributor>
    <created>2026-09-25T18:34:11</created>
    <modified>2026-09-25T18:34:11</modified>
    <unit name="meter" meter="1"/>
    <up_axis>Z_UP</up_axis>
  </asset>
  <library_effects>
    <effect id="blade-effect">
      <profile_COMMON>
        <technique sid="common">
          <lambert>
            <emission>
              <color sid="emission">0 0 0 1</color>
            </emission>
            <diffuse>
              <color sid="diffuse">0.03 0.03 0.032 1</color>
            </diffuse>
            <index_of_refraction>
              <float sid="ior">1.5</float>
            </index_of_refraction>
          </lambert>
        </technique>
      </profile_COMMON>
    </effect>
    <effect id="gunmetal-effect">
      <profile_COMMON>
        <technique sid="common">
          <lambert>
            <emission>
              <color sid="emission">0 0 0 1</color>
            </emission>
            <diffuse>
              <color sid="diffuse">0.045 0.047 0.05 1</color>
            </diffuse>
            <reflectivity>
              <float sid="specular">0.7</float>
            </reflectivity>
            <index_of_refraction>
              <float sid="ior">1.5</float>
            </index_of_refraction>
          </lambert>
        </technique>
      </profile_COMMON>
    </effect>
    <effect id="lens-effect">
      <profile_COMMON>
        <technique sid="common">
          <lambert>
            <emission>
              <color sid="emission">0 0 0 1</color>
            </emission>
            <diffuse>
              <color sid="diffuse">0.005 0.01 0.03 1</color>
            </diffuse>
            <index_of_refraction>
              <float sid="ior">1.5</float>
            </index_of_refraction>
          </lambert>
        </technique>
      </profile_COMMON>
    </effect>
  </library_effects>
  <library_images/>
  <library_materials>
    <material id="blade-material" name="blade">
      <instance_effect url="#blade-effect"/>
    </material>
    <material id="gunmetal-material" name="gunmetal">
      <instance_effect url="#gunmetal-effect"/>
    </material>
    <material id="lens-material" name="lens">
      <instance_effect url="#lens-effect"/>
    </material>
  </library_materials>
  <library_geometries>
    <geometry id="camera-mesh" name="camera">
      <mesh>
        <source id="camera-mesh-positions">
          <float_array id="camera-mesh-positions-array" count="552">-0.05699998 -0.03249996 -0.02499997 -0.05699998 -0.03749996 -0.01999998 -0.06199997 -0.03249996 -0.01999998 -0.05699998 -0.03499668 -0.02433198 -0.0594967 -0.03249996 -0.02433198 -0.05939102 -0.034891 -0.02368313 -0.0594967 -0.03683197 -0.01999998 -0.05699998 -0.03683197 -0.0224967 -0.05939102 -0.03618311 -0.02239102 -0.06133198 -0.03249996 -0.0224967 -0.06133198 -0.03499668 -0.01999998 -0.06068313 -0.034891 -0.02239102 -0.05699998 -0.03749996 0.01999998 -0.05699998 -0.03249996 0.02499997 -0.06199997 -0.03249996 0.01999998 -0.05699998 -0.03683197 0.0224967 -0.0594967 -0.03683197 0.01999998 -0.05939102 -0.03618311 0.02239102 -0.0594967 -0.03249996 0.02433198 -0.05699998 -0.03499668 0.02433198 -0.05939102 -0.034891 0.02368313 -0.06133198 -0.03499668 0.01999998 -0.06133198 -0.03249996 0.0224967 -0.06068313 -0.034891 0.02239102 -0.05699998 0.03249996 -0.02499997 -0.06199997 0.03249996 -0.01999998 -0.05699998 0.03749996 -0.01999998 -0.0594967 0.03249996 -0.02433198 -0.05699998 0.03499668 -0.02433198 -0.05939102 0.034891 -0.02368313 -0.06133198 0.03499668 -0.01999998 -0.06133198 0.03249996 -0.0224967 -0.06068313 0.034891 -0.02239102 -0.05699998 0.03683197 -0.0224967 -0.0594967 0.03683197 -0.01999998 -0.05939102 0.03618311 -0.02239102 -0.05699998 0.03249996 0.02499997 -0.05699998 0.03749996 0.01999998 -0.06199997 0.03249996 0.01999998 -0.05699998 0.03499668 0.02433198 -0.0594967 0.03249996 0.02433198 -0.05939102 0.034891 0.02368313 -0.0594967 0.03683197 0.01999998 -0.05699998 0.03683197 0.0224967 -0.05939102 0.03618311 0.02239102 -0.06133198 0.03249996 0.0224967 -0.06133198 0.03499668 0.01999998 -0.06068313 0.034891 0.02239102 -0.01700001 -0.03249996 -0.02499997 -0.01200002 -0.03249996 -0.01999998 -0.01700001 -0.03749996 -0.01999998 -0.0145033 -0.03249996 -0.02433198 -0.01700001 -0.03499668 -0.02433198 -0.01460891 -0.034891 -0.02368313 -0.01266795 -0.03499668 -0.01999998 -0.01266795 -0.03249996 -0.0224967 -0.01331681 -0.034891 -0.02239102 -0.01700001 -0.03683197 -0.0224967 -0.0145033 -0.03683197 -0.01999998 -0.01460891 -0.03618311 -0.02239102 -0.01700001 -0.03249996 0.02499997 -0.01700001 -0.03749996 0.01999998 -0.01200002 -0.03249996 0.01999998 -0.01700001 -0.03499668 0.02433198 -0.0145033 -0.03249996 0.02433198 -0.01460891 -0.034891 0.02368313 -0.0145033 -0.03683197 0.01999998 -0.01700001 -0.03683197 0.0224967 -0.01460891 -0.03618311 0.02239102 -0.01266795 -0.03249996 0.0224967 -0.01266795 -0.03499668 0.01999998 -0.01331681 -0.034891 0.02239102 -0.01700001 0.03249996 -0.02499997 -0.01700001 0.03749996 -0.01999998 -0.01200002 0.03249996 -0.01999998 -0.01700001 0.03499668 -0.02433198 -0.0145033 0.03249996 -0.02433198 -0.01460891 0.034891 -0.02368313 -0.0145033 0.03683197 -0.01999998 -0.01700001 0.03683197 -0.0224967 -0.01460891 0.03618311 -0.02239102 -0.01266795 0.03249996 -0.0224967 -0.01266795 0.03499668 -0.01999998 -0.01331681 0.034891 -0.02239102 -0.01700001 0.03249996 0.02499997 -0.01200002 0.03249996 0.01999998 -0.01700001 0.03749996 0.01999998 -0.0145033 0.03249996 0.02433198 -0.01700001 0.03499668 0.02433198 -0.01460891 0.034891 0.02368313 -0.01266795 0.03499668 0.01999998 -0.01266795 0.03249996 0.0224967 -0.01331681 0.034891 0.02239102 -0.01700001 0.03683197 0.0224967 -0.0145033 0.03683197 0.01999998 -0.01460891 0.03618311 0.02239102 -0.01399999 0.01599997 0 0 0.01599997 0 -0.01399999 0.01521688 -0.004944264 0 0.01521688 -0.004944264 -0.01399999 0.01294422 -0.00940454 0 0.01294422 -0.00940454 -0.01399993 0.00940454 -0.01294428 0 0.00940454 -0.01294428 -0.01399993 0.004944264 -0.01521688 0 0.004944264 -0.01521688 -0.01399993 0 -0.01599997 0 0 -0.01599997 -0.01399993 -0.004944264 -0.01521688 0 -0.004944264 -0.01521688 -0.01399993 -0.00940454 -0.01294428 0 -0.00940454 -0.01294428 -0.01399999 -0.01294422 -0.00940454 0 -0.01294422 -0.00940454 -0.01399999 -0.01521688 -0.004944264 0 -0.01521688 -0.004944264 -0.01399999 -0.01599997 0 0 -0.01599997 0 -0.01399999 -0.01521688 0.004944264 0 -0.01521688 0.004944264 -0.01399999 -0.01294422 0.00940454 0 -0.01294422 0.00940454 -0.01399999 -0.00940454 0.01294428 0 -0.00940454 0.01294428 -0.01399999 -0.004944264 0.01521688 0 -0.004944264 0.01521688 -0.01399999 0 0.01599997 0 0 0.01599997 -0.01399999 0.004944264 0.01521688 0 0.004944264 0.01521688 -0.01399999 0.00940454 0.01294428 0 0.00940454 0.01294428 -0.01399999 0.01294422 0.00940454 0 0.01294422 0.00940454 -0.01399999 0.01521688 0.004944264 0 0.01521688 0.004944264 -0.001999974 0.01199996 0 0 0.01199996 0 -0.001999974 0.01141268 -0.003708183 0 0.01141268 -0.003708183 -0.001999974 0.009708166 -0.007053434 0 0.009708166 -0.007053434 -0.001999974 0.007053375 -0.009708166 0 0.007053375 -0.009708166 -0.001999974 0.003708183 -0.01141268 0 0.003708183 -0.01141268 -0.001999974 0 -0.01199996 0 0 -0.01199996 -0.001999974 -0.003708183 -0.01141268 0 -0.003708183 -0.01141268 -0.001999974 -0.007053375 -0.009708166 0 -0.007053375 -0.009708166 -0.001999974 -0.009708166 -0.007053434 0 -0.009708166 -0.007053434 -0.001999974 -0.01141268 -0.003708183 0 -0.01141268 -0.003708183 -0.001999974 -0.01199996 0 0 -0.01199996 0 -0.001999974 -0.01141268 0.003708183 0 -0.01141268 0.003708183 -0.001999974 -0.009708166 0.007053434 0 -0.009708166 0.007053434 -0.001999974 -0.007053375 0.009708166 0 -0.007053375 0.009708166 -0.001999974 -0.003708183 0.01141268 0 -0.003708183 0.01141268 -0.001999974 0 0.01199996 0 0 0.01199996 -0.001999974 0.003708183 0.01141268 0 0.003708183 0.01141268 -0.001999974 0.007053375 0.009708166 0 0.007053375 0.009708166 -0.001999974 0.009708166 0.007053434 0 0.009708166 0.007053434 -0.001999974 0.01141268 0.003708183 0 0.01141268 0.003708183 -0.04749995 -0.04249995 0.02700001 -0.04749995 -0.04249995 0.03100001 -0.04749995 0.04249995 0.02700001 -0.04749995 0.04249995 0.03100001 -0.01249998 -0.04249995 0.02700001 -0.01249998 -0.04249995 0.03100001 -0.01249998 0.04249995 0.02700001 -0.01249998 0.04249995 0.03100001</float_array>
          <technique_common>
            <accessor source="#camera-mesh-positions-array" count="184" stride="3">
              <param name="X" type="float"/>
              <param name="Y" type="float"/>
              <param name="Z" type="float"/>
            </accessor>
          </technique_common>
        </source>
        <source id="camera-mesh-normals">
          <float_array id="camera-mesh-normals-array" count="675">0.1279691 -0.9834875 0.1279702 -0.1279693 -0.9834875 -0.1279702 0.1279721 -0.983487 -0.1279714 0.9834895 0.1279616 0.1279627 0.9834895 -0.1279616 -0.1279627 0.9834894 0.1279629 -0.1279616 -0.1279732 0.1279723 0.9834867 0.1279732 -0.1279723 0.9834867 0.1279718 0.1279734 0.9834867 -0.9834867 -0.1279729 0.1279731 -0.9834867 0.1279729 -0.1279731 -0.9834867 -0.1279739 -0.1279721 -0.1279693 0.9834875 0.1279702 0.1279691 0.9834875 -0.1279701 -0.127972 0.983487 -0.1279714 -0.1216039 -0.4915667 -0.8623079 -0.4915712 -0.1216051 -0.8623051 -0.1279732 -0.1279723 -0.9834867 -0.1216046 -0.8623054 -0.4915708 -0.4488425 -0.4488513 -0.7727051 -0.4915697 -0.862306 -0.1216045 -0.772705 -0.448847 -0.4488467 -0.4488465 -0.7727056 -0.4488463 -0.8623067 -0.1216045 -0.4915683 -0.8623067 -0.4915689 -0.1216034 -0.1216047 -0.8623061 0.4915694 -0.4915716 -0.8623049 0.1216043 -0.127972 -0.983487 0.1279714 -0.4488424 -0.4488513 0.7727051 -0.4488466 -0.7727056 0.4488461 -0.4915689 -0.1216051 0.8623063 -0.1216039 -0.4915684 0.8623068 -0.1279718 -0.1279733 0.9834868 -0.772705 -0.4488472 0.4488466 -0.8623078 -0.4915669 0.1216034 -0.8623057 -0.1216046 0.4915702 -0.4915689 0.1216051 -0.8623063 -0.1216039 0.4915684 -0.8623068 -0.1279718 0.1279733 -0.9834868 -0.772705 0.4488472 -0.4488466 -0.4488424 0.4488513 -0.7727051 -0.8623078 0.4915669 -0.1216034 -0.8623057 0.1216046 -0.4915702 -0.4915716 0.8623051 -0.1216044 -0.1216047 0.8623061 -0.4915694 -0.4488466 0.7727056 -0.4488461 -0.1216039 0.4915667 0.8623079 -0.4915712 0.1216051 0.8623051 -0.1216046 0.8623054 0.4915708 -0.4488425 0.4488513 0.7727051 -0.4915697 0.862306 0.1216045 -0.772705 0.448847 0.4488467 -0.4488465 0.7727056 0.4488463 -0.8623067 0.1216045 0.4915683 -0.8623067 0.4915689 0.1216034 -0.9834867 0.1279739 0.1279721 0.4915591 -0.1216004 -0.8623127 0.1216018 -0.491568 -0.8623074 0.1279718 -0.1279734 -0.9834867 0.8623067 -0.1216006 -0.4915696 0.4488439 -0.4488446 -0.772708 0.8623086 -0.4915663 -0.1216002 0.4488484 -0.7727094 -0.4488378 0.772706 -0.4488482 -0.4488438 0.1216027 -0.8623066 -0.4915691 0.491562 -0.8623109 -0.1216006 0.1216019 -0.4915662 0.8623083 0.4915614 -0.1216004 0.8623113 0.1216027 -0.8623058 0.4915704 0.4488441 -0.4488446 0.7727079 0.4915602 -0.862312 0.1216007 0.8623074 -0.4915682 0.1216002 0.4488484 -0.7727093 0.4488381 0.8623076 -0.1216006 0.4915677 0.9834894 -0.1279629 0.1279616 0.772706 -0.4488481 0.4488438 0.1216019 0.4915662 -0.8623083 0.4915614 0.1216004 -0.8623113 0.1279732 0.1279723 -0.9834867 0.1216027 0.8623058 -0.4915704 0.4488441 0.4488446 -0.7727079 0.4915602 0.862312 -0.1216007 0.8623074 0.4915682 -0.1216002 0.4488484 0.7727093 -0.4488381 0.8623076 0.1216006 -0.4915677 0.772706 0.4488481 -0.4488438 0.4915591 0.1216004 0.8623127 0.1216018 0.491568 0.8623074 0.8623067 0.1216006 0.4915696 0.4488439 0.4488446 0.772708 0.8623086 0.4915663 0.1216002 0.4488484 0.7727094 0.4488378 0.772706 0.4488482 0.4488438 0.1216027 0.8623066 0.4915691 0.491562 0.8623109 0.1216006 0.1279721 0.983487 0.1279714 0 1 4.01964e-6 0 0.9510555 -0.3090203 0 1 -4.01004e-6 0 0.9510579 -0.3090127 0 0.8090153 -0.5877876 0 0.8090199 -0.5877814 0 0.5877828 -0.8090189 0 0.5877891 -0.8090143 0 0.3090124 -0.9510581 0 0.3090203 -0.9510555 0 -4.17332e-6 -1 0 4.17332e-6 -1 0 -0.3090204 -0.9510555 0 -0.3090124 -0.9510581 0 -0.5877861 -0.8090164 0 -0.8090175 -0.5877846 0 -0.8090177 -0.5877844 0 -0.9510579 -0.3090127 0 -0.9510555 -0.3090203 0 -1 4.01004e-6 0 -1 -4.01964e-6 0 -0.9510555 0.3090203 0 -0.9510579 0.3090127 0 -0.8090174 0.5877847 0 -0.5877861 0.8090164 0 -0.5877857 0.8090167 0 -0.3090124 0.9510581 0 -0.3090204 0.9510555 0 4.17332e-6 1 0 -4.17332e-6 1 0 0.3090204 0.9510555 0 0.3090124 0.9510581 0 0.5877891 0.8090143 0 0.5877828 0.8090189 0 0.8090198 0.5877814 1 1.60663e-6 1.2264e-6 1 0 0 1 -5.11682e-7 7.04269e-7 0 0.8090153 0.5877876 0 0.9510579 0.3090127 0 0.9510555 0.3090203 -1 1.18141e-6 -1.4809e-6 -1 0 0 -1 -1.1322e-6 -1.41022e-6 0 1 1.88253e-6 0 0.9510561 -0.3090183 0 1 -1.88253e-6 0 0.9510573 -0.3090148 0 0.8090149 -0.5877883 0 0.809017 -0.5877854 0 0.5877833 -0.8090185 0 0.5877863 -0.8090164 0 0.3090155 -0.951057 0 0.3090189 -0.951056 0 -1.8249e-6 -1 0 1.8249e-6 -1 0 -0.3090189 -0.951056 0 -0.3090155 -0.951057 0 -0.5877863 -0.8090164 0 -0.5877833 -0.8090185 0 -0.809017 -0.5877854 0 -0.8090149 -0.5877883 0 -0.9510573 -0.3090148 0 -0.9510561 -0.3090183 0 -1 1.88253e-6 0 -1 -1.88253e-6 0 -0.9510561 0.3090183 0 -0.9510573 0.3090148 0 -0.8090149 0.5877883 0 -0.809017 0.5877854 0 -0.5877833 0.8090185 0 -0.5877863 0.8090164 0 -0.3090155 0.951057 0 -0.3090189 0.951056 0 1.8249e-6 1 0 -1.8249e-6 1 0 0.3090189 0.951056 0 0.3090155 0.951057 0 0.5877863 0.8090164 0 0.5877833 0.8090185 0 0.809017 0.5877854 0 0.8090149 0.5877883 0 0.9510573 0.3090148 0 0.9510561 0.3090183 -1 0 0 -1 0 0 -1 0 0 -1 0 0 0 1 0 0 -1 0 0 0 -1 0 0 1 0 -0.5877857 -0.8090167 0 -0.8090178 0.5877844 1 -1.1951e-6 3.01826e-6 1 1.74929e-5 3.43317e-5 1 2.9332e-6 1.4292e-5 1 -7.39867e-7 7.58519e-6 1 -3.96489e-7 4.069e-6 1 -1.74929e-5 3.43317e-5 1 1.02012e-5 -3.78593e-6 1 7.44256e-6 -1.64029e-6 -1 -1.12791e-5 9.71638e-7 -1 -3.28858e-5 1.74928e-5 -1 -2.14458e-6 -1.92591e-6 -1 -7.04695e-7 0 -1 -2.07214e-7 -2.36282e-6 -1 9.39593e-7 0 -1 2.87338e-6 -1.27677e-6 -1 3.38254e-5 1.74928e-5 -1 1.13313e-5 9.71638e-7 -1 0 0 -1 -4.69797e-7 0 -1 0 0 -1 -1.34491e-7 0 -1 0 0 -1 2.08798e-7 0 -1 0 0 -1 0 0 -1 0 0 -1 -2.08798e-7 0 -1 0 0 -1 0 0 -1 -2.08798e-7 0 -1 0 0 -1 0 0 -1 0 0 -1 0 0 -1 2.08798e-7 0</float_array>
          <technique_common>
            <accessor source="#camera-mesh-normals-array" count="225" stride="3">
              <param name="X" type="float"/>
              <param name="Y" type="float"/>
              <param name="Z" type="float"/>
            </accessor>
          </technique_common>
        </source>
        <vertices id="camera-mesh-vertices">
          <input semantic="POSITION" source="#camera-mesh-positions"/>
        </vertices>
        <triangles material="blade-material" count="200">
          <input semantic="VERTEX" source="#camera-mesh-vertices" offset="0"/>
          <input semantic="NORMAL" source="#camera-mesh-normals" offset="1"/>
          <p>61 0 1 1 50 2 85 3 49 4 74 5 36 6 60 7 84 8 14 9 25 10 2 11 37 12 73 13 26 14 3 15 4 16 0 17 7 18 5 19 3 15 6 20 7 18 1 1 6 20 11 21 8 22 9 23 10 24 2 11 4 16 11 21 9 23 5 19 8 22 11 21 15 25 16 26 12 27 15 25 20 28 17 29 18 30 19 31 13 32 18 30 23 33 20 28 21 34 22 35 14 9 16 26 23 33 21 34 17 29 20 28 23 33 27 36 28 37 24 38 27 36 32 39 29 40 30 41 31 42 25 10 34 43 32 39 30 41 33 44 34 43 26 14 33 44 29 40 35 45 29 40 32 39 35 45 39 46 40 47 36 6 43 48 41 49 39 46 42 50 43 48 37 12 42 50 47 51 44 52 45 53 46 54 38 55 40 47 47 51 45 53 41 49 44 52 47 51 51 56 52 57 48 58 55 59 53 60 51 56 54 61 55 59 49 4 54 61 59 62 56 63 57 64 58 65 50 2 57 64 53 60 59 62 53 60 56 63 59 62 63 66 64 67 60 7 67 68 65 69 63 66 66 70 67 68 61 0 70 71 68 72 66 70 69 73 70 71 62 74 69 73 65 69 71 75 65 69 68 72 71 75 75 76 76 77 72 78 79 79 77 80 75 76 78 81 79 79 73 13 82 82 80 83 78 81 81 84 82 82 74 5 81 84 77 80 83 85 77 80 80 83 83 85 87 86 88 87 84 8 91 88 89 89 87 86 90 90 91 88 85 3 90 90 95 91 92 92 93 93 94 94 86 95 93 93 89 89 95 91 89 89 92 92 95 91 0 17 27 36 24 38 4 16 31 42 27 36 9 23 25 10 31 42 12 27 6 20 1 1 16 26 10 24 6 20 21 34 2 11 10 24 36 6 18 30 13 32 40 47 22 35 18 30 45 53 14 9 22 35 26 14 42 50 37 12 34 43 46 54 42 50 30 41 38 55 46 54 24 38 75 76 72 78 28 37 79 79 75 76 33 44 73 13 79 79 84 8 39 46 36 6 88 87 43 48 39 46 93 93 37 12 43 48 74 5 90 90 85 3 82 82 94 94 90 90 78 81 86 95 94 94 72 78 51 56 48 58 76 77 55 59 51 56 81 84 49 4 55 59 60 7 87 86 84 8 64 67 91 88 87 86 69 73 85 3 91 88 50 2 66 70 61 0 58 65 70 71 66 70 54 61 62 74 70 71 48 58 3 15 0 17 52 57 7 18 3 15 57 64 1 1 7 18 13 32 63 66 60 7 19 31 67 68 63 66 15 25 61 0 67 68 72 78 0 17 24 38 177 183 178 183 176 183 179 184 182 184 178 184 183 132 180 132 182 132 181 185 176 185 180 185 182 186 176 186 178 186 179 187 181 187 183 187 61 0 12 27 1 1 85 3 62 74 49 4 36 6 13 32 60 7 14 9 38 55 25 10 37 12 86 95 73 13 3 15 5 19 4 16 7 18 8 22 5 19 6 20 8 22 7 18 6 20 10 24 11 21 9 23 11 21 10 24 4 16 5 19 11 21 15 25 17 29 16 26 15 25 19 31 20 28 18 30 20 28 19 31 18 30 22 35 23 33 21 34 23 33 22 35 16 26 17 29 23 33 27 36 29 40 28 37 27 36 31 42 32 39 30 41 32 39 31 42 34 43 35 45 32 39 33 44 35 45 34 43 33 44 28 37 29 40 39 46 41 49 40 47 43 48 44 52 41 49 42 50 44 52 43 48 42 50 46 54 47 51 45 53 47 51 46 54 40 47 41 49 47 51 51 56 53 60 52 57 55 59 56 63 53 60 54 61 56 63 55 59 54 61 58 65 59 62 57 64 59 62 58 65 57 64 52 57 53 60 63 66 65 69 64 67 67 68 68 72 65 69 66 70 68 72 67 68 70 71 71 75 68 72 69 73 71 75 70 71 69 73 64 67 65 69 75 76 77 80 76 77 79 79 80 83 77 80 78 81 80 83 79 79 82 82 83 85 80 83 81 84 83 85 82 82 81 84 76 77 77 80 87 86 89 89 88 87 91 88 92 92 89 89 90 90 92 92 91 88 90 90 94 94 95 91 93 93 95 91 94 94 93 93 88 87 89 89 0 17 4 16 27 36 4 16 9 23 31 42 9 23 2 11 25 10 12 27 16 26 6 20 16 26 21 34 10 24 21 34 14 9 2 11 36 6 40 47 18 30 40 47 45 53 22 35 45 53 38 55 14 9 26 14 34 43 42 50 34 43 30 41 46 54 30 41 25 10 38 55 24 38 28 37 75 76 28 37 33 44 79 79 33 44 26 14 73 13 84 8 88 87 39 46 88 87 93 93 43 48 93 93 86 95 37 12 74 5 82 82 90 90 82 82 78 81 94 94 78 81 73 13 86 95 72 78 76 77 51 56 76 77 81 84 55 59 81 84 74 5 49 4 60 7 64 67 87 86 64 67 69 73 91 88 69 73 62 74 85 3 50 2 58 65 66 70 58 65 54 61 70 71 54 61 49 4 62 74 48 58 52 57 3 15 52 57 57 64 7 18 57 64 50 2 1 1 13 32 19 31 63 66 19 31 15 25 67 68 15 25 12 27 61 0 72 78 48 58 0 17 177 183 179 183 178 183 179 184 183 184 182 184 183 132 181 132 180 132 181 185 177 185 176 185 182 186 180 186 176 186 179 187 177 187 181 187</p>
        </triangles>
        <triangles material="gunmetal-material" count="76">
          <input semantic="VERTEX" source="#camera-mesh-vertices" offset="0"/>
          <input semantic="NORMAL" source="#camera-mesh-normals" offset="1"/>
          <p>97 96 98 97 96 98 99 99 100 100 98 97 101 101 102 102 100 100 103 103 104 104 102 102 105 105 106 106 104 104 107 107 108 108 106 106 109 109 110 110 108 108 110 110 113 111 112 112 113 111 114 113 112 112 115 114 116 115 114 113 117 116 118 117 116 115 119 118 120 119 118 117 120 119 123 120 122 121 123 120 124 122 122 121 125 123 126 124 124 122 127 125 128 126 126 124 129 127 130 128 128 126 131 129 132 130 130 128 117 131 109 132 101 133 133 134 134 135 132 130 135 136 96 98 134 135 118 137 126 138 134 139 97 96 99 99 98 97 99 99 101 101 100 100 101 101 103 103 102 102 103 103 105 105 104 104 105 105 107 107 106 106 107 107 109 109 108 108 109 109 111 188 110 110 110 110 111 188 113 111 113 111 115 114 114 113 115 114 117 116 116 115 117 116 119 118 118 117 119 118 121 189 120 119 120 119 121 189 123 120 123 120 125 123 124 122 125 123 127 125 126 124 127 125 129 127 128 126 129 127 131 129 130 128 131 129 133 134 132 130 101 133 99 132 97 132 97 132 135 132 101 133 135 132 133 190 101 133 133 190 131 191 129 192 129 192 127 193 133 190 127 193 125 194 133 190 125 194 123 195 121 196 121 196 119 197 125 194 119 197 117 131 125 194 117 131 115 132 109 132 115 132 113 132 109 132 113 132 111 132 109 132 109 132 107 132 101 133 107 132 105 132 101 133 105 132 103 132 101 133 101 133 133 190 125 194 125 194 117 131 101 133 133 134 135 136 134 135 135 136 97 96 96 98 134 139 96 183 98 198 98 198 100 199 102 200 102 200 104 201 106 202 106 202 108 203 110 204 110 204 112 205 114 206 114 206 116 183 118 137 118 137 120 183 126 138 120 183 122 207 126 138 122 207 124 208 126 138 126 138 128 183 130 183 130 183 132 183 134 139 134 139 98 198 102 200 102 200 106 202 134 139 106 202 110 204 134 139 110 204 114 206 118 137 126 138 130 183 134 139 110 204 118 137 134 139</p>
        </triangles>
        <triangles material="lens-material" count="76">
          <input semantic="VERTEX" source="#camera-mesh-vertices" offset="0"/>
          <input semantic="NORMAL" source="#camera-mesh-normals" offset="1"/>
          <p>137 140 138 141 136 142 139 143 140 144 138 141 141 145 142 146 140 144 143 147 144 148 142 146 145 149 146 150 144 148 147 151 148 152 146 150 149 153 150 154 148 152 151 155 152 156 150 154 153 157 154 158 152 156 155 159 156 160 154 158 157 161 158 162 156 160 159 163 160 164 158 162 161 165 162 166 160 164 163 167 164 168 162 166 165 169 166 170 164 168 167 171 168 172 166 170 169 173 170 174 168 172 171 175 172 176 170 174 165 132 149 132 141 132 173 177 174 178 172 176 175 179 136 142 174 178 142 180 150 181 166 182 137 140 139 143 138 141 139 143 141 145 140 144 141 145 143 147 142 146 143 147 145 149 144 148 145 149 147 151 146 150 147 151 149 153 148 152 149 153 151 155 150 154 151 155 153 157 152 156 153 157 155 159 154 158 155 159 157 161 156 160 157 161 159 163 158 162 159 163 161 165 160 164 161 165 163 167 162 166 163 167 165 169 164 168 165 169 167 171 166 170 167 171 169 173 168 172 169 173 171 175 170 174 171 175 173 177 172 176 141 132 139 132 137 132 137 132 175 132 173 132 173 132 171 132 165 132 171 132 169 132 165 132 169 132 167 132 165 132 165 132 163 132 157 132 163 132 161 132 157 132 161 132 159 132 157 132 157 132 155 132 153 132 153 132 151 132 157 132 151 132 149 132 157 132 149 132 147 132 145 132 145 132 143 132 149 132 143 132 141 132 149 132 141 132 137 132 165 132 137 132 173 132 165 132 165 132 157 132 149 132 173 177 175 179 174 178 175 179 137 140 136 142 174 209 136 210 142 180 136 210 138 211 142 180 138 211 140 212 142 180 142 180 144 213 146 214 146 214 148 215 150 181 150 181 152 216 154 217 154 217 156 183 150 181 156 183 158 218 150 181 158 218 160 219 162 220 162 220 164 221 166 182 166 182 168 222 170 223 170 223 172 224 174 209 142 180 146 214 150 181 158 218 162 220 150 181 162 220 166 182 150 181 166 182 170 223 174 209 174 209 142 180 166 182</p>
        </triangles>
      </mesh>
    </geometry>
  </library_geometries>
  <library_visual_scenes>
    <visual_scene id="Scene" name="Scene">
      <node id="camera" name="camera" type="NODE">
        <matrix sid="transform">1 0 0 0 0 1 0 0 0 0 1 0 0 0 0 1</matrix>
        <instance_geometry url="#camera-mesh" name="camera">
          <bind_material>
            <technique_common>
              <instance_material symbol="blade-material" target="#blade-material"/>
              <instance_material symbol="gunmetal-material" target="#gunmetal-material"/>
              <instance_material symbol="lens-material" target="#lens-material"/>
            </technique_common>
          </bind_material>
        </instance_geometry>
      </node>
    </visual_scene>
  </library_visual_scenes>
  <scene>
    <instance_visual_scene url="#Scene"/>
  </scene>
</COLLADA>