<?xml version="1.0" encoding="utf-8"?>
<COLLADA xmlns="http://www.collada.org/2005/11/COLLADASchema" version="1.4.1" xmlns:xsi="http://www.w3.org/2001/XMLSchema-instance">
  <asset>
    <contributor>
      <author>Blender User</author>
      <authoring_tool>Blender 4.2.0 commit date:2024-07-16, commit time:07:50, hash:bf738fd35afe</authoring_tool>
    </contributor>
    <created>2026-09-25T18:34:11</created>
    <modified>2026-09-25T18:34:11</modified>
    <unit name="meter" meter="1"/>
    <up_axis>Z_UP</up_axis>
  </asset>
  <library_effects>
    <effect id="aluminium-effect">
      <profile_COMMON>
        <technique sid="common">
          <lambert>
            <emission>
              <color sid="emission">0 0 0 1</color>
            </emission>
            <diffuse>
              <color sid="diffuse">0.55 0.55 0.56 1</color>
            </diffuse>
            <reflectivity>
              <float sid="specular">1</float>
            </reflectivity>
            <index_of_refraction>
              <float sid="ior">1.5</float>
            </index_of_refraction>
          </lambert>
        </technique>
      </profile_COMMON>
    </effect>
    <effect id="lens-effect">
      <profile_COMMON>
        <technique sid="common">
          <lambert>
            <emission>
              <color sid="emission">0 0 0 1</color>
            </emission>
            <diffuse>
              <color sid="diffuse">0.005 0.01 0.03 1</color>
            </diffuse>
            <index_of_refraction>
              <float sid="ior">1.5</float>
            </index_of_refraction>
          </lambert>
        </technique>
      </profile_COMMON>
    </effect>
  </library_effects>
  <library_images/>
  <library_materials>
    <material id="aluminium-material" name="aluminium">
      <instance_effect url="#aluminium-effect"/>
    </material>
    <material id="lens-material" name="lens">
      <instance_effect url="#lens-effect"/>
    </material>
  </library_materials>
  <library_geometries>
    <geometry id="lidar-mesh" name="lidar">
      <mesh>
        <source id="lidar-mesh-positions">
          <float_array id="lidar-mesh-positions-array" count="2016">0 0.05149996 -0.03285002 0 0.04848545 -0.03584998 0 0.04999274 -0.03544807 0 0.05109608 -0.03434997 0 0.04848545 -0.01585 0 0.05149996 -0.01884996 0 0.04999274 -0.01625192 0 0.05109608 -0.01735001 0.009459018 0.04755383 -0.03584998 0.01004713 0.0505104 -0.03285002 0.009753108 0.04903209 -0.03544807 0.00996834 0.05011433 -0.03434997 0.009459018 0.04755383 -0.01585 0.01004713 0.0505104 -0.01884996 0.009753108 0.04903209 -0.01625192 0.00996834 0.05011433 -0.01735001 0.01855456 0.04479473 -0.03584998 0.01970815 0.04757976 -0.03285002 0.01913136 0.04618722 -0.03544807 0.0195536 0.04720664 -0.03434997 0.01855456 0.04479473 -0.01585 0.01970815 0.04757976 -0.01884996 0.01913136 0.04618722 -0.01625192 0.0195536 0.04720664 -0.01735001 0.02693706 0.04031419 -0.03584998 0.02861183 0.04282063 -0.03285002 0.02777445 0.04156744 -0.03544807 0.02838748 0.04248487 -0.03434997 0.02693706 0.04031419 -0.01585 0.02861183 0.04282063 -0.01884996 0.02777445 0.04156744 -0.01625192 0.02838748 0.04248487 -0.01735001 0.03428441 0.03428441 -0.03584998 0.03641599 0.03641599 -0.03285002 0.0353502 0.0353502 -0.03544807 0.03613042 0.03613036 -0.03434997 0.03428441 0.03428441 -0.01585 0.03641599 0.03641599 -0.01884996 0.0353502 0.0353502 -0.01625192 0.03613042 0.03613036 -0.01735001 0.04031419 0.02693706 -0.03584998 0.04282069 0.02861183 -0.03285002 0.04156744 0.02777445 -0.03544807 0.04248487 0.02838748 -0.03434997 0.04031419 0.02693706 -0.01585 0.04282069 0.02861183 -0.01884996 0.04156744 0.02777445 -0.01625192 0.04248487 0.02838748 -0.01735001 0.04479473 0.01855456 -0.03584998 0.04757976 0.01970815 -0.03285002 0.04618728 0.01913136 -0.03544807 0.04720664 0.0195536 -0.03434997 0.04479473 0.01855456 -0.01585 0.04757976 0.01970815 -0.01884996 0.04618728 0.01913136 -0.01625192 0.04720664 0.0195536 -0.01735001 0.04755383 0.009459018 -0.03584998 0.0505104 0.01004713 -0.03285002 0.04903215 0.009753048 -0.03544807 0.05011433 0.00996834 -0.03434997 0.04755383 0.009459018 -0.01585 0.0505104 0.01004713 -0.01884996 0.04903215 0.009753048 -0.01625192 0.05011433 0.00996834 -0.01735001 0.04848545 0 -0.03584998 0.05149996 0 -0.03285002 0.04999274 0 -0.03544807 0.05109614 0 -0.03434997 0.04848545 0 -0.01585 0.05149996 0 -0.01884996 0.04999274 0 -0.01625192 0.05109614 0 -0.01735001 0.04755383 -0.009459018 -0.03584998 0.0505104 -0.01004713 -0.03285002 0.04903215 -0.009753048 -0.03544807 0.05011433 -0.00996834 -0.03434997 0.04755383 -0.009459018 -0.01585 0.0505104 -0.01004713 -0.01884996 0.04903215 -0.009753048 -0.01625192 0.05011433 -0.00996834 -0.01735001 0.04479473 -0.01855456 -0.03584998 0.04757976 -0.01970815 -0.03285002 0.04618728 -0.01913136 -0.03544807 0.04720664 -0.0195536 -0.03434997 0.04479473 -0.01855456 -0.01585 0.04757976 -0.01970815 -0.01884996 0.04618728 -0.01913136 -0.01625192 0.04720664 -0.0195536 -0.01735001 0.04031419 -0.02693706 -0.03584998 0.04282069 -0.02861183 -0.03285002 0.04156744 -0.02777445 -0.03544807 0.04248487 -0.02838748 -0.03434997 0.04031419 -0.02693706 -0.01585 0.04282069 -0.02861183 -0.01884996 0.04156744 -0.02777445 -0.01625192 0.04248487 -0.02838748 -0.01735001 0.03428441 -0.03428441 -0.03584998 0.03641599 -0.03641599 -0.03285002 0.0353502 -0.0353502 -0.03544807 0.03613042 -0.03613036 -0.03434997 0.03428441 -0.03428441 -0.01585 0.03641599 -0.03641599 -0.01884996 0.0353502 -0.0353502 -0.01625192 0.03613042 -0.03613036 -0.01735001 0.02693706 -0.04031419 -0.03584998 0.02861183 -0.04282063 -0.03285002 0.02777445 -0.04156744 -0.03544807 0.02838748 -0.04248487 -0.03434997 0.02693706 -0.04031419 -0.01585 0.02861183 -0.04282063 -0.01884996 0.02777445 -0.04156744 -0.01625192 0.02838748 -0.04248487 -0.01735001 0.01855456 -0.04479473 -0.03584998 0.01970815 -0.04757976 -0.03285002 0.01913136 -0.04618722 -0.03544807 0.0195536 -0.04720664 -0.03434997 0.01855456 -0.04479473 -0.01585 0.01970815 -0.04757976 -0.01884996 0.01913136 -0.04618722 -0.01625192 0.0195536 -0.04720664 -0.01735001 0.009459018 -0.04755383 -0.03584998 0.01004713 -0.0505104 -0.03285002 0.009753108 -0.04903209 -0.03544807 0.00996834 -0.05011433 -0.03434997 0.009459018 -0.04755383 -0.01585 0.01004713 -0.0505104 -0.01884996 0.009753108 -0.04903209 -0.01625192 0.00996834 -0.05011433 -0.01735001 0 -0.04848545 -0.03584998 0 -0.05149996 -0.03285002 0 -0.04999274 -0.03544807 0 -0.05109608 -0.03434997 0 -0.04848545 -0.01585 0 -0.05149996 -0.01884996 0 -0.04999274 -0.01625192 0 -0.05109608 -0.01735001 -0.009459018 -0.04755383 -0.03584998 -0.01004713 -0.0505104 -0.03285002 -0.009753108 -0.04903209 -0.03544807 -0.00996834 -0.05011433 -0.03434997 -0.009459018 -0.04755383 -0.01585 -0.01004713 -0.0505104 -0.01884996 -0.009753108 -0.04903209 -0.01625192 -0.00996834 -0.05011433 -0.01735001 -0.01855456 -0.04479473 -0.03584998 -0.01970815 -0.04757976 -0.03285002 -0.01913136 -0.04618722 -0.03544807 -0.0195536 -0.04720664 -0.03434997 -0.01855456 -0.04479473 -0.01585 -0.01970815 -0.04757976 -0.01884996 -0.01913136 -0.04618722 -0.01625192 -0.0195536 -0.04720664 -0.01735001 -0.02693706 -0.04031419 -0.03584998 -0.02861183 -0.04282063 -0.03285002 -0.02777445 -0.04156744 -0.03544807 -0.02838748 -0.04248487 -0.03434997 -0.02693706 -0.04031419 -0.01585 -0.02861183 -0.04282063 -0.01884996 -0.02777445 -0.04156744 -0.01625192 -0.02838748 -0.04248487 -0.01735001 -0.03428441 -0.03428441 -0.03584998 -0.03641599 -0.03641599 -0.03285002 -0.0353502 -0.0353502 -0.03544807 -0.03613042 -0.03613036 -0.03434997 -0.03428441 -0.03428441 -0.01585 -0.03641599 -0.03641599 -0.01884996 -0.0353502 -0.0353502 -0.01625192 -0.03613042 -0.03613036 -0.01735001 -0.04031419 -0.02693706 -0.03584998 -0.04282069 -0.02861183 -0.03285002 -0.04156744 -0.02777445 -0.03544807 -0.04248487 -0.02838748 -0.03434997 -0.04031419 -0.02693706 -0.01585 -0.04282069 -0.02861183 -0.01884996 -0.04156744 -0.02777445 -0.01625192 -0.04248487 -0.02838748 -0.01735001 -0.04479473 -0.01855456 -0.03584998 -0.04757976 -0.01970815 -0.03285002 -0.04618728 -0.01913136 -0.03544807 -0.04720664 -0.0195536 -0.03434997 -0.04479473 -0.01855456 -0.01585 -0.04757976 -0.01970815 -0.01884996 -0.04618728 -0.01913136 -0.01625192 -0.04720664 -0.0195536 -0.01735001 -0.04755383 -0.009459018 -0.03584998 -0.0505104 -0.01004713 -0.03285002 -0.04903215 -0.009753048 -0.03544807 -0.05011433 -0.00996834 -0.03434997 -0.04755383 -0.009459018 -0.01585 -0.0505104 -0.01004713 -0.01884996 -0.04903215 -0.009753048 -0.01625192 -0.05011433 -0.00996834 -0.01735001 -0.04848545 0 -0.03584998 -0.05149996 0 -0.03285002 -0.04999274 0 -0.03544807 -0.05109614 0 -0.03434997 -0.04848545 0 -0.01585 -0.05149996 0 -0.01884996 -0.04999274 0 -0.01625192 -0.05109614 0 -0.01735001 -0.04755383 0.009459018 -0.03584998 -0.0505104 0.01004713 -0.03285002 -0.04903215 0.009753048 -0.03544807 -0.05011433 0.00996834 -0.03434997 -0.04755383 0.009459018 -0.01585 -0.0505104 0.01004713 -0.01884996 -0.04903215 0.009753048 -0.01625192 -0.05011433 0.00996834 -0.01735001 -0.04479473 0.01855456 -0.03584998 -0.04757976 0.01970815 -0.03285002 -0.04618728 0.01913136 -0.03544807 -0.04720664 0.0195536 -0.03434997 -0.04479473 0.01855456 -0.01585 -0.04757976 0.01970815 -0.01884996 -0.04618728 0.01913136 -0.01625192 -0.04720664 0.0195536 -0.01735001 -0.04031419 0.02693706 -0.03584998 -0.04282069 0.02861183 -0.03285002 -0.04156744 0.02777445 -0.03544807 -0.04248487 0.02838748 -0.03434997 -0.04031419 0.02693706 -0.01585 -0.04282069 0.02861183 -0.01884996 -0.04156744 0.02777445 -0.01625192 -0.04248487 0.02838748 -0.01735001 -0.03428441 0.03428441 -0.03584998 -0.03641599 0.03641599 -0.03285002 -0.0353502 0.0353502 -0.03544807 -0.03613042 0.03613036 -0.03434997 -0.03428441 0.03428441 -0.01585 -0.03641599 0.03641599 -0.01884996 -0.0353502 0.0353502 -0.01625192 -0.03613042 0.03613036 -0.01735001 -0.02693706 0.04031419 -0.03584998 -0.02861183 0.04282063 -0.03285002 -0.02777445 0.04156744 -0.03544807 -0.02838748 0.04248487 -0.03434997 -0.02693706 0.04031419 -0.01585 -0.02861183 0.04282063 -0.01884996 -0.02777445 0.04156744 -0.01625192 -0.02838748 0.04248487 -0.01735001 -0.01855456 0.04479473 -0.03584998 -0.01970815 0.04757976 -0.03285002 -0.01913136 0.04618722 -0.03544807 -0.0195536 0.04720664 -0.03434997 -0.01855456 0.04479473 -0.01585 -0.01970815 0.04757976 -0.01884996 -0.01913136 0.04618722 -0.01625192 -0.0195536 0.04720664 -0.01735001 -0.009459018 0.04755383 -0.03584998 -0.01004713 0.0505104 -0.03285002 -0.009753108 0.04903209 -0.03544807 -0.00996834 0.05011433 -0.03434997 -0.009459018 0.04755383 -0.01585 -0.01004713 0.0505104 -0.01884996 -0.009753108 0.04903209 -0.01625192 -0.00996834 0.05011433 -0.01735001 0 0.04949998 -0.01584994 0 0.04949998 0.01614999 0.009656965 0.04854881 -0.01584994 0.009656965 0.04854881 0.01614999 0.01894283 0.04573202 -0.01584994 0.01894283 0.04573202 0.01614999 0.02750068 0.04115772 -0.01584994 0.02750068 0.04115772 0.01614999 0.03500175 0.03500175 -0.01584994 0.03500175 0.03500175 0.01614999 0.04115772 0.02750068 -0.01584994 0.04115772 0.02750068 0.01614999 0.04573202 0.01894283 -0.01584994 0.04573202 0.01894283 0.01614999 0.04854887 0.009656965 -0.01584994 0.04854887 0.009656965 0.01614999 0.04949998 0 -0.01584994 0.04949998 0 0.01614999 0.04854887 -0.009656965 -0.01584994 0.04854887 -0.009656965 0.01614999 0.04573202 -0.01894283 -0.01584994 0.04573202 -0.01894283 0.01614999 0.04115772 -0.02750068 -0.01584994 0.04115772 -0.02750068 0.01614999 0.03500175 -0.03500175 -0.01584994 0.03500175 -0.03500175 0.01614999 0.02750068 -0.04115772 -0.01584994 0.02750068 -0.04115772 0.01614999 0.01894283 -0.04573202 -0.01584994 0.01894283 -0.04573202 0.01614999 0.009656965 -0.04854881 -0.01584994 0.009656965 -0.04854881 0.01614999 0 -0.04949998 -0.01584994 0 -0.04949998 0.01614999 -0.009656965 -0.04854881 -0.01584994 -0.009656965 -0.04854881 0.01614999 -0.01894283 -0.04573202 -0.01584994 -0.01894283 -0.04573202 0.01614999 -0.02750068 -0.04115772 -0.01584994 -0.02750068 -0.04115772 0.01614999 -0.03500175 -0.03500175 -0.01584994 -0.03500175 -0.03500175 0.01614999 -0.04115772 -0.02750068 -0.01584994 -0.04115772 -0.02750068 0.01614999 -0.04573202 -0.01894283 -0.01584994 -0.04573202 -0.01894283 0.01614999 -0.04854887 -0.009656965 -0.01584994 -0.04854887 -0.009656965 0.01614999 -0.04949998 0 -0.01584994 -0.04949998 0 0.01614999 -0.04854887 0.009656965 -0.01584994 -0.04854887 0.009656965 0.01614999 -0.04573202 0.01894283 -0.01584994 -0.04573202 0.01894283 0.01614999 -0.04115772 0.02750068 -0.01584994 -0.04115772 0.02750068 0.01614999 -0.03500175 0.03500175 -0.01584994 -0.03500175 0.03500175 0.01614999 -0.02750068 0.04115772 -0.01584994 -0.02750068 0.04115772 0.01614999 -0.01894283 0.04573202 -0.01584994 -0.01894283 0.04573202 0.01614999 -0.009656965 0.04854881 -0.01584994 -0.009656965 0.04854881 0.01614999 0 0.05149996 0.01914995 0 0.04848545 0.01614999 0 0.04999274 0.01655191 0 0.05109608 0.01765 0 0.04848545 0.03614997 0 0.05149996 0.03315001 0 0.04999274 0.03574806 0 0.05109608 0.03464996 0.009459018 0.04755383 0.01614999 0.01004713 0.0505104 0.01914995 0.009753108 0.04903209 0.01655191 0.00996834 0.05011433 0.01765 0.009459018 0.04755383 0.03614997 0.01004713 0.0505104 0.03315001 0.009753108 0.04903209 0.03574806 0.00996834 0.05011433 0.03464996 0.01855456 0.04479473 0.01614999 0.01970815 0.04757976 0.01914995 0.01913136 0.04618722 0.01655191 0.0195536 0.04720664 0.01765 0.01855456 0.04479473 0.03614997 0.01970815 0.04757976 0.03315001 0.01913136 0.04618722 0.03574806 0.0195536 0.04720664 0.03464996 0.02693706 0.04031419 0.01614999 0.02861183 0.04282063 0.01914995 0.02777445 0.04156744 0.01655191 0.02838748 0.04248487 0.01765 0.02693706 0.04031419 0.03614997 0.02861183 0.04282063 0.03315001 0.02777445 0.04156744 0.03574806 0.02838748 0.04248487 0.03464996 0.03428441 0.03428441 0.01614999 0.03641599 0.03641599 0.01914995 0.0353502 0.0353502 0.01655191 0.03613042 0.03613036 0.01765 0.03428441 0.03428441 0.03614997 0.03641599 0.03641599 0.03315001 0.0353502 0.0353502 0.03574806 0.03613042 0.03613036 0.03464996 0.04031419 0.02693706 0.01614999 0.04282069 0.02861183 0.01914995 0.04156744 0.02777445 0.01655191 0.04248487 0.02838748 0.01765 0.04031419 0.02693706 0.03614997 0.04282069 0.02861183 0.03315001 0.04156744 0.02777445 0.03574806 0.04248487 0.02838748 0.03464996 0.04479473 0.01855456 0.01614999 0.04757976 0.01970815 0.01914995 0.04618728 0.01913136 0.01655191 0.04720664 0.0195536 0.01765 0.04479473 0.01855456 0.03614997 0.04757976 0.01970815 0.03315001 0.04618728 0.01913136 0.03574806 0.04720664 0.0195536 0.03464996 0.04755383 0.009459018 0.01614999 0.0505104 0.01004713 0.01914995 0.04903215 0.009753048 0.01655191 0.05011433 0.00996834 0.01765 0.04755383 0.009459018 0.03614997 0.0505104 0.01004713 0.03315001 0.04903215 0.009753048 0.03574806 0.05011433 0.00996834 0.03464996 0.04848545 0 0.01614999 0.05149996 0 0.01914995 0.04999274 0 0.01655191 0.05109614 0 0.01765 0.04848545 0 0.03614997 0.05149996 0 0.03315001 0.04999274 0 0.03574806 0.05109614 0 0.03464996 0.04755383 -0.009459018 0.01614999 0.0505104 -0.01004713 0.01914995 0.04903215 -0.009753048 0.01655191 0.05011433 -0.00996834 0.01765 0.04755383 -0.009459018 0.03614997 0.0505104 -0.01004713 0.03315001 0.04903215 -0.009753048 0.03574806 0.05011433 -0.00996834 0.03464996 0.04479473 -0.01855456 0.01614999 0.04757976 -0.01970815 0.01914995 0.04618728 -0.01913136 0.01655191 0.04720664 -0.0195536 0.01765 0.04479473 -0.01855456 0.03614997 0.04757976 -0.01970815 0.03315001 0.04618728 -0.01913136 0.03574806 0.04720664 -0.0195536 0.03464996 0.04031419 -0.02693706 0.01614999 0.04282069 -0.02861183 0.01914995 0.04156744 -0.02777445 0.01655191 0.04248487 -0.02838748 0.01765 0.04031419 -0.02693706 0.03614997 0.04282069 -0.02861183 0.03315001 0.04156744 -0.02777445 0.03574806 0.04248487 -0.02838748 0.03464996 0.03428441 -0.03428441 0.01614999 0.03641599 -0.03641599 0.01914995 0.0353502 -0.0353502 0.01655191 0.03613042 -0.03613036 0.01765 0.03428441 -0.03428441 0.03614997 0.03641599 -0.03641599 0.03315001 0.0353502 -0.0353502 0.03574806 0.03613042 -0.03613036 0.03464996 0.02693706 -0.04031419 0.01614999 0.02861183 -0.04282063 0.01914995 0.02777445 -0.04156744 0.01655191 0.02838748 -0.04248487 0.01765 0.02693706 -0.04031419 0.03614997 0.02861183 -0.04282063 0.03315001 0.02777445 -0.04156744 0.03574806 0.02838748 -0.04248487 0.03464996 0.01855456 -0.04479473 0.01614999 0.01970815 -0.04757976 0.01914995 0.01913136 -0.04618722 0.01655191 0.0195536 -0.04720664 0.01765 0.01855456 -0.04479473 0.03614997 0.01970815 -0.04757976 0.03315001 0.01913136 -0.04618722 0.03574806 0.0195536 -0.04720664 0.03464996 0.009459018 -0.04755383 0.01614999 0.01004713 -0.0505104 0.01914995 0.009753108 -0.04903209 0.01655191 0.00996834 -0.05011433 0.01765 0.009459018 -0.04755383 0.03614997 0.01004713 -0.0505104 0.03315001 0.009753108 -0.04903209 0.03574806 0.00996834 -0.05011433 0.03464996 0 -0.04848545 0.01614999 0 -0.05149996 0.01914995 0 -0.04999274 0.01655191 0 -0.05109608 0.01765 0 -0.04848545 0.03614997 0 -0.05149996 0.03315001 0 -0.04999274 0.03574806 0 -0.05109608 0.03464996 -0.009459018 -0.04755383 0.01614999 -0.01004713 -0.0505104 0.01914995 -0.009753108 -0.04903209 0.01655191 -0.00996834 -0.05011433 0.01765 -0.009459018 -0.04755383 0.03614997 -0.01004713 -0.0505104 0.03315001 -0.009753108 -0.04903209 0.03574806 -0.00996834 -0.05011433 0.03464996 -0.01855456 -0.04479473 0.01614999 -0.01970815 -0.04757976 0.01914995 -0.01913136 -0.04618722 0.01655191 -0.0195536 -0.04720664 0.01765 -0.01855456 -0.04479473 0.03614997 -0.01970815 -0.04757976 0.03315001 -0.01913136 -0.04618722 0.03574806 -0.0195536 -0.04720664 0.03464996 -0.02693706 -0.04031419 0.01614999 -0.02861183 -0.04282063 0.01914995 -0.02777445 -0.04156744 0.01655191 -0.02838748 -0.04248487 0.01765 -0.02693706 -0.04031419 0.03614997 -0.02861183 -0.04282063 0.03315001 -0.02777445 -0.04156744 0.03574806 -0.02838748 -0.04248487 0.03464996 -0.03428441 -0.03428441 0.01614999 -0.03641599 -0.03641599 0.01914995 -0.0353502 -0.0353502 0.01655191 -0.03613042 -0.03613036 0.01765 -0.03428441 -0.03428441 0.03614997 -0.03641599 -0.03641599 0.03315001 -0.0353502 -0.0353502 0.03574806 -0.03613042 -0.03613036 0.03464996 -0.04031419 -0.02693706 0.01614999 -0.04282069 -0.02861183 0.01914995 -0.04156744 -0.02777445 0.01655191 -0.04248487 -0.02838748 0.01765 -0.04031419 -0.02693706 0.03614997 -0.04282069 -0.02861183 0.03315001 -0.04156744 -0.02777445 0.03574806 -0.04248487 -0.02838748 0.03464996 -0.04479473 -0.01855456 0.01614999 -0.04757976 -0.01970815 0.01914995 -0.04618728 -0.01913136 0.01655191 -0.04720664 -0.0195536 0.01765 -0.04479473 -0.01855456 0.03614997 -0.04757976 -0.01970815 0.03315001 -0.04618728 -0.01913136 0.03574806 -0.04720664 -0.0195536 0.03464996 -0.04755383 -0.009459018 0.01614999 -0.0505104 -0.01004713 0.01914995 -0.04903215 -0.009753048 0.01655191 -0.05011433 -0.00996834 0.01765 -0.04755383 -0.009459018 0.03614997 -0.0505104 -0.01004713 0.03315001 -0.04903215 -0.009753048 0.03574806 -0.05011433 -0.00996834 0.03464996 -0.04848545 0 0.01614999 -0.05149996 0 0.01914995 -0.04999274 0 0.01655191 -0.05109614 0 0.01765 -0.04848545 0 0.03614997 -0.05149996 0 0.03315001 -0.04999274 0 0.03574806 -0.05109614 0 0.03464996 -0.04755383 0.009459018 0.01614999 -0.0505104 0.01004713 0.01914995 -0.04903215 0.009753048 0.01655191 -0.05011433 0.00996834 0.01765 -0.04755383 0.009459018 0.03614997 -0.0505104 0.01004713 0.03315001 -0.04903215 0.009753048 0.03574806 -0.05011433 0.00996834 0.03464996 -0.04479473 0.01855456 0.01614999 -0.04757976 0.01970815 0.01914995 -0.04618728 0.01913136 0.01655191 -0.04720664 0.0195536 0.01765 -0.04479473 0.01855456 0.03614997 -0.04757976 0.01970815 0.03315001 -0.04618728 0.01913136 0.03574806 -0.04720664 0.0195536 0.03464996 -0.04031419 0.02693706 0.01614999 -0.04282069 0.02861183 0.01914995 -0.04156744 0.02777445 0.01655191 -0.04248487 0.02838748 0.01765 -0.04031419 0.02693706 0.03614997 -0.04282069 0.02861183 0.03315001 -0.04156744 0.02777445 0.03574806 -0.04248487 0.02838748 0.03464996 -0.03428441 0.03428441 0.01614999 -0.03641599 0.03641599 0.01914995 -0.0353502 0.0353502 0.01655191 -0.03613042 0.03613036 0.01765 -0.03428441 0.03428441 0.03614997 -0.03641599 0.03641599 0.03315001 -0.0353502 0.0353502 0.03574806 -0.03613042 0.03613036 0.03464996 -0.02693706 0.04031419 0.01614999 -0.02861183 0.04282063 0.01914995 -0.02777445 0.04156744 0.01655191 -0.02838748 0.04248487 0.01765 -0.02693706 0.04031419 0.03614997 -0.02861183 0.04282063 0.03315001 -0.02777445 0.04156744 0.03574806 -0.02838748 0.04248487 0.03464996 -0.01855456 0.04479473 0.01614999 -0.01970815 0.04757976 0.01914995 -0.01913136 0.04618722 0.01655191 -0.0195536 0.04720664 0.01765 -0.01855456 0.04479473 0.03614997 -0.01970815 0.04757976 0.03315001 -0.01913136 0.04618722 0.03574806 -0.0195536 0.04720664 0.03464996 -0.009459018 0.04755383 0.01614999 -0.01004713 0.0505104 0.01914995 -0.009753108 0.04903209 0.01655191 -0.00996834 0.05011433 0.01765 -0.009459018 0.04755383 0.03614997 -0.01004713 0.0505104 0.03315001 -0.009753108 0.04903209 0.03574806 -0.00996834 0.05011433 0.03464996 -0.001999974 -0.01499998 0.03385001 -0.001999974 -0.01499998 0.03985005 -0.001999974 0.01499998 0.03385001 -0.001999974 0.01499998 0.03985005 0.001999974 -0.01499998 0.03385001 0.001999974 -0.01499998 0.03985005 0.001999974 0.01499998 0.03385001 0.001999974 0.01499998 0.03985005 0.001950442 -0.01500648 0.03385001 0.001950442 -0.01500648 0.03985005 -0.005814135 0.0139712 0.03385001 -0.005814135 0.0139712 0.03985005 0.005814135 -0.0139712 0.03385001 0.005814135 -0.0139712 0.03985005 -0.001950442 0.01500648 0.03385001 -0.001950442 0.01500648 0.03985005 0.005767941 -0.01399034 0.03385001 0.005767941 -0.01399034 0.03985005 -0.009232044 0.01199036 0.03385001 -0.009232044 0.01199036 0.03985005 0.009232044 -0.01199036 0.03385001 0.009232044 -0.01199036 0.03985005 -0.005767941 0.01399034 0.03385001 -0.005767941 0.01399034 0.03985005 0.009192347 -0.01202076 0.03385001 0.009192347 -0.01202076 0.03985005 -0.01202082 0.009192347 0.03385001 -0.01202082 0.009192347 0.03985005 0.01202082 -0.009192347 0.03385001 0.01202082 -0.009192347 0.03985005 -0.009192347 0.01202076 0.03385001 -0.009192347 0.01202076 0.03985005 0.01199036 -0.009232044 0.03385001 0.01199036 -0.009232044 0.03985005 -0.01399034 0.005767941 0.03385001 -0.01399034 0.005767941 0.03985005 0.01399034 -0.005767941 0.03385001 0.01399034 -0.005767941 0.03985005 -0.01199036 0.009232044 0.03385001 -0.01199036 0.009232044 0.03985005 0.0139712 -0.005814135 0.03385001 0.0139712 -0.005814135 0.03985005 -0.01500648 0.001950383 0.03385001 -0.01500648 0.001950383 0.03985005 0.01500648 -0.001950383 0.03385001 0.01500648 -0.001950383 0.03985005 -0.0139712 0.005814135 0.03385001 -0.0139712 0.005814135 0.03985005 0.01499998 -0.001999974 0.03385001 0.01499998 -0.001999974 0.03985005 -0.01499998 -0.001999974 0.03385001 -0.01499998 -0.001999974 0.03985005 0.01499998 0.001999974 0.03385001 0.01499998 0.001999974 0.03985005 -0.01499998 0.001999974 0.03385001 -0.01499998 0.001999974 0.03985005 0.01500648 0.001950383 0.03385001 0.01500648 0.001950383 0.03985005 -0.0139712 -0.005814135 0.03385001 -0.0139712 -0.005814135 0.03985005 0.0139712 0.005814135 0.03385001 0.0139712 0.005814135 0.03985005 -0.01500648 -0.001950383 0.03385001 -0.01500648 -0.001950383 0.03985005 0.01399034 0.005767941 0.03385001 0.01399034 0.005767941 0.03985005 -0.01199036 -0.009232044 0.03385001 -0.01199036 -0.009232044 0.03985005 0.01199036 0.009232044 0.03385001 0.01199036 0.009232044 0.03985005 -0.01399034 -0.005767941 0.03385001 -0.01399034 -0.005767941 0.03985005 0.01202082 0.009192347 0.03385001 0.01202082 0.009192347 0.03985005 -0.009192347 -0.01202076 0.03385001 -0.009192347 -0.01202076 0.03985005 0.009192347 0.01202076 0.03385001 0.009192347 0.01202076 0.03985005 -0.01202082 -0.009192347 0.03385001 -0.01202082 -0.009192347 0.03985005 0.009232044 0.01199036 0.03385001 0.009232044 0.01199036 0.03985005 -0.005767941 -0.01399034 0.03385001 -0.005767941 -0.01399034 0.03985005 0.005767941 0.01399034 0.03385001 0.005767941 0.01399034 0.03985005 -0.009232044 -0.01199036 0.03385001 -0.009232044 -0.01199036 0.03985005 0.005814135 0.0139712 0.03385001 0.005814135 0.0139712 0.03985005 -0.001950442 -0.01500648 0.03385001 -0.001950442 -0.01500648 0.03985005 0.001950442 0.01500648 0.03385001 0.001950442 0.01500648 0.03985005 -0.005814135 -0.0139712 0.03385001 -0.005814135 -0.0139712 0.03985005</float_array>
          <technique_common>
            <accessor source="#lidar-mesh-positions-array" count="672" stride="3">
              <param name="X" type="float"/>
              <param name="Y" type="float"/>
              <param name="Z" type="float"/>
            </accessor>
          </technique_common>
        </source>
        <source id="lidar-mesh-normals">
          <float_array id="lidar-mesh-normals-array" count="2463">0.8029277 -0.3325836 -0.4946669 0.4243562 -0.2835465 -0.8599554 0.4715181 -0.1953094 -0.8599563 0.8244051 0.5508506 -0.1300773 0.8029278 0.3325836 -0.4946669 0.7226128 0.4828343 -0.4946734 -0.1934325 0.9724531 0.1300736 -6.7361e-7 0.9915035 -0.1300801 -0.1934337 0.9724528 -0.1300736 0.1273934 -0.05276852 -0.9904476 0.3608855 0.3608866 0.8599551 0.1146517 0.07660788 0.9904476 0.4243559 0.2835466 0.8599555 0.3794327 0.9160302 0.1300748 0.5508491 0.8244056 -0.13008 0.3794316 0.9160307 -0.1300748 0.4715189 -0.1953093 0.859956 0.1352411 -0.02690142 0.9904475 0.1273965 -0.05276966 0.9904472 0.6145334 0.6145347 0.4946675 0.7226125 0.4828343 0.4946741 0.5508505 0.8244047 0.1300799 0.701099 0.7010996 -0.1300753 0.8523866 -0.1695501 0.4946614 0.8029283 -0.332583 0.4946664 0.8244058 0.5508493 0.1300781 0.7010997 0.7010989 0.1300753 0.9160298 -0.3794329 0.1300771 0.3608865 0.3608864 -0.8599548 0.1146523 0.07660818 -0.9904474 0.0975036 0.0975027 -0.9904475 0.9160297 0.3794333 -0.1300774 0.1352383 -0.0269013 -0.9904479 0.5005593 -0.09956777 -0.8599574 0.6145339 0.6145344 -0.4946672 0.4243558 0.283546 -0.8599559 0.9160304 0.3794317 0.1300771 0.9724525 0.1934332 -0.1300768 0.8523857 -0.1695505 -0.4946627 0.9724527 0.1934329 0.1300758 0.9915046 2.59269e-7 -0.1300725 0.9160302 -0.3794322 -0.1300774 0.9724527 -0.1934329 -0.1300758 0.07660859 0.1146522 0.9904475 0.0975027 0.09750306 0.9904476 0.9915045 -1.90211e-7 0.1300725 0.5005598 -0.09956771 0.8599572 0.1378925 0 0.9904473 0.4828369 0.7226167 0.4946651 0.9724524 -0.1934333 0.1300771 0.5103635 0 0.8599589 0.8244057 -0.5508494 -0.1300782 0.07660949 0.1146538 -0.9904472 0.2835448 0.4243531 -0.8599575 0.8244051 -0.5508505 0.1300771 0.7010999 -0.7010988 -0.1300753 0.1378928 0 -0.9904472 0.5103648 0 -0.8599581 0.4828372 0.722617 -0.4946645 0.7010987 -0.7010998 0.1300753 0.5508502 -0.8244048 -0.13008 0.8690816 -1.28863e-7 -0.4946689 0.5508494 -0.8244054 0.1300799 0.3794329 -0.9160303 -0.1300748 0.2835443 0.4243525 0.8599579 0.05276995 0.127398 0.9904469 0.3794315 -0.9160307 0.1300748 0.1934337 -0.9724528 -0.1300736 0.5005598 0.09956771 0.8599571 0.1953085 0.4715146 0.8599585 0.1934325 -0.9724531 0.1300736 6.7361e-7 -0.9915035 -0.1300801 0.8523859 0.1695505 0.4946624 0.8690812 2.17427e-7 0.4946694 -6.72399e-7 -0.9915035 0.1300801 -0.1934324 -0.9724531 -0.1300736 0.05276995 0.1273953 -0.9904474 0.1953084 0.4715144 -0.8599586 -0.1934338 -0.9724528 0.1300736 -0.3794316 -0.9160307 -0.1300748 0.5005593 0.09956777 -0.8599574 0.1352428 0.02690178 -0.9904472 0.3325842 0.8029271 -0.4946674 -0.3794327 -0.9160302 0.1300748 -0.5508491 -0.8244056 -0.13008 0.8523865 0.1695501 -0.4946615 -0.5508505 -0.8244047 0.1300799 -0.701099 -0.7010996 -0.1300753 0.09956765 0.5005632 0.8599551 -0.7010997 -0.7010989 0.1300753 -0.824405 -0.5508506 -0.1300773 0.4715189 0.1953092 0.859956 0.1352408 0.02690118 0.9904475 0.3325844 0.8029272 0.4946673 -0.8244057 -0.5508493 0.1300781 -0.9160297 -0.3794333 -0.1300774 0.1695502 0.8523831 0.4946673 -0.9160304 -0.3794317 0.1300771 -0.9724525 -0.1934332 -0.1300768 0.09956789 0.5005632 -0.8599551 0.02690118 0.1352422 -0.9904474 -0.9724527 -0.1934329 0.1300758 -0.9915046 -2.59269e-7 -0.1300725 0.4715182 0.1953094 -0.8599564 0.1273936 0.05276858 -0.9904477 0.1695503 0.8523831 -0.4946673 -0.9915045 1.90211e-7 0.1300725 -0.9724527 0.1934329 -0.1300758 0.1934323 0.9724531 -0.1300736 -0.9724524 0.1934333 0.1300771 -0.9160302 0.3794322 -0.1300774 0 0.5103678 0.8599563 0.02690088 0.1352409 0.9904475 -0.9160298 0.3794327 0.1300771 -0.8244057 0.5508494 -0.1300782 0.1273974 0.05277007 0.990447 0 0.8690832 0.4946659 -0.8244051 0.5508505 0.1300771 -0.7010999 0.7010988 -0.1300753 0.8029284 0.332583 0.4946663 0.1934338 0.9724528 0.1300736 -0.7010987 0.7010998 0.1300753 -0.5508502 0.8244048 -0.13008 0 0.5103678 -0.8599563 0 0.1378893 -0.9904477 -0.5508494 0.8244054 0.1300799 -0.3794329 0.9160303 -0.1300748 0 0.8690833 -0.494666 -0.3794315 0.9160307 0.1300748 -0.1273965 0.05276966 0.9904472 -0.05276995 -0.127398 0.9904469 6.72399e-7 0.9915035 0.1300801 0.7226125 -0.4828345 0.4946737 0.4243554 -0.2835462 0.859956 0.1146517 -0.07660788 0.9904475 0.6145339 -0.6145344 -0.4946673 0.7226127 -0.4828342 -0.4946737 0.3608865 -0.3608863 -0.8599547 0.1146544 -0.07661032 -0.990447 0.6145333 -0.6145347 0.4946674 0.3608855 -0.3608866 0.8599551 0.0975027 -0.09750306 0.9904476 0.482837 -0.7226167 -0.494665 0.07660847 -0.1146523 -0.9904475 0.09750282 -0.0975027 -0.9904476 0.4828369 -0.722617 0.4946647 0.2835442 -0.4243531 0.8599576 0.07660853 -0.1146522 0.9904475 0.1953085 -0.4715146 -0.8599585 0.2835445 -0.4243524 -0.8599579 0.05276966 -0.1273955 -0.9904473 0.3325844 -0.8029271 0.4946673 0.1953083 -0.4715144 0.8599586 0.05276989 -0.127398 0.9904469 0.1695502 -0.8523831 -0.4946674 0.3325842 -0.8029271 -0.4946674 0.09956789 -0.5005632 -0.8599551 0.1695502 -0.8523832 0.4946673 0.09956765 -0.5005632 0.8599551 0.02690094 -0.1352409 0.9904475 0 -0.8690832 -0.4946659 0 -0.5103678 -0.8599563 0.02690225 -0.1352477 -0.9904466 0 -0.8690833 0.494666 0 -0.5103678 0.8599563 0 -0.137893 0.9904472 -0.09956794 -0.5005633 -0.8599551 -0.02690118 -0.1352422 -0.9904474 0 -0.1378893 -0.9904477 -0.1695503 -0.8523831 0.4946674 -0.09956765 -0.5005632 0.8599551 -0.02690088 -0.1352409 0.9904475 -0.1695503 -0.8523831 -0.4946674 -0.3325842 -0.8029271 -0.4946674 -0.05276989 -0.1273953 -0.9904473 -0.3325844 -0.8029271 0.4946673 -0.1953085 -0.4715146 0.8599585 -0.4828371 -0.722617 -0.4946644 -0.1953085 -0.4715145 -0.8599586 -0.2835447 -0.4243531 -0.8599576 -0.4828369 -0.7226167 0.494665 -0.2835443 -0.4243526 0.859958 -0.07660859 -0.1146522 0.9904475 -0.3608865 -0.3608864 -0.8599548 -0.07660949 -0.1146538 -0.9904472 -0.6145334 -0.6145347 0.4946675 -0.3608855 -0.3608866 0.859955 -0.0975027 -0.09750306 0.9904476 -0.6145339 -0.6145344 -0.4946672 -0.4243558 -0.283546 -0.8599559 -0.1146523 -0.07660818 -0.9904474 -0.0975036 -0.0975027 -0.9904475 -0.7226125 -0.4828343 0.4946741 -0.4243559 -0.2835466 0.8599555 -0.1146517 -0.07660788 0.9904476 -0.8029278 -0.3325836 -0.4946669 -0.7226128 -0.4828343 -0.4946734 -0.1273936 -0.05276858 -0.9904477 -0.8029283 -0.3325829 0.4946663 -0.4715189 -0.1953093 0.859956 -0.1273974 -0.05277007 0.990447 -0.8523865 -0.1695501 -0.4946615 -0.4715182 -0.1953094 -0.8599563 -0.1352429 -0.02690178 -0.9904472 -0.8523859 -0.1695505 0.4946624 -0.5005598 -0.09956771 0.8599571 -0.1352408 -0.02690118 0.9904475 -0.5103648 0 -0.8599581 -0.5005593 -0.09956777 -0.8599573 -0.1378928 0 -0.9904472 -0.8690812 -2.14928e-7 0.4946694 -0.5103635 0 0.8599588 -0.1378925 0 0.9904473 -0.8690816 1.32456e-7 -0.4946689 -0.8523858 0.1695505 -0.4946627 -0.5005593 0.09956777 -0.8599573 -0.8523866 0.1695501 0.4946613 -0.5005598 0.09956771 0.8599571 -0.1352411 0.02690142 0.9904475 -0.4715182 0.1953094 -0.8599563 -0.1352383 0.0269013 -0.9904479 -0.8029283 0.3325829 0.4946663 -0.4715189 0.1953093 0.859956 -0.8029278 0.3325836 -0.4946669 -0.4243562 0.2835465 -0.8599554 -0.1273934 0.05276852 -0.9904476 -0.7226125 0.4828345 0.4946737 -0.4243554 0.2835462 0.859956 -0.1146517 0.07660788 0.9904475 -0.6145339 0.6145344 -0.4946673 -0.7226127 0.4828342 -0.4946737 -0.3608865 0.3608863 -0.8599547 -0.1146544 0.07661032 -0.990447 -0.6145333 0.6145347 0.4946674 -0.3608855 0.3608866 0.8599551 -0.0975027 0.09750306 0.9904476 -0.482837 0.7226167 -0.494665 -0.07660847 0.1146523 -0.9904475 -0.09750282 0.0975027 -0.9904476 -0.4828369 0.722617 0.4946647 -0.2835442 0.4243531 0.8599576 -0.07660853 0.1146522 0.9904475 -0.1953085 0.4715146 -0.8599585 -0.2835445 0.4243524 -0.8599579 -0.05276966 0.1273955 -0.9904473 -0.3325844 0.8029271 0.4946673 -0.1953083 0.4715144 0.8599586 -0.05276989 0.127398 0.9904469 -0.1695502 0.8523831 -0.4946674 -0.3325842 0.8029271 -0.4946674 -0.09956789 0.5005632 -0.8599551 -0.1695502 0.8523832 0.4946673 -0.09956765 0.5005632 0.8599551 -0.02690094 0.1352409 0.9904475 -0.02690225 0.1352477 -0.9904466 0 0.137893 0.9904472 -2.44032e-6 1 0 0.1950926 0.9807848 0 2.44032e-6 1 0 0.1950879 0.9807858 0 0.3826858 0.9238787 0 0.3826813 0.9238804 0 0.5555723 0.8314684 0 0.5555683 0.831471 0 0.7071082 0.7071055 0 0.7071046 0.707109 0 0.8314709 0.5555686 0 0.8314679 0.5555731 0 0.9238806 0.382681 0 0.9238787 0.3826858 0 0.980786 0.1950868 0 0.9807852 0.1950913 0 1 -2.13528e-6 0 1 2.13528e-6 0 0.9807852 -0.1950913 0 0.980786 -0.1950868 0 0.9238787 -0.3826858 0 0.9238806 -0.3826811 0 0.8314678 -0.5555731 0 0.8314707 -0.5555686 0 0.7071046 -0.707109 0 0.7071082 -0.7071055 0 0.5555683 -0.831471 0 0.5555723 -0.8314682 0 0.3826814 -0.9238804 0 0.3826858 -0.9238787 0 0.1950879 -0.9807858 0 0.1950926 -0.9807848 0 -2.44032e-6 -1 0 2.44032e-6 -1 0 -0.1950926 -0.9807848 0 -0.1950879 -0.9807858 0 -0.3826858 -0.9238787 0 -0.3826813 -0.9238804 0 -0.5555723 -0.8314684 0 -0.5555683 -0.831471 0 -0.7071082 -0.7071055 0 -0.7071046 -0.707109 0 -0.8314709 -0.5555686 0 -0.8314679 -0.5555731 0 -0.9238806 -0.382681 0 -0.9238787 -0.3826858 0 -0.980786 -0.1950868 0 -0.9807852 -0.1950913 0 -1 2.13528e-6 0 -1 -2.13528e-6 0 -0.9807852 0.1950913 0 -0.980786 0.1950868 0 -0.9238787 0.3826858 0 -0.9238806 0.3826811 0 -0.8314678 0.5555731 0 -0.8314707 0.5555686 0 -0.7071046 0.707109 0 -0.7071082 0.7071055 0 -0.5555683 0.831471 0 -0.5555723 0.8314682 0 -0.3826814 0.9238804 0 0 0 1 0 0 1 0 0 1 -0.3826858 0.9238787 0 -0.1950879 0.9807858 0 -0.1950926 0.9807848 0 0 0 -1 0 0 -1 0 0 -1 0.8029284 -0.332583 -0.4946663 0.4243558 -0.2835466 -0.8599556 0.4715193 -0.1953092 -0.8599559 0.8244051 0.5508505 -0.1300771 0.8029282 0.332583 -0.4946663 0.7226125 0.4828344 -0.4946737 -0.1934325 0.9724529 0.1300736 -6.71187e-7 0.9915035 -0.1300801 -0.1934337 0.9724527 -0.1300736 0.1273943 -0.05276852 -0.9904475 0.3608856 0.3608866 0.859955 0.1146519 0.07660788 0.9904475 0.424356 0.2835465 0.8599554 0.3794327 0.9160302 0.1300748 0.5508496 0.8244052 -0.1300799 0.3794316 0.9160307 -0.1300748 0.4715195 -0.1953093 0.8599557 0.1352393 -0.02690142 0.9904478 0.1273976 -0.05276966 0.990447 0.6145331 0.6145348 0.4946677 0.7226127 0.4828342 0.4946737 0.5508508 0.8244044 0.1300799 0.701099 0.7010996 -0.1300752 0.8523866 -0.1695501 0.4946615 0.8029283 -0.3325829 0.4946663 0.8244056 0.5508494 0.1300782 0.9160299 -0.3794327 0.1300771 0.3608853 0.3608866 -0.859955 0.1146513 0.07660818 -0.9904476 0.09750324 0.0975027 -0.9904477 0.9160299 0.3794329 -0.1300772 0.13524 -0.0269013 -0.9904477 0.5005591 -0.09956777 -0.8599575 0.6145336 0.6145346 -0.4946675 0.4243553 0.2835462 -0.8599559 0.9160305 0.3794316 0.1300771 0.9724524 0.1934332 -0.130077 0.8523858 -0.1695505 -0.4946626 0.9724527 0.1934329 0.1300758 0.9915045 1.85819e-7 -0.1300725 0.9160304 -0.3794318 -0.1300772 0.9724527 -0.1934329 -0.1300758 0.07660865 0.1146522 0.9904475 0.097503 0.09750306 0.9904476 0.9915045 -2.6048e-7 0.1300725 0.5005587 -0.09956783 0.8599578 0.1378942 0 0.9904471 0.4828376 0.7226164 0.4946649 0.9724525 -0.1934332 0.1300768 0.5103648 0 0.8599581 0.8244057 -0.5508493 -0.1300781 0.07660943 0.1146538 -0.9904472 0.2835443 0.4243531 -0.8599576 0.8244049 -0.5508506 0.1300772 0.7011 -0.7010986 -0.1300752 0.1378928 0 -0.9904472 0.5103642 0 -0.8599584 0.4828373 0.7226169 -0.4946646 0.7010988 -0.7010998 0.1300753 0.5508506 -0.8244046 -0.1300799 0.8690812 -2.17427e-7 -0.4946694 0.5508497 -0.8244051 0.1300799 0.3794327 -0.9160302 -0.1300748 0.2835448 0.4243524 0.8599577 0.05276983 0.127398 0.9904469 0.3794314 -0.9160307 0.1300748 0.1934338 -0.9724528 -0.1300736 0.5005587 0.09956783 0.8599578 0.1953083 0.4715146 0.8599586 0.1934325 -0.9724529 0.1300736 6.71187e-7 -0.9915035 -0.1300801 0.8523858 0.1695505 0.4946626 0.8690816 1.28863e-7 0.4946689 -6.74822e-7 -0.9915035 0.1300801 -0.1934325 -0.9724531 -0.1300736 0.0527693 0.1273953 -0.9904473 0.1953083 0.4715145 -0.8599586 -0.1934339 -0.9724527 0.1300736 -0.3794315 -0.9160307 -0.1300748 0.5005591 0.09956777 -0.8599575 0.1352426 0.02690184 -0.9904474 0.3325842 0.8029271 -0.4946674 -0.3794327 -0.9160302 0.1300748 -0.5508496 -0.8244052 -0.1300799 0.8523865 0.1695501 -0.4946615 -0.5508508 -0.8244044 0.1300799 -0.701099 -0.7010996 -0.1300752 0.09956771 0.5005632 0.8599551 -0.8244051 -0.5508505 -0.1300771 0.4715195 0.1953092 0.8599557 0.1352376 0.02690118 0.990448 0.3325843 0.8029272 0.4946673 -0.8244056 -0.5508494 0.1300782 -0.9160299 -0.3794329 -0.1300772 0.1695505 0.852383 0.4946673 -0.9160305 -0.3794316 0.1300771 -0.9724524 -0.1934332 -0.130077 0.09956783 0.5005632 -0.8599551 0.02690106 0.1352422 -0.9904474 -0.9724527 -0.1934329 0.1300758 -0.9915045 -1.85819e-7 -0.1300725 0.4715193 0.1953092 -0.8599559 0.1273938 0.05276852 -0.9904475 0.1695504 0.852383 -0.4946673 -0.9915045 2.6048e-7 0.1300725 -0.9724527 0.1934329 -0.1300758 0.1934325 0.9724531 -0.1300736 -0.9724525 0.1934332 0.1300768 -0.9160303 0.3794317 -0.1300772 0 0.5103678 0.8599563 0.026901 0.1352409 0.9904475 -0.9160299 0.3794327 0.130077 -0.8244057 0.5508493 -0.1300781 0.1273986 0.05277007 0.9904469 -0.8244049 0.5508506 0.1300772 -0.7011 0.7010986 -0.1300752 0.8029284 0.3325829 0.4946663 0.1934339 0.9724527 0.1300736 -0.7010988 0.7010998 0.1300753 -0.5508506 0.8244046 -0.1300799 -0.5508497 0.8244051 0.1300799 -0.3794327 0.9160302 -0.1300748 0 0.8690833 -0.494666 -0.3794314 0.9160307 0.1300748 -0.1273975 0.05276966 0.990447 -0.05276983 -0.127398 0.9904469 6.74822e-7 0.9915035 0.1300801 0.7226128 -0.4828343 0.4946734 0.4243555 -0.283546 0.8599559 0.1146519 -0.07660788 0.9904475 0.6145336 -0.6145345 -0.4946675 0.7226124 -0.4828343 -0.494674 0.3608854 -0.3608866 -0.859955 0.1146544 -0.07661032 -0.990447 0.6145331 -0.6145349 0.4946677 0.3608856 -0.3608866 0.8599549 0.09750401 -0.09750306 0.9904475 0.4828368 -0.7226168 -0.4946652 0.07660853 -0.1146523 -0.9904474 0.09750324 -0.0975027 -0.9904477 0.4828378 -0.7226167 0.4946644 0.2835451 -0.424353 0.8599574 0.07660883 -0.1146521 0.9904475 0.1953085 -0.4715146 -0.8599585 0.2835437 -0.4243527 -0.8599581 0.05276948 -0.1273955 -0.9904474 0.3325843 -0.8029271 0.4946673 0.195308 -0.4715145 0.8599587 0.05276954 -0.1273979 0.9904469 0.1695504 -0.852383 -0.4946673 0.3325842 -0.8029271 -0.4946674 0.09956783 -0.5005632 -0.8599551 0.1695505 -0.852383 0.4946674 0.09956771 -0.5005632 0.8599551 0.02690118 -0.1352409 0.9904475 0.02690213 -0.1352477 -0.9904466 0 -0.8690833 0.494666 0 -0.137893 0.9904472 -0.09956783 -0.5005632 -0.8599551 -0.02690106 -0.1352422 -0.9904474 -0.1695505 -0.852383 0.4946673 -0.09956771 -0.5005632 0.8599551 -0.026901 -0.1352409 0.9904475 -0.1695504 -0.852383 -0.4946674 -0.3325842 -0.8029271 -0.4946674 -0.0527693 -0.1273953 -0.9904473 -0.3325843 -0.8029271 0.4946672 -0.1953083 -0.4715146 0.8599586 -0.4828373 -0.7226169 -0.4946646 -0.1953083 -0.4715144 -0.8599586 -0.2835443 -0.4243531 -0.8599578 -0.4828377 -0.7226164 0.4946649 -0.2835448 -0.4243524 0.8599578 -0.07660865 -0.1146522 0.9904475 -0.3608853 -0.3608866 -0.859955 -0.07660943 -0.1146538 -0.9904472 -0.6145331 -0.6145349 0.4946677 -0.3608856 -0.3608866 0.8599549 -0.097503 -0.09750306 0.9904476 -0.6145336 -0.6145345 -0.4946675 -0.4243553 -0.2835462 -0.8599559 -0.1146513 -0.07660818 -0.9904476 -0.09750324 -0.0975027 -0.9904477 -0.7226127 -0.4828342 0.4946737 -0.424356 -0.2835465 0.8599556 -0.1146519 -0.07660788 0.9904475 -0.8029282 -0.332583 -0.4946663 -0.7226125 -0.4828344 -0.4946737 -0.1273938 -0.05276852 -0.9904475 -0.8029284 -0.3325829 0.4946663 -0.4715195 -0.1953092 0.8599557 -0.1273986 -0.05277007 0.9904469 -0.8523866 -0.1695501 -0.4946616 -0.4715193 -0.1953092 -0.8599559 -0.1352426 -0.02690184 -0.9904473 -0.8523858 -0.1695505 0.4946627 -0.5005587 -0.09956783 0.8599578 -0.1352376 -0.02690118 0.990448 -0.5103642 0 -0.8599584 -0.5005592 -0.09956777 -0.8599576 -0.1378928 0 -0.9904472 -0.8690816 -1.32456e-7 0.4946689 -0.5103648 0 0.859958 -0.1378942 0 0.9904471 -0.8690812 2.14928e-7 -0.4946694 -0.8523858 0.1695505 -0.4946626 -0.5005592 0.09956777 -0.8599576 -0.8523867 0.1695501 0.4946615 -0.5005587 0.09956783 0.8599578 -0.1352393 0.02690142 0.9904478 -0.4715193 0.1953092 -0.8599558 -0.13524 0.0269013 -0.9904477 -0.8029283 0.3325829 0.4946663 -0.4715195 0.1953092 0.8599557 -0.8029283 0.332583 -0.4946664 -0.4243558 0.2835466 -0.8599556 -0.1273943 0.05276852 -0.9904475 -0.7226128 0.4828343 0.4946734 -0.4243555 0.283546 0.8599559 -0.1146519 0.07660788 0.9904475 -0.6145336 0.6145345 -0.4946675 -0.7226124 0.4828343 -0.494674 -0.3608854 0.3608866 -0.859955 -0.1146544 0.07661032 -0.990447 -0.6145331 0.6145349 0.4946677 -0.3608856 0.3608866 0.8599549 -0.09750401 0.09750306 0.9904475 -0.4828368 0.7226168 -0.4946652 -0.07660853 0.1146523 -0.9904474 -0.09750324 0.0975027 -0.9904477 -0.4828378 0.7226167 0.4946644 -0.2835451 0.424353 0.8599574 -0.07660883 0.1146521 0.9904475 -0.1953085 0.4715146 -0.8599585 -0.2835437 0.4243527 -0.8599581 -0.05276948 0.1273955 -0.9904474 -0.3325843 0.8029271 0.4946673 -0.195308 0.4715145 0.8599587 -0.05276954 0.1273979 0.9904469 -0.1695504 0.852383 -0.4946673 -0.3325842 0.8029271 -0.4946674 -0.09956783 0.5005632 -0.8599551 -0.1695505 0.852383 0.4946674 -0.09956771 0.5005632 0.8599551 -0.02690118 0.1352409 0.9904475 -0.02690213 0.1352477 -0.9904466 0 0.137893 0.9904472 -1 0 0 0 1 0 1 0 0 0 -1 0 0 0 1 -0.9659258 -0.2588192 0 -0.9659258 -0.2588192 0 -0.9659259 -0.2588192 0 -0.25882 0.9659256 0 -0.2588199 0.9659256 0 -0.2588198 0.9659257 0 0.9659258 0.2588192 0 0.9659258 0.2588192 0 0.9659259 0.2588192 0 0.25882 -0.9659256 0 0.2588199 -0.9659256 0 0.2588198 -0.9659257 0 0 0 -1 5.55179e-7 0 -1 6.06331e-7 0 -1 0 0 1 0 0 1 -0.8660257 -0.4999996 0 -0.8660257 -0.4999995 0 -0.5 0.8660254 0 -0.4999999 0.8660255 0 -0.4999998 0.8660256 0 0.8660257 0.4999996 0 0.8660257 0.4999995 0 0.5 -0.8660254 0 0.4999999 -0.8660255 0 0.4999998 -0.8660256 0 0 0 -1 0 0 -1 -1.21266e-7 0 -1 -1.67426e-6 0 1 9.46667e-7 0 1 -1.94026e-6 0 1 -0.7071068 -0.7071068 0 -0.7071066 -0.707107 0 -0.7071068 -0.7071067 0 -0.707104 0.7071096 0 -0.707104 0.7071096 0 -0.7071041 0.7071096 0 0.7071068 0.7071068 0 0.7071066 0.707107 0 0.7071068 0.7071067 0 0.707104 -0.7071096 0 0.707104 -0.7071096 0 0.7071041 -0.7071096 0 0 0 -1 0 0 -1 0 0 1 0 0 1 1.21266e-7 0 1 -0.5000001 -0.8660254 0 -0.5000001 -0.8660254 0 -0.8660251 0.5000008 0 -0.8660249 0.5000008 0 -0.8660249 0.5000011 0 0.5000001 0.8660254 0 0.5000001 0.8660254 0 0.8660251 -0.5000008 0 0.8660249 -0.5000008 0 0.8660249 -0.5000011 0 0 0 1 4.44142e-7 0 1 4.85064e-7 0 1 -0.2588194 -0.9659258 0 -0.2588194 -0.9659258 0 -0.2588194 -0.9659258 0 -0.9659261 0.2588182 0 -0.965926 0.2588184 0 -0.9659259 0.2588188 0 0.2588194 0.9659258 0 0.2588194 0.9659258 0 0.2588194 0.9659258 0 0.9659261 -0.2588182 0 0.965926 -0.2588184 0 0.9659259 -0.2588188 0 -4.0322e-7 0 1 4.0322e-7 0 1 -4.85064e-7 0 1 0 -1 0 0 -1 0 0 1 0 0 1 0 0 0 -1 -2.10122e-7 0 -1 1.41638e-7 0 -1 0 0 1 -2.09303e-7 0 1 1.51338e-7 0 1 0.2588191 -0.9659258 0 0.2588191 -0.9659259 0 0.2588191 -0.9659259 0 -0.9659261 -0.2588185 0 -0.9659261 -0.2588182 0 -0.9659262 -0.2588179 0 -0.2588191 0.9659258 0 -0.2588191 0.9659259 0 -0.2588191 0.9659259 0 0.9659261 0.2588185 0 0.9659261 0.2588182 0 0.9659262 0.2588179 0 4.23681e-7 0 -1 -1.81149e-7 0 -1 4.85064e-7 0 -1 -4.23681e-7 0 1 1.81149e-7 0 1 2.42532e-7 0 1 0.5000005 -0.8660252 0 0.5000002 -0.8660253 0 0.5000005 -0.8660251 0 -0.866025 -0.5000008 0 -0.866025 -0.5000008 0 -0.8660252 -0.5000006 0 -0.5000005 0.8660252 0 -0.5000002 0.8660253 0 -0.5000005 0.8660251 0 0.866025 0.5000008 0 0.866025 0.5000008 0 0.8660252 0.5000006 0 8.269e-7 0 -1 -5.84368e-7 0 -1 -7.27596e-7 0 -1 0 0 1 2.22071e-7 0 1 0.7071068 -0.7071068 0 0.7071068 -0.7071067 0 -0.707104 -0.7071096 0 -0.707104 -0.7071096 0 -0.7071039 -0.7071097 0 -0.7071068 0.7071068 0 -0.7071068 0.7071067 0 0.707104 0.7071096 0 0.707104 0.7071096 0 0.7071039 0.7071097 0 -8.16666e-7 0 -1 6.95401e-7 0 -1 8.48859e-7 0 -1 0 0 1 0 0 1 0.8660256 -0.4999998 0 0.8660258 -0.4999997 0 0.8660255 -0.4999998 0 -0.5000001 -0.8660255 0 -0.4999999 -0.8660255 0 -0.4999997 -0.8660256 0 -0.8660256 0.4999998 0 -0.8660258 0.4999997 0 -0.8660255 0.4999998 0 0.5000001 0.8660255 0 0.4999999 0.8660255 0 0.4999997 0.8660256 0 0 0 -1 0 0 -1 0 0 1 2.22071e-7 0 1 2.42532e-7 0 1 0.9659258 -0.2588193 0 0.9659258 -0.2588195 0 0.9659259 -0.2588192 0 -0.2588195 -0.9659258 0 -0.2588195 -0.9659257 0 -0.9659258 0.2588193 0 -0.9659258 0.2588195 0 -0.9659259 0.2588192 0 0.2588195 0.9659258 0 0.2588195 0.9659257 0 0 0 -1 -3.88625e-7 0 -1 0 0 1 -5.55179e-7 0 1 -6.06331e-7 0 1 0 0 1 7.9216e-7 0 1 0 0 1 0 0 1 -1.5843e-6 0 1 -2.10496e-7 0 1 0 0 1 0 0 1 -7.9216e-7 0 1 0 0 1 1.5843e-6 0 1 2.10496e-7 0 1 0 0 1 0 0 -1 -5.09081e-7 0 -1 0 0 -1 0 0 -1 -1.5843e-6 0 -1 1.01817e-6 0 -1 -2.64638e-7 0 -1 0 0 -1 0 0 -1 5.09081e-7 0 -1 0 0 -1 1.5843e-6 0 -1 -1.01817e-6 0 -1 2.64638e-7 0 -1 0 0 -1 0 0 -1 -0.9659259 -0.2588192 0 -0.2588201 0.9659255 0 0.9659259 0.2588192 0 0.2588201 -0.9659255 0 0 0 1 -0.8660257 -0.4999995 0 -0.5000001 0.8660255 0 0.8660257 0.4999995 0 0.5000001 -0.8660255 0 1.21266e-6 0 1 -0.7071065 -0.7071071 0 -0.7071039 0.7071097 0 0.7071065 0.7071071 0 0.7071039 -0.7071097 0 -1.21266e-7 0 -1 -0.8660252 0.5000006 0 0.8660252 -0.5000006 0 -0.9659262 0.2588179 0 0.9659262 -0.2588179 0 4.85064e-7 0 1 -2.42532e-7 0 -1 -2.42532e-7 0 1 -0.9659259 -0.2588188 0 0.9659259 0.2588188 0 -4.85064e-7 0 1 0.5000001 -0.8660254 0 -0.8660249 -0.5000011 0 -0.5000001 0.8660254 0 0.8660249 0.5000011 0 9.70128e-7 0 -1 2.42532e-7 0 1 -0.7071041 -0.7071096 0 0.7071041 0.7071096 0 -9.70124e-7 0 -1 1.21265e-7 0 1 0.8660257 -0.4999996 0 -0.5000002 -0.8660253 0 -0.8660257 0.4999996 0 0.5000002 0.8660253 0 0.9659257 -0.2588195 0 -0.2588193 -0.9659259 0 -0.9659257 0.2588195 0 0.2588193 0.9659259 0 -4.24432e-7 0 -1</float_array>
          <technique_common>
            <accessor source="#lidar-mesh-normals-array" count="821" stride="3">
              <param name="X" type="float"/>
              <param name="Y" type="float"/>
              <param name="Z" type="float"/>
            </accessor>
          </technique_common>
        </source>
        <vertices id="lidar-mesh-vertices">
          <input semantic="POSITION" source="#lidar-mesh-positions"/>
        </vertices>
        <triangles material="aluminium-material" count="1160">
          <input semantic="VERTEX" source="#lidar-mesh-vertices" offset="0"/>
          <input semantic="NORMAL" source="#lidar-mesh-normals" offset="1"/>
          <p>83 0 90 1 82 2 41 3 51 4 43 5 253 6 0 7 249 8 90 1 80 9 82 2 38 10 44 11 46 12 21 13 25 14 17 15 86 16 76 17 84 18 39 19 46 12 47 20 29 21 33 22 25 14 79 23 86 16 87 24 45 25 39 19 47 20 37 26 41 3 33 22 85 27 79 23 87 24 34 28 40 29 32 30 45 25 49 31 41 3 82 2 72 32 74 33 35 34 42 35 34 28 53 36 57 37 49 31 75 38 82 2 74 33 41 3 35 34 33 22 61 39 65 40 57 37 81 41 75 38 73 42 38 10 28 43 36 44 69 45 73 42 65 40 78 46 68 47 76 17 31 48 38 10 39 19 77 49 81 41 73 42 79 23 70 50 78 46 37 26 31 48 39 19 85 27 89 51 81 41 69 45 79 23 77 49 34 28 24 52 26 53 93 54 97 55 89 51 74 33 64 56 66 57 27 58 34 28 26 53 101 59 105 60 97 55 75 38 66 57 67 61 33 22 27 58 25 14 109 62 113 63 105 60 73 42 67 61 65 40 30 64 20 65 28 43 117 66 121 67 113 63 62 68 68 47 70 50 31 48 22 69 30 64 125 70 129 71 121 67 63 72 70 50 71 73 21 13 31 48 29 21 133 74 137 75 129 71 61 39 71 73 69 45 26 53 16 76 18 77 141 78 145 79 137 75 58 80 64 56 56 81 27 58 18 77 19 82 149 83 153 84 145 79 59 85 66 57 58 80 17 15 27 58 19 82 157 86 161 87 153 84 65 40 59 85 57 37 14 88 20 65 22 69 165 89 169 90 161 87 54 91 60 92 62 68 23 93 14 88 22 69 173 94 177 95 169 90 63 72 54 91 62 68 21 13 15 96 23 93 181 97 185 98 177 95 53 36 63 72 61 39 10 99 16 76 8 100 189 101 193 102 185 98 50 103 56 81 48 104 19 82 10 99 11 105 197 106 201 107 193 102 59 85 50 103 51 4 17 15 11 105 9 108 205 109 209 110 201 107 49 31 59 85 51 4 6 111 12 112 14 88 213 113 217 114 209 110 46 12 52 115 54 91 7 116 14 88 15 96 221 117 225 118 217 114 55 119 46 12 54 91 13 120 7 116 15 96 229 121 233 122 225 118 45 25 55 119 53 36 2 123 8 100 1 124 237 125 241 126 233 122 42 35 48 104 40 29 3 127 10 99 2 123 245 128 249 8 241 126 13 120 17 15 9 108 9 108 3 127 0 7 89 51 83 0 81 41 51 4 42 35 43 5 212 129 148 130 84 18 5 131 9 108 0 7 93 54 87 24 95 132 87 24 94 133 95 132 94 133 84 18 92 134 89 51 99 135 91 136 99 135 90 1 91 136 98 137 88 138 90 1 93 54 103 139 101 59 103 139 94 133 102 140 102 140 92 134 100 141 97 55 107 142 99 135 107 142 98 137 99 135 98 137 104 143 96 144 101 59 111 145 109 62 111 145 102 140 110 146 102 140 108 147 110 146 113 63 107 142 105 60 107 142 114 148 106 149 106 149 112 150 104 143 117 66 111 145 119 151 111 145 118 152 119 151 110 146 116 153 118 152 113 63 123 154 115 155 115 155 122 156 114 148 122 156 112 150 114 148 117 66 127 157 125 70 119 151 126 158 127 157 126 158 116 153 124 159 121 67 131 160 123 154 131 160 122 156 123 154 130 161 120 162 122 156 125 70 135 163 133 74 135 163 126 158 134 164 134 164 124 159 132 165 137 75 131 160 129 71 131 160 138 166 130 161 130 161 136 167 128 168 141 78 135 163 143 169 135 163 142 170 143 169 134 164 140 171 142 170 145 79 139 172 137 75 147 173 138 166 139 172 138 166 144 174 136 167 149 83 143 169 151 175 151 175 142 170 150 176 142 170 148 130 150 176 145 79 155 177 147 173 155 177 146 178 147 173 154 179 144 174 146 178 149 83 159 180 157 86 159 180 150 176 158 181 158 181 148 130 156 182 161 87 155 177 153 84 155 177 162 183 154 179 162 183 152 184 154 179 165 89 159 180 167 185 159 180 166 186 167 185 166 186 156 182 164 187 169 90 163 188 161 87 163 188 170 189 162 183 162 183 168 190 160 191 173 94 167 185 175 192 167 185 174 193 175 192 166 186 172 194 174 193 169 90 179 195 171 196 179 195 170 189 171 196 170 189 176 197 168 190 173 94 183 198 181 97 183 198 174 193 182 199 174 193 180 200 182 199 177 95 187 201 179 195 187 201 178 202 179 195 178 202 184 203 176 197 181 97 191 204 189 101 191 204 182 199 190 205 182 199 188 206 190 205 193 102 187 201 185 98 187 201 194 207 186 208 186 208 192 209 184 203 189 101 199 210 197 106 191 204 198 211 199 210 190 205 196 212 198 211 201 107 195 213 193 102 203 214 194 207 195 213 202 215 192 209 194 207 197 106 207 216 205 109 207 216 198 211 206 217 206 217 196 212 204 218 209 110 203 214 201 107 203 214 210 219 202 215 210 219 200 220 202 215 213 113 207 216 215 221 207 216 214 222 215 221 214 222 204 218 212 129 217 114 211 223 209 110 211 223 218 224 210 219 218 224 208 225 210 219 221 117 215 221 223 226 215 221 222 227 223 226 222 227 212 129 220 228 217 114 227 229 219 230 227 229 218 224 219 230 226 231 216 232 218 224 221 117 231 233 229 121 231 233 222 227 230 234 230 234 220 228 228 235 225 118 235 236 227 229 235 236 226 231 227 229 226 231 232 237 224 238 229 121 239 239 237 125 239 239 230 234 238 240 230 234 236 241 238 240 241 126 235 236 233 122 235 236 242 242 234 243 234 243 240 244 232 237 245 128 239 239 247 245 239 239 246 246 247 245 238 240 244 247 246 246 241 126 251 248 243 249 243 249 250 250 242 242 250 250 240 244 242 242 245 128 255 251 253 6 247 245 254 252 255 251 254 252 244 247 252 253 249 8 3 127 251 248 3 127 250 250 251 248 2 123 248 254 250 250 253 6 7 116 5 131 7 116 254 252 6 111 6 111 252 253 4 255 184 203 216 232 248 254 403 326 410 327 402 328 361 329 371 330 363 331 573 332 320 333 569 334 410 327 400 335 402 328 358 336 364 337 366 338 341 339 345 340 337 341 406 342 396 343 404 344 359 345 366 338 367 346 349 347 353 348 345 340 399 349 406 342 407 350 365 351 359 345 367 346 357 26 361 329 353 348 405 352 399 349 407 350 354 353 360 354 352 355 365 351 369 356 361 329 402 328 392 357 394 358 355 359 362 360 354 353 373 361 377 362 369 356 395 363 402 328 394 358 361 329 355 359 353 348 381 364 385 365 377 362 401 366 395 363 393 367 358 336 348 368 356 369 389 370 393 367 385 365 398 371 388 372 396 343 351 373 358 336 359 345 397 374 401 366 393 367 399 349 390 375 398 371 357 26 351 373 359 345 405 352 409 376 401 366 389 370 399 349 397 374 354 353 344 377 346 378 413 379 417 380 409 376 394 358 384 381 386 382 347 383 354 353 346 378 421 384 425 385 417 380 395 363 386 382 387 386 353 348 347 383 345 340 429 387 433 388 425 385 393 367 387 386 385 365 350 389 340 390 348 368 437 391 441 392 433 388 382 393 388 372 390 375 351 373 342 394 350 389 445 395 449 396 441 392 383 397 390 375 391 398 341 339 351 373 349 347 453 399 457 400 449 396 381 364 391 398 389 370 346 378 336 401 338 402 461 403 465 404 457 400 378 405 384 381 376 406 347 383 338 402 339 407 469 408 473 409 465 404 379 410 386 382 378 405 337 341 347 383 339 407 477 411 481 412 473 409 385 365 379 410 377 362 334 413 340 390 342 394 485 89 489 414 481 412 374 415 380 416 382 393 343 417 334 413 342 394 493 418 497 419 489 414 383 397 374 415 382 393 341 339 335 420 343 417 501 421 505 422 497 419 373 361 383 397 381 364 330 423 336 401 328 424 509 425 513 426 505 422 370 427 376 406 368 428 339 407 330 423 331 429 517 430 521 431 513 426 379 410 370 427 371 330 337 341 331 429 329 432 525 433 529 434 521 431 369 356 379 410 371 330 326 435 332 436 334 413 533 437 537 438 529 434 366 338 372 439 374 415 327 116 334 413 335 420 541 440 545 441 537 438 375 442 366 338 374 415 333 443 327 116 335 420 549 444 553 445 545 441 365 351 375 442 373 361 322 123 328 424 321 124 557 446 561 447 553 445 362 360 368 428 360 354 323 448 330 423 322 123 565 449 569 334 561 447 333 443 337 341 329 432 329 432 323 448 320 333 409 376 403 326 401 366 371 330 362 360 363 331 532 450 468 451 404 344 325 452 329 432 320 333 413 379 407 350 415 453 407 350 414 454 415 453 414 454 404 344 412 455 409 376 419 456 411 457 419 456 410 327 411 457 418 458 408 459 410 327 413 379 423 460 421 384 423 460 414 454 422 461 422 461 412 455 420 462 417 380 427 463 419 456 427 463 418 458 419 456 418 458 424 464 416 465 421 384 431 466 429 387 431 466 422 461 430 467 422 461 428 468 430 467 433 388 427 463 425 385 427 463 434 469 426 470 426 470 432 471 424 464 437 391 431 466 439 472 431 466 438 473 439 472 430 467 436 474 438 473 433 388 443 475 435 476 435 476 442 477 434 469 442 477 432 471 434 469 437 391 447 478 445 395 439 472 446 479 447 478 446 479 436 474 444 480 441 392 451 160 443 475 451 160 442 477 443 475 450 161 440 481 442 477 445 395 455 482 453 399 455 482 446 479 454 164 454 164 444 480 452 483 457 400 451 160 449 396 451 160 458 484 450 161 450 161 456 485 448 168 461 403 455 482 463 486 455 482 462 487 463 486 454 164 460 488 462 487 465 404 459 489 457 400 467 490 458 484 459 489 458 484 464 491 456 485 469 408 463 486 471 492 471 492 462 487 470 493 462 487 468 451 470 493 465 404 475 494 467 490 475 494 466 495 467 490 474 496 464 491 466 495 469 408 479 497 477 411 479 497 470 493 478 498 478 498 468 451 476 499 481 412 475 494 473 409 475 494 482 500 474 496 482 500 472 501 474 496 485 89 479 497 487 502 479 497 486 503 487 502 486 503 476 499 484 504 489 414 483 505 481 412 483 505 490 506 482 500 482 500 488 507 480 508 493 418 487 502 495 509 487 502 494 510 495 509 486 503 492 511 494 510 489 414 499 512 491 513 499 512 490 506 491 513 490 506 496 514 488 507 493 418 503 515 501 421 503 515 494 510 502 516 494 510 500 517 502 516 497 419 507 518 499 512 507 518 498 519 499 512 498 519 504 520 496 514 501 421 511 521 509 425 511 521 502 516 510 522 502 516 508 523 510 522 513 426 507 518 505 422 507 518 514 524 506 525 506 525 512 526 504 520 509 425 519 527 517 430 511 521 518 528 519 527 510 522 516 529 518 528 521 431 515 530 513 426 523 531 514 524 515 530 522 532 512 526 514 524 517 430 527 533 525 433 527 533 518 528 526 534 526 534 516 529 524 535 529 434 523 531 521 431 523 531 530 536 522 532 530 536 520 537 522 532 533 437 527 533 535 538 527 533 534 539 535 538 534 539 524 535 532 450 537 438 531 540 529 434 531 540 538 541 530 536 538 541 528 542 530 536 541 440 535 538 543 543 535 538 542 544 543 543 542 544 532 450 540 545 537 438 547 546 539 547 547 546 538 541 539 547 546 548 536 549 538 541 541 440 551 550 549 444 551 550 542 544 550 551 550 551 540 545 548 552 545 441 555 553 547 546 555 553 546 548 547 546 546 548 552 554 544 555 549 444 559 556 557 446 559 556 550 551 558 557 550 551 556 558 558 557 561 447 555 553 553 445 555 553 562 559 554 560 554 560 560 561 552 554 565 449 559 556 567 562 559 556 566 563 567 562 558 557 564 564 566 563 561 447 571 565 563 566 563 566 570 567 562 559 570 567 560 561 562 559 565 449 575 568 573 332 567 562 574 569 575 568 574 569 564 564 572 570 569 334 323 448 571 565 323 448 570 567 571 565 322 123 568 571 570 567 573 332 327 116 325 452 327 116 574 569 326 435 326 435 572 570 324 572 504 520 536 549 568 571 577 573 578 573 576 573 579 574 582 574 578 574 583 575 580 575 582 575 581 576 576 576 580 576 582 325 576 325 578 325 579 577 581 577 583 577 585 578 586 579 584 580 587 581 590 582 586 583 591 584 588 585 590 586 589 587 584 588 588 589 586 590 588 591 584 592 587 593 589 594 591 577 593 595 594 596 592 595 595 597 598 598 594 599 599 600 596 601 598 600 597 602 592 603 596 604 594 605 596 606 592 607 595 608 597 609 599 610 601 611 602 612 600 613 603 614 606 615 602 616 607 617 604 618 606 619 605 620 600 621 604 622 606 623 600 624 602 325 607 625 601 626 605 627 609 628 610 629 608 628 611 630 614 631 610 632 615 633 612 634 614 633 613 635 608 636 612 637 614 325 608 325 610 325 615 638 609 639 613 640 617 641 618 642 616 643 619 644 622 645 618 646 623 647 620 648 622 649 621 650 616 651 620 652 618 325 620 325 616 325 619 653 621 654 623 655 625 656 626 656 624 657 627 573 630 573 626 573 631 658 628 658 630 659 629 575 624 575 628 575 630 660 624 661 626 662 627 663 629 664 631 665 633 666 634 667 632 668 635 669 638 670 634 671 639 672 636 673 638 674 637 675 632 676 636 677 638 678 632 679 634 680 639 681 633 682 637 683 641 684 642 685 640 686 643 687 646 688 642 689 647 690 644 691 646 692 645 693 640 694 644 695 642 696 644 697 640 698 643 699 645 700 647 577 649 701 650 701 648 702 651 703 654 704 650 705 655 706 652 706 654 707 653 708 648 709 652 710 650 711 652 712 648 713 651 714 653 715 655 577 657 716 658 717 656 718 659 719 662 720 658 721 663 722 660 723 662 724 661 725 656 726 660 727 662 728 656 729 658 325 663 730 657 731 661 732 665 733 666 734 664 735 667 642 670 736 666 737 671 738 668 739 670 740 669 648 664 741 668 742 670 743 664 744 666 325 671 745 665 746 669 747 83 0 91 136 90 1 41 3 49 31 51 4 253 6 5 131 0 7 90 1 88 138 80 9 38 10 36 44 44 11 21 13 29 21 25 14 86 16 78 46 76 17 39 19 38 10 46 12 29 21 37 26 33 22 79 23 78 46 86 16 45 25 37 26 39 19 37 26 45 25 41 3 85 27 77 49 79 23 34 28 42 35 40 29 45 25 53 36 49 31 82 2 80 9 72 32 35 34 43 5 42 35 53 36 61 39 57 37 75 38 83 0 82 2 41 3 43 5 35 34 61 39 69 45 65 40 81 41 83 0 75 38 38 10 30 64 28 43 69 45 77 49 73 42 78 46 70 50 68 47 31 48 30 64 38 10 77 49 85 27 81 41 79 23 71 73 70 50 37 26 29 21 31 48 85 27 93 54 89 51 69 45 71 73 79 23 34 28 32 30 24 52 93 54 101 59 97 55 74 33 72 32 64 56 27 58 35 34 34 28 101 59 109 62 105 60 75 38 74 33 66 57 33 22 35 34 27 58 109 62 117 66 113 63 73 42 75 38 67 61 30 64 22 69 20 65 117 66 125 70 121 67 62 68 60 92 68 47 31 48 23 93 22 69 125 70 133 74 129 71 63 72 62 68 70 50 21 13 23 93 31 48 133 74 141 78 137 75 61 39 63 72 71 73 26 53 24 52 16 76 141 78 149 83 145 79 58 80 66 57 64 56 27 58 26 53 18 77 149 83 157 86 153 84 59 85 67 61 66 57 17 15 25 14 27 58 157 86 165 89 161 87 65 40 67 61 59 85 14 88 12 112 20 65 165 89 173 94 169 90 54 91 52 115 60 92 23 93 15 96 14 88 173 94 181 97 177 95 63 72 55 119 54 91 21 13 13 120 15 96 181 97 189 101 185 98 53 36 55 119 63 72 10 99 18 77 16 76 189 101 197 106 193 102 50 103 58 80 56 81 19 82 18 77 10 99 197 106 205 109 201 107 59 85 58 80 50 103 17 15 19 82 11 105 205 109 213 113 209 110 49 31 57 37 59 85 6 111 4 255 12 112 213 113 221 117 217 114 46 12 44 11 52 115 7 116 6 111 14 88 221 117 229 121 225 118 55 119 47 20 46 12 13 120 5 131 7 116 229 121 237 125 233 122 45 25 47 20 55 119 2 123 10 99 8 100 237 125 245 128 241 126 42 35 50 103 48 104 3 127 11 105 10 99 245 128 253 6 249 8 13 120 21 13 17 15 9 108 11 105 3 127 89 51 91 136 83 0 51 4 50 103 42 35 20 65 12 112 4 255 4 255 252 253 244 247 244 247 236 241 212 129 236 241 228 235 212 129 228 235 220 228 212 129 212 129 204 218 180 200 204 218 196 212 180 200 196 212 188 206 180 200 180 200 172 194 164 187 164 187 156 182 180 200 156 182 148 130 180 200 148 130 140 171 132 165 132 165 124 159 116 153 116 153 108 147 84 18 108 147 100 141 84 18 100 141 92 134 84 18 84 18 76 17 52 115 76 17 68 47 52 115 68 47 60 92 52 115 52 115 44 11 36 44 36 44 28 43 52 115 28 43 20 65 52 115 20 65 4 255 212 129 4 255 244 247 212 129 148 130 132 165 84 18 132 165 116 153 84 18 212 129 180 200 148 130 84 18 52 115 20 65 20 65 212 129 84 18 5 131 13 120 9 108 93 54 85 27 87 24 87 24 86 16 94 133 94 133 86 16 84 18 89 51 97 55 99 135 99 135 98 137 90 1 98 137 96 144 88 138 93 54 95 132 103 139 103 139 95 132 94 133 102 140 94 133 92 134 97 55 105 60 107 142 107 142 106 149 98 137 98 137 106 149 104 143 101 59 103 139 111 145 111 145 103 139 102 140 102 140 100 141 108 147 113 63 115 155 107 142 107 142 115 155 114 148 106 149 114 148 112 150 117 66 109 62 111 145 111 145 110 146 118 152 110 146 108 147 116 153 113 63 121 67 123 154 115 155 123 154 122 156 122 156 120 162 112 150 117 66 119 151 127 157 119 151 118 152 126 158 126 158 118 152 116 153 121 67 129 71 131 160 131 160 130 161 122 156 130 161 128 168 120 162 125 70 127 157 135 163 135 163 127 157 126 158 134 164 126 158 124 159 137 75 139 172 131 160 131 160 139 172 138 166 130 161 138 166 136 167 141 78 133 74 135 163 135 163 134 164 142 170 134 164 132 165 140 171 145 79 147 173 139 172 147 173 146 178 138 166 138 166 146 178 144 174 149 83 141 78 143 169 151 175 143 169 142 170 142 170 140 171 148 130 145 79 153 84 155 177 155 177 154 179 146 178 154 179 152 184 144 174 149 83 151 175 159 180 159 180 151 175 150 176 158 181 150 176 148 130 161 87 163 188 155 177 155 177 163 188 162 183 162 183 160 191 152 184 165 89 157 86 159 180 159 180 158 181 166 186 166 186 158 181 156 182 169 90 171 196 163 188 163 188 171 196 170 189 162 183 170 189 168 190 173 94 165 89 167 185 167 185 166 186 174 193 166 186 164 187 172 194 169 90 177 95 179 195 179 195 178 202 170 189 170 189 178 202 176 197 173 94 175 192 183 198 183 198 175 192 174 193 174 193 172 194 180 200 177 95 185 98 187 201 187 201 186 208 178 202 178 202 186 208 184 203 181 97 183 198 191 204 191 204 183 198 182 199 182 199 180 200 188 206 193 102 195 213 187 201 187 201 195 213 194 207 186 208 194 207 192 209 189 101 191 204 199 210 191 204 190 205 198 211 190 205 188 206 196 212 201 107 203 214 195 213 203 214 202 215 194 207 202 215 200 220 192 209 197 106 199 210 207 216 207 216 199 210 198 211 206 217 198 211 196 212 209 110 211 223 203 214 203 214 211 223 210 219 210 219 208 225 200 220 213 113 205 109 207 216 207 216 206 217 214 222 214 222 206 217 204 218 217 114 219 230 211 223 211 223 219 230 218 224 218 224 216 232 208 225 221 117 213 113 215 221 215 221 214 222 222 227 222 227 214 222 212 129 217 114 225 118 227 229 227 229 226 231 218 224 226 231 224 238 216 232 221 117 223 226 231 233 231 233 223 226 222 227 230 234 222 227 220 228 225 118 233 122 235 236 235 236 234 243 226 231 226 231 234 243 232 237 229 121 231 233 239 239 239 239 231 233 230 234 230 234 228 235 236 241 241 126 243 249 235 236 235 236 243 249 242 242 234 243 242 242 240 244 245 128 237 125 239 239 239 239 238 240 246 246 238 240 236 241 244 247 241 126 249 8 251 248 243 249 251 248 250 250 250 250 248 254 240 244 245 128 247 245 255 251 247 245 246 246 254 252 254 252 246 246 244 247 249 8 0 7 3 127 3 127 2 123 250 250 2 123 1 124 248 254 253 6 255 251 7 116 7 116 255 251 254 252 6 111 254 252 252 253 248 254 1 124 8 100 8 100 16 76 24 52 24 52 32 30 40 29 40 29 48 104 24 52 48 104 56 81 24 52 56 81 64 56 72 32 72 32 80 9 56 81 80 9 88 138 56 81 88 138 96 144 104 143 104 143 112 150 120 162 120 162 128 168 136 167 136 167 144 174 152 184 152 184 160 191 168 190 168 190 176 197 152 184 176 197 184 203 152 184 184 203 192 209 200 220 200 220 208 225 184 203 208 225 216 232 184 203 216 232 224 238 232 237 232 237 240 244 248 254 248 254 8 100 24 52 88 138 104 143 120 162 120 162 136 167 152 184 216 232 232 237 248 254 248 254 24 52 120 162 24 52 56 81 120 162 56 81 88 138 120 162 120 162 152 184 248 254 152 184 184 203 248 254 403 326 411 457 410 327 361 329 369 356 371 330 573 332 325 452 320 333 410 327 408 459 400 335 358 336 356 369 364 337 341 339 349 347 345 340 406 342 398 371 396 343 359 345 358 336 366 338 349 347 357 26 353 348 399 349 398 371 406 342 365 351 357 26 359 345 357 26 365 351 361 329 405 352 397 374 399 349 354 353 362 360 360 354 365 351 373 361 369 356 402 328 400 335 392 357 355 359 363 331 362 360 373 361 381 364 377 362 395 363 403 326 402 328 361 329 363 331 355 359 381 364 389 370 385 365 401 366 403 326 395 363 358 336 350 389 348 368 389 370 397 374 393 367 398 371 390 375 388 372 351 373 350 389 358 336 397 374 405 352 401 366 399 349 391 398 390 375 357 26 349 347 351 373 405 352 413 379 409 376 389 370 391 398 399 349 354 353 352 355 344 377 413 379 421 384 417 380 394 358 392 357 384 381 347 383 355 359 354 353 421 384 429 387 425 385 395 363 394 358 386 382 353 348 355 359 347 383 429 387 437 391 433 388 393 367 395 363 387 386 350 389 342 394 340 390 437 391 445 395 441 392 382 393 380 416 388 372 351 373 343 417 342 394 445 395 453 399 449 396 383 397 382 393 390 375 341 339 343 417 351 373 453 399 461 403 457 400 381 364 383 397 391 398 346 378 344 377 336 401 461 403 469 408 465 404 378 405 386 382 384 381 347 383 346 378 338 402 469 408 477 411 473 409 379 410 387 386 386 382 337 341 345 340 347 383 477 411 485 89 481 412 385 365 387 386 379 410 334 413 332 436 340 390 485 89 493 418 489 414 374 415 372 439 380 416 343 417 335 420 334 413 493 418 501 421 497 419 383 397 375 442 374 415 341 339 333 443 335 420 501 421 509 425 505 422 373 361 375 442 383 397 330 423 338 402 336 401 509 425 517 430 513 426 370 427 378 405 376 406 339 407 338 402 330 423 517 430 525 433 521 431 379 410 378 405 370 427 337 341 339 407 331 429 525 433 533 437 529 434 369 356 377 362 379 410 326 435 324 572 332 436 533 437 541 440 537 438 366 338 364 337 372 439 327 116 326 435 334 413 541 440 549 444 545 441 375 442 367 346 366 338 333 443 325 452 327 116 549 444 557 446 553 445 365 351 367 346 375 442 322 123 330 423 328 424 557 446 565 449 561 447 362 360 370 427 368 428 323 448 331 429 330 423 565 449 573 332 569 334 333 443 341 339 337 341 329 432 331 429 323 448 409 376 411 457 403 326 371 330 370 427 362 360 340 390 332 436 324 572 324 572 572 570 564 564 564 564 556 558 532 450 556 558 548 552 532 450 548 552 540 545 532 450 532 450 524 535 500 517 524 535 516 529 500 517 516 529 508 523 500 517 500 517 492 511 484 504 484 504 476 499 500 517 476 499 468 451 500 517 468 451 460 488 452 483 452 483 444 480 436 474 436 474 428 468 404 344 428 468 420 462 404 344 420 462 412 455 404 344 404 344 396 343 372 439 396 343 388 372 372 439 388 372 380 416 372 439 372 439 364 337 356 369 356 369 348 368 372 439 348 368 340 390 372 439 340 390 324 572 532 450 324 572 564 564 532 450 468 451 452 483 404 344 452 483 436 474 404 344 532 450 500 517 468 451 404 344 372 439 340 390 340 390 532 450 404 344 325 452 333 443 329 432 413 379 405 352 407 350 407 350 406 342 414 454 414 454 406 342 404 344 409 376 417 380 419 456 419 456 418 458 410 327 418 458 416 465 408 459 413 379 415 453 423 460 423 460 415 453 414 454 422 461 414 454 412 455 417 380 425 385 427 463 427 463 426 470 418 458 418 458 426 470 424 464 421 384 423 460 431 466 431 466 423 460 422 461 422 461 420 462 428 468 433 388 435 476 427 463 427 463 435 476 434 469 426 470 434 469 432 471 437 391 429 387 431 466 431 466 430 467 438 473 430 467 428 468 436 474 433 388 441 392 443 475 435 476 443 475 442 477 442 477 440 481 432 471 437 391 439 472 447 478 439 472 438 473 446 479 446 479 438 473 436 474 441 392 449 396 451 160 451 160 450 161 442 477 450 161 448 168 440 481 445 395 447 478 455 482 455 482 447 478 446 479 454 164 446 479 444 480 457 400 459 489 451 160 451 160 459 489 458 484 450 161 458 484 456 485 461 403 453 399 455 482 455 482 454 164 462 487 454 164 452 483 460 488 465 404 467 490 459 489 467 490 466 495 458 484 458 484 466 495 464 491 469 408 461 403 463 486 471 492 463 486 462 487 462 487 460 488 468 451 465 404 473 409 475 494 475 494 474 496 466 495 474 496 472 501 464 491 469 408 471 492 479 497 479 497 471 492 470 493 478 498 470 493 468 451 481 412 483 505 475 494 475 494 483 505 482 500 482 500 480 508 472 501 485 89 477 411 479 497 479 497 478 498 486 503 486 503 478 498 476 499 489 414 491 513 483 505 483 505 491 513 490 506 482 500 490 506 488 507 493 418 485 89 487 502 487 502 486 503 494 510 486 503 484 504 492 511 489 414 497 419 499 512 499 512 498 519 490 506 490 506 498 519 496 514 493 418 495 509 503 515 503 515 495 509 494 510 494 510 492 511 500 517 497 419 505 422 507 518 507 518 506 525 498 519 498 519 506 525 504 520 501 421 503 515 511 521 511 521 503 515 502 516 502 516 500 517 508 523 513 426 515 530 507 518 507 518 515 530 514 524 506 525 514 524 512 526 509 425 511 521 519 527 511 521 510 522 518 528 510 522 508 523 516 529 521 431 523 531 515 530 523 531 522 532 514 524 522 532 520 537 512 526 517 430 519 527 527 533 527 533 519 527 518 528 526 534 518 528 516 529 529 434 531 540 523 531 523 531 531 540 530 536 530 536 528 542 520 537 533 437 525 433 527 533 527 533 526 534 534 539 534 539 526 534 524 535 537 438 539 547 531 540 531 540 539 547 538 541 538 541 536 549 528 542 541 440 533 437 535 538 535 538 534 539 542 544 542 544 534 539 532 450 537 438 545 441 547 546 547 546 546 548 538 541 546 548 544 555 536 549 541 440 543 543 551 550 551 550 543 543 542 544 550 551 542 544 540 545 545 441 553 445 555 553 555 553 554 560 546 548 546 548 554 560 552 554 549 444 551 550 559 556 559 556 551 550 550 551 550 551 548 552 556 558 561 447 563 566 555 553 555 553 563 566 562 559 554 560 562 559 560 561 565 449 557 446 559 556 559 556 558 557 566 563 558 557 556 558 564 564 561 447 569 334 571 565 563 566 571 565 570 567 570 567 568 571 560 561 565 449 567 562 575 568 567 562 566 563 574 569 574 569 566 563 564 564 569 334 320 333 323 448 323 448 322 123 570 567 322 123 321 124 568 571 573 332 575 568 327 116 327 116 575 568 574 569 326 435 574 569 572 570 568 571 321 124 328 424 328 424 336 401 344 377 344 377 352 355 360 354 360 354 368 428 344 377 368 428 376 406 344 377 376 406 384 381 392 357 392 357 400 335 376 406 400 335 408 459 376 406 408 459 416 465 424 464 424 464 432 471 440 481 440 481 448 168 456 485 456 485 464 491 472 501 472 501 480 508 488 507 488 507 496 514 472 501 496 514 504 520 472 501 504 520 512 526 520 537 520 537 528 542 504 520 528 542 536 549 504 520 536 549 544 555 552 554 552 554 560 561 568 571 568 571 328 424 344 377 408 459 424 464 440 481 440 481 456 485 472 501 536 549 552 554 568 571 568 571 344 377 440 481 344 377 376 406 440 481 376 406 408 459 440 481 440 481 472 501 568 571 472 501 504 520 568 571 577 573 579 573 578 573 579 574 583 574 582 574 583 575 581 575 580 575 581 576 577 576 576 576 582 325 580 325 576 325 579 577 577 577 581 577 585 578 587 777 586 579 587 581 591 778 590 582 591 584 589 779 588 585 589 587 585 780 584 588 586 590 590 325 588 591 587 593 585 781 589 594 593 595 595 782 594 596 595 597 599 783 598 598 599 600 597 784 596 601 597 602 593 785 592 603 594 605 598 325 596 606 595 608 593 786 597 609 601 611 603 787 602 612 603 614 607 788 606 615 607 617 605 789 604 618 605 620 601 790 600 621 606 623 604 791 600 624 607 625 603 577 601 626 609 628 611 629 610 629 611 630 615 792 614 631 615 633 613 634 612 634 613 635 609 793 608 636 614 325 612 325 608 325 615 638 611 577 609 639 617 641 619 642 618 642 619 644 623 794 622 645 623 647 621 648 620 648 621 650 617 795 616 651 618 325 622 325 620 325 619 653 617 796 621 654 625 656 627 657 626 656 627 573 631 573 630 573 631 658 629 659 628 658 629 575 625 575 624 575 630 660 628 797 624 661 627 663 625 798 629 664 633 666 635 667 634 667 635 669 639 799 638 670 639 672 637 673 636 673 637 675 633 800 632 676 638 678 636 797 632 679 639 681 635 801 633 682 641 684 643 802 642 685 643 687 647 803 646 688 647 690 645 804 644 691 645 693 641 805 640 694 642 696 646 806 644 697 643 699 641 807 645 700 649 701 651 702 650 701 651 703 655 808 654 704 655 706 653 707 652 706 653 708 649 809 648 709 650 711 654 810 652 712 651 714 649 811 653 715 657 716 659 812 658 717 659 719 663 813 662 720 663 722 661 814 660 723 661 725 657 815 656 726 662 728 660 607 656 729 663 730 659 577 657 731 665 733 667 816 666 734 667 642 671 817 670 736 671 738 669 818 668 739 669 648 665 819 664 741 670 743 668 820 664 744 671 745 667 577 665 746</p>
        </triangles>
        <triangles material="lens-material" count="124">
          <input semantic="VERTEX" source="#lidar-mesh-vertices" offset="0"/>
          <input semantic="NORMAL" source="#lidar-mesh-normals" offset="1"/>
          <p>257 256 258 257 256 258 259 259 260 260 258 257 261 261 262 262 260 260 263 263 264 264 262 262 265 265 266 266 264 264 267 267 268 268 266 266 269 269 270 270 268 268 271 271 272 272 270 270 273 273 274 274 272 272 275 275 276 276 274 274 277 277 278 278 276 276 279 279 280 280 278 278 281 281 282 282 280 280 283 283 284 284 282 282 285 285 286 286 284 284 287 287 288 288 286 286 289 289 290 290 288 288 291 291 292 292 290 290 293 293 294 294 292 292 295 295 296 296 294 294 297 297 298 298 296 296 299 299 300 300 298 298 301 301 302 302 300 300 303 303 304 304 302 302 305 305 306 306 304 304 307 307 308 308 306 306 309 309 310 310 308 308 311 311 312 312 310 310 313 313 314 314 312 312 315 315 316 316 314 314 293 317 277 318 261 319 317 320 318 321 316 316 319 322 256 258 318 321 294 323 302 324 318 325 257 256 259 259 258 257 259 259 261 261 260 260 261 261 263 263 262 262 263 263 265 265 264 264 265 265 267 267 266 266 267 267 269 269 268 268 269 269 271 271 270 270 271 271 273 273 272 272 273 273 275 275 274 274 275 275 277 277 276 276 277 277 279 279 278 278 279 279 281 281 280 280 281 281 283 283 282 282 283 283 285 285 284 284 285 285 287 287 286 286 287 287 289 289 288 288 289 289 291 291 290 290 291 291 293 293 292 292 293 293 295 295 294 294 295 295 297 297 296 296 297 297 299 299 298 298 299 299 301 301 300 300 301 301 303 303 302 302 303 303 305 305 304 304 305 305 307 307 306 306 307 307 309 309 308 308 309 309 311 311 310 310 311 311 313 313 312 312 313 313 315 315 314 314 315 315 317 320 316 316 261 319 259 577 257 577 257 577 319 577 261 319 319 577 317 748 261 319 317 748 315 749 313 750 313 750 311 577 309 751 309 751 307 752 305 753 305 753 303 752 301 754 301 754 299 577 297 577 297 577 295 577 301 754 295 577 293 317 301 754 293 317 291 577 285 755 291 577 289 577 285 755 289 577 287 577 285 755 285 755 283 756 281 757 281 757 279 577 277 318 277 318 275 758 273 759 273 759 271 758 269 760 269 760 267 577 265 577 265 577 263 577 269 760 263 577 261 319 269 760 317 748 313 750 261 319 313 750 309 751 261 319 309 751 305 753 293 317 305 753 301 754 293 317 285 755 281 757 293 317 281 757 277 318 293 317 277 318 273 759 261 319 273 759 269 760 261 319 261 319 309 751 293 317 317 320 319 322 318 321 319 322 257 256 256 258 318 325 256 325 258 325 258 325 260 325 262 761 262 761 264 762 270 763 264 762 266 764 270 763 266 764 268 765 270 763 270 763 272 766 278 767 272 766 274 768 278 767 274 768 276 765 278 767 278 767 280 325 282 769 282 769 284 325 286 325 286 325 288 325 290 325 290 325 292 325 294 323 294 323 296 770 302 324 296 770 298 771 302 324 298 771 300 772 302 324 302 324 304 773 310 774 304 773 306 775 310 774 306 775 308 772 310 774 310 774 312 325 314 776 314 776 316 325 318 325 318 325 258 325 262 761 278 767 282 769 270 763 282 769 286 325 270 763 286 325 290 325 294 323 310 774 314 776 302 324 314 776 318 325 302 324 318 325 262 761 286 325 262 761 270 763 286 325 286 325 294 323 318 325</p>
        </triangles>
      </mesh>
    </geometry>
  </library_geometries>
  <library_visual_scenes>
    <visual_scene id="Scene" name="Scene">
      <node id="lidar" name="lidar" type="NODE">
        <matrix sid="transform">1 0 0 0 0 1 0 0 0 0 1 0 0 0 0 1</matrix>
        <instance_geometry url="#lidar-mesh" name="lidar">
          <bind_material>
            <technique_common>
              <instance_material symbol="aluminium-material" target="#aluminium-material"/>
              <instance_material symbol="lens-material" target="#lens-material"/>
            </technique_common>
          </bind_material>
        </instance_geometry>
      </node>
    </visual_scene>
  </library_visual_scenes>
  <scene>
    <instance_visual_scene url="#Scene"/>
  </scene>
</COLLADA>