<?xml version="1.0" encoding="utf-8"?>
<COLLADA xmlns="http://www.collada.org/2005/11/COLLADASchema" version="1.4.1" xmlns:xsi="http://www.w3.org/2001/XMLSchema-instance">
  <asset>
    <contributor>
      <author>Blender User</author>
      <authoring_tool>Blender 4.2.0 commit date:2024-07-16, commit time:07:50, hash:bf738fd35afe</authoring_tool>
    </contributor>
    <created>2026-09-25T18:34:11</created>
    <modified>2026-09-25T18:34:11</modified>
    <unit name="meter" meter="1"/>
    <up_axis>Z_UP</up_axis>
  </asset>
  <library_effects>
    <effect id="aluminium-effect">
      <profile_COMMON>
        <technique sid="common">
          <lambert>
            <emission>
              <color sid="emission">0 0 0 1</color>
            </emission>
            <diffuse>
              <color sid="diffuse">0.55 0.55 0.56 1</color>
            </diffuse>
            <reflectivity>
              <float sid="specular">1</float>
            </reflectivity>
            <index_of_refraction>
              <float sid="ior">1.5</float>
            </index_of_refraction>
          </lambert>
        </technique>
      </profile_COMMON>
    </effect>
    <effect id="blade-effect">
      <profile_COMMON>
        <technique sid="common">
          <lambert>
            <emission>
              <color sid="emission">0 0 0 1</color>
            </emission>
            <diffuse>
              <color sid="diffuse">0.03 0.03 0.032 1</color>
            </diffuse>
            <index_of_refraction>
              <float sid="ior">1.5</float>
            </index_of_refraction>
          </lambert>
        </technique>
      </profile_COMMON>
    </effect>
  </library_effects>
  <library_images/>
  <library_materials>
    <material id="aluminium-material" name="aluminium">
      <instance_effect url="#aluminium-effect"/>
    </material>
    <material id="blade-material" name="blade">
      <instance_effect url="#blade-effect"/>
    </material>
  </library_materials>
  <library_geometries>
    <geometry id="lift_fan-mesh" name="lift_fan">
      <mesh>
        <source id="lift_fan-mesh-positions">
          <float_array id="lift_fan-mesh-positions-array" count="744">0 0.032 -0.00999999 0 0.0279501 -0.01399999 0 0.02997505 -0.01346409 0 0.03145742 -0.01199996 0 0.0279501 0.01399999 0 0.032 0.00999999 0 0.02997505 0.01346409 0 0.03145742 0.01199996 0.00863707 0.02658212 -0.01399999 0.009888529 0.03043377 -0.00999999 0.0092628 0.02850794 -0.01346409 0.009720861 0.02991777 -0.01199996 0.00863707 0.02658212 0.01399999 0.009888529 0.03043377 0.00999999 0.0092628 0.02850794 0.01346409 0.009720861 0.02991777 0.01199996 0.01642864 0.02261209 -0.01399999 0.01880908 0.0258885 -0.00999999 0.01761889 0.02425032 -0.01346409 0.01849019 0.02544957 -0.01199996 0.01642864 0.02261209 0.01399999 0.01880908 0.0258885 0.00999999 0.01761889 0.02425032 0.01346409 0.01849019 0.02544957 0.01199996 0.02261209 0.01642864 -0.01399999 0.0258885 0.01880908 -0.00999999 0.02425032 0.01761889 -0.01346409 0.02544957 0.01849019 -0.01199996 0.02261209 0.01642864 0.01399999 0.0258885 0.01880908 0.00999999 0.02425032 0.01761889 0.01346409 0.02544957 0.01849019 0.01199996 0.02658212 0.00863707 -0.01399999 0.03043377 0.009888529 -0.00999999 0.02850794 0.0092628 -0.01346409 0.02991777 0.009720861 -0.01199996 0.02658212 0.00863707 0.01399999 0.03043377 0.009888529 0.00999999 0.02850794 0.0092628 0.01346409 0.02991777 0.009720861 0.01199996 0.0279501 0 -0.01399999 0.032 0 -0.00999999 0.02997505 0 -0.01346409 0.03145742 0 -0.01199996 0.0279501 0 0.01399999 0.032 0 0.00999999 0.02997505 0 0.01346409 0.03145742 0 0.01199996 0.02658212 -0.00863707 -0.01399999 0.03043377 -0.009888529 -0.00999999 0.02850794 -0.0092628 -0.01346409 0.02991777 -0.009720861 -0.01199996 0.02658212 -0.00863707 0.01399999 0.03043377 -0.009888529 0.00999999 0.02850794 -0.0092628 0.01346409 0.02991777 -0.009720861 0.01199996 0.02261209 -0.01642864 -0.01399999 0.0258885 -0.01880908 -0.00999999 0.02425032 -0.01761889 -0.01346409 0.02544957 -0.01849019 -0.01199996 0.02261209 -0.01642864 0.01399999 0.0258885 -0.01880908 0.00999999 0.02425032 -0.01761889 0.01346409 0.02544957 -0.01849019 0.01199996 0.01642864 -0.02261209 -0.01399999 0.01880908 -0.0258885 -0.00999999 0.01761889 -0.02425032 -0.01346409 0.01849019 -0.02544957 -0.01199996 0.01642864 -0.02261209 0.01399999 0.01880908 -0.0258885 0.00999999 0.01761889 -0.02425032 0.01346409 0.01849019 -0.02544957 0.01199996 0.00863707 -0.02658212 -0.01399999 0.009888529 -0.03043377 -0.00999999 0.0092628 -0.02850794 -0.01346409 0.009720861 -0.02991777 -0.01199996 0.00863707 -0.02658212 0.01399999 0.009888529 -0.03043377 0.00999999 0.0092628 -0.02850794 0.01346409 0.009720861 -0.02991777 0.01199996 0 -0.0279501 -0.01399999 0 -0.032 -0.00999999 0 -0.02997505 -0.01346409 0 -0.03145742 -0.01199996 0 -0.0279501 0.01399999 0 -0.032 0.00999999 0 -0.02997505 0.01346409 0 -0.03145742 0.01199996 -0.00863707 -0.02658212 -0.01399999 -0.009888529 -0.03043377 -0.00999999 -0.0092628 -0.02850794 -0.01346409 -0.009720861 -0.02991777 -0.01199996 -0.00863707 -0.02658212 0.01399999 -0.009888529 -0.03043377 0.00999999 -0.0092628 -0.02850794 0.01346409 -0.009720861 -0.02991777 0.01199996 -0.01642864 -0.02261209 -0.01399999 -0.01880908 -0.0258885 -0.00999999 -0.01761889 -0.02425032 -0.01346409 -0.01849019 -0.02544957 -0.01199996 -0.01642864 -0.02261209 0.01399999 -0.01880908 -0.0258885 0.00999999 -0.01761889 -0.02425032 0.01346409 -0.01849019 -0.02544957 0.01199996 -0.02261209 -0.01642864 -0.01399999 -0.0258885 -0.01880908 -0.00999999 -0.02425032 -0.01761889 -0.01346409 -0.02544957 -0.01849019 -0.01199996 -0.02261209 -0.01642864 0.01399999 -0.0258885 -0.01880908 0.00999999 -0.02425032 -0.01761889 0.01346409 -0.02544957 -0.01849019 0.01199996 -0.02658212 -0.00863707 -0.01399999 -0.03043377 -0.009888529 -0.00999999 -0.02850794 -0.0092628 -0.01346409 -0.02991777 -0.009720861 -0.01199996 -0.02658212 -0.00863707 0.01399999 -0.03043377 -0.009888529 0.00999999 -0.02850794 -0.0092628 0.01346409 -0.02991777 -0.009720861 0.01199996 -0.0279501 0 -0.01399999 -0.032 0 -0.00999999 -0.02997505 0 -0.01346409 -0.03145742 0 -0.01199996 -0.0279501 0 0.01399999 -0.032 0 0.00999999 -0.02997505 0 0.01346409 -0.03145742 0 0.01199996 -0.02658212 0.00863707 -0.01399999 -0.03043377 0.009888529 -0.00999999 -0.02850794 0.0092628 -0.01346409 -0.02991777 0.009720861 -0.01199996 -0.02658212 0.00863707 0.01399999 -0.03043377 0.009888529 0.00999999 -0.02850794 0.0092628 0.01346409 -0.02991777 0.009720861 0.01199996 -0.02261209 0.01642864 -0.01399999 -0.0258885 0.01880908 -0.00999999 -0.02425032 0.01761889 -0.01346409 -0.02544957 0.01849019 -0.01199996 -0.02261209 0.01642864 0.01399999 -0.0258885 0.01880908 0.00999999 -0.02425032 0.01761889 0.01346409 -0.02544957 0.01849019 0.01199996 -0.01642864 0.02261209 -0.01399999 -0.01880908 0.0258885 -0.00999999 -0.01761889 0.02425032 -0.01346409 -0.01849019 0.02544957 -0.01199996 -0.01642864 0.02261209 0.01399999 -0.01880908 0.0258885 0.00999999 -0.01761889 0.02425032 0.01346409 -0.01849019 0.02544957 0.01199996 -0.00863707 0.02658212 -0.01399999 -0.009888529 0.03043377 -0.00999999 -0.0092628 0.02850794 -0.01346409 -0.009720861 0.02991777 -0.01199996 -0.00863707 0.02658212 0.01399999 -0.009888529 0.03043377 0.00999999 -0.0092628 0.02850794 0.01346409 -0.009720861 0.02991777 0.01199996 0 0.01999998 0.01399999 0 0.005999982 0.02600002 0.007653653 0.01847755 0.01399999 0.00229609 0.005543231 0.02600002 0.01414209 0.01414209 0.01399999 0.004242599 0.004242599 0.02600002 0.01847755 0.007653653 0.01399999 0.005543231 0.00229609 0.02600002 0.01999998 0 0.01399999 0.005999982 0 0.02600002 0.01847755 -0.007653653 0.01399999 0.005543231 -0.00229609 0.02600002 0.01414209 -0.01414209 0.01399999 0.004242599 -0.004242599 0.02600002 0.007653653 -0.01847755 0.01399999 0.00229609 -0.005543231 0.02600002 0 -0.01999998 0.01399999 0 -0.005999982 0.02600002 -0.007653653 -0.01847755 0.01399999 -0.00229609 -0.005543231 0.02600002 -0.01414209 -0.01414209 0.01399999 -0.004242599 -0.004242599 0.02600002 -0.01847755 -0.007653653 0.01399999 -0.005543231 -0.00229609 0.02600002 -0.01999998 0 0.01399999 -0.005999982 0 0.02600002 -0.01847755 0.007653653 0.01399999 -0.005543231 0.00229609 0.02600002 -0.01414209 0.01414209 0.01399999 -0.004242599 0.004242599 0.02600002 -0.007653653 0.01847755 0.01399999 -0.00229609 0.005543231 0.02600002 0.02799999 -0.02113473 -0.01350265 0.02799999 0.02301263 0.009970903 0.02799999 0.02113473 0.01350265 0.02799999 -0.02301263 -0.009970903 0.135 -0.01599979 -0.007365763 0.135 0.01724916 0.003565907 0.135 0.01599979 0.007365763 0.135 -0.01724916 -0.003565907 0.0339815 0.00871396 -0.01350265 -5.34296e-4 0.03623938 0.009970903 9.339e-4 0.03506857 0.01350265 0.03544968 0.007543087 -0.009970903 0.09668028 0.09557151 -0.007365763 0.07068514 0.1163019 0.003565907 0.07166188 0.115523 0.007365763 0.09765702 0.09479254 -0.003565907 0.01437425 0.03200089 -0.01350265 -0.02866619 0.02217715 0.009970903 -0.02683544 0.02259504 0.01350265 0.01620507 0.03241872 -0.009970903 -0.0144416 0.1351755 -0.007365763 -0.04685699 0.1277769 0.003565907 -0.04563897 0.1280549 0.007365763 -0.01322358 0.1354535 -0.003565907 -0.01605707 0.03119045 -0.01350265 -0.03521192 -0.008584916 0.009970903 -0.03439712 -0.006892979 0.01350265 -0.01524227 0.03288239 -0.009970903 -0.1146887 0.07298964 -0.007365763 -0.1291149 0.0430333 0.003565907 -0.1285728 0.04415893 0.007365763 -0.1141467 0.07411527 -0.003565907 -0.03439712 0.006892979 -0.01350265 -0.01524227 -0.03288239 0.009970903 -0.01605707 -0.03119045 0.01350265 -0.03521192 0.008584916 -0.009970903 -0.1285729 -0.04415887 -0.007365763 -0.1141467 -0.07411521 0.003565907 -0.1146888 -0.07298958 0.007365763 -0.1291149 -0.04303324 -0.003565907 -0.02683544 -0.02259504 -0.01350265 0.01620507 -0.03241872 0.009970903 0.01437425 -0.03200089 0.01350265 -0.02866619 -0.02217715 -0.009970903 -0.04563897 -0.1280549 -0.007365763 -0.01322358 -0.1354535 0.003565907 -0.0144416 -0.1351755 0.007365763 -0.04685699 -0.1277769 -0.003565907 9.33886e-4 -0.03506857 -0.01350265 0.03544968 -0.007543146 0.009970903 0.0339815 -0.00871396 0.01350265 -5.34311e-4 -0.03623938 -0.009970903 0.07166182 -0.115523 -0.007365763 0.09765702 -0.0947926 0.003565907 0.09668022 -0.09557157 0.007365763 0.07068508 -0.116302 -0.003565907</float_array>
          <technique_common>
            <accessor source="#lift_fan-mesh-positions-array" count="248" stride="3">
              <param name="X" type="float"/>
              <param name="Y" type="float"/>
              <param name="Z" type="float"/>
            </accessor>
          </technique_common>
        </source>
        <source id="lift_fan-mesh-normals">
          <float_array id="lift_fan-mesh-normals-array" count="1119">0.8274208 -0.2688434 -0.4930499 0.4165455 -0.3026381 -0.8572632 0.4896742 -0.1591041 -0.8572661 0.8021105 0.5827693 -0.1303799 0.8274174 0.2688446 -0.4930549 0.7038479 0.5113765 -0.493044 -0.3063805 0.9429378 0.1303822 1.27149e-6 0.9914644 -0.1303774 -0.306378 0.9429385 -0.1303822 0.1347082 -0.04376929 -0.9899182 0.3026379 0.4165451 0.8572634 0.1145889 0.08325409 0.9899184 0.4165455 0.3026381 0.8572632 0.5827671 0.8021124 0.130377 0.5827693 0.8021109 -0.130377 0.5148813 0 0.8572615 0.1347085 -0.04376953 0.9899181 0.4896753 -0.1591052 0.8572652 0.7038469 0.5113728 0.4930491 0.802109 0.5827713 0.1303799 0.942938 0.3063802 -0.1303808 0.8700041 0 0.4930446 0.8274174 -0.2688446 0.4930549 0.9429372 0.3063827 0.1303807 0.9914638 -1.37633e-6 -0.1303826 0.942938 -0.3063802 0.1303808 0.3026379 0.4165451 -0.8572634 0.1145918 0.083256 -0.9899178 0.08325541 0.1145913 -0.9899179 0.9914637 1.37633e-6 0.1303826 0.9429372 -0.3063827 -0.1303807 0.5148813 0 -0.8572615 0.1416429 0 -0.9899179 0.511376 0.7038446 -0.4930492 0.802109 -0.5827713 -0.1303799 0.8700042 0 -0.4930446 0.8021104 -0.5827693 0.1303799 0.5827672 -0.8021124 -0.130377 0.1591064 0.4896787 0.8572632 0.08325582 0.1145918 0.9899178 0.5827692 -0.8021109 0.130377 0.306378 -0.9429385 -0.1303822 0.1347095 0.04376977 0.9899181 0.1416422 0 0.9899179 0.511376 0.7038446 0.4930492 0.3063805 -0.9429378 0.1303822 -1.27149e-6 -0.9914644 -0.1303774 0.4896742 0.1591041 0.8572661 0.2688473 0.8274203 0.4930487 1.26842e-6 -0.9914644 0.1303774 -0.3063805 -0.9429378 -0.1303822 0.1591064 0.4896788 -0.8572631 0.04376941 0.1347092 -0.9899181 -0.306378 -0.9429386 0.1303822 -0.5827692 -0.8021109 -0.130377 0.1347082 0.04376929 -0.9899182 0.4896753 0.1591052 -0.8572652 0.2688473 0.8274203 -0.4930487 -0.5827671 -0.8021124 0.130377 -0.8021106 -0.5827691 -0.1303797 0.3063805 0.9429378 -0.1303822 -0.8021091 -0.5827712 0.1303799 -0.9429386 -0.306378 -0.1303812 0 0.5148839 0.8572601 0.04376894 0.1347078 0.9899182 -0.9429374 -0.3063828 0.1303791 -0.9914641 3.67886e-6 -0.1303805 -0.9914641 -3.68009e-6 0.1303805 -0.9429374 0.3063828 -0.1303791 0.8274208 0.2688434 0.4930499 -1.27333e-6 0.9914644 0.1303774 0.306378 0.9429385 0.1303822 -0.9429386 0.3063779 0.1303812 -0.8021091 0.5827712 -0.1303799 0 0.5148839 -0.8572601 0 0.1416394 -0.9899184 -0.8021106 0.5827691 0.1303797 -0.5827672 0.8021124 -0.130377 0.416544 0.3026379 -0.857264 0 0.8699985 -0.4930546 -0.5827692 0.8021109 0.130377 0 -0.1416454 0.9899175 0.7038479 -0.5113765 0.493044 0.4165439 -0.3026379 0.8572639 0.1145914 -0.08325558 0.9899179 0.7038469 -0.5113728 -0.4930491 0.3026379 -0.416545 -0.8572634 0.1145935 -0.08325725 -0.9899175 0.511376 -0.7038446 0.4930492 0.3026379 -0.4165451 0.8572634 0.08325463 -0.1145904 0.9899181 0.2688473 -0.8274203 -0.4930487 0.511376 -0.7038446 -0.4930492 0.1591064 -0.4896787 -0.8572631 0.0832538 -0.1145892 -0.9899182 0.2688473 -0.8274202 0.4930487 0.1591064 -0.4896788 0.8572631 0.04376894 -0.1347078 0.9899182 0 -0.5148839 -0.8572601 0.04376941 -0.1347092 -0.9899181 0 -0.8699985 0.4930546 0 -0.5148838 0.85726 -0.2688473 -0.8274203 -0.4930487 0 -0.8699985 -0.4930546 -0.04376965 -0.1347098 -0.9899179 0 -0.1416419 -0.9899181 -0.2688473 -0.8274203 0.4930487 -0.1591064 -0.4896788 0.8572631 -0.04376894 -0.1347078 0.9899182 -0.511376 -0.7038446 -0.4930491 -0.1591064 -0.4896788 -0.8572631 -0.08325392 -0.1145892 -0.9899182 -0.511376 -0.7038446 0.4930492 -0.3026379 -0.4165452 0.8572634 -0.08325469 -0.1145905 0.9899181 -0.7038479 -0.5113764 -0.493044 -0.3026379 -0.4165451 -0.8572634 -0.1145917 -0.08325594 -0.9899178 -0.7038469 -0.5113728 0.4930491 -0.4165455 -0.3026381 0.8572632 -0.1145913 -0.08325558 0.9899179 -0.8274186 -0.2688444 -0.4930531 -0.4896752 -0.1591052 -0.8572652 -0.4165439 -0.3026379 -0.8572639 -0.1347082 -0.04376929 -0.9899182 -0.8274217 -0.2688434 0.4930485 -0.4896742 -0.1591041 0.8572661 -0.1347096 -0.04376989 0.9899179 -0.8700039 4.03107e-7 -0.493045 -0.5148813 0 -0.8572615 -0.8700039 -4.00572e-7 0.493045 -0.5148813 0 0.8572615 -0.1416422 0 0.989918 -0.4896742 0.1591041 -0.8572661 -0.1347082 0.04376929 -0.9899182 -0.1416429 0 -0.9899178 -0.8274186 0.2688444 0.4930531 -0.4896752 0.1591051 0.8572652 -0.1347093 0.04376977 0.9899181 -0.8274217 0.2688434 -0.4930485 -0.4165455 0.3026381 -0.8572632 -0.7038479 0.5113765 0.493044 -0.4165439 0.3026379 0.8572639 -0.1145889 0.08325409 0.9899184 -0.7038469 0.5113728 -0.4930491 -0.3026379 0.416545 -0.8572634 -0.1145904 0.08325493 -0.9899181 -0.511376 0.7038446 0.4930492 -0.3026379 0.4165451 0.8572634 -0.08325642 0.1145927 0.9899176 -0.2688473 0.8274203 -0.4930487 -0.511376 0.7038446 -0.4930492 -0.1591064 0.4896787 -0.8572631 -0.08325546 0.1145913 -0.9899179 -0.2688473 0.8274202 0.4930487 -0.1591064 0.4896788 0.8572631 -0.04376894 0.1347078 0.9899182 -0.04376983 0.1347105 -0.9899178 0 0.8699985 0.4930546 0 0.1416426 0.9899179 0 0.6507921 0.759256 0.2490474 0.6012536 0.7592559 0 0.6507923 0.759256 0.4601795 0.4601793 0.7592561 0.4601797 0.4601795 0.759256 0.6012552 0.2490435 0.7592559 0.6012534 0.2490476 0.759256 0.6507923 0 0.7592559 0.6012534 -0.2490476 0.759256 0.6012552 -0.2490435 0.7592559 0.4601795 -0.4601793 0.7592561 0.4601797 -0.4601795 0.759256 0.2490473 -0.6012536 0.7592559 0 -0.6507921 0.759256 0 -0.6507923 0.759256 -0.2490474 -0.6012536 0.7592559 -0.4601795 -0.4601793 0.7592561 -0.4601797 -0.4601795 0.759256 -0.6012552 -0.2490435 0.7592559 -0.6012534 -0.2490476 0.759256 -0.6507923 0 0.7592559 -0.6012534 0.2490476 0.759256 -0.6012552 0.2490435 0.7592559 -0.4601795 0.4601793 0.7592561 -0.4601797 0.4601795 0.759256 0 0 1 -0.2490473 0.6012536 0.7592559 0 0 -1 0 0 -1 0 0 -1 -1 0 0 -1 0 0 -1 0 0 1 0 0 -0.01385778 0.4382791 -0.8987321 0.02128404 0.3560925 -0.9342083 0.03946518 0.3120911 -0.9492322 0.0691688 0.8826841 0.464849 0.06970554 0.9464263 0.315307 0.06969571 0.9476621 0.3115754 -0.01385778 -0.4382791 0.8987321 0.02128404 -0.3560925 0.9342083 0.03946518 -0.3120911 0.9492322 0.0691688 -0.8826841 -0.464849 0.06970554 -0.9464263 -0.315307 0.06969571 -0.9476621 -0.3115754 -0.6234894 -0.7818318 1.19373e-6 -0.6234892 -0.781832 1.71666e-6 -0.6234892 -0.781832 1.74623e-6 0.62349 0.7818314 2.40892e-7 0.6234902 0.7818313 3.08526e-6 0.6234899 0.7818314 0 -0.3513007 0.2624282 -0.898732 -0.265134 0.2386606 -0.9342083 -0.2193965 0.2254408 -0.9492322 -0.6469833 0.6044223 0.4648509 -0.6964851 0.6445851 0.3153073 -0.6974575 0.645348 0.3115754 0.3340203 -0.284097 0.8987321 0.2916747 -0.2053794 0.9342083 0.2686087 -0.1637303 0.9492322 0.733236 -0.4962657 -0.46485 0.7834057 -0.535588 -0.3153108 0.7843658 -0.5363663 -0.3115792 0.222521 -0.9749279 1.08098e-6 0.222521 -0.9749279 -3.89762e-7 0.222521 -0.9749279 -4.72938e-7 -0.2225202 0.9749281 6.08019e-6 -0.2225204 0.974928 -6.75193e-7 -0.2225202 0.9749282 6.6523e-6 -0.4242069 -0.1110366 -0.8987321 -0.3519006 -0.05848759 -0.9342083 -0.3130481 -0.03097105 -0.9492322 -0.8759451 -0.1289811 0.4648486 -0.9382085 -0.1426419 0.3153066 -0.9394112 -0.1429264 0.3115749 0.4303743 0.0840159 0.8987321 0.3424283 0.09998846 0.9342083 0.2954844 0.1079225 0.9492322 0.8451617 0.2638504 -0.4648491 0.9071862 0.2785576 -0.3153076 0.9083933 0.278823 -0.3115757 0.9009691 -0.4338834 8.62719e-7 0.900969 -0.4338835 6.78876e-7 0.9009692 -0.4338834 8.73116e-7 -0.9009689 0.4338837 6.07584e-7 -0.900969 0.4338837 -2.03679e-6 -0.9009689 0.4338837 -2.26075e-6 -0.1776768 -0.4008887 -0.898732 -0.173679 -0.3115935 -0.9342083 -0.1709682 -0.264061 -0.9492322 -0.4453013 -0.7652598 0.4648488 -0.473442 -0.8224566 0.3153059 -0.4739694 -0.8235744 0.3115739 0.2026476 0.3888632 0.8987321 0.1353265 0.3300631 0.9342083 0.09985429 0.2983076 0.9492322 0.3206631 0.8252812 -0.4648507 0.3478367 0.8829454 -0.3153051 0.3483818 0.8840544 -0.3115733 0.9009689 0.4338839 7.4608e-7 0.9009689 0.433884 1.07291e-6 0.9009688 0.4338839 1.0914e-6 -0.900969 -0.4338836 7.52496e-7 -0.9009695 -0.4338828 -1.80813e-7 -0.9009694 -0.4338827 -2.59856e-7 0.2026475 -0.3888633 -0.8987321 0.1353263 -0.3300631 -0.9342083 0.09985417 -0.2983077 -0.9492322 0.3206627 -0.8252815 0.4648505 0.3478362 -0.8829455 0.3153052 0.3483813 -0.8840547 0.3115732 -0.1776766 0.4008887 0.8987321 -0.1736789 0.3115935 0.9342083 -0.1709681 0.264061 0.9492322 -0.4453008 0.7652594 -0.4648497 -0.4734413 0.8224571 -0.315306 -0.4739686 0.8235749 -0.3115741 0.222521 0.9749279 0 0.222521 0.9749279 -1.17407e-6 0.222521 0.9749279 -1.23691e-6 -0.2225204 -0.974928 -3.01113e-7 -0.2225202 -0.9749281 -3.85658e-6 -0.2225204 -0.9749281 0 0.4303743 -0.0840159 -0.8987321 0.3424283 -0.09998846 -0.9342083 0.2954844 -0.1079225 -0.9492322 0.8451617 -0.2638504 0.4648491 0.9071862 -0.2785576 0.3153076 0.9083933 -0.278823 0.3115757 -0.4242069 0.1110366 0.8987321 -0.3519006 0.05848759 0.9342083 -0.3130481 0.03097105 0.9492322 -0.8759451 0.1289811 -0.4648486 -0.9382085 0.1426419 -0.3153066 -0.9394112 0.1429264 -0.3115749 -0.623489 0.7818321 0 -0.623489 0.7818322 -7.2516e-7 -0.623489 0.7818322 -7.63976e-7 0.6234894 -0.7818318 0 0.623489 -0.7818321 0 0.6234894 -0.7818318 0 0.3340205 0.2840968 -0.8987321 0.2916749 0.2053793 -0.9342084 0.2686089 0.1637302 -0.9492322 0.7332362 0.4962653 0.46485 0.7834069 0.5355888 0.315307 0.7843669 0.5363669 0.3115754 -0.3513008 -0.2624279 0.8987321 -0.265134 -0.2386604 0.9342083 -0.2193965 -0.2254406 0.9492322 -0.6469845 -0.6044225 -0.4648491 -0.6964852 -0.6445841 -0.3153091 -0.6974574 -0.6453469 -0.3115775 0.2490466 0.6012537 0.7592561 0.6507923 0 0.759256 0.2490468 -0.6012536 0.7592561 -0.2490466 -0.6012537 0.7592561 -0.6507923 0 0.759256 -0.2490468 0.6012536 0.7592561 0 0 -1 0 0 -1 -6.24436e-7 0 -1 0 0 -1 4.06872e-7 0 -1 0 0 -1 0 0 -1 -3.12218e-7 0 -1 6.24436e-7 0 -1 -4.06872e-7 0 -1 0 0 -1 3.12218e-7 0 -1 -1 0 0 -0.02755486 0.4692935 -0.8826122 0.0691328 0.8808349 0.4683489 -0.02755486 -0.4692935 0.8826122 0.0691328 -0.8808349 -0.4683489 -0.6234894 -0.7818319 1.16415e-6 0.6234902 0.7818313 3.32615e-6 -0.3840887 0.2710564 -0.8826122 -0.64556 0.6032412 0.4683507 0.3497282 -0.314143 0.8826124 0.7317678 -0.4951409 -0.4683498 0.222521 -0.9749279 1.16416e-6 -0.2225204 0.9749281 -1.24731e-6 -0.4513958 -0.1312917 -0.8826123 -0.8741343 -0.1286047 0.4683485 0.4636589 0.07756352 0.8826122 0.8433669 0.2634038 -0.468349 0.9009691 -0.4338835 6.6848e-7 -0.9009689 0.4338837 8.31539e-7 -0.1787927 -0.4347746 -0.8826123 -0.4444664 -0.7636092 0.4683489 0.2284449 0.4108632 0.8826122 0.3198931 0.8235995 -0.4683507 0.9009689 0.4338839 7.27597e-7 -0.900969 -0.4338836 8.31539e-7 0.2284448 -0.4108632 -0.8826122 0.3198928 -0.8235998 0.4683505 -0.1787925 0.4347746 0.8826122 -0.444466 0.7636088 -0.4683498 0.222521 0.9749279 0 -0.2225202 -0.9749281 -4.15769e-6 0.4636589 -0.07756352 -0.8826122 0.8433669 -0.2634038 0.468349 -0.4513958 0.1312917 0.8826123 -0.8741343 0.1286047 -0.4683485 -0.623489 0.7818321 0 0.623489 -0.781832 0 0.3497285 0.3141428 -0.8826122 0.7317681 0.4951405 0.4683498 -0.3840888 -0.2710561 0.8826123 -0.6455612 -0.6032414 -0.4683489</float_array>
          <technique_common>
            <accessor source="#lift_fan-mesh-normals-array" count="373" stride="3">
              <param name="X" type="float"/>
              <param name="Y" type="float"/>
              <param name="Z" type="float"/>
            </accessor>
          </technique_common>
        </source>
        <vertices id="lift_fan-mesh-vertices">
          <input semantic="POSITION" source="#lift_fan-mesh-positions"/>
        </vertices>
        <triangles material="aluminium-material" count="376">
          <input semantic="VERTEX" source="#lift_fan-mesh-vertices" offset="0"/>
          <input semantic="NORMAL" source="#lift_fan-mesh-normals" offset="1"/>
          <p>51 0 58 1 50 2 25 3 35 4 27 5 157 6 0 7 153 8 58 1 48 9 50 2 22 10 28 11 30 12 21 13 25 3 17 14 46 15 52 16 54 17 31 18 22 10 30 12 29 19 33 20 25 3 47 21 54 17 55 22 21 13 31 18 29 19 37 23 41 24 33 20 53 25 47 21 55 22 18 26 24 27 16 28 45 29 49 30 41 24 42 31 48 9 40 32 27 5 18 26 19 33 53 25 57 34 49 30 43 35 50 2 42 31 17 14 27 5 19 33 61 36 65 37 57 34 49 30 43 35 41 24 14 38 20 39 22 10 69 40 73 41 65 37 46 15 36 42 44 43 23 44 14 38 22 10 77 45 81 46 73 41 47 21 38 47 46 15 21 13 15 48 23 44 85 49 89 50 81 46 37 23 47 21 45 29 10 51 16 28 8 52 93 53 97 54 89 50 42 31 32 55 34 56 19 33 10 51 11 57 101 58 105 59 97 54 43 35 34 56 35 4 17 14 11 57 9 60 109 61 113 62 105 59 33 20 43 35 35 4 6 63 12 64 14 38 117 65 121 66 113 62 30 12 36 42 38 47 15 48 6 63 14 38 125 67 129 68 121 66 39 69 30 12 38 47 5 70 15 48 13 71 133 72 137 73 129 68 29 19 39 69 37 23 2 74 8 52 1 75 141 76 145 77 137 73 26 78 32 55 24 27 11 57 2 74 3 79 149 80 153 8 145 77 13 71 17 14 9 60 0 7 11 57 3 79 57 34 51 0 49 30 27 5 34 56 26 78 84 81 52 16 20 39 5 70 9 60 0 7 61 36 55 22 63 82 63 82 54 17 62 83 62 83 52 16 60 84 65 37 59 85 57 34 59 85 66 86 58 1 66 86 56 87 58 1 69 40 63 82 71 88 63 82 70 89 71 88 70 89 60 84 68 90 65 37 75 91 67 92 67 92 74 93 66 86 74 93 64 94 66 86 69 40 79 95 77 45 71 88 78 96 79 95 78 96 68 90 76 97 81 46 75 91 73 41 75 91 82 98 74 93 82 98 72 99 74 93 85 49 79 95 87 100 79 95 86 101 87 100 86 101 76 97 84 81 81 46 91 102 83 103 91 102 82 98 83 103 82 98 88 104 80 105 85 49 95 106 93 53 95 106 86 101 94 107 86 101 92 108 94 107 97 54 91 102 89 50 99 109 90 110 91 102 90 110 96 111 88 104 101 58 95 106 103 112 103 112 94 107 102 113 94 107 100 114 102 113 97 54 107 115 99 109 107 115 98 116 99 109 98 116 104 117 96 111 101 58 111 118 109 61 111 118 102 113 110 119 102 113 108 120 110 119 105 59 115 121 107 115 107 115 114 122 106 123 106 123 112 124 104 117 109 61 119 125 117 65 119 125 110 119 118 126 110 119 116 127 118 126 121 66 115 121 113 62 123 128 114 122 115 121 122 129 112 124 114 122 117 65 127 130 125 67 127 130 118 126 126 131 126 131 116 127 124 132 129 68 123 128 121 66 123 128 130 133 122 129 122 129 128 134 120 135 125 67 135 136 133 72 127 130 134 137 135 136 126 131 132 138 134 137 137 73 131 139 129 68 131 139 138 140 130 133 138 140 128 134 130 133 141 76 135 136 143 141 143 141 134 137 142 142 142 142 132 138 140 143 145 77 139 144 137 73 139 144 146 145 138 140 146 145 136 146 138 140 149 80 143 141 151 147 143 141 150 148 151 147 150 148 140 143 148 149 145 77 155 150 147 151 147 151 154 152 146 145 154 152 144 153 146 145 149 80 159 154 157 6 151 147 158 155 159 154 158 155 148 149 156 156 0 7 155 150 153 8 155 150 2 74 154 152 2 74 152 157 154 152 5 70 159 154 7 158 159 154 6 63 7 158 6 63 156 156 4 159 56 87 88 104 120 135 161 160 162 161 160 162 162 161 165 163 164 164 165 163 166 165 164 164 167 166 168 167 166 165 168 167 171 168 170 169 170 169 173 170 172 171 173 170 174 172 172 171 174 172 177 173 176 174 177 173 178 175 176 174 178 175 181 176 180 177 181 176 182 178 180 177 183 179 184 180 182 178 184 180 187 181 186 182 186 182 189 183 188 184 169 185 165 185 181 185 189 183 190 186 188 184 190 186 161 160 160 162 178 187 182 188 190 189 51 0 59 85 58 1 25 3 33 20 35 4 157 6 5 70 0 7 58 1 56 87 48 9 22 10 20 39 28 11 21 13 29 19 25 3 46 15 44 43 52 16 31 18 23 44 22 10 29 19 37 23 33 20 47 21 46 15 54 17 21 13 23 44 31 18 37 23 45 29 41 24 53 25 45 29 47 21 18 26 26 78 24 27 45 29 53 25 49 30 42 31 50 2 48 9 27 5 26 78 18 26 53 25 61 36 57 34 43 35 51 0 50 2 17 14 25 3 27 5 61 36 69 40 65 37 49 30 51 0 43 35 14 38 12 64 20 39 69 40 77 45 73 41 46 15 38 47 36 42 23 44 15 48 14 38 77 45 85 49 81 46 47 21 39 69 38 47 21 13 13 71 15 48 85 49 93 53 89 50 37 23 39 69 47 21 10 51 18 26 16 28 93 53 101 58 97 54 42 31 40 32 32 55 19 33 18 26 10 51 101 58 109 61 105 59 43 35 42 31 34 56 17 14 19 33 11 57 109 61 117 65 113 62 33 20 41 24 43 35 6 63 4 159 12 64 117 65 125 67 121 66 30 12 28 11 36 42 15 48 7 158 6 63 125 67 133 72 129 68 39 69 31 18 30 12 5 70 7 158 15 48 133 72 141 76 137 73 29 19 31 18 39 69 2 74 10 51 8 52 141 76 149 80 145 77 26 78 34 56 32 55 11 57 10 51 2 74 149 80 157 6 153 8 13 71 21 13 17 14 0 7 9 60 11 57 57 34 59 85 51 0 27 5 35 4 34 56 20 39 12 64 4 159 4 159 156 156 148 149 148 149 140 143 132 138 132 138 124 132 148 149 124 132 116 127 148 149 116 127 108 120 84 81 108 120 100 114 84 81 100 114 92 108 84 81 84 81 76 97 68 90 68 90 60 84 84 81 60 84 52 16 84 81 52 16 44 43 20 39 44 43 36 42 20 39 36 42 28 11 20 39 20 39 4 159 148 149 20 39 148 149 116 127 116 127 84 81 20 39 5 70 13 71 9 60 61 36 53 25 55 22 63 82 55 22 54 17 62 83 54 17 52 16 65 37 67 92 59 85 59 85 67 92 66 86 66 86 64 94 56 87 69 40 61 36 63 82 63 82 62 83 70 89 70 89 62 83 60 84 65 37 73 41 75 91 67 92 75 91 74 93 74 93 72 99 64 94 69 40 71 88 79 95 71 88 70 89 78 96 78 96 70 89 68 90 81 46 83 103 75 91 75 91 83 103 82 98 82 98 80 105 72 99 85 49 77 45 79 95 79 95 78 96 86 101 86 101 78 96 76 97 81 46 89 50 91 102 91 102 90 110 82 98 82 98 90 110 88 104 85 49 87 100 95 106 95 106 87 100 86 101 86 101 84 81 92 108 97 54 99 109 91 102 99 109 98 116 90 110 90 110 98 116 96 111 101 58 93 53 95 106 103 112 95 106 94 107 94 107 92 108 100 114 97 54 105 59 107 115 107 115 106 123 98 116 98 116 106 123 104 117 101 58 103 112 111 118 111 118 103 112 102 113 102 113 100 114 108 120 105 59 113 62 115 121 107 115 115 121 114 122 106 123 114 122 112 124 109 61 111 118 119 125 119 125 111 118 110 119 110 119 108 120 116 127 121 66 123 128 115 121 123 128 122 129 114 122 122 129 120 135 112 124 117 65 119 125 127 130 127 130 119 125 118 126 126 131 118 126 116 127 129 68 131 139 123 128 123 128 131 139 130 133 122 129 130 133 128 134 125 67 127 130 135 136 127 130 126 131 134 137 126 131 124 132 132 138 137 73 139 144 131 139 131 139 139 144 138 140 138 140 136 146 128 134 141 76 133 72 135 136 143 141 135 136 134 137 142 142 134 137 132 138 145 77 147 151 139 144 139 144 147 151 146 145 146 145 144 153 136 146 149 80 141 76 143 141 143 141 142 142 150 148 150 148 142 142 140 143 145 77 153 8 155 150 147 151 155 150 154 152 154 152 152 157 144 153 149 80 151 147 159 154 151 147 150 148 158 155 158 155 150 148 148 149 0 7 3 79 155 150 155 150 3 79 2 74 2 74 1 75 152 157 5 70 157 6 159 154 159 154 158 155 6 63 6 63 158 155 156 156 152 157 1 75 8 52 8 52 16 28 152 157 16 28 24 27 152 157 24 27 32 55 40 32 40 32 48 9 56 87 56 87 64 94 72 99 72 99 80 105 56 87 80 105 88 104 56 87 88 104 96 111 104 117 104 117 112 124 120 135 120 135 128 134 136 146 136 146 144 153 120 135 144 153 152 157 120 135 24 27 40 32 56 87 88 104 104 117 120 135 152 157 24 27 120 135 24 27 56 87 120 135 161 160 163 314 162 161 162 161 163 314 165 163 165 163 167 166 166 165 167 166 169 315 168 167 168 167 169 315 171 168 170 169 171 168 173 170 173 170 175 316 174 172 174 172 175 316 177 173 177 173 179 317 178 175 178 175 179 317 181 176 181 176 183 179 182 178 183 179 185 318 184 180 184 180 185 318 187 181 186 182 187 181 189 183 165 185 163 185 161 185 161 185 191 185 189 185 189 185 187 185 185 185 185 185 183 185 181 185 181 185 179 185 177 185 177 185 175 185 173 185 173 185 171 185 169 185 169 185 167 185 165 185 165 185 161 185 189 185 189 185 185 185 165 185 185 185 181 185 165 185 181 185 177 185 173 185 173 185 169 185 181 185 189 183 191 319 190 186 190 186 191 319 161 160 190 189 160 320 162 321 162 321 164 322 166 323 166 323 168 324 174 325 168 324 170 326 174 325 170 326 172 327 174 325 174 325 176 320 178 187 178 187 180 328 182 188 182 188 184 329 190 189 184 329 186 330 190 189 186 330 188 331 190 189 190 189 162 321 174 325 162 321 166 323 174 325 174 325 178 187 190 189</p>
        </triangles>
        <triangles material="blade-material" count="84">
          <input semantic="VERTEX" source="#lift_fan-mesh-vertices" offset="0"/>
          <input semantic="NORMAL" source="#lift_fan-mesh-normals" offset="1"/>
          <p>192 190 194 191 193 192 196 193 198 193 199 193 192 194 197 195 196 196 193 197 198 198 197 199 194 200 199 201 198 202 195 203 196 204 199 205 200 206 202 207 201 208 204 209 206 210 207 211 200 212 205 213 204 214 201 215 206 216 205 217 202 218 207 219 206 220 203 221 204 222 207 223 208 224 210 225 209 226 212 227 214 228 215 229 208 230 213 231 212 232 209 233 214 234 213 235 210 236 215 237 214 238 211 239 212 240 215 241 219 242 217 243 216 244 223 245 221 246 222 247 216 248 221 249 220 250 217 251 222 252 221 253 218 254 223 255 222 256 219 257 220 258 223 259 224 260 226 261 225 262 231 263 229 264 230 265 224 266 229 267 228 268 225 269 230 270 229 271 226 272 231 273 230 274 227 275 228 276 231 277 232 278 234 279 233 280 236 281 238 282 239 283 232 284 237 285 236 286 233 287 238 288 237 289 234 290 239 291 238 292 235 293 236 294 239 295 240 296 242 297 241 298 244 299 246 300 247 301 240 302 245 303 244 304 241 305 246 306 245 307 242 308 247 309 246 310 243 311 244 312 247 313 192 190 195 332 194 191 196 193 197 193 198 193 192 194 193 333 197 195 193 197 194 334 198 198 194 200 195 335 199 201 195 203 192 336 196 204 200 206 203 337 202 207 204 209 205 338 206 210 200 212 201 339 205 213 201 215 202 340 206 216 202 218 203 341 207 219 203 221 200 342 204 222 208 224 211 343 210 225 212 227 213 344 214 228 208 230 209 345 213 231 209 233 210 346 214 234 210 236 211 347 215 237 211 239 208 348 212 240 219 242 218 349 217 243 223 245 220 350 221 246 216 248 217 351 221 249 217 251 218 352 222 252 218 254 219 353 223 255 219 257 216 354 220 258 224 260 227 355 226 261 231 263 228 356 229 264 224 266 225 357 229 267 225 269 226 358 230 270 226 272 227 359 231 273 227 275 224 360 228 276 232 278 235 361 234 279 236 281 237 362 238 282 232 284 233 363 237 285 233 287 234 364 238 288 234 290 235 365 239 291 235 293 232 366 236 294 240 296 243 367 242 297 244 299 245 368 246 300 240 302 241 369 245 303 241 305 242 370 246 306 242 308 243 371 247 309 243 311 240 372 244 312</p>
        </triangles>
      </mesh>
    </geometry>
  </library_geometries>
  <library_visual_scenes>
    <visual_scene id="Scene" name="Scene">
      <node id="lift_fan" name="lift_fan" type="NODE">
        <matrix sid="transform">1 0 0 0 0 1 0 0 0 0 1 0 0 0 0 1</matrix>
        <instance_geometry url="#lift_fan-mesh" name="lift_fan">
          <bind_material>
            <technique_common>
              <instance_material symbol="aluminium-material" target="#aluminium-material"/>
              <instance_material symbol="blade-material" target="#blade-material"/>
            </technique_common>
          </bind_material>
        </instance_geometry>
      </node>
    </visual_scene>
  </library_visual_scenes>
  <scene>
    <instance_visual_scene url="#Scene"/>
  </scene>
</COLLADA>