<?xml version="1.0" encoding="utf-8"?>
<COLLADA xmlns="http://www.collada.org/2005/11/COLLADASchema" version="1.4.1" xmlns:xsi="http://www.w3.org/2001/XMLSchema-instance">
  <asset>
    <contributor>
      <author>Blender User</author>
      <authoring_tool>Blender 4.2.0 commit date:2024-07-16, commit time:07:50, hash:bf738fd35afe</authoring_tool>
    </contributor>
    <created>2026-09-25T18:34:11</created>
    <modified>2026-09-25T18:34:11</modified>
    <unit name="meter" meter="1"/>
    <up_axis>Z_UP</up_axis>
  </asset>
  <library_effects>
    <effect id="dark_green-effect">
      <profile_COMMON>
        <technique sid="common">
          <lambert>
            <emission>
              <color sid="emission">0 0 0 1</color>
            </emission>
            <diffuse>
              <color sid="diffuse">0.035 0.055 0.022 1</color>
            </diffuse>
            <index_of_refraction>
              <float sid="ior">1.5</float>
            </index_of_refraction>
          </lambert>
        </technique>
      </profile_COMMON>
    </effect>
    <effect id="aluminium-effect">
      <profile_COMMON>
        <technique sid="common">
          <lambert>
            <emission>
              <color sid="emission">0 0 0 1</color>
            </emission>
            <diffuse>
              <color sid="diffuse">0.55 0.55 0.56 1</color>
            </diffuse>
            <reflectivity>
              <float sid="specular">1</float>
            </reflectivity>
            <index_of_refraction>
              <float sid="ior">1.5</float>
            </index_of_refraction>
          </lambert>
        </technique>
      </profile_COMMON>
    </effect>
  </library_effects>
  <library_images/>
  <library_materials>
    <material id="dark_green-material" name="dark_green">
      <instance_effect url="#dark_green-effect"/>
    </material>
    <material id="aluminium-material" name="aluminium">
      <instance_effect url="#aluminium-effect"/>
    </material>
  </library_materials>
  <library_geometries>
    <geometry id="rudder_left-mesh" name="rudder_left">
      <mesh>
        <source id="rudder_left-mesh-positions">
          <float_array id="rudder_left-mesh-positions-array" count="336">-0.05199998 -0.000999987 -0.105 -0.05199998 -0.003999948 -0.1019999 -0.055 -0.000999987 -0.1019999 -0.05199998 -0.00249803 -0.1045992 -0.05349802 -0.000999987 -0.1045992 -0.05343461 -0.002434611 -0.1042098 -0.05349802 -0.003599166 -0.1019999 -0.05199998 -0.003599166 -0.103498 -0.05343461 -0.003209888 -0.1034346 -0.05459922 -0.000999987 -0.103498 -0.05459922 -0.00249803 -0.1019999 -0.05420988 -0.002434611 -0.1034346 -0.05199998 -0.003999948 0.1019999 -0.05199998 -0.000999987 0.105 -0.055 -0.000999987 0.1019999 -0.05199998 -0.003599166 0.103498 -0.05349802 -0.003599166 0.1019999 -0.05343461 -0.003209888 0.1034346 -0.05349802 -0.000999987 0.1045992 -0.05199998 -0.00249803 0.1045992 -0.05343461 -0.002434611 0.1042098 -0.05459922 -0.00249803 0.1019999 -0.05459922 -0.000999987 0.103498 -0.05420988 -0.002434611 0.1034346 -0.05199998 0.000999987 -0.105 -0.055 0.000999987 -0.1019999 -0.05199998 0.003999948 -0.1019999 -0.05349802 0.000999987 -0.1045992 -0.05199998 0.00249803 -0.1045992 -0.05343461 0.002434611 -0.1042098 -0.05459922 0.00249803 -0.1019999 -0.05459922 0.000999987 -0.103498 -0.05420988 0.002434611 -0.1034346 -0.05199998 0.003599166 -0.103498 -0.05349802 0.003599166 -0.1019999 -0.05343461 0.003209888 -0.1034346 -0.05199998 0.000999987 0.105 -0.05199998 0.003999948 0.1019999 -0.055 0.000999987 0.1019999 -0.05199998 0.00249803 0.1045992 -0.05349802 0.000999987 0.1045992 -0.05343461 0.002434611 0.1042098 -0.05349802 0.003599166 0.1019999 -0.05199998 0.003599166 0.103498 -0.05343461 0.003209888 0.1034346 -0.05459922 0.000999987 0.103498 -0.05459922 0.00249803 0.1019999 -0.05420988 0.002434611 0.1034346 0.009000003 -0.000999987 -0.105 0.01200002 -0.000999987 -0.1019999 0.009000003 -0.003999948 -0.1019999 0.01049804 -0.000999987 -0.1045992 0.009000003 -0.00249803 -0.1045992 0.01043462 -0.002434611 -0.1042098 0.01159924 -0.00249803 -0.1019999 0.01159924 -0.000999987 -0.103498 0.0112099 -0.002434611 -0.1034346 0.009000003 -0.003599166 -0.103498 0.01049804 -0.003599166 -0.1019999 0.01043462 -0.003209888 -0.1034346 0.009000003 -0.000999987 0.105 0.009000003 -0.003999948 0.1019999 0.01200002 -0.000999987 0.1019999 0.009000003 -0.00249803 0.1045992 0.01049804 -0.000999987 0.1045992 0.01043462 -0.002434611 0.1042098 0.01049804 -0.003599166 0.1019999 0.009000003 -0.003599166 0.103498 0.01043462 -0.003209888 0.1034346 0.01159924 -0.000999987 0.103498 0.01159924 -0.00249803 0.1019999 0.0112099 -0.002434611 0.1034346 0.009000003 0.000999987 -0.105 0.009000003 0.003999948 -0.1019999 0.01200002 0.000999987 -0.1019999 0.009000003 0.00249803 -0.1045992 0.01049804 0.000999987 -0.1045992 0.01043462 0.002434611 -0.1042098 0.01049804 0.003599166 -0.1019999 0.009000003 0.003599166 -0.103498 0.01043462 0.003209888 -0.1034346 0.01159924 0.000999987 -0.103498 0.01159924 0.00249803 -0.1019999 0.0112099 0.002434611 -0.1034346 0.009000003 0.000999987 0.105 0.01200002 0.000999987 0.1019999 0.009000003 0.003999948 0.1019999 0.01049804 0.000999987 0.1045992 0.009000003 0.00249803 0.1045992 0.01043462 0.002434611 0.1042098 0.01159924 0.00249803 0.1019999 0.01159924 0.000999987 0.103498 0.0112099 0.002434611 0.1034346 0.009000003 0.003599166 0.103498 0.01049804 0.003599166 0.1019999 0.01043462 0.003209888 0.1034346 0 0.004999995 -0.118 0 0.004999995 0.118 0.003535509 0.003535509 -0.118 0.003535509 0.003535509 0.118 0.004999995 0 -0.118 0.004999995 0 0.118 0.003535509 -0.003535509 -0.118 0.003535509 -0.003535509 0.118 0 -0.004999995 -0.118 0 -0.004999995 0.118 -0.003535509 -0.003535509 -0.118 -0.003535509 -0.003535509 0.118 -0.004999995 0 -0.118 -0.004999995 0 0.118 -0.003535509 0.003535509 -0.118 -0.003535509 0.003535509 0.118</float_array>
          <technique_common>
            <accessor source="#rudder_left-mesh-positions-array" count="112" stride="3">
              <param name="X" type="float"/>
              <param name="Y" type="float"/>
              <param name="Z" type="float"/>
            </accessor>
          </technique_common>
        </source>
        <source id="rudder_left-mesh-normals">
          <float_array id="rudder_left-mesh-normals-array" count="387">0.1279696 -0.9834874 0.1279702 -0.1279698 -0.9834874 -0.1279702 0.1279688 -0.9834878 -0.1279681 0.9834877 0.127968 0.1279695 0.9834877 -0.127968 -0.1279695 0.9834877 0.1279696 -0.1279682 -0.1279689 0.1279677 0.9834879 0.1279689 -0.1279678 0.9834878 0.127969 0.1279699 0.9834875 -0.9834874 -0.1279702 0.1279695 -0.9834874 0.1279702 -0.1279695 -0.9834876 -0.1279703 -0.1279681 -0.1279698 0.9834874 0.1279702 0.1279696 0.9834874 -0.1279702 -0.1279687 0.9834878 -0.1279681 -0.1216017 -0.4915626 -0.8623104 -0.4915649 -0.1216053 -0.8623086 -0.1279689 -0.1279677 -0.9834879 -0.1216034 -0.862306 -0.4915698 -0.4488394 -0.4488532 -0.7727057 -0.4915646 -0.8623088 -0.1216051 -0.7726964 -0.4488564 -0.4488521 -0.448844 -0.7727087 -0.4488435 -0.8623055 -0.1216086 -0.4915698 -0.8623055 -0.4915702 -0.1216065 -0.1216048 -0.8623092 0.491564 -0.4915653 -0.8623084 0.1216052 -0.1279687 -0.9834878 0.1279681 -0.4488481 -0.448859 0.7726973 -0.448844 -0.7727085 0.4488436 -0.4915647 -0.1216091 0.8623082 -0.121605 -0.4915707 0.8623054 -0.127969 -0.1279698 0.9834875 -0.8623049 -0.1216104 0.4915702 -0.8623049 -0.4915711 0.1216066 -0.7726983 -0.4488617 0.4488438 -0.4915612 0.1216053 -0.8623107 -0.1216012 0.4915639 -0.8623098 -0.127969 0.1279698 -0.9834875 -0.7726959 0.4488571 -0.4488524 -0.4488387 0.4488534 -0.7727061 -0.8623049 0.4915711 -0.1216066 -0.8623026 0.1216089 -0.4915745 -0.4915653 0.8623084 -0.1216052 -0.1216035 0.8623067 -0.4915687 -0.448844 0.7727085 -0.4488436 -0.1216055 0.4915693 0.862306 -0.4915704 0.1216092 0.8623049 -0.1216048 0.8623085 0.4915652 -0.4488462 0.4488608 0.7726973 -0.4915646 0.8623088 0.1216051 -0.7726975 0.4488578 0.448849 -0.448844 0.7727087 0.4488435 -0.862308 0.1216102 0.491565 -0.8623055 0.4915702 0.1216065 -0.9834876 0.1279703 0.1279681 0.4915613 -0.1216055 -0.8623107 0.1216012 -0.4915639 -0.8623098 0.127969 -0.1279699 -0.9834875 0.7726957 -0.4488574 -0.4488523 0.4488387 -0.4488531 -0.772706 0.8623058 -0.4915695 -0.1216066 0.8623027 -0.1216087 -0.4915745 0.4915654 -0.8623084 -0.1216051 0.1216035 -0.8623068 -0.4915687 0.4488437 -0.7727088 -0.4488433 0.1216055 -0.4915695 0.862306 0.4915704 -0.1216092 0.8623049 0.1216048 -0.8623085 0.4915652 0.4488459 -0.4488619 0.7726969 0.4915643 -0.862309 0.121605 0.7726971 -0.4488586 0.4488489 0.4488437 -0.772709 0.4488434 0.862308 -0.121609 0.4915651 0.8623054 -0.4915704 0.1216065 0.9834877 -0.1279696 0.1279682 0.1216017 0.4915626 -0.8623104 0.4915649 0.1216055 -0.8623086 0.1279689 0.1279678 -0.9834878 0.1216034 0.862306 -0.4915699 0.4488394 0.448853 -0.7727057 0.4915643 0.862309 -0.121605 0.772696 0.4488572 -0.4488519 0.4488437 0.772709 -0.4488434 0.8623054 0.1216085 -0.4915697 0.8623054 0.4915704 -0.1216065 0.4915648 0.121609 0.8623083 0.121605 0.4915707 0.8623053 0.862305 0.1216095 0.4915702 0.4488481 0.4488589 0.7726973 0.8623058 0.4915695 0.1216066 0.4915654 0.8623084 0.1216051 0.7726982 0.4488617 0.4488437 0.1216048 0.8623092 0.491564 0.1279688 0.9834878 0.1279681 0.4488437 0.7727088 0.4488433 0.3826835 0.9238795 0 0.3826835 0.9238795 0 0.923878 0.3826875 0 0.923878 0.3826873 0 0.9238779 0.3826873 0 0.923878 -0.3826875 0 0.923878 -0.3826873 0 0.9238779 -0.3826873 0 0.3826835 -0.9238795 0 0.3826835 -0.9238795 0 -0.3826835 -0.9238795 0 -0.3826835 -0.9238795 0 -0.923878 -0.3826875 0 -0.923878 -0.3826873 0 -0.9238779 -0.3826873 0 7.76138e-7 0 1 5.48773e-7 0 1 -5.48773e-7 0 1 -0.923878 0.3826875 0 -0.923878 0.3826873 0 -0.9238779 0.3826873 0 -0.3826835 0.9238795 0 -0.3826835 0.9238795 0 0 0 -1 0.923878 0.3826874 0 0.923878 -0.3826874 0 -0.923878 -0.3826874 0 5.62107e-6 0 1 -1.00354e-6 0 1 -7.76138e-7 0 1 -5.62107e-6 0 1 1.00354e-6 0 1 -0.923878 0.3826874 0</float_array>
          <technique_common>
            <accessor source="#rudder_left-mesh-normals-array" count="129" stride="3">
              <param name="X" type="float"/>
              <param name="Y" type="float"/>
              <param name="Z" type="float"/>
            </accessor>
          </technique_common>
        </source>
        <vertices id="rudder_left-mesh-vertices">
          <input semantic="POSITION" source="#rudder_left-mesh-positions"/>
        </vertices>
        <triangles material="dark_green-material" count="188">
          <input semantic="VERTEX" source="#rudder_left-mesh-vertices" offset="0"/>
          <input semantic="NORMAL" source="#rudder_left-mesh-normals" offset="1"/>
          <p>61 0 1 1 50 2 85 3 49 4 74 5 36 6 60 7 84 8 14 9 25 10 2 11 37 12 73 13 26 14 3 15 4 16 0 17 7 18 5 19 3 15 6 20 7 18 1 1 6 20 11 21 8 22 9 23 10 24 2 11 4 16 11 21 9 23 5 19 8 22 11 21 15 25 16 26 12 27 15 25 20 28 17 29 18 30 19 31 13 32 22 33 20 28 18 30 21 34 22 33 14 9 16 26 23 35 21 34 17 29 20 28 23 35 27 36 28 37 24 38 27 36 32 39 29 40 30 41 31 42 25 10 34 43 32 39 30 41 33 44 34 43 26 14 33 44 29 40 35 45 29 40 32 39 35 45 39 46 40 47 36 6 43 48 41 49 39 46 42 50 43 48 37 12 42 50 47 51 44 52 45 53 46 54 38 55 40 47 47 51 45 53 41 49 44 52 47 51 51 56 52 57 48 58 51 56 56 59 53 60 54 61 55 62 49 4 58 63 56 59 54 61 57 64 58 63 50 2 57 64 53 60 59 65 53 60 56 59 59 65 63 66 64 67 60 7 67 68 65 69 63 66 66 70 67 68 61 0 66 70 71 71 68 72 69 73 70 74 62 75 64 67 71 71 69 73 65 69 68 72 71 71 75 76 76 77 72 78 79 79 77 80 75 76 78 81 79 79 73 13 78 81 83 82 80 83 81 84 82 85 74 5 76 77 83 82 81 84 77 80 80 83 83 82 87 86 88 87 84 8 91 88 89 89 87 86 90 90 91 88 85 3 94 91 92 92 90 90 93 93 94 91 86 94 93 93 89 89 95 95 89 89 92 92 95 95 0 17 27 36 24 38 4 16 31 42 27 36 9 23 25 10 31 42 12 27 6 20 1 1 16 26 10 24 6 20 21 34 2 11 10 24 36 6 18 30 13 32 40 47 22 33 18 30 45 53 14 9 22 33 26 14 42 50 37 12 34 43 46 54 42 50 30 41 38 55 46 54 24 38 75 76 72 78 28 37 79 79 75 76 33 44 73 13 79 79 84 8 39 46 36 6 88 87 43 48 39 46 93 93 37 12 43 48 74 5 90 90 85 3 82 85 94 91 90 90 78 81 86 94 94 91 72 78 51 56 48 58 76 77 55 62 51 56 81 84 49 4 55 62 60 7 87 86 84 8 64 67 91 88 87 86 69 73 85 3 91 88 50 2 66 70 61 0 58 63 70 74 66 70 54 61 62 75 70 74 48 58 3 15 0 17 52 57 7 18 3 15 57 64 1 1 7 18 13 32 63 66 60 7 19 31 67 68 63 66 15 25 61 0 67 68 72 78 0 17 24 38 61 0 12 27 1 1 85 3 62 75 49 4 36 6 13 32 60 7 14 9 38 55 25 10 37 12 86 94 73 13 3 15 5 19 4 16 7 18 8 22 5 19 6 20 8 22 7 18 6 20 10 24 11 21 9 23 11 21 10 24 4 16 5 19 11 21 15 25 17 29 16 26 15 25 19 31 20 28 18 30 20 28 19 31 22 33 23 35 20 28 21 34 23 35 22 33 16 26 17 29 23 35 27 36 29 40 28 37 27 36 31 42 32 39 30 41 32 39 31 42 34 43 35 45 32 39 33 44 35 45 34 43 33 44 28 37 29 40 39 46 41 49 40 47 43 48 44 52 41 49 42 50 44 52 43 48 42 50 46 54 47 51 45 53 47 51 46 54 40 47 41 49 47 51 51 56 53 60 52 57 51 56 55 62 56 59 54 61 56 59 55 62 58 63 59 65 56 59 57 64 59 65 58 63 57 64 52 57 53 60 63 66 65 69 64 67 67 68 68 72 65 69 66 70 68 72 67 68 66 70 70 74 71 71 69 73 71 71 70 74 64 67 65 69 71 71 75 76 77 80 76 77 79 79 80 83 77 80 78 81 80 83 79 79 78 81 82 85 83 82 81 84 83 82 82 85 76 77 77 80 83 82 87 86 89 89 88 87 91 88 92 92 89 89 90 90 92 92 91 88 94 91 95 95 92 92 93 93 95 95 94 91 93 93 88 87 89 89 0 17 4 16 27 36 4 16 9 23 31 42 9 23 2 11 25 10 12 27 16 26 6 20 16 26 21 34 10 24 21 34 14 9 2 11 36 6 40 47 18 30 40 47 45 53 22 33 45 53 38 55 14 9 26 14 34 43 42 50 34 43 30 41 46 54 30 41 25 10 38 55 24 38 28 37 75 76 28 37 33 44 79 79 33 44 26 14 73 13 84 8 88 87 39 46 88 87 93 93 43 48 93 93 86 94 37 12 74 5 82 85 90 90 82 85 78 81 94 91 78 81 73 13 86 94 72 78 76 77 51 56 76 77 81 84 55 62 81 84 74 5 49 4 60 7 64 67 87 86 64 67 69 73 91 88 69 73 62 75 85 3 50 2 58 63 66 70 58 63 54 61 70 74 54 61 49 4 62 75 48 58 52 57 3 15 52 57 57 64 7 18 57 64 50 2 1 1 13 32 19 31 63 66 19 31 15 25 67 68 15 25 12 27 61 0 72 78 48 58 0 17</p>
        </triangles>
        <triangles material="aluminium-material" count="28">
          <input semantic="VERTEX" source="#rudder_left-mesh-vertices" offset="0"/>
          <input semantic="NORMAL" source="#rudder_left-mesh-normals" offset="1"/>
          <p>97 96 98 96 96 97 99 98 100 99 98 100 101 101 102 102 100 103 103 104 104 104 102 105 105 106 106 106 104 107 107 108 108 109 106 110 103 111 101 112 109 113 109 114 110 115 108 116 111 117 96 117 110 118 102 119 106 119 110 119 97 96 99 96 98 96 99 98 101 120 100 99 101 101 103 121 102 102 103 104 105 104 104 104 105 106 107 106 106 106 107 108 109 122 108 109 101 112 99 123 97 124 97 124 111 125 101 112 111 125 109 113 101 112 109 113 107 126 105 127 105 127 103 111 109 113 109 114 111 128 110 115 111 117 97 117 96 117 110 119 96 119 98 119 98 119 100 119 102 119 102 119 104 119 106 119 106 119 108 119 110 119 110 119 98 119 102 119</p>
        </triangles>
      </mesh>
    </geometry>
  </library_geometries>
  <library_visual_scenes>
    <visual_scene id="Scene" name="Scene">
      <node id="rudder_left" name="rudder_left" type="NODE">
        <matrix sid="transform">1 0 0 0 0 1 0 0 0 0 1 0 0 0 0 1</matrix>
        <instance_geometry url="#rudder_left-mesh" name="rudder_left">
          <bind_material>
            <technique_common>
              <instance_material symbol="dark_green-material" target="#dark_green-material"/>
              <instance_material symbol="aluminium-material" target="#aluminium-material"/>
            </technique_common>
          </bind_material>
        </instance_geometry>
      </node>
    </visual_scene>
  </library_visual_scenes>
  <scene>
    <instance_visual_scene url="#Scene"/>
  </scene>
</COLLADA>