<?xml version="1.0" encoding="utf-8"?>
<COLLADA xmlns="http://www.collada.org/2005/11/COLLADASchema" version="1.4.1" xmlns:xsi="http://www.w3.org/2001/XMLSchema-instance">
  <asset>
    <contributor>
      <author>Blender User</author>
      <authoring_tool>Blender 4.2.0 commit date:2024-07-16, commit time:07:50, hash:bf738fd35afe</authoring_tool>
    </contributor>
    <created>2026-09-25T18:34:11</created>
    <modified>2026-09-25T18:34:11</modified>
    <unit name="meter" meter="1"/>
    <up_axis>Z_UP</up_axis>
  </asset>
  <library_effects>
    <effect id="aluminium-effect">
      <profile_COMMON>
        <technique sid="common">
          <lambert>
            <emission>
              <color sid="emission">0 0 0 1</color>
            </emission>
            <diffuse>
              <color sid="diffuse">0.55 0.55 0.56 1</color>
            </diffuse>
            <reflectivity>
              <float sid="specular">1</float>
            </reflectivity>
            <index_of_refraction>
              <float sid="ior">1.5</float>
            </index_of_refraction>
          </lambert>
        </technique>
      </profile_COMMON>
    </effect>
    <effect id="blade-effect">
      <profile_COMMON>
        <technique sid="common">
          <lambert>
            <emission>
              <color sid="emission">0 0 0 1</color>
            </emission>
            <diffuse>
              <color sid="diffuse">0.03 0.03 0.032 1</color>
            </diffuse>
            <index_of_refraction>
              <float sid="ior">1.5</float>
            </index_of_refraction>
          </lambert>
        </technique>
      </profile_COMMON>
    </effect>
  </library_effects>
  <library_images/>
  <library_materials>
    <material id="aluminium-material" name="aluminium">
      <instance_effect url="#aluminium-effect"/>
    </material>
    <material id="blade-material" name="blade">
      <instance_effect url="#blade-effect"/>
    </material>
  </library_materials>
  <library_geometries>
    <geometry id="thrust_fan_left-mesh" name="thrust_fan_left">
      <mesh>
        <source id="thrust_fan_left-mesh-positions">
          <float_array id="thrust_fan_left-mesh-positions-array" count="696">-0.01099997 0.02999997 0 -0.01499998 0.02595013 0 -0.01446408 0.02797502 0 -0.01300001 0.02945739 0 0.01499998 0.02595013 0 0.01099997 0.02999997 0 0.01446408 0.02797502 0 0.01300001 0.02945739 0 -0.01499998 0.02468001 -0.00801903 -0.01099997 0.02853167 -0.009270489 -0.01446408 0.02660584 -0.008644759 -0.01300001 0.02801567 -0.009102821 0.01499998 0.02468001 -0.00801903 0.01099997 0.02853167 -0.009270489 0.01446408 0.02660584 -0.008644759 0.01300001 0.02801567 -0.009102821 -0.01499998 0.02099406 -0.01525312 -0.01099997 0.02427047 -0.01763355 -0.01446408 0.0226323 -0.01644331 -0.01300001 0.02383154 -0.01731461 0.01499998 0.02099406 -0.01525306 0.01099997 0.02427047 -0.01763355 0.01446408 0.0226323 -0.01644331 0.01300001 0.02383154 -0.01731461 -0.01499998 0.01525306 -0.02099406 -0.01099997 0.01763355 -0.02427047 -0.01446408 0.01644331 -0.0226323 -0.01300001 0.01731461 -0.02383154 0.01499998 0.01525306 -0.02099406 0.01099997 0.01763355 -0.02427047 0.01446408 0.01644331 -0.0226323 0.01300001 0.01731461 -0.02383154 -0.01499998 0.00801903 -0.02468001 -0.01099997 0.009270489 -0.02853167 -0.01446408 0.008644759 -0.02660584 -0.01300001 0.009102821 -0.02801567 0.01499998 0.00801903 -0.02468001 0.01099997 0.009270489 -0.02853167 0.01446408 0.008644759 -0.02660584 0.01300001 0.009102821 -0.02801567 -0.01499998 0 -0.02595013 -0.01099997 0 -0.02999997 -0.01446408 0 -0.02797508 -0.01300001 0 -0.02945739 0.01499998 0 -0.02595013 0.01099997 0 -0.02999997 0.01446408 0 -0.02797502 0.01300001 0 -0.02945739 -0.01499998 -0.00801903 -0.02468001 -0.01099997 -0.009270489 -0.02853167 -0.01446408 -0.008644759 -0.02660584 -0.01300001 -0.009102821 -0.02801567 0.01499998 -0.00801903 -0.02468001 0.01099997 -0.009270489 -0.02853167 0.01446408 -0.008644759 -0.02660584 0.01300001 -0.009102821 -0.02801567 -0.01499998 -0.01525306 -0.02099406 -0.01099997 -0.01763355 -0.02427047 -0.01446408 -0.01644331 -0.0226323 -0.01300001 -0.01731461 -0.02383154 0.01499998 -0.01525306 -0.02099406 0.01099997 -0.01763355 -0.02427047 0.01446408 -0.01644331 -0.0226323 0.01300001 -0.01731461 -0.02383154 -0.01499998 -0.02099406 -0.01525312 -0.01099997 -0.02427047 -0.01763355 -0.01446408 -0.0226323 -0.01644331 -0.01300001 -0.02383154 -0.01731461 0.01499998 -0.02099406 -0.01525306 0.01099997 -0.02427047 -0.01763355 0.01446408 -0.0226323 -0.01644331 0.01300001 -0.02383154 -0.01731461 -0.01499998 -0.02468001 -0.00801903 -0.01099997 -0.02853167 -0.009270489 -0.01446408 -0.02660584 -0.008644759 -0.01300001 -0.02801567 -0.009102821 0.01499998 -0.02468001 -0.00801903 0.01099997 -0.02853167 -0.009270489 0.01446408 -0.02660584 -0.008644759 0.01300001 -0.02801567 -0.009102821 -0.01499998 -0.02595013 0 -0.01099997 -0.02999997 0 -0.01446408 -0.02797502 0 -0.01300001 -0.02945739 0 0.01499998 -0.02595013 0 0.01099997 -0.02999997 0 0.01446408 -0.02797502 0 0.01300001 -0.02945739 0 -0.01499998 -0.02468001 0.00801903 -0.01099997 -0.02853167 0.009270489 -0.01446408 -0.02660584 0.008644759 -0.01300001 -0.02801567 0.009102821 0.01499998 -0.02468001 0.00801903 0.01099997 -0.02853167 0.009270489 0.01446408 -0.02660584 0.008644759 0.01300001 -0.02801567 0.009102821 -0.01499998 -0.02099406 0.01525312 -0.01099997 -0.02427047 0.01763355 -0.01446408 -0.0226323 0.01644331 -0.01300001 -0.02383154 0.01731461 0.01499998 -0.02099406 0.01525312 0.01099997 -0.02427047 0.01763355 0.01446408 -0.0226323 0.01644331 0.01300001 -0.02383154 0.01731461 -0.01499998 -0.01525306 0.02099412 -0.01099997 -0.01763355 0.02427053 -0.01446408 -0.01644331 0.0226323 -0.01300001 -0.01731461 0.02383154 0.01499998 -0.01525306 0.02099412 0.01099997 -0.01763355 0.02427053 0.01446408 -0.01644331 0.0226323 0.01300001 -0.01731461 0.02383154 -0.01499998 -0.00801903 0.02468001 -0.01099997 -0.009270489 0.02853167 -0.01446408 -0.008644759 0.02660584 -0.01300001 -0.009102821 0.02801567 0.01499998 -0.00801903 0.02468007 0.01099997 -0.009270489 0.02853167 0.01446408 -0.008644759 0.02660584 0.01300001 -0.009102821 0.02801567 -0.01499998 0 0.02595013 -0.01099997 0 0.02999997 -0.01446408 0 0.02797508 -0.01300001 0 0.02945739 0.01499998 0 0.02595013 0.01099997 0 0.02999997 0.01446408 0 0.02797508 0.01300001 0 0.02945744 -0.01499998 0.00801903 0.02468001 -0.01099997 0.009270489 0.02853167 -0.01446408 0.008644759 0.02660584 -0.01300001 0.009102821 0.02801567 0.01499998 0.00801903 0.02468001 0.01099997 0.009270489 0.02853167 0.01446408 0.008644759 0.02660584 0.01300001 0.009102821 0.02801567 -0.01499998 0.01525306 0.02099412 -0.01099997 0.01763355 0.02427053 -0.01446408 0.01644331 0.0226323 -0.01300001 0.01731461 0.02383154 0.01499998 0.01525306 0.02099412 0.01099997 0.01763355 0.02427053 0.01446408 0.01644331 0.0226323 0.01300001 0.01731461 0.02383154 -0.01499998 0.02099406 0.01525312 -0.01099997 0.02427047 0.01763355 -0.01446408 0.0226323 0.01644331 -0.01300001 0.02383154 0.01731461 0.01499998 0.02099406 0.01525312 0.01099997 0.02427047 0.01763355 0.01446408 0.0226323 0.01644331 0.01300001 0.02383154 0.01731461 -0.01499998 0.02468001 0.00801903 -0.01099997 0.02853167 0.009270489 -0.01446408 0.02660584 0.008644759 -0.01300001 0.02801567 0.009102821 0.01499998 0.02468001 0.00801903 0.01099997 0.02853167 0.009270489 0.01446408 0.02660584 0.008644759 0.01300001 0.02801567 0.009102821 0.01499998 0.02799999 0 0.037 0.005999982 0 0.01499998 0.02586859 -0.01071512 0.037 0.005543231 -0.00229609 0.01499998 0.01979899 -0.01979899 0.037 0.004242599 -0.004242599 0.01499998 0.01071512 -0.02586859 0.037 0.00229609 -0.005543231 0.01499998 0 -0.02799999 0.037 0 -0.005999982 0.01499998 -0.01071512 -0.02586859 0.037 -0.00229609 -0.005543231 0.01499998 -0.01979899 -0.01979899 0.037 -0.004242599 -0.004242599 0.01499998 -0.02586859 -0.01071512 0.037 -0.005543231 -0.00229609 0.01499998 -0.02799999 0 0.037 -0.005999982 0 0.01499998 -0.02586859 0.01071512 0.037 -0.005543231 0.00229609 0.01499998 -0.01979899 0.01979899 0.037 -0.004242599 0.004242658 0.01499998 -0.01071512 0.02586865 0.037 -0.00229609 0.005543291 0.01499998 0 0.02799999 0.037 0 0.005999982 0.01499998 0.01071512 0.02586865 0.037 0.00229609 0.005543291 0.01499998 0.01979899 0.01979899 0.037 0.004242599 0.004242658 0.01499998 0.02586859 0.01071512 0.037 0.005543231 0.00229609 -0.01361924 -0.01802122 -0.02599996 0.01022708 0.02014088 -0.02599996 0.01361924 0.01802122 -0.02599996 -0.01022708 -0.02014088 -0.02599996 -0.007196247 -0.01331216 -0.105 0.00345695 0.01473259 -0.105 0.007196247 0.01331216 -0.105 -0.00345695 -0.01473259 -0.105 -0.01361924 0.0191586 -0.02517366 0.01022708 0.03095132 0.01112073 0.01361924 0.03029632 0.009104788 -0.01022708 0.01850354 -0.02718961 -0.007196247 0.09574723 -0.04510742 0.00345695 0.1044135 -0.01843523 0.007196247 0.1039746 -0.01978617 -0.00345695 0.09530824 -0.0464583 -0.01361924 0.02986186 0.01044183 0.01022708 -0.001011908 0.03287297 0.01361924 7.02918e-4 0.03162705 -0.01022708 0.03157675 0.009195923 -0.007196247 0.07248717 0.07712209 0.00345695 0.04979848 0.09360641 0.007196247 0.0509476 0.09277147 -0.00345695 0.07363635 0.0762872 -0.01361924 -7.02918e-4 0.03162705 0.01022708 -0.03157675 0.009195923 0.01361924 -0.02986186 0.01044183 -0.01022708 0.001011908 0.03287297 -0.007196247 -0.0509476 0.09277147 0.00345695 -0.07363635 0.0762872 0.007196247 -0.07248717 0.07712209 -0.00345695 -0.04979848 0.09360641 -0.01361924 -0.03029632 0.009104788 0.01022708 -0.01850354 -0.02718961 0.01361924 -0.0191586 -0.02517366 -0.01022708 -0.03095132 0.01112067 -0.007196247 -0.1039746 -0.01978617 0.00345695 -0.0953083 -0.0464583 0.007196247 -0.09574723 -0.04510742 -0.00345695 -0.1044135 -0.01843523</float_array>
          <technique_common>
            <accessor source="#thrust_fan_left-mesh-positions-array" count="232" stride="3">
              <param name="X" type="float"/>
              <param name="Y" type="float"/>
              <param name="Z" type="float"/>
            </accessor>
          </technique_common>
        </source>
        <source id="thrust_fan_left-mesh-normals">
          <float_array id="thrust_fan_left-mesh-normals-array" count="1002">-0.4930449 -0.2688462 -0.8274229 -0.8572642 -0.302636 -0.4165448 -0.8572698 -0.1591036 -0.489668 -0.1303804 0.5827685 -0.8021109 -0.4930449 0.2688462 -0.8274228 -0.49305 0.5113722 -0.7038468 0.1303813 0.9429385 0.3063786 -0.1303788 0.9914643 -1.73029e-6 -0.1303813 0.9429396 0.3063748 -0.9899193 -0.04376715 -0.134701 0.8572639 0.4165449 -0.3026372 0.9899182 0.08325475 -0.1145893 0.8572637 0.3026373 -0.4165449 0.1303776 0.8021137 -0.5827652 -0.1303758 0.8021103 -0.5827704 0.8572606 0 -0.5148828 0.9899179 -0.04376989 -0.1347098 0.8572667 -0.1591044 -0.4896731 0.4930501 0.5113722 -0.7038468 0.1303804 0.5827716 -0.8021086 -0.1303841 0.3063774 -0.9429385 0.4930454 -0.2688457 -0.8274226 0.1303841 0.306381 -0.9429373 -0.1303791 -1.89713e-6 -0.9914643 0.1303791 1.89651e-6 -0.9914643 0.1303841 -0.3063774 -0.9429385 -0.8572643 0.302636 -0.4165448 -0.9899193 0.1145834 -0.08325004 -0.8572663 0.4165406 -0.3026357 -0.1303841 -0.306381 -0.9429373 -0.8572623 0 -0.5148801 -0.9899191 0 -0.1416341 -0.4930535 0.703844 -0.5113726 -0.1303804 -0.5827716 -0.8021086 -0.4930536 0 -0.8699989 0.1303805 -0.5827686 -0.8021109 -0.1303776 -0.8021137 -0.5827652 0.8572641 0.4896777 -0.1591039 0.9899176 0.1145938 -0.0832563 0.1303758 -0.8021103 -0.5827703 -0.1303811 -0.9429397 -0.3063749 0.9899181 0.04376947 -0.1347097 0.9899178 0 -0.1416431 0.4930514 0.8274203 -0.2688423 0.4930533 0.703844 -0.5113728 0.1303836 -0.9429372 -0.3063814 -0.1303789 -0.9914643 2.26146e-6 0.4930455 0.2688456 -0.8274226 0.4930571 0 -0.869997 0.1303811 0.9429396 -0.3063749 0.1303788 -0.9914643 -1.73213e-6 -0.1303813 -0.9429385 0.3063786 -0.9899192 0.1347018 -0.04376757 -0.8572672 0.4896724 -0.1591037 0.1303813 -0.9429396 0.3063748 -0.1303817 -0.8021118 0.5827671 -0.9899193 0.04376715 -0.134701 -0.8572698 0.1591036 -0.489668 -0.4930508 0.8274204 -0.268843 0.1303817 -0.8021141 0.582764 -0.1303849 -0.5827676 0.8021109 -0.1303836 0.9429372 -0.3063814 0.1303849 -0.5827705 0.8021087 -0.1303768 -0.3063753 0.9429402 0.9899188 0.1416363 2.27903e-7 0.9899187 0.1347057 -0.04376673 0.1303768 -0.3063789 0.942939 -0.1303779 1.89774e-6 0.9914644 0.8572667 0.1591044 -0.4896731 0.4930505 0.8700008 2.57325e-6 0.1303668 -1.88915e-6 0.9914659 -0.1303768 0.3063789 0.942939 0.1303789 0.9914643 2.26207e-6 0.1303768 0.3063753 0.9429402 -0.1303849 0.5827705 0.8021087 -0.9899189 0.1416355 0 -0.8572694 0.5148681 6.96036e-7 0.1303849 0.5827675 0.8021109 -0.1303817 0.8021141 0.582764 -0.9899188 0.08325177 -0.1145865 -0.4930505 0.8700008 2.56977e-6 0.1303817 0.8021118 0.5827671 0.9899185 -0.141638 2.56175e-7 0.49305 -0.5113722 -0.7038468 0.8572637 -0.3026373 -0.416545 0.9899182 -0.08325475 -0.1145893 -0.49305 -0.5113721 -0.7038468 -0.8572664 -0.4165406 -0.3026357 -0.9899193 -0.1145834 -0.08325004 -0.989919 -0.08325117 -0.1145858 0.4930535 -0.703844 -0.5113726 0.8572638 -0.4165449 -0.3026372 0.9899181 -0.1145904 -0.08325362 -0.4930533 -0.703844 -0.5113728 -0.4930514 -0.8274203 -0.2688423 -0.9899192 -0.1347018 -0.04376757 0.4930508 -0.8274204 -0.268843 0.8572641 -0.4896777 -0.1591039 0.9899187 -0.1347057 -0.04376673 -0.4930505 -0.8700008 2.57325e-6 -0.8572672 -0.4896724 -0.1591037 -0.989919 -0.1416355 0 0.4930505 -0.8700008 2.57325e-6 0.8572694 -0.5148681 6.96036e-7 -0.4930499 -0.8274196 0.2688469 -0.8572694 -0.5148681 6.93542e-7 -0.8572663 -0.4896731 0.1591061 0.49305 -0.8274196 0.2688469 0.8572663 -0.4896731 0.1591061 0.9899194 -0.1347003 0.04376721 -0.4930517 -0.7038443 0.5113739 -0.857264 -0.4165439 0.3026379 -0.9899189 -0.1347039 0.04376775 0.4930517 -0.7038443 0.5113739 0.8572668 -0.4165398 0.3026356 0.9899187 -0.1145871 0.0832526 -0.49305 -0.511375 0.7038447 -0.8572636 -0.3026367 0.4165457 -0.9899188 -0.1145869 0.08325046 0.49305 -0.511375 0.7038447 0.8572667 -0.3026336 0.4165413 0.9899191 -0.08325034 0.1145851 -0.4930476 -0.2688465 0.8274211 -0.8572629 -0.1591079 0.4896785 -0.989918 -0.08325469 0.1145906 0.4930475 -0.2688468 0.827421 0.8572673 -0.1591055 0.4896715 0.9899183 -0.04376918 0.1347078 -0.8572627 0 0.5148794 -0.9899181 0 0.1416411 -0.9899182 -0.04376906 0.1347082 0.4930459 0 0.8700034 0.8572676 1.18752e-6 0.5148712 0.9899196 8.77707e-7 0.1416315 -0.4930476 0.2688465 0.8274212 -0.4930504 0 0.8700008 -0.8572629 0.1591079 0.4896785 0.4930476 0.2688468 0.827421 0.8572661 0.1591064 0.4896734 0.9899193 0.04376661 0.1347011 -0.49305 0.511375 0.7038447 -0.989918 0.08325469 0.1145906 -0.9899182 0.04376906 0.1347082 0.49305 0.511375 0.7038447 0.8572667 0.3026337 0.4165413 0.9899191 0.08325058 0.1145851 -0.8572641 0.4165439 0.302638 -0.8572636 0.3026367 0.4165456 -0.9899188 0.1145869 0.08325046 0.4930517 0.7038443 0.5113739 0.8572668 0.4165398 0.3026356 0.9899187 0.1145869 0.08325248 -0.4930517 0.7038443 0.5113739 -0.8572664 0.4896731 0.1591061 -0.9899187 0.1347048 0.04376804 0.4930499 0.8274196 0.2688469 0.8572664 0.4896731 0.1591061 0.9899188 0.1347041 0.0437684 -0.49305 0.8274196 0.2688469 0.8572694 0.5148681 6.93542e-7 0.7071065 0.7071071 3.60975e-7 0.7071066 0.6532819 -0.2705979 0.7071066 0.7071071 -2.60005e-6 0.7071069 0.4999997 -0.5000002 0.7071067 0.5000003 -0.4999998 0.7071065 0.2705981 -0.6532817 0.707108 -1.4527e-7 -0.7071056 0.7071063 0 -0.7071073 0.7071066 -0.2705981 -0.6532817 0.7071069 -0.4999996 -0.5000002 0.7071067 -0.5000002 -0.4999999 0.7071066 -0.6532828 -0.2705955 0.7071066 -0.6532817 -0.2705983 0.7071066 -0.7071071 2.60005e-6 0.7071065 -0.7071071 -3.60975e-7 0.7071064 -0.653282 0.2705978 0.7071068 -0.5000013 0.4999986 0.7071065 -0.5000027 0.4999977 0.7071073 -0.2705939 0.6532827 0.7071068 -0.2705978 0.6532817 0.7071064 0 0.7071072 0.7071074 0.2705938 0.6532826 0.7071068 0.2705978 0.6532817 0.7071065 0.5000027 0.4999977 1 7.37719e-7 0 1 -3.34768e-7 0 1 4.27854e-7 0 0.7071069 0.5000013 0.4999986 0.7071064 0.6532829 0.2705954 0.7071065 0.6532829 0.2705956 -1 0 0 0 0 1 -5.72118e-7 0 1 0 0 1 3.38945e-6 0 -1 -1.44918e-6 0 -1 -1.94024e-6 0 -1 -0.8713787 0.4903829 0.01496285 -0.9103919 0.4129561 -0.02557158 -0.9334234 0.3545739 -0.05475556 0.5224609 0.8475428 -0.0933054 0.3591274 0.9285387 -0.09404045 0.3535311 0.9306866 -0.09401142 0.8713786 -0.4903831 0.01496297 0.9103916 -0.4129567 -0.02557128 0.9334232 -0.3545747 -0.05475515 -0.5224608 -0.8475428 -0.09330558 -0.35913 -0.9285377 -0.09404057 -0.3535336 -0.9306858 -0.09401154 -8.10149e-7 -0.9510563 0.3090179 -8.37044e-7 -0.9510565 0.3090173 -8.38754e-7 -0.9510565 0.3090172 3.83999e-6 0.951056 -0.3090187 -1.33887e-6 0.9510568 -0.3090165 4.36558e-6 0.951056 -0.3090189 -0.8713788 0.1373062 0.4710054 -0.9103919 0.1519306 0.3848425 -0.9334233 0.1616451 0.3202996 0.5224643 0.3506438 0.7772259 0.359131 0.3763722 0.854031 0.3535345 0.3770084 0.8560829 0.8713787 -0.1657671 -0.4617578 0.910392 -0.1032905 -0.4006466 0.9334235 -0.0574938 -0.3541401 -0.5224647 -0.1731655 -0.8348919 -0.3591318 -0.1974955 -0.9121512 -0.3535355 -0.1981869 -0.9141853 0 -0.5877849 -0.8090173 -3.05129e-7 -0.587785 -0.8090173 -3.23376e-7 -0.587785 -0.8090173 -1.24458e-6 0.587783 0.8090187 5.61015e-6 0.5877872 0.8090156 -1.94026e-6 0.5877826 0.8090189 -0.8713786 -0.4055231 0.2761344 -0.910392 -0.3190579 0.2634173 -0.9334235 -0.2546716 0.2527114 0.5224629 -0.6308318 0.5736583 0.3591355 -0.6959252 0.62186 0.3535394 -0.6976801 0.6230991 0.8713786 0.3879333 -0.300345 0.9103918 0.3491193 -0.2220417 0.9334234 0.319041 -0.1641152 -0.5224608 0.7405203 -0.4226871 -0.3591279 0.8064792 -0.4697005 -0.3535315 0.8082 -0.4709866 6.10259e-7 0.587785 -0.8090173 0 0.5877849 -0.8090173 0 0.5877849 -0.8090174 -6.697e-6 -0.5877877 0.8090153 3.78667e-6 -0.587783 0.8090186 -7.76097e-6 -0.5877882 0.8090149 -0.8713785 -0.3879334 -0.3003452 -0.9103916 -0.3491196 -0.2220423 -0.933423 -0.3190415 -0.1641161 0.5224611 -0.7405202 -0.422687 0.3591287 -0.806479 -0.4697003 0.3535329 -0.8081995 -0.4709862 0.8713787 0.4055232 0.2761345 0.9103919 0.319058 0.2634173 0.9334235 0.2546717 0.2527114 -0.5224625 0.6308323 0.5736582 -0.3591331 0.6959261 0.6218604 -0.353537 0.6976809 0.6230995 4.53148e-6 0.9510555 0.3090201 7.84042e-7 0.9510564 0.3090175 4.76982e-6 0.9510555 0.3090202 4.467e-7 -0.951056 -0.3090188 0 -0.9510563 -0.3090181 4.85064e-7 -0.951056 -0.3090189 -0.8713788 0.1657671 -0.4617579 -0.9103919 0.1032905 -0.4006466 -0.9334235 0.05749386 -0.3541402 0.5224647 0.1731655 -0.8348919 0.3591315 0.1974957 -0.9121514 0.3535352 0.1981871 -0.9141854 0.8713785 -0.1373062 0.4710059 0.9103918 -0.1519305 0.3848427 0.9334233 -0.1616451 0.3202995 -0.5224547 -0.3506452 0.7772316 -0.3591311 -0.3763718 0.8540312 -0.3535351 -0.3770079 0.856083 0.7071064 0.653282 -0.2705979 0.7071068 0.2706016 -0.65328 0.7071067 -0.2706018 -0.6532801 0.7071065 -0.6532829 0.2705953 0.7071068 0 0.7071068 1 6.93825e-6 0 1 4.95493e-7 0 1 0 0 1 -1.40267e-6 0 1 -3.469e-6 0 1 1.91331e-7 0 1 3.469e-6 0 1 -4.95493e-7 0 1 -6.93825e-6 0 1 3.46919e-6 0 1 -8.83411e-7 0 1 -1.74016e-7 0 -1 0 0 -1 3.18589e-7 0 -1 0 0 -1 0 0 -1 0 0 -1 2.07769e-7 0 -6.0633e-7 0 1 3.88052e-6 0 -1 -0.847487 0.5295685 0.03637373 0.5276114 0.8443546 -0.09322738 0.847487 -0.5295685 0.03637373 -0.5276114 -0.8443548 -0.09322762 -8.08438e-7 -0.9510563 0.309018 -1.86447e-6 0.9510568 -0.3090162 -0.8474872 0.1290524 0.5148893 0.527615 0.3495845 0.7742179 0.8474871 -0.198239 -0.4924092 -0.5276151 -0.1722545 -0.8318359 0 -0.5877849 -0.8090174 6.30583e-6 0.5877877 0.8090153 -0.847487 -0.4498099 0.2818454 0.5276132 -0.6282986 0.5717214 0.847487 0.4070501 -0.3406993 -0.5276114 0.7378953 -0.4208763 6.46752e-7 0.587785 -0.8090173 4.85065e-6 -0.5877826 0.809019 -0.847487 -0.4070501 -0.3406993 0.5276114 -0.7378953 -0.4208763 0.847487 0.4498099 0.2818454 -0.5276131 0.6282988 0.5717211 5.45696e-7 0.9510564 0.3090174 0 -0.9510562 -0.309018 -0.8474872 0.198239 -0.4924092 0.5276151 0.1722545 -0.8318358 0.8474869 -0.1290522 0.51489 -0.5276051 -0.3495859 0.7742239</float_array>
          <technique_common>
            <accessor source="#thrust_fan_left-mesh-normals-array" count="334" stride="3">
              <param name="X" type="float"/>
              <param name="Y" type="float"/>
              <param name="Z" type="float"/>
            </accessor>
          </technique_common>
        </source>
        <vertices id="thrust_fan_left-mesh-vertices">
          <input semantic="POSITION" source="#thrust_fan_left-mesh-positions"/>
        </vertices>
        <triangles material="aluminium-material" count="376">
          <input semantic="VERTEX" source="#thrust_fan_left-mesh-vertices" offset="0"/>
          <input semantic="NORMAL" source="#thrust_fan_left-mesh-normals" offset="1"/>
          <p>51 0 58 1 50 2 25 3 35 4 27 5 157 6 0 7 153 8 58 1 48 9 50 2 22 10 28 11 30 12 21 13 25 3 17 14 46 15 52 16 54 17 31 18 22 10 30 12 29 19 33 20 25 3 55 21 46 15 54 17 21 13 31 18 29 19 37 22 41 23 33 20 45 24 55 21 53 25 26 26 16 27 18 28 45 24 49 29 41 23 42 30 48 9 40 31 27 5 18 28 19 32 53 25 57 33 49 29 51 0 42 30 43 34 17 14 27 5 19 32 61 35 65 36 57 33 41 23 51 0 43 34 14 37 20 38 22 10 69 39 73 40 65 36 46 15 36 41 44 42 15 43 22 10 23 44 77 45 81 46 73 40 39 47 46 15 47 48 13 49 23 44 21 13 85 50 89 51 81 46 45 24 39 47 47 48 18 28 8 52 10 53 93 54 97 55 89 51 42 30 32 56 34 57 11 58 18 28 10 53 101 59 105 60 97 55 35 4 42 30 34 57 17 14 11 58 9 61 109 62 113 63 105 60 41 23 35 4 33 20 14 37 4 64 12 65 117 66 121 67 113 63 30 12 36 41 38 68 7 69 14 37 15 43 125 70 129 71 121 67 39 47 30 12 38 68 5 72 15 43 13 49 133 73 137 74 129 71 29 19 39 47 37 22 10 53 1 75 2 76 141 77 145 78 137 74 26 26 32 56 24 79 3 80 10 53 2 76 149 81 153 8 145 78 13 49 17 14 9 61 0 7 11 58 3 80 57 33 51 0 49 29 35 4 26 26 27 5 84 82 52 16 20 38 5 72 9 61 0 7 61 35 55 21 63 83 55 21 62 84 63 83 62 84 52 16 60 85 65 36 59 86 57 33 59 86 66 87 58 1 58 1 64 88 56 89 69 39 63 83 71 90 63 83 70 91 71 90 70 91 60 85 68 92 73 40 67 93 65 36 75 94 66 87 67 93 66 87 72 95 64 88 69 39 79 96 77 45 79 96 70 91 78 97 78 97 68 92 76 98 81 46 75 94 73 40 83 99 74 100 75 94 74 100 80 101 72 95 85 50 79 96 87 102 87 102 78 97 86 103 78 97 84 82 86 103 81 46 91 104 83 99 91 104 82 105 83 99 90 106 80 101 82 105 85 50 95 107 93 54 95 107 86 103 94 108 94 108 84 82 92 109 89 51 99 110 91 104 99 110 90 106 91 104 98 111 88 112 90 106 93 54 103 113 101 59 103 113 94 108 102 114 102 114 92 109 100 115 97 55 107 116 99 110 107 116 98 111 99 110 106 117 96 118 98 111 101 59 111 119 109 62 111 119 102 114 110 120 110 120 100 115 108 121 105 60 115 122 107 116 107 116 114 123 106 117 114 123 104 124 106 117 109 62 119 125 117 66 111 119 118 126 119 125 118 126 108 121 116 127 121 67 115 122 113 63 115 122 122 128 114 123 114 123 120 129 112 130 125 70 119 125 127 131 119 125 126 132 127 131 126 132 116 127 124 133 121 67 131 134 123 135 131 134 122 128 123 135 130 136 120 129 122 128 125 70 135 137 133 73 135 137 126 132 134 138 134 138 124 133 132 139 137 74 131 134 129 71 139 140 130 136 131 134 130 136 136 141 128 142 141 77 135 137 143 143 143 143 134 138 142 144 134 138 140 145 142 144 145 78 139 140 137 74 139 140 146 146 138 147 138 147 144 148 136 141 149 81 143 143 151 149 143 143 150 150 151 149 142 144 148 151 150 150 153 8 147 152 145 78 147 152 154 153 146 146 146 146 152 154 144 148 157 6 151 149 159 155 151 149 158 156 159 155 150 150 156 157 158 156 0 7 155 158 153 8 155 158 2 76 154 153 154 153 1 75 152 154 5 72 159 155 7 69 159 155 6 159 7 69 158 156 4 64 6 159 56 89 120 129 152 154 161 160 162 161 160 162 162 161 165 163 164 164 165 163 166 165 164 164 166 165 169 166 168 167 169 166 170 168 168 167 170 168 173 169 172 170 173 169 174 171 172 170 175 172 176 173 174 171 177 174 178 175 176 173 178 175 181 176 180 177 180 177 183 178 182 179 183 178 184 180 182 179 184 180 187 181 186 182 187 181 188 183 186 182 181 184 173 185 165 186 189 187 190 188 188 183 191 189 160 162 190 188 178 190 182 190 190 190 51 0 59 86 58 1 25 3 33 20 35 4 157 6 5 72 0 7 58 1 56 89 48 9 22 10 20 38 28 11 21 13 29 19 25 3 46 15 44 42 52 16 31 18 23 44 22 10 29 19 37 22 33 20 55 21 47 48 46 15 21 13 23 44 31 18 37 22 45 24 41 23 45 24 47 48 55 21 26 26 24 79 16 27 45 24 53 25 49 29 42 30 50 2 48 9 27 5 26 26 18 28 53 25 61 35 57 33 51 0 50 2 42 30 17 14 25 3 27 5 61 35 69 39 65 36 41 23 49 29 51 0 14 37 12 65 20 38 69 39 77 45 73 40 46 15 38 68 36 41 15 43 14 37 22 10 77 45 85 50 81 46 39 47 38 68 46 15 13 49 15 43 23 44 85 50 93 54 89 51 45 24 37 22 39 47 18 28 16 27 8 52 93 54 101 59 97 55 42 30 40 31 32 56 11 58 19 32 18 28 101 59 109 62 105 60 35 4 43 34 42 30 17 14 19 32 11 58 109 62 117 66 113 63 41 23 43 34 35 4 14 37 6 159 4 64 117 66 125 70 121 67 30 12 28 11 36 41 7 69 6 159 14 37 125 70 133 73 129 71 39 47 31 18 30 12 5 72 7 69 15 43 133 73 141 77 137 74 29 19 31 18 39 47 10 53 8 52 1 75 141 77 149 81 145 78 26 26 34 57 32 56 3 80 11 58 10 53 149 81 157 6 153 8 13 49 21 13 17 14 0 7 9 61 11 58 57 33 59 86 51 0 35 4 34 57 26 26 20 38 12 65 4 64 4 64 156 157 20 38 156 157 148 151 20 38 148 151 140 145 132 139 132 139 124 133 116 127 116 127 108 121 100 115 100 115 92 109 84 82 84 82 76 98 68 92 68 92 60 85 52 16 52 16 44 42 20 38 44 42 36 41 20 38 36 41 28 11 20 38 148 151 132 139 20 38 132 139 116 127 20 38 116 127 100 115 84 82 84 82 68 92 52 16 116 127 84 82 20 38 5 72 13 49 9 61 61 35 53 25 55 21 55 21 54 17 62 84 62 84 54 17 52 16 65 36 67 93 59 86 59 86 67 93 66 87 58 1 66 87 64 88 69 39 61 35 63 83 63 83 62 84 70 91 70 91 62 84 60 85 73 40 75 94 67 93 75 94 74 100 66 87 66 87 74 100 72 95 69 39 71 90 79 96 79 96 71 90 70 91 78 97 70 91 68 92 81 46 83 99 75 94 83 99 82 105 74 100 74 100 82 105 80 101 85 50 77 45 79 96 87 102 79 96 78 97 78 97 76 98 84 82 81 46 89 51 91 104 91 104 90 106 82 105 90 106 88 112 80 101 85 50 87 102 95 107 95 107 87 102 86 103 94 108 86 103 84 82 89 51 97 55 99 110 99 110 98 111 90 106 98 111 96 118 88 112 93 54 95 107 103 113 103 113 95 107 94 108 102 114 94 108 92 109 97 55 105 60 107 116 107 116 106 117 98 111 106 117 104 124 96 118 101 59 103 113 111 119 111 119 103 113 102 114 110 120 102 114 100 115 105 60 113 63 115 122 107 116 115 122 114 123 114 123 112 130 104 124 109 62 111 119 119 125 111 119 110 120 118 126 118 126 110 120 108 121 121 67 123 135 115 122 115 122 123 135 122 128 114 123 122 128 120 129 125 70 117 66 119 125 119 125 118 126 126 132 126 132 118 126 116 127 121 67 129 71 131 134 131 134 130 136 122 128 130 136 128 142 120 129 125 70 127 131 135 137 135 137 127 131 126 132 134 138 126 132 124 133 137 74 139 140 131 134 139 140 138 147 130 136 130 136 138 147 136 141 141 77 133 73 135 137 143 143 135 137 134 138 134 138 132 139 140 145 145 78 147 152 139 140 139 140 147 152 146 146 138 147 146 146 144 148 149 81 141 77 143 143 143 143 142 144 150 150 142 144 140 145 148 151 153 8 155 158 147 152 147 152 155 158 154 153 146 146 154 153 152 154 157 6 149 81 151 149 151 149 150 150 158 156 150 150 148 151 156 157 0 7 3 80 155 158 155 158 3 80 2 76 154 153 2 76 1 75 5 72 157 6 159 155 159 155 158 156 6 159 158 156 156 157 4 64 152 154 1 75 24 79 1 75 8 52 24 79 8 52 16 27 24 79 24 79 32 56 40 31 40 31 48 9 56 89 56 89 64 88 72 95 72 95 80 101 56 89 80 101 88 112 56 89 88 112 96 118 104 124 104 124 112 130 88 112 112 130 120 129 88 112 120 129 128 142 152 154 128 142 136 141 152 154 136 141 144 148 152 154 24 79 40 31 56 89 152 154 24 79 56 89 56 89 88 112 120 129 161 160 163 281 162 161 162 161 163 281 165 163 165 163 167 282 166 165 166 165 167 282 169 166 169 166 171 283 170 168 170 168 171 283 173 169 173 169 175 172 174 171 175 172 177 174 176 173 177 174 179 284 178 175 178 175 179 284 181 176 180 177 181 176 183 178 183 178 185 285 184 180 184 180 185 285 187 181 187 181 189 187 188 183 165 186 163 286 161 287 161 287 191 288 165 186 191 288 189 289 165 186 189 289 187 290 185 291 185 291 183 292 181 184 181 184 179 288 173 185 179 288 177 293 173 185 177 293 175 294 173 185 173 185 171 295 169 296 169 296 167 297 173 185 167 297 165 186 173 185 189 289 185 291 165 186 185 291 181 184 165 186 189 187 191 189 190 188 191 189 161 160 160 162 190 190 160 190 162 298 162 298 164 299 166 300 166 300 168 301 174 302 168 301 170 303 174 302 170 303 172 190 174 302 174 302 176 190 178 190 178 190 180 190 182 190 182 190 184 190 190 190 184 190 186 190 190 190 186 190 188 190 190 190 190 190 162 298 174 302 162 298 166 300 174 302 174 302 178 190 190 190</p>
        </triangles>
        <triangles material="blade-material" count="60">
          <input semantic="VERTEX" source="#thrust_fan_left-mesh-vertices" offset="0"/>
          <input semantic="NORMAL" source="#thrust_fan_left-mesh-normals" offset="1"/>
          <p>195 191 193 192 192 193 199 194 197 195 198 196 192 197 197 198 196 199 193 200 198 201 197 202 194 203 199 204 198 205 195 206 196 207 199 208 200 209 202 210 201 211 204 212 206 213 207 214 200 215 205 216 204 217 201 218 206 219 205 220 202 221 207 222 206 223 203 224 204 225 207 226 208 227 210 228 209 229 212 230 214 231 215 232 208 233 213 234 212 235 209 236 214 237 213 238 210 239 215 240 214 241 211 242 212 243 215 244 216 245 218 246 217 247 220 248 222 249 223 250 216 251 221 252 220 253 217 254 222 255 221 256 218 257 223 258 222 259 219 260 220 261 223 262 227 263 225 264 224 265 228 266 230 267 231 268 224 269 229 270 228 271 225 272 230 273 229 274 226 275 231 276 230 277 227 278 228 279 231 280 195 191 194 304 193 192 199 194 196 305 197 195 192 197 193 306 197 198 193 200 194 307 198 201 194 203 195 308 199 204 195 206 192 309 196 207 200 209 203 310 202 210 204 212 205 311 206 213 200 215 201 312 205 216 201 218 202 313 206 219 202 221 203 314 207 222 203 224 200 315 204 225 208 227 211 316 210 228 212 230 213 317 214 231 208 233 209 318 213 234 209 236 210 319 214 237 210 239 211 320 215 240 211 242 208 321 212 243 216 245 219 322 218 246 220 248 221 323 222 249 216 251 217 324 221 252 217 254 218 325 222 255 218 257 219 326 223 258 219 260 216 327 220 261 227 263 226 328 225 264 228 266 229 329 230 267 224 269 225 330 229 270 225 272 226 331 230 273 226 275 227 332 231 276 227 278 224 333 228 279</p>
        </triangles>
      </mesh>
    </geometry>
  </library_geometries>
  <library_visual_scenes>
    <visual_scene id="Scene" name="Scene">
      <node id="thrust_fan_left" name="thrust_fan_left" type="NODE">
        <matrix sid="transform">1 0 0 0 0 1 0 0 0 0 1 0 0 0 0 1</matrix>
        <instance_geometry url="#thrust_fan_left-mesh" name="thrust_fan_left">
          <bind_material>
            <technique_common>
              <instance_material symbol="aluminium-material" target="#aluminium-material"/>
              <instance_material symbol="blade-material" target="#blade-material"/>
            </technique_common>
          </bind_material>
        </instance_geometry>
      </node>
    </visual_scene>
  </library_visual_scenes>
  <scene>
    <instance_visual_scene url="#Scene"/>
  </scene>
</COLLADA>