<?xml version="1.0" encoding="utf-8"?>
<COLLADA xmlns="http://www.collada.org/2005/11/COLLADASchema" version="1.4.1" xmlns:xsi="http://www.w3.org/2001/XMLSchema-instance">
  <asset>
    <contributor>
      <author>Blender User</author>
      <authoring_tool>Blender 4.2.0 commit date:2024-07-16, commit time:07:50, hash:bf738fd35afe</authoring_tool>
    </contributor>
    <created>2026-09-25T18:34:11</created>
    <modified>2026-09-25T18:34:11</modified>
    <unit name="meter" meter="1"/>
    <up_axis>Z_UP</up_axis>
  </asset>
  <library_effects>
    <effect id="aluminium-effect">
      <profile_COMMON>
        <technique sid="common">
          <lambert>
            <emission>
              <color sid="emission">0 0 0 1</color>
            </emission>
            <diffuse>
              <color sid="diffuse">0.55 0.55 0.56 1</color>
            </diffuse>
            <reflectivity>
              <float sid="specular">1</float>
            </reflectivity>
            <index_of_refraction>
              <float sid="ior">1.5</float>
            </index_of_refraction>
          </lambert>
        </technique>
      </profile_COMMON>
    </effect>
    <effect id="gunmetal-effect">
      <profile_COMMON>
        <technique sid="common">
          <lambert>
            <emission>
              <color sid="emission">0 0 0 1</color>
            </emission>
            <diffuse>
              <color sid="diffuse">0.045 0.047 0.05 1</color>
            </diffuse>
            <reflectivity>
              <float sid="specular">0.7</float>
            </reflectivity>
            <index_of_refraction>
              <float sid="ior">1.5</float>
            </index_of_refraction>
          </lambert>
        </technique>
      </profile_COMMON>
    </effect>
  </library_effects>
  <library_images/>
  <library_materials>
    <material id="aluminium-material" name="aluminium">
      <instance_effect url="#aluminium-effect"/>
    </material>
    <material id="gunmetal-material" name="gunmetal">
      <instance_effect url="#gunmetal-effect"/>
    </material>
  </library_materials>
  <library_geometries>
    <geometry id="wheel_shock_rr-mesh" name="wheel_shock_rr">
      <mesh>
        <source id="wheel_shock_rr-mesh-positions">
          <float_array id="wheel_shock_rr-mesh-positions-array" count="576">0 0.01399999 0 0 0.01399999 0.16 0.005357563 0.01293432 0 0.005357563 0.01293432 0.16 0.009899497 0.009899497 0 0.009899497 0.009899497 0.16 0.01293432 0.005357563 0 0.01293432 0.005357563 0.16 0.01399999 0 0 0.01399999 0 0.16 0.01293432 -0.005357563 0 0.01293432 -0.005357563 0.16 0.009899497 -0.009899497 0 0.009899497 -0.009899497 0.16 0.005357563 -0.01293432 0 0.005357563 -0.01293432 0.16 0 -0.01399999 0 0 -0.01399999 0.16 -0.005357563 -0.01293432 0 -0.005357563 -0.01293432 0.16 -0.009899497 -0.009899497 0 -0.009899497 -0.009899497 0.16 -0.01293432 -0.005357563 0 -0.01293432 -0.005357563 0.16 -0.01399999 0 0 -0.01399999 0 0.16 -0.01293432 0.005357563 0 -0.01293432 0.005357563 0.16 -0.009899497 0.009899497 0 -0.009899497 0.009899497 0.16 -0.005357563 0.01293432 0 -0.005357563 0.01293432 0.16 0 0.03399997 0.05399996 0 0.03399997 0.06199997 0.01050657 0.03233593 0.05399996 0.01050657 0.03233593 0.06199997 0.01998466 0.02750658 0.05399996 0.01998466 0.02750658 0.06199997 0.02750658 0.01998466 0.05399996 0.02750658 0.01998466 0.06199997 0.03233593 0.01050657 0.05399996 0.03233593 0.01050657 0.06199997 0.03399997 0 0.05399996 0.03399997 0 0.06199997 0.03233593 -0.01050657 0.05399996 0.03233593 -0.01050657 0.06199997 0.02750658 -0.01998466 0.05399996 0.02750658 -0.01998466 0.06199997 0.01998466 -0.02750658 0.05399996 0.01998466 -0.02750658 0.06199997 0.01050657 -0.03233593 0.05399996 0.01050657 -0.03233593 0.06199997 0 -0.03399997 0.05399996 0 -0.03399997 0.06199997 -0.01050657 -0.03233593 0.05399996 -0.01050657 -0.03233593 0.06199997 -0.01998466 -0.02750658 0.05399996 -0.01998466 -0.02750658 0.06199997 -0.02750658 -0.01998466 0.05399996 -0.02750658 -0.01998466 0.06199997 -0.03233593 -0.01050657 0.05399996 -0.03233593 -0.01050657 0.06199997 -0.03399997 0 0.05399996 -0.03399997 0 0.06199997 -0.03233593 0.01050657 0.05399996 -0.03233593 0.01050657 0.06199997 -0.02750658 0.01998466 0.05399996 -0.02750658 0.01998466 0.06199997 -0.01998466 0.02750658 0.05399996 -0.01998466 0.02750658 0.06199997 -0.01050657 0.03233593 0.05399996 -0.01050657 0.03233593 0.06199997 -0.01749998 -0.01199996 -0.01999998 -0.01749998 -0.01699995 -0.01499998 -0.02249997 -0.01199996 -0.01499998 -0.01749998 -0.01449668 -0.01933199 -0.0199967 -0.01199996 -0.01933199 -0.01989102 -0.01439106 -0.01868313 -0.0199967 -0.01633203 -0.01499998 -0.01749998 -0.01633203 -0.0174967 -0.01989102 -0.01568317 -0.01739102 -0.02183198 -0.01199996 -0.0174967 -0.02183198 -0.01449668 -0.01499998 -0.02118313 -0.01439106 -0.01739102 -0.01749998 -0.01699995 0.03499996 -0.01749998 -0.01199996 0.03999996 -0.02249997 -0.01199996 0.03499996 -0.01749998 -0.01633203 0.03749668 -0.0199967 -0.01633203 0.03499996 -0.01989102 -0.01568317 0.037391 -0.0199967 -0.01199996 0.03933197 -0.01749998 -0.01449668 0.03933197 -0.01989102 -0.01439106 0.03868311 -0.02183198 -0.01449668 0.03499996 -0.02183198 -0.01199996 0.03749668 -0.02118313 -0.01439106 0.037391 -0.01749998 0.01199996 -0.01999998 -0.02249997 0.01199996 -0.01499998 -0.01749998 0.01699995 -0.01499998 -0.0199967 0.01199996 -0.01933199 -0.01749998 0.01449668 -0.01933199 -0.01989102 0.01439106 -0.01868313 -0.02183198 0.01449668 -0.01499998 -0.02183198 0.01199996 -0.0174967 -0.02118313 0.01439106 -0.01739102 -0.01749998 0.01633203 -0.0174967 -0.0199967 0.01633203 -0.01499998 -0.01989102 0.01568317 -0.01739102 -0.01749998 0.01199996 0.03999996 -0.01749998 0.01699995 0.03499996 -0.02249997 0.01199996 0.03499996 -0.01749998 0.01449668 0.03933197 -0.0199967 0.01199996 0.03933197 -0.01989102 0.01439106 0.03868311 -0.0199967 0.01633203 0.03499996 -0.01749998 0.01633203 0.03749668 -0.01989102 0.01568317 0.037391 -0.02183198 0.01199996 0.03749668 -0.02183198 0.01449668 0.03499996 -0.02118313 0.01439106 0.037391 0.01749998 -0.01199996 -0.01999998 0.02249997 -0.01199996 -0.01499998 0.01749998 -0.01699995 -0.01499998 0.0199967 -0.01199996 -0.01933199 0.01749998 -0.01449668 -0.01933199 0.01989102 -0.01439106 -0.01868313 0.02183198 -0.01449668 -0.01499998 0.02183198 -0.01199996 -0.0174967 0.02118313 -0.01439106 -0.01739102 0.01749998 -0.01633203 -0.0174967 0.0199967 -0.01633203 -0.01499998 0.01989102 -0.01568317 -0.01739102 0.01749998 -0.01199996 0.03999996 0.01749998 -0.01699995 0.03499996 0.02249997 -0.01199996 0.03499996 0.01749998 -0.01449668 0.03933197 0.0199967 -0.01199996 0.03933197 0.01989102 -0.01439106 0.03868311 0.0199967 -0.01633203 0.03499996 0.01749998 -0.01633203 0.03749668 0.01989102 -0.01568317 0.037391 0.02183198 -0.01199996 0.03749668 0.02183198 -0.01449668 0.03499996 0.02118313 -0.01439106 0.037391 0.01749998 0.01199996 -0.01999998 0.01749998 0.01699995 -0.01499998 0.02249997 0.01199996 -0.01499998 0.01749998 0.01449668 -0.01933199 0.0199967 0.01199996 -0.01933199 0.01989102 0.01439106 -0.01868313 0.0199967 0.01633203 -0.01499998 0.01749998 0.01633203 -0.0174967 0.01989102 0.01568317 -0.01739102 0.02183198 0.01199996 -0.0174967 0.02183198 0.01449668 -0.01499998 0.02118313 0.01439106 -0.01739102 0.01749998 0.01199996 0.03999996 0.02249997 0.01199996 0.03499996 0.01749998 0.01699995 0.03499996 0.0199967 0.01199996 0.03933197 0.01749998 0.01449668 0.03933197 0.01989102 0.01439106 0.03868311 0.02183198 0.01449668 0.03499996 0.02183198 0.01199996 0.03749668 0.02118313 0.01439106 0.037391 0.01749998 0.01633203 0.03749668 0.0199967 0.01633203 0.03499996 0.01989102 0.01568317 0.037391 0 0 0.01299995 0 -0.06999999 0.01299995 0.006500005 0 0.0112583 0.006500005 -0.06999999 0.0112583 0.0112583 0 0.006499946 0.0112583 -0.06999999 0.006500005 0.01300001 0 0 0.01300001 -0.06999999 0 0.0112583 0 -0.006500005 0.0112583 -0.06999999 -0.006499946 0.006500005 0 -0.0112583 0.006500005 -0.06999999 -0.0112583 0 0 -0.01299995 0 -0.06999999 -0.01299995 -0.006500005 0 -0.0112583 -0.006500005 -0.06999999 -0.0112583 -0.0112583 0 -0.006500005 -0.0112583 -0.06999999 -0.006499946 -0.01300001 0 0 -0.01300001 -0.06999999 0 -0.0112583 0 0.006499946 -0.0112583 -0.06999999 0.006500005 -0.006500005 0 0.0112583 -0.006500005 -0.06999999 0.0112583</float_array>
          <technique_common>
            <accessor source="#wheel_shock_rr-mesh-positions-array" count="192" stride="3">
              <param name="X" type="float"/>
              <param name="Y" type="float"/>
              <param name="Z" type="float"/>
            </accessor>
          </technique_common>
        </source>
        <source id="wheel_shock_rr-mesh-normals">
          <float_array id="wheel_shock_rr-mesh-normals-array" count="675">1.44115e-6 1 0 0.3826814 0.9238803 0 -1.44115e-6 1 0 0.3826841 0.9238793 0 0.7071058 0.7071078 0 0.7071078 0.7071058 0 0.9238794 0.3826841 0 0.9238803 0.3826815 0 1 1.45082e-6 0 1 -1.45082e-6 0 0.9238803 -0.3826815 0 0.9238794 -0.3826841 0 0.7071078 -0.7071058 0 0.7071058 -0.7071078 0 0.3826841 -0.9238793 0 0.3826814 -0.9238803 0 1.44115e-6 -1 0 -1.44115e-6 -1 0 -0.3826814 -0.9238803 0 -0.3826841 -0.9238793 0 -0.7071058 -0.7071078 0 -0.7071078 -0.7071058 0 -0.9238794 -0.3826841 0 -0.9238803 -0.3826815 0 -1 -1.45082e-6 0 -1 1.45082e-6 0 -0.9238803 0.3826815 0 -0.9238794 0.3826841 0 -0.7071078 0.7071058 0 0 0 1 1.82027e-7 0 1 -1.82027e-7 0 1 -0.7071058 0.7071078 0 -0.3826841 0.9238793 0 -0.3826814 0.9238803 0 0 0 -1 2.63642e-6 1 0 0.3090146 0.9510574 0 -2.63642e-6 1 0 0.3090195 0.9510558 0 0.5877833 0.8090185 0 0.5877875 0.8090155 0 0.8090155 0.5877875 0 0.8090185 0.5877833 0 0.9510557 0.3090195 0 0.9510574 0.3090146 0 1 2.63162e-6 0 1 -2.63162e-6 0 0.9510574 -0.3090143 0 0.9510557 -0.3090194 0 0.8090185 -0.5877833 0 0.8090153 -0.5877877 0 0.5877876 -0.8090153 0 0.5877833 -0.8090185 0 0.3090195 -0.9510558 0 0.3090143 -0.9510574 0 2.63642e-6 -1 0 -2.63642e-6 -1 0 -0.3090146 -0.9510574 0 -0.3090195 -0.9510558 0 -0.5877833 -0.8090185 0 -0.5877875 -0.8090155 0 -0.8090155 -0.5877875 0 -0.8090185 -0.5877833 0 -0.9510557 -0.3090195 0 -0.9510574 -0.3090146 0 -1 -2.63162e-6 0 -1 2.63162e-6 0 -0.9510574 0.3090143 0 -0.9510557 0.3090194 0 -0.8090185 0.5877833 0 -0.8090153 0.5877877 0 -0.5877876 0.8090153 0 0 0 1 -0.5877833 0.8090185 0 -0.3090195 0.9510558 0 -0.3090143 0.9510574 0 -1.88117e-7 0 -1 2.7792e-7 0 -1 0 0 -1 0.1279662 -0.9834883 0.1279675 -0.1279663 -0.9834883 -0.1279675 0.1279681 -0.983488 -0.1279671 0.9834864 0.1279733 0.1279744 0.9834864 -0.1279733 -0.1279743 0.9834867 0.1279735 -0.1279723 -0.1279726 0.1279718 0.9834868 0.1279726 -0.1279718 0.9834868 0.1279719 0.1279733 0.9834868 -0.9834864 -0.1279733 0.1279744 -0.9834864 0.1279733 -0.1279743 -0.9834867 -0.1279735 -0.1279723 -0.1279662 0.9834883 0.1279675 0.1279663 0.9834883 -0.1279675 -0.1279681 0.983488 -0.1279671 -0.1216033 -0.491564 -0.8623093 -0.4915702 -0.1216043 -0.8623058 -0.1279724 -0.1279718 -0.9834868 -0.1216028 -0.8623058 -0.4915705 -0.4488391 -0.4488489 -0.7727084 -0.4915683 -0.862307 -0.121603 -0.7727055 -0.4488454 -0.4488474 -0.4488446 -0.772705 -0.4488491 -0.8623071 -0.1216033 -0.491568 -0.8623083 -0.4915661 -0.1216026 -0.1216026 -0.8623069 0.4915685 -0.4915703 -0.8623058 0.1216029 -0.1279681 -0.983488 0.1279671 -0.448839 -0.4488489 0.7727084 -0.4488445 -0.7727051 0.448849 -0.4915688 -0.1216043 0.8623066 -0.1216031 -0.491566 0.8623083 -0.1279719 -0.1279733 0.9834867 -0.7727059 -0.4488452 0.4488474 -0.8623097 -0.4915637 0.1216025 -0.8623065 -0.1216032 0.4915692 -0.4915692 0.1216043 -0.8623063 -0.1216033 0.491566 -0.8623083 -0.1279721 0.1279733 -0.9834867 -0.7727056 0.4488453 -0.4488475 -0.4488392 0.4488489 -0.7727083 -0.8623097 0.4915637 -0.1216026 -0.8623065 0.1216033 -0.491569 -0.4915703 0.8623059 -0.1216029 -0.1216028 0.8623069 -0.4915685 -0.4488447 0.7727051 -0.4488491 -0.1216033 0.491564 0.8623094 -0.4915707 0.1216043 0.8623055 -0.1216026 0.8623058 0.4915705 -0.4488391 0.4488489 0.7727083 -0.4915683 0.862307 0.121603 -0.7727057 0.4488453 0.4488474 -0.4488444 0.7727051 0.4488491 -0.8623073 0.1216033 0.4915676 -0.8623083 0.4915662 0.1216026 -0.9834866 0.1279735 0.1279722 0.4915692 -0.1216043 -0.8623063 0.1216033 -0.491566 -0.8623083 0.1279721 -0.1279733 -0.9834867 0.7727056 -0.4488453 -0.4488475 0.4488392 -0.4488489 -0.7727083 0.8623097 -0.4915637 -0.1216026 0.8623065 -0.1216033 -0.491569 0.4915703 -0.8623059 -0.1216029 0.1216028 -0.8623069 -0.4915685 0.4488447 -0.7727051 -0.4488491 0.1216033 -0.491564 0.8623094 0.4915707 -0.1216043 0.8623055 0.1216026 -0.8623058 0.4915705 0.4488391 -0.4488489 0.7727083 0.4915683 -0.862307 0.121603 0.7727057 -0.4488453 0.4488474 0.4488444 -0.7727051 0.4488491 0.8623073 -0.1216033 0.4915676 0.8623083 -0.4915662 0.1216026 0.9834866 -0.1279735 0.1279722 0.1216033 0.491564 -0.8623093 0.4915702 0.1216043 -0.8623058 0.1279724 0.1279718 -0.9834868 0.1216028 0.8623058 -0.4915705 0.4488391 0.4488489 -0.7727084 0.4915683 0.862307 -0.121603 0.7727055 0.4488454 -0.4488474 0.4488446 0.772705 -0.4488491 0.8623071 0.1216033 -0.491568 0.8623083 0.4915661 -0.1216026 0.4915688 0.1216043 0.8623066 0.1216031 0.491566 0.8623083 0.7727059 0.4488452 0.4488474 0.4488389 0.4488489 0.7727084 0.8623097 0.4915637 0.1216025 0.8623065 0.1216032 0.4915692 0.4915703 0.8623059 0.1216029 0.1216026 0.8623069 0.4915685 0.1279681 0.983488 0.1279671 0.4488445 0.7727051 0.448849 1.75795e-6 0 1 0.4999986 0 0.8660262 -1.75795e-6 0 1 0.500001 0 0.8660249 0.8660247 0 0.5000015 0.866026 0 0.4999991 1 0 1.91509e-6 1 0 -1.91509e-6 0.866026 0 -0.4999991 0.8660247 0 -0.5000015 0.500001 0 -0.8660249 0.4999986 0 -0.8660262 1.75795e-6 0 -1 -1.75795e-6 0 -1 -0.499998 0 -0.8660266 -0.5000017 0 -0.8660246 -0.8660244 0 -0.5000018 -0.8660264 0 -0.4999986 -1 0 -1.38476e-6 -1 0 1.38476e-6 -0.8660264 0 0.4999986 0 -1 0 -0.8660244 0 0.5000018 -0.5000017 0 0.8660246 -0.499998 0 0.8660266 0 1 0 2.5487e-6 0 1 -1.82022e-7 0 1 -5.0974e-6 0 1 -3.64034e-7 0 1 -2.5487e-6 0 1 1.82022e-7 0 1 5.0974e-6 0 1 3.64034e-7 0 1 1.66462e-6 0 1 -3.06258e-7 0 1 0 0 1 -5.36101e-7 0 -1 0 0 -1 -3.32923e-6 0 -1 -3.69843e-7 0 -1 -3.32923e-6 0 -1 -2.68051e-7 0 -1 0 0 -1 1.66462e-6 0 -1 2.77372e-7 0 -1 3.32923e-6 0 -1 3.32923e-6 0 -1 -1.21337e-7 0 -1</float_array>
          <technique_common>
            <accessor source="#wheel_shock_rr-mesh-normals-array" count="225" stride="3">
              <param name="X" type="float"/>
              <param name="Y" type="float"/>
              <param name="Z" type="float"/>
            </accessor>
          </technique_common>
        </source>
        <vertices id="wheel_shock_rr-mesh-vertices">
          <input semantic="POSITION" source="#wheel_shock_rr-mesh-positions"/>
        </vertices>
        <triangles material="aluminium-material" count="104">
          <input semantic="VERTEX" source="#wheel_shock_rr-mesh-vertices" offset="0"/>
          <input semantic="NORMAL" source="#wheel_shock_rr-mesh-normals" offset="1"/>
          <p>1 0 2 1 0 2 3 3 4 4 2 1 5 5 6 6 4 4 7 7 8 8 6 6 9 9 10 10 8 8 11 11 12 12 10 10 13 13 14 14 12 12 15 15 16 16 14 14 17 17 18 18 16 16 19 19 20 20 18 18 21 21 22 22 20 20 23 23 24 24 22 22 25 25 26 26 24 24 27 27 28 28 26 26 9 29 5 30 21 31 29 32 30 33 28 28 31 34 0 2 30 33 14 35 22 35 30 35 169 176 170 177 168 178 171 179 172 180 170 177 173 181 174 182 172 180 175 183 176 184 174 182 177 185 178 186 176 184 179 187 180 188 178 186 181 189 182 190 180 188 183 191 184 192 182 190 185 193 186 194 184 192 187 195 188 196 186 194 181 197 177 197 173 197 189 198 190 199 188 196 191 200 168 178 190 199 174 201 182 201 190 201 1 0 3 3 2 1 3 3 5 5 4 4 5 5 7 7 6 6 7 7 9 9 8 8 9 9 11 11 10 10 11 11 13 13 12 12 13 13 15 15 14 14 15 15 17 17 16 16 17 17 19 19 18 18 19 19 21 21 20 20 21 21 23 23 22 22 23 23 25 25 24 24 25 25 27 27 26 26 27 27 29 32 28 28 5 30 3 202 1 203 1 203 31 204 29 205 29 205 27 29 25 29 25 29 23 29 21 31 21 31 19 206 17 207 17 207 15 208 13 209 13 209 11 29 9 29 9 29 7 29 5 30 5 30 1 203 29 205 29 205 25 29 5 30 25 29 21 31 5 30 21 31 17 207 13 209 13 209 9 29 21 31 29 32 31 34 30 33 31 34 1 0 0 2 30 35 0 35 6 35 0 35 2 35 6 35 2 35 4 35 6 35 6 35 8 35 14 35 8 35 10 35 14 35 10 35 12 35 14 35 14 35 16 35 22 35 16 35 18 35 22 35 18 35 20 35 22 35 22 35 24 35 30 35 24 35 26 35 30 35 26 35 28 35 30 35 30 35 6 35 14 35 169 176 171 179 170 177 171 179 173 181 172 180 173 181 175 183 174 182 175 183 177 185 176 184 177 185 179 187 178 186 179 187 181 189 180 188 181 189 183 191 182 190 183 191 185 193 184 192 185 193 187 195 186 194 187 195 189 198 188 196 173 197 171 197 169 197 169 197 191 197 189 197 189 197 187 197 185 197 185 197 183 197 181 197 181 197 179 197 177 197 177 197 175 197 173 197 173 197 169 197 181 197 169 197 189 197 181 197 189 197 185 197 181 197 189 198 191 200 190 199 191 200 169 176 168 178 190 201 168 201 170 201 170 201 172 201 190 201 172 201 174 201 190 201 174 201 176 201 178 201 178 201 180 201 174 201 180 201 182 201 174 201 182 201 184 201 186 201 186 201 188 201 182 201 188 201 190 201 182 201</p>
        </triangles>
        <triangles material="gunmetal-material" count="264">
          <input semantic="VERTEX" source="#wheel_shock_rr-mesh-vertices" offset="0"/>
          <input semantic="NORMAL" source="#wheel_shock_rr-mesh-normals" offset="1"/>
          <p>33 36 34 37 32 38 35 39 36 40 34 37 37 41 38 42 36 40 39 43 40 44 38 42 41 45 42 46 40 44 43 47 44 48 42 46 45 49 46 50 44 48 47 51 48 52 46 50 49 53 50 54 48 52 51 55 52 56 50 54 53 57 54 58 52 56 55 59 56 60 54 58 57 61 58 62 56 60 59 63 60 64 58 62 61 65 62 66 60 64 63 67 64 68 62 66 65 69 66 70 64 68 67 71 68 72 66 70 61 73 45 29 37 29 69 74 70 75 68 72 71 76 32 38 70 75 46 77 62 78 70 79 133 80 73 81 122 82 157 83 121 84 146 85 108 86 132 87 156 88 86 89 97 90 74 91 109 92 145 93 98 94 75 95 76 96 72 97 79 98 77 99 75 95 78 100 79 98 73 81 78 100 83 101 80 102 81 103 82 104 74 91 76 96 83 101 81 103 77 99 80 102 83 101 87 105 88 106 84 107 87 105 92 108 89 109 90 110 91 111 85 112 90 110 95 113 92 108 93 114 94 115 86 89 88 106 95 113 93 114 89 109 92 108 95 113 99 116 100 117 96 118 99 116 104 119 101 120 102 121 103 122 97 90 106 123 104 119 102 121 105 124 106 123 98 94 105 124 101 120 107 125 101 120 104 119 107 125 111 126 112 127 108 86 115 128 113 129 111 126 114 130 115 128 109 92 114 130 119 131 116 132 117 133 118 134 110 135 112 127 119 131 117 133 113 129 116 132 119 131 123 136 124 137 120 138 123 136 128 139 125 140 126 141 127 142 121 84 130 143 128 139 126 141 129 144 130 143 122 82 129 144 125 140 131 145 125 140 128 139 131 145 135 146 136 147 132 87 139 148 137 149 135 146 138 150 139 148 133 80 138 150 143 151 140 152 141 153 142 154 134 155 136 147 143 151 141 153 137 149 140 152 143 151 147 156 148 157 144 158 151 159 149 160 147 156 150 161 151 159 145 93 150 161 155 162 152 163 153 164 154 165 146 85 148 157 155 162 153 164 149 160 152 163 155 162 159 166 160 167 156 88 159 166 164 168 161 169 162 170 163 171 157 83 166 172 164 168 162 170 165 173 166 172 158 174 165 173 161 169 167 175 161 169 164 168 167 175 72 97 99 116 96 118 76 96 103 122 99 116 81 103 97 90 103 122 84 107 78 100 73 81 88 106 82 104 78 100 93 114 74 91 82 104 108 86 90 110 85 112 112 127 94 115 90 110 117 133 86 89 94 115 98 94 114 130 109 92 106 123 118 134 114 130 102 121 110 135 118 134 96 118 147 156 144 158 100 117 151 159 147 156 105 124 145 93 151 159 156 88 111 126 108 86 160 167 115 128 111 126 165 173 109 92 115 128 146 85 162 170 157 83 154 165 166 172 162 170 150 161 158 174 166 172 144 158 123 136 120 138 148 157 127 142 123 136 153 164 121 84 127 142 132 87 159 166 156 88 136 147 163 171 159 166 141 153 157 83 163 171 122 82 138 150 133 80 130 143 142 154 138 150 126 141 134 155 142 154 120 138 75 95 72 97 124 137 79 98 75 95 129 144 73 81 79 98 85 112 135 146 132 87 91 111 139 148 135 146 87 105 133 80 139 148 144 158 72 97 96 118 33 36 35 39 34 37 35 39 37 41 36 40 37 41 39 43 38 42 39 43 41 45 40 44 41 45 43 47 42 46 43 47 45 49 44 48 45 49 47 51 46 50 47 51 49 53 48 52 49 53 51 55 50 54 51 55 53 57 52 56 53 57 55 59 54 58 55 59 57 61 56 60 57 61 59 63 58 62 59 63 61 65 60 64 61 65 63 67 62 66 63 67 65 69 64 68 65 69 67 71 66 70 67 71 69 74 68 72 37 29 35 29 33 29 33 29 71 29 69 29 69 29 67 29 61 73 67 29 65 29 61 73 65 29 63 29 61 73 61 73 59 210 57 211 57 211 55 29 53 212 53 212 51 29 49 29 49 29 47 29 45 29 45 29 43 29 41 29 41 29 39 29 45 29 39 29 37 29 45 29 37 29 33 29 69 29 61 73 57 211 53 212 53 212 49 29 61 73 49 29 45 29 61 73 37 29 69 29 61 73 69 74 71 76 70 75 71 76 33 36 32 38 70 79 32 35 34 35 34 35 36 213 70 79 36 213 38 214 70 79 38 214 40 215 42 216 42 216 44 217 46 77 46 77 48 218 54 219 48 218 50 35 54 219 50 35 52 35 54 219 54 219 56 220 58 221 58 221 60 222 62 78 62 78 64 223 66 224 66 224 68 220 70 79 38 214 42 216 46 77 54 219 58 221 46 77 58 221 62 78 46 77 62 78 66 224 70 79 70 79 38 214 46 77 133 80 84 107 73 81 157 83 134 155 121 84 108 86 85 112 132 87 86 89 110 135 97 90 109 92 158 174 145 93 75 95 77 99 76 96 79 98 80 102 77 99 78 100 80 102 79 98 78 100 82 104 83 101 81 103 83 101 82 104 76 96 77 99 83 101 87 105 89 109 88 106 87 105 91 111 92 108 90 110 92 108 91 111 90 110 94 115 95 113 93 114 95 113 94 115 88 106 89 109 95 113 99 116 101 120 100 117 99 116 103 122 104 119 102 121 104 119 103 122 106 123 107 125 104 119 105 124 107 125 106 123 105 124 100 117 101 120 111 126 113 129 112 127 115 128 116 132 113 129 114 130 116 132 115 128 114 130 118 134 119 131 117 133 119 131 118 134 112 127 113 129 119 131 123 136 125 140 124 137 123 136 127 142 128 139 126 141 128 139 127 142 130 143 131 145 128 139 129 144 131 145 130 143 129 144 124 137 125 140 135 146 137 149 136 147 139 148 140 152 137 149 138 150 140 152 139 148 138 150 142 154 143 151 141 153 143 151 142 154 136 147 137 149 143 151 147 156 149 160 148 157 151 159 152 163 149 160 150 161 152 163 151 159 150 161 154 165 155 162 153 164 155 162 154 165 148 157 149 160 155 162 159 166 161 169 160 167 159 166 163 171 164 168 162 170 164 168 163 171 166 172 167 175 164 168 165 173 167 175 166 172 165 173 160 167 161 169 72 97 76 96 99 116 76 96 81 103 103 122 81 103 74 91 97 90 84 107 88 106 78 100 88 106 93 114 82 104 93 114 86 89 74 91 108 86 112 127 90 110 112 127 117 133 94 115 117 133 110 135 86 89 98 94 106 123 114 130 106 123 102 121 118 134 102 121 97 90 110 135 96 118 100 117 147 156 100 117 105 124 151 159 105 124 98 94 145 93 156 88 160 167 111 126 160 167 165 173 115 128 165 173 158 174 109 92 146 85 154 165 162 170 154 165 150 161 166 172 150 161 145 93 158 174 144 158 148 157 123 136 148 157 153 164 127 142 153 164 146 85 121 84 132 87 136 147 159 166 136 147 141 153 163 171 141 153 134 155 157 83 122 82 130 143 138 150 130 143 126 141 142 154 126 141 121 84 134 155 120 138 124 137 75 95 124 137 129 144 79 98 129 144 122 82 73 81 85 112 91 111 135 146 91 111 87 105 139 148 87 105 84 107 133 80 144 158 120 138 72 97</p>
        </triangles>
      </mesh>
    </geometry>
  </library_geometries>
  <library_visual_scenes>
    <visual_scene id="Scene" name="Scene">
      <node id="wheel_shock_rr" name="wheel_shock_rr" type="NODE">
        <matrix sid="transform">1 0 0 0 0 1 0 0 0 0 1 0 0 0 0 1</matrix>
        <instance_geometry url="#wheel_shock_rr-mesh" name="wheel_shock_rr">
          <bind_material>
            <technique_common>
              <instance_material symbol="aluminium-material" target="#aluminium-material"/>
              <instance_material symbol="gunmetal-material" target="#gunmetal-material"/>
            </technique_common>
          </bind_material>
        </instance_geometry>
      </node>
    </visual_scene>
  </library_visual_scenes>
  <scene>
    <instance_visual_scene url="#Scene"/>
  </scene>
</COLLADA>