<?xml version="1.0" encoding="utf-8"?>
<COLLADA xmlns="http://www.collada.org/2005/11/COLLADASchema" version="1.4.1" xmlns:xsi="http://www.w3.org/2001/XMLSchema-instance">
  <asset>
    <contributor>
      <author>Blender User</author>
      <authoring_tool>Blender 4.2.0 commit date:2024-07-16, commit time:07:50, hash:bf738fd35afe</authoring_tool>
    </contributor>
    <created>2026-09-25T14:02:56</created>
    <modified>2026-09-25T14:02:56</modified>
    <unit name="meter" meter="1"/>
    <up_axis>Z_UP</up_axis>
  </asset>
  <library_effects>
    <effect id="blade-effect">
      <profile_COMMON>
        <technique sid="common">
          <lambert>
            <emission>
              <color sid="emission">0 0 0 1</color>
            </emission>
            <diffuse>
              <color sid="diffuse">0.03 0.03 0.032 1</color>
            </diffuse>
            <index_of_refraction>
              <float sid="ior">1.5</float>
            </index_of_refraction>
          </lambert>
        </technique>
      </profile_COMMON>
    </effect>
    <effect id="gunmetal-effect">
      <profile_COMMON>
        <technique sid="common">
          <lambert>
            <emission>
              <color sid="emission">0 0 0 1</color>
            </emission>
            <diffuse>
              <color sid="diffuse">0.045 0.047 0.05 1</color>
            </diffuse>
            <reflectivity>
              <float sid="specular">0.7</float>
            </reflectivity>
            <index_of_refraction>
              <float sid="ior">1.5</float>
            </index_of_refraction>
          </lambert>
        </technique>
      </profile_COMMON>
    </effect>
    <effect id="lens-effect">
      <profile_COMMON>
        <technique sid="common">
          <lambert>
            <emission>
              <color sid="emission">0 0 0 1</color>
            </emission>
            <diffuse>
              <color sid="diffuse">0.005 0.01 0.03 1</color>
            </diffuse>
            <index_of_refraction>
              <float sid="ior">1.5</float>
            </index_of_refraction>
          </lambert>
        </technique>
      </profile_COMMON>
    </effect>
  </library_effects>
  <library_images/>
  <library_materials>
    <material id="blade-material" name="blade">
      <instance_effect url="#blade-effect"/>
    </material>
    <material id="gunmetal-material" name="gunmetal">
      <instance_effect url="#gunmetal-effect"/>
    </material>
    <material id="lens-material" name="lens">
      <instance_effect url="#lens-effect"/>
    </material>
  </library_materials>
  <library_geometries>
    <geometry id="camera-mesh" name="camera">
      <mesh>
        <source id="camera-mesh-positions">
          <float_array id="camera-mesh-positions-array" count="552">-0.08450007 -0.04699999 -0.03750002 -0.08450007 -0.05499994 -0.0295 -0.09250009 -0.04699999 -0.0295 -0.08450007 -0.05099469 -0.03643125 -0.08849483 -0.04699999 -0.03643125 -0.08832573 -0.05082565 -0.03539305 -0.08849483 -0.05393117 -0.0295 -0.08450007 -0.05393117 -0.03349477 -0.08832573 -0.05289304 -0.03332567 -0.09143131 -0.04699999 -0.03349477 -0.09143131 -0.05099469 -0.0295 -0.09039312 -0.05082565 -0.03332567 -0.08450007 -0.05499994 0.0295 -0.08450007 -0.04699999 0.03750002 -0.09250009 -0.04699999 0.0295 -0.08450007 -0.05393117 0.03349477 -0.08849483 -0.05393117 0.0295 -0.08832573 -0.05289304 0.03332567 -0.08849483 -0.04699999 0.03643125 -0.08450007 -0.05099469 0.03643125 -0.08832573 -0.05082565 0.03539305 -0.09143131 -0.05099469 0.0295 -0.09143131 -0.04699999 0.03349477 -0.09039312 -0.05082565 0.03332567 -0.08450007 0.04699999 -0.03750002 -0.09250009 0.04699999 -0.0295 -0.08450007 0.05499994 -0.0295 -0.08849483 0.04699999 -0.03643125 -0.08450007 0.05099469 -0.03643125 -0.08832573 0.05082565 -0.03539305 -0.09143131 0.05099469 -0.0295 -0.09143131 0.04699999 -0.03349477 -0.09039312 0.05082565 -0.03332567 -0.08450007 0.05393117 -0.03349477 -0.08849483 0.05393117 -0.0295 -0.08832573 0.05289304 -0.03332567 -0.08450007 0.04699999 0.03750002 -0.08450007 0.05499994 0.0295 -0.09250009 0.04699999 0.0295 -0.08450007 0.05099469 0.03643125 -0.08849483 0.04699999 0.03643125 -0.08832573 0.05082565 0.03539305 -0.08849483 0.05393117 0.0295 -0.08450007 0.05393117 0.03349477 -0.08832573 0.05289304 0.03332567 -0.09143131 0.04699999 0.03349477 -0.09143131 0.05099469 0.0295 -0.09039312 0.05082565 0.03332567 -0.02550005 -0.04699999 -0.03750002 -0.01750004 -0.04699999 -0.0295 -0.02550005 -0.05499994 -0.0295 -0.02150535 -0.04699999 -0.03643125 -0.02550005 -0.05099469 -0.03643125 -0.02167439 -0.05082565 -0.03539305 -0.01856887 -0.05099469 -0.0295 -0.01856887 -0.04699999 -0.03349477 -0.01960694 -0.05082565 -0.03332567 -0.02550005 -0.05393117 -0.03349477 -0.02150535 -0.05393117 -0.0295 -0.02167439 -0.05289304 -0.03332567 -0.02550005 -0.04699999 0.03750002 -0.02550005 -0.05499994 0.0295 -0.01750004 -0.04699999 0.0295 -0.02550005 -0.05099469 0.03643125 -0.02150535 -0.04699999 0.03643125 -0.02167439 -0.05082565 0.03539305 -0.02150535 -0.05393117 0.0295 -0.02550005 -0.05393117 0.03349477 -0.02167439 -0.05289304 0.03332567 -0.01856887 -0.04699999 0.03349477 -0.01856887 -0.05099469 0.0295 -0.01960694 -0.05082565 0.03332567 -0.02550005 0.04699999 -0.03750002 -0.02550005 0.05499994 -0.0295 -0.01750004 0.04699999 -0.0295 -0.02550005 0.05099469 -0.03643125 -0.02150535 0.04699999 -0.03643125 -0.02167439 0.05082565 -0.03539305 -0.02150535 0.05393117 -0.0295 -0.02550005 0.05393117 -0.03349477 -0.02167439 0.05289304 -0.03332567 -0.01856887 0.04699999 -0.03349477 -0.01856887 0.05099469 -0.0295 -0.01960694 0.05082565 -0.03332567 -0.02550005 0.04699999 0.03750002 -0.01750004 0.04699999 0.0295 -0.02550005 0.05499994 0.0295 -0.02150535 0.04699999 0.03643125 -0.02550005 0.05099469 0.03643125 -0.02167439 0.05082565 0.03539305 -0.01856887 0.05099469 0.0295 -0.01856887 0.04699999 0.03349477 -0.01960694 0.05082565 0.03332567 -0.02550005 0.05393117 0.03349477 -0.02150535 0.05393117 0.0295 -0.02167439 0.05289304 0.03332567 -0.0200001 0.02399998 0 -1.19209e-7 0.02399998 0 -0.0200001 0.02282536 -0.007416427 -1.19209e-7 0.02282536 -0.007416427 -0.0200001 0.01941639 -0.01410686 -1.19209e-7 0.01941639 -0.01410686 -0.0200001 0.01410681 -0.01941639 -1.19209e-7 0.01410681 -0.01941639 -0.0200001 0.007416367 -0.02282536 -1.19209e-7 0.007416367 -0.02282536 -0.0200001 0 -0.02399998 -1.19209e-7 0 -0.02399998 -0.0200001 -0.007416367 -0.02282536 -1.19209e-7 -0.007416367 -0.02282536 -0.0200001 -0.01410681 -0.01941639 -1.19209e-7 -0.01410681 -0.01941639 -0.0200001 -0.01941639 -0.01410686 -1.19209e-7 -0.01941639 -0.01410686 -0.0200001 -0.02282536 -0.007416427 -1.19209e-7 -0.02282536 -0.007416427 -0.0200001 -0.02399998 0 -1.19209e-7 -0.02399998 0 -0.0200001 -0.02282536 0.007416427 -1.19209e-7 -0.02282536 0.007416427 -0.0200001 -0.01941639 0.01410686 -1.19209e-7 -0.01941639 0.01410686 -0.0200001 -0.01410681 0.01941639 -1.19209e-7 -0.01410681 0.01941639 -0.0200001 -0.007416367 0.02282536 -1.19209e-7 -0.007416367 0.02282536 -0.0200001 0 0.02399998 -1.19209e-7 0 0.02399998 -0.0200001 0.007416367 0.02282536 -1.19209e-7 0.007416367 0.02282536 -0.0200001 0.01410681 0.01941639 -1.19209e-7 0.01410681 0.01941639 -0.0200001 0.01941639 0.01410686 -1.19209e-7 0.01941639 0.01410686 -0.0200001 0.02282536 0.007416427 -1.19209e-7 0.02282536 0.007416427 -0.00300002 0.01799994 0 0 0.01799994 0 -0.00300002 0.01711899 -0.005562305 0 0.01711899 -0.005562305 -0.00300002 0.0145623 -0.01058012 0 0.0145623 -0.01058012 -0.00300002 0.01058012 -0.0145623 0 0.01058012 -0.0145623 -0.00300002 0.005562305 -0.01711899 0 0.005562305 -0.01711899 -0.00300002 0 -0.018 0 0 -0.018 -0.00300002 -0.005562305 -0.01711899 0 -0.005562305 -0.01711899 -0.00300002 -0.01058012 -0.0145623 0 -0.01058012 -0.0145623 -0.00300002 -0.0145623 -0.01058012 0 -0.0145623 -0.01058012 -0.00300002 -0.01711899 -0.005562305 0 -0.01711899 -0.005562305 -0.00300002 -0.01799994 0 0 -0.01799994 0 -0.00300002 -0.01711899 0.005562305 0 -0.01711899 0.005562305 -0.00300002 -0.0145623 0.01058012 0 -0.0145623 0.01058012 -0.00300002 -0.01058012 0.0145623 0 -0.01058012 0.0145623 -0.00300002 -0.005562305 0.01711899 0 -0.005562305 0.01711899 -0.00300002 0 0.018 0 0 0.018 -0.00300002 0.005562305 0.01711899 0 0.005562305 0.01711899 -0.00300002 0.01058012 0.0145623 0 0.01058012 0.0145623 -0.00300002 0.0145623 0.01058012 0 0.0145623 0.01058012 -0.00300002 0.01711899 0.005562305 0 0.01711899 0.005562305 -0.07000005 -0.0625 0.03999996 -0.07000005 -0.0625 0.046 -0.07000005 0.0625 0.03999996 -0.07000005 0.0625 0.046 -0.0200001 -0.0625 0.03999996 -0.0200001 -0.0625 0.046 -0.0200001 0.0625 0.03999996 -0.0200001 0.0625 0.046</float_array>
          <technique_common>
            <accessor source="#camera-mesh-positions-array" count="184" stride="3">
              <param name="X" type="float"/>
              <param name="Y" type="float"/>
              <param name="Z" type="float"/>
            </accessor>
          </technique_common>
        </source>
        <source id="camera-mesh-normals">
          <float_array id="camera-mesh-normals-array" count="567">0.1279709 -0.9834873 0.1279701 -0.1279692 -0.9834875 -0.12797 0.1279739 -0.9834868 -0.1279708 0.9834854 0.1279776 0.1279782 0.9834854 -0.1279776 -0.1279782 0.9834854 0.1279788 -0.127977 -0.1279719 0.1279709 0.983487 0.1279736 -0.1279708 0.9834868 0.1279723 0.127972 0.9834868 -0.983487 -0.1279712 0.1279717 -0.983487 0.1279712 -0.1279717 -0.9834871 -0.1279715 -0.1279705 -0.1279692 0.9834875 0.12797 0.127971 0.9834873 -0.1279701 -0.1279719 0.983487 -0.1279707 -0.1216051 -0.4915678 -0.862307 -0.4915696 -0.1216064 -0.8623059 -0.1279719 -0.1279709 -0.983487 -0.1216054 -0.8623059 -0.4915698 -0.4488478 -0.4488518 -0.7727016 -0.4915682 -0.8623067 -0.1216055 -0.7727025 -0.4488544 -0.4488438 -0.4488455 -0.7727068 -0.4488453 -0.8623065 -0.1216065 -0.4915685 -0.8623065 -0.4915686 -0.1216052 -0.1216054 -0.8623071 0.4915676 -0.4915695 -0.8623059 0.1216056 -0.1279719 -0.983487 0.1279707 -0.448848 -0.4488518 0.7727016 -0.4488455 -0.7727067 0.4488453 -0.4915671 -0.1216064 0.8623073 -0.121605 -0.4915701 0.8623057 -0.1279705 -0.1279721 0.983487 -0.8623051 -0.1216065 0.491571 -0.8623069 -0.491568 0.1216052 -0.7727025 -0.4488544 0.4488438 -0.4915671 0.1216064 -0.8623073 -0.121605 0.4915701 -0.8623057 -0.1279705 0.1279721 -0.983487 -0.8623051 0.1216065 -0.491571 -0.448848 0.4488518 -0.7727015 -0.8623069 0.491568 -0.1216052 -0.4915695 0.862306 -0.1216056 -0.7727025 0.4488544 -0.4488438 -0.1216054 0.8623071 -0.4915676 -0.4488455 0.7727067 -0.4488453 -0.1216051 0.4915678 0.862307 -0.4915696 0.1216064 0.8623059 -0.1216054 0.8623059 0.4915698 -0.4488478 0.4488518 0.7727016 -0.4915682 0.8623067 0.1216055 -0.7727025 0.4488544 0.4488438 -0.4488455 0.7727068 0.4488453 -0.8623065 0.1216065 0.4915685 -0.8623065 0.4915686 0.1216052 -0.9834871 0.1279715 0.1279705 0.4915679 -0.1216035 -0.8623071 0.1216057 -0.4915693 -0.8623061 0.1279723 -0.127972 -0.9834868 0.8623034 -0.1216017 -0.4915748 0.4488466 -0.4488473 -0.7727048 0.8623048 -0.4915728 -0.1216008 0.4488491 -0.7727092 -0.4488375 0.7727094 -0.4488454 -0.4488407 0.1216061 -0.8623071 -0.4915673 0.4915698 -0.8623062 -0.1216028 0.1216058 -0.491567 0.8623074 0.4915702 -0.1216034 0.8623058 0.1216061 -0.8623059 0.4915697 0.4488465 -0.4488474 0.772705 0.4915676 -0.8623074 0.1216028 0.8623035 -0.4915749 0.1216008 0.4488491 -0.7727091 0.4488375 0.8623049 -0.1216016 0.4915724 0.9834854 -0.1279788 0.127977 0.7727095 -0.4488453 0.4488407 0.1216058 0.491567 -0.8623074 0.4915702 0.1216034 -0.8623058 0.1279736 0.1279708 -0.9834868 0.1216061 0.8623059 -0.4915697 0.4488465 0.4488474 -0.772705 0.4915676 0.8623074 -0.1216028 0.8623035 0.4915749 -0.1216008 0.4488491 0.7727091 -0.4488375 0.8623049 0.1216016 -0.4915724 0.7727095 0.4488453 -0.4488407 0.4915679 0.1216035 0.8623071 0.1216057 0.4915693 0.8623061 0.8623034 0.1216017 0.4915748 0.4488466 0.4488473 0.7727048 0.8623048 0.4915728 0.1216008 0.4488491 0.7727092 0.4488375 0.7727094 0.4488454 0.4488407 0.1216061 0.8623071 0.4915673 0.4915698 0.8623062 0.1216028 0.1279739 0.9834868 0.1279708 0 1 4.12049e-6 0 0.9510554 -0.3090205 0 1 -4.12049e-6 0 0.951058 -0.3090128 0 0.8090135 -0.5877901 0 0.8090184 -0.5877833 0 0.5877812 -0.80902 0 0.5877882 -0.809015 0 0.3090132 -0.9510578 0 0.3090211 -0.9510552 0 -4.13009e-6 -1 0 4.13009e-6 -1 0 -0.3090211 -0.9510552 0 -0.3090132 -0.9510578 0 -0.5877882 -0.809015 0 -0.5877812 -0.80902 0 -0.8090184 -0.5877833 0 -0.8090135 -0.5877901 0 -0.951058 -0.3090128 0 -0.9510554 -0.3090205 0 -1 4.12049e-6 0 -1 -4.12049e-6 0 -0.9510554 0.3090205 0 -0.951058 0.3090128 0 -0.8090135 0.5877901 0 -0.8090184 0.5877833 0 -0.5877812 0.80902 0 -0.5877882 0.809015 0 -0.3090132 0.9510578 0 -0.3090211 0.9510552 0 4.13009e-6 1 0 -4.13009e-6 1 0 0.3090211 0.9510552 0 0.3090132 0.9510578 0 0.5877882 0.809015 0 0.5877812 0.80902 0 0.8090184 0.5877833 1 0 0 0 0.8090135 0.5877901 0 0.951058 0.3090128 0 0.9510554 0.3090205 -1 0 0 -1 0 0 0 1 1.76727e-6 0 0.9510558 -0.3090193 0 1 -1.76727e-6 0 0.9510569 -0.3090158 0 0.8090162 -0.5877863 0 0.5877827 -0.809019 0 0.5877856 -0.8090168 0 0.3090158 -0.951057 0 0.3090193 -0.9510558 0 -1.83931e-6 -1 0 1.83931e-6 -1 0 -0.3090193 -0.9510558 0 -0.3090158 -0.951057 0 -0.5877856 -0.8090168 0 -0.5877827 -0.809019 0 -0.8090162 -0.5877863 0 -0.9510569 -0.3090158 0 -0.9510558 -0.3090193 0 -1 1.76727e-6 0 -1 -1.76727e-6 0 -0.9510558 0.3090193 0 -0.9510569 0.3090158 0 -0.8090162 0.5877863 0 -0.5877827 0.809019 0 -0.5877856 0.8090168 0 -0.3090158 0.951057 0 -0.3090193 0.9510558 0 1.83931e-6 1 0 -1.83931e-6 1 0 0.3090193 0.9510558 0 0.3090158 0.951057 0 0.5877856 0.8090168 0 0.5877827 0.809019 0 0.8090162 0.5877863 0 0.9510569 0.3090158 0 0.9510558 0.3090193 -1 0 0 -1 0 0 0 1 0 0 -1 0 0 0 -1 0 0 1 -1 0 0 -1 5.43608e-7 0 -1 1.19548e-7 0 -1 0 0 -1 0 0 -1 0 0 -1 0 0 -1 -1.19548e-7 0</float_array>
          <technique_common>
            <accessor source="#camera-mesh-normals-array" count="189" stride="3">
              <param name="X" type="float"/>
              <param name="Y" type="float"/>
              <param name="Z" type="float"/>
            </accessor>
          </technique_common>
        </source>
        <vertices id="camera-mesh-vertices">
          <input semantic="POSITION" source="#camera-mesh-positions"/>
        </vertices>
        <triangles material="blade-material" count="200">
          <input semantic="VERTEX" source="#camera-mesh-vertices" offset="0"/>
          <input semantic="NORMAL" source="#camera-mesh-normals" offset="1"/>
          <p>61 0 1 1 50 2 85 3 49 4 74 5 36 6 60 7 84 8 14 9 25 10 2 11 37 12 73 13 26 14 3 15 4 16 0 17 7 18 5 19 3 15 6 20 7 18 1 1 6 20 11 21 8 22 9 23 10 24 2 11 9 23 5 19 11 21 5 19 8 22 11 21 15 25 16 26 12 27 15 25 20 28 17 29 18 30 19 31 13 32 22 33 20 28 18 30 21 34 22 33 14 9 16 26 23 35 21 34 17 29 20 28 23 35 27 36 28 37 24 38 31 39 29 40 27 36 30 41 31 39 25 10 34 42 32 43 30 41 33 44 34 42 26 14 33 44 29 40 35 45 29 40 32 43 35 45 39 46 40 47 36 6 43 48 41 49 39 46 42 50 43 48 37 12 42 50 47 51 44 52 45 53 46 54 38 55 45 53 41 49 47 51 41 49 44 52 47 51 51 56 52 57 48 58 55 59 53 60 51 56 54 61 55 59 49 4 54 61 59 62 56 63 57 64 58 65 50 2 57 64 53 60 59 62 53 60 56 63 59 62 63 66 64 67 60 7 67 68 65 69 63 66 66 70 67 68 61 0 70 71 68 72 66 70 69 73 70 71 62 74 69 73 65 69 71 75 65 69 68 72 71 75 75 76 76 77 72 78 79 79 77 80 75 76 78 81 79 79 73 13 82 82 80 83 78 81 81 84 82 82 74 5 81 84 77 80 83 85 77 80 80 83 83 85 87 86 88 87 84 8 91 88 89 89 87 86 90 90 91 88 85 3 90 90 95 91 92 92 93 93 94 94 86 95 93 93 89 89 95 91 89 89 92 92 95 91 0 17 27 36 24 38 4 16 31 39 27 36 9 23 25 10 31 39 12 27 6 20 1 1 16 26 10 24 6 20 21 34 2 11 10 24 36 6 18 30 13 32 40 47 22 33 18 30 45 53 14 9 22 33 26 14 42 50 37 12 34 42 46 54 42 50 30 41 38 55 46 54 24 38 75 76 72 78 28 37 79 79 75 76 33 44 73 13 79 79 84 8 39 46 36 6 88 87 43 48 39 46 93 93 37 12 43 48 74 5 90 90 85 3 82 82 94 94 90 90 78 81 86 95 94 94 72 78 51 56 48 58 76 77 55 59 51 56 81 84 49 4 55 59 60 7 87 86 84 8 64 67 91 88 87 86 69 73 85 3 91 88 50 2 66 70 61 0 58 65 70 71 66 70 54 61 62 74 70 71 48 58 3 15 0 17 52 57 7 18 3 15 57 64 1 1 7 18 13 32 63 66 60 7 19 31 67 68 63 66 15 25 61 0 67 68 72 78 0 17 24 38 177 138 178 138 176 138 179 177 182 177 178 177 183 133 180 133 182 133 181 178 176 178 180 178 182 179 176 179 178 179 179 180 181 180 183 180 61 0 12 27 1 1 85 3 62 74 49 4 36 6 13 32 60 7 14 9 38 55 25 10 37 12 86 95 73 13 3 15 5 19 4 16 7 18 8 22 5 19 6 20 8 22 7 18 6 20 10 24 11 21 9 23 11 21 10 24 9 23 4 16 5 19 15 25 17 29 16 26 15 25 19 31 20 28 18 30 20 28 19 31 22 33 23 35 20 28 21 34 23 35 22 33 16 26 17 29 23 35 27 36 29 40 28 37 31 39 32 43 29 40 30 41 32 43 31 39 34 42 35 45 32 43 33 44 35 45 34 42 33 44 28 37 29 40 39 46 41 49 40 47 43 48 44 52 41 49 42 50 44 52 43 48 42 50 46 54 47 51 45 53 47 51 46 54 45 53 40 47 41 49 51 56 53 60 52 57 55 59 56 63 53 60 54 61 56 63 55 59 54 61 58 65 59 62 57 64 59 62 58 65 57 64 52 57 53 60 63 66 65 69 64 67 67 68 68 72 65 69 66 70 68 72 67 68 70 71 71 75 68 72 69 73 71 75 70 71 69 73 64 67 65 69 75 76 77 80 76 77 79 79 80 83 77 80 78 81 80 83 79 79 82 82 83 85 80 83 81 84 83 85 82 82 81 84 76 77 77 80 87 86 89 89 88 87 91 88 92 92 89 89 90 90 92 92 91 88 90 90 94 94 95 91 93 93 95 91 94 94 93 93 88 87 89 89 0 17 4 16 27 36 4 16 9 23 31 39 9 23 2 11 25 10 12 27 16 26 6 20 16 26 21 34 10 24 21 34 14 9 2 11 36 6 40 47 18 30 40 47 45 53 22 33 45 53 38 55 14 9 26 14 34 42 42 50 34 42 30 41 46 54 30 41 25 10 38 55 24 38 28 37 75 76 28 37 33 44 79 79 33 44 26 14 73 13 84 8 88 87 39 46 88 87 93 93 43 48 93 93 86 95 37 12 74 5 82 82 90 90 82 82 78 81 94 94 78 81 73 13 86 95 72 78 76 77 51 56 76 77 81 84 55 59 81 84 74 5 49 4 60 7 64 67 87 86 64 67 69 73 91 88 69 73 62 74 85 3 50 2 58 65 66 70 58 65 54 61 70 71 54 61 49 4 62 74 48 58 52 57 3 15 52 57 57 64 7 18 57 64 50 2 1 1 13 32 19 31 63 66 19 31 15 25 67 68 15 25 12 27 61 0 72 78 48 58 0 17 177 138 179 138 178 138 179 177 183 177 182 177 183 133 181 133 180 133 181 178 177 178 176 178 182 179 180 179 176 179 179 180 177 180 181 180</p>
        </triangles>
        <triangles material="gunmetal-material" count="76">
          <input semantic="VERTEX" source="#camera-mesh-vertices" offset="0"/>
          <input semantic="NORMAL" source="#camera-mesh-normals" offset="1"/>
          <p>97 96 98 97 96 98 99 99 100 100 98 97 101 101 102 102 100 100 103 103 104 104 102 102 105 105 106 106 104 104 107 107 108 108 106 106 109 109 110 110 108 108 111 111 112 112 110 110 113 113 114 114 112 112 115 115 116 116 114 114 117 117 118 118 116 116 119 119 120 120 118 118 121 121 122 122 120 120 123 123 124 124 122 122 125 125 126 126 124 124 127 127 128 128 126 126 129 129 130 130 128 128 131 131 132 132 130 130 125 133 109 133 101 133 133 134 134 135 132 132 135 136 96 98 134 135 102 137 110 138 126 138 97 96 99 99 98 97 99 99 101 101 100 100 101 101 103 103 102 102 103 103 105 105 104 104 105 105 107 107 106 106 107 107 109 109 108 108 109 109 111 111 110 110 111 111 113 113 112 112 113 113 115 115 114 114 115 115 117 117 116 116 117 117 119 119 118 118 119 119 121 121 120 120 121 121 123 123 122 122 123 123 125 125 124 124 125 125 127 127 126 126 127 127 129 129 128 128 129 129 131 131 130 130 131 131 133 134 132 132 101 133 99 133 97 133 97 133 135 133 133 133 133 133 131 133 125 133 131 133 129 133 125 133 129 133 127 133 125 133 125 133 123 133 117 133 123 133 121 133 117 133 121 133 119 133 117 133 117 133 115 133 113 133 113 133 111 133 117 133 111 133 109 133 117 133 109 133 107 133 105 133 105 133 103 133 109 133 103 133 101 133 109 133 101 133 97 133 125 133 97 133 133 133 125 133 125 133 117 133 109 133 133 134 135 136 134 135 135 136 97 96 96 98 134 138 96 181 102 137 96 181 98 182 102 137 98 182 100 138 102 137 102 137 104 138 106 138 106 138 108 138 110 138 110 138 112 138 114 138 114 138 116 138 110 138 116 138 118 138 110 138 118 138 120 138 122 138 122 138 124 138 126 138 126 138 128 138 130 138 130 138 132 138 134 138 102 137 106 138 110 138 118 138 122 138 110 138 122 138 126 138 110 138 126 138 130 138 134 138 134 138 102 137 126 138</p>
        </triangles>
        <triangles material="lens-material" count="76">
          <input semantic="VERTEX" source="#camera-mesh-vertices" offset="0"/>
          <input semantic="NORMAL" source="#camera-mesh-normals" offset="1"/>
          <p>137 139 138 140 136 141 139 142 140 143 138 140 141 101 142 144 140 143 143 145 144 146 142 144 145 147 146 148 144 146 147 149 148 150 146 148 149 151 150 152 148 150 151 153 152 112 150 152 153 154 154 155 152 112 155 156 156 157 154 155 157 158 158 159 156 157 159 160 160 161 158 159 161 121 162 162 160 161 163 163 164 164 162 162 165 165 166 166 164 164 167 167 168 168 166 166 169 169 170 170 168 168 171 171 172 132 170 170 165 133 157 133 149 133 173 172 174 173 172 132 175 174 136 141 174 173 158 175 166 138 174 176 137 139 139 142 138 140 139 142 141 101 140 143 141 101 143 145 142 144 143 145 145 147 144 146 145 147 147 149 146 148 147 149 149 151 148 150 149 151 151 153 150 152 151 153 153 154 152 112 153 154 155 156 154 155 155 156 157 158 156 157 157 158 159 160 158 159 159 160 161 121 160 161 161 121 163 163 162 162 163 163 165 165 164 164 165 165 167 167 166 166 167 167 169 169 168 168 169 169 171 171 170 170 171 171 173 172 172 132 141 133 139 133 137 133 137 133 175 133 173 133 173 133 171 133 169 133 169 133 167 133 165 133 165 133 163 133 161 133 161 133 159 133 157 133 157 133 155 133 153 133 153 133 151 133 149 133 149 133 147 133 145 133 145 133 143 133 141 133 141 133 137 133 173 133 173 133 169 133 141 133 169 133 165 133 141 133 165 133 161 133 157 133 157 133 153 133 149 133 149 133 145 133 165 133 145 133 141 133 165 133 173 172 175 174 174 173 175 174 137 139 136 141 174 176 136 138 138 138 138 138 140 183 174 176 140 183 142 184 174 176 142 184 144 185 146 186 146 186 148 138 142 184 148 138 150 187 142 184 150 187 152 188 158 175 152 188 154 138 158 175 154 138 156 138 158 175 158 175 160 138 162 138 162 138 164 138 158 175 164 138 166 138 158 175 166 138 168 138 174 176 168 138 170 138 174 176 170 138 172 138 174 176 174 176 142 184 150 187 150 187 158 175 174 176</p>
        </triangles>
      </mesh>
    </geometry>
  </library_geometries>
  <library_visual_scenes>
    <visual_scene id="Scene" name="Scene">
      <node id="camera" name="camera" type="NODE">
        <matrix sid="transform">1 0 0 0 0 1 0 0 0 0 1 0 0 0 0 1</matrix>
        <instance_geometry url="#camera-mesh" name="camera">
          <bind_material>
            <technique_common>
              <instance_material symbol="blade-material" target="#blade-material"/>
              <instance_material symbol="gunmetal-material" target="#gunmetal-material"/>
              <instance_material symbol="lens-material" target="#lens-material"/>
            </technique_common>
          </bind_material>
        </instance_geometry>
      </node>
    </visual_scene>
  </library_visual_scenes>
  <scene>
    <instance_visual_scene url="#Scene"/>
  </scene>
</COLLADA>