<?xml version="1.0" encoding="utf-8"?>
<COLLADA xmlns="http://www.collada.org/2005/11/COLLADASchema" version="1.4.1" xmlns:xsi="http://www.w3.org/2001/XMLSchema-instance">
  <asset>
    <contributor>
      <author>Blender User</author>
      <authoring_tool>Blender 4.2.0 commit date:2024-07-16, commit time:07:50, hash:bf738fd35afe</authoring_tool>
    </contributor>
    <created>2026-09-25T15:10:49</created>
    <modified>2026-09-25T15:10:49</modified>
    <unit name="meter" meter="1"/>
    <up_axis>Z_UP</up_axis>
  </asset>
  <library_effects>
    <effect id="aluminium-effect">
      <profile_COMMON>
        <technique sid="common">
          <lambert>
            <emission>
              <color sid="emission">0 0 0 1</color>
            </emission>
            <diffuse>
              <color sid="diffuse">0.55 0.55 0.56 1</color>
            </diffuse>
            <reflectivity>
              <float sid="specular">1</float>
            </reflectivity>
            <index_of_refraction>
              <float sid="ior">1.5</float>
            </index_of_refraction>
          </lambert>
        </technique>
      </profile_COMMON>
    </effect>
    <effect id="lens-effect">
      <profile_COMMON>
        <technique sid="common">
          <lambert>
            <emission>
              <color sid="emission">0 0 0 1</color>
            </emission>
            <diffuse>
              <color sid="diffuse">0.005 0.01 0.03 1</color>
            </diffuse>
            <index_of_refraction>
              <float sid="ior">1.5</float>
            </index_of_refraction>
          </lambert>
        </technique>
      </profile_COMMON>
    </effect>
  </library_effects>
  <library_images/>
  <library_materials>
    <material id="aluminium-material" name="aluminium">
      <instance_effect url="#aluminium-effect"/>
    </material>
    <material id="lens-material" name="lens">
      <instance_effect url="#lens-effect"/>
    </material>
  </library_materials>
  <library_geometries>
    <geometry id="lidar-mesh" name="lidar">
      <mesh>
        <source id="lidar-mesh-positions">
          <float_array id="lidar-mesh-positions-array" count="2016">0 0.05149996 -0.03285002 0 0.04848545 -0.03585004 0 0.04999274 -0.03544807 0 0.05109608 -0.03435003 0 0.04848545 -0.01585006 0 0.05149996 -0.01885008 0 0.04999274 -0.01625204 0 0.05109608 -0.01735007 0.009459018 0.04755383 -0.03585004 0.01004713 0.0505104 -0.03285002 0.009753048 0.04903209 -0.03544807 0.00996834 0.05011433 -0.03435003 0.009459018 0.04755383 -0.01585006 0.01004713 0.0505104 -0.01885008 0.009753048 0.04903209 -0.01625204 0.00996834 0.05011433 -0.01735007 0.01855456 0.04479473 -0.03585004 0.01970815 0.04757976 -0.03285002 0.01913136 0.04618722 -0.03544807 0.0195536 0.04720664 -0.03435003 0.01855456 0.04479473 -0.01585006 0.01970815 0.04757976 -0.01885008 0.01913136 0.04618722 -0.01625204 0.0195536 0.04720664 -0.01735007 0.02693706 0.04031419 -0.03585004 0.02861183 0.04282063 -0.03285002 0.02777445 0.04156744 -0.03544807 0.02838748 0.04248487 -0.03435003 0.02693706 0.04031419 -0.01585006 0.02861183 0.04282063 -0.01885008 0.02777445 0.04156744 -0.01625204 0.02838748 0.04248487 -0.01735007 0.03428441 0.03428441 -0.03585004 0.03641599 0.03641599 -0.03285002 0.0353502 0.0353502 -0.03544807 0.03613036 0.03613036 -0.03435003 0.03428441 0.03428441 -0.01585006 0.03641599 0.03641599 -0.01885008 0.0353502 0.0353502 -0.01625204 0.03613036 0.03613036 -0.01735007 0.04031419 0.02693706 -0.03585004 0.04282063 0.02861183 -0.03285002 0.04156744 0.02777445 -0.03544807 0.04248487 0.02838748 -0.03435003 0.04031419 0.02693706 -0.01585006 0.04282063 0.02861183 -0.01885008 0.04156744 0.02777445 -0.01625204 0.04248487 0.02838748 -0.01735007 0.04479473 0.01855456 -0.03585004 0.04757976 0.01970815 -0.03285002 0.04618722 0.01913136 -0.03544807 0.04720664 0.0195536 -0.03435003 0.04479473 0.01855456 -0.01585006 0.04757976 0.01970815 -0.01885008 0.04618722 0.01913136 -0.01625204 0.04720664 0.0195536 -0.01735007 0.04755383 0.009459018 -0.03585004 0.0505104 0.01004713 -0.03285002 0.04903209 0.009753048 -0.03544807 0.05011433 0.00996834 -0.03435003 0.04755383 0.009459018 -0.01585006 0.0505104 0.01004713 -0.01885008 0.04903209 0.009753048 -0.01625204 0.05011433 0.00996834 -0.01735007 0.04848545 0 -0.03585004 0.05149996 0 -0.03285002 0.04999274 0 -0.03544807 0.05109608 0 -0.03435003 0.04848545 0 -0.01585006 0.05149996 0 -0.01885008 0.04999274 0 -0.01625204 0.05109608 0 -0.01735007 0.04755383 -0.009459018 -0.03585004 0.0505104 -0.01004713 -0.03285002 0.04903209 -0.009753048 -0.03544807 0.05011433 -0.00996834 -0.03435003 0.04755383 -0.009459018 -0.01585006 0.0505104 -0.01004713 -0.01885008 0.04903209 -0.009753048 -0.01625204 0.05011433 -0.00996834 -0.01735007 0.04479473 -0.01855456 -0.03585004 0.04757976 -0.01970815 -0.03285002 0.04618722 -0.01913136 -0.03544807 0.04720664 -0.0195536 -0.03435003 0.04479473 -0.01855456 -0.01585006 0.04757976 -0.01970815 -0.01885008 0.04618722 -0.01913136 -0.01625204 0.04720664 -0.0195536 -0.01735007 0.04031419 -0.02693706 -0.03585004 0.04282063 -0.02861183 -0.03285002 0.04156744 -0.02777445 -0.03544807 0.04248487 -0.02838748 -0.03435003 0.04031419 -0.02693706 -0.01585006 0.04282063 -0.02861183 -0.01885008 0.04156744 -0.02777445 -0.01625204 0.04248487 -0.02838748 -0.01735007 0.03428441 -0.03428441 -0.03585004 0.03641599 -0.03641599 -0.03285002 0.0353502 -0.0353502 -0.03544807 0.03613036 -0.03613036 -0.03435003 0.03428441 -0.03428441 -0.01585006 0.03641599 -0.03641599 -0.01885008 0.0353502 -0.0353502 -0.01625204 0.03613036 -0.03613036 -0.01735007 0.02693706 -0.04031419 -0.03585004 0.02861183 -0.04282063 -0.03285002 0.02777445 -0.04156744 -0.03544807 0.02838748 -0.04248487 -0.03435003 0.02693706 -0.04031419 -0.01585006 0.02861183 -0.04282063 -0.01885008 0.02777445 -0.04156744 -0.01625204 0.02838748 -0.04248487 -0.01735007 0.01855456 -0.04479473 -0.03585004 0.01970815 -0.04757976 -0.03285002 0.01913136 -0.04618722 -0.03544807 0.0195536 -0.04720664 -0.03435003 0.01855456 -0.04479473 -0.01585006 0.01970815 -0.04757976 -0.01885008 0.01913136 -0.04618722 -0.01625204 0.0195536 -0.04720664 -0.01735007 0.009459018 -0.04755383 -0.03585004 0.01004713 -0.0505104 -0.03285002 0.009753048 -0.04903209 -0.03544807 0.00996834 -0.05011433 -0.03435003 0.009459018 -0.04755383 -0.01585006 0.01004713 -0.0505104 -0.01885008 0.009753048 -0.04903209 -0.01625204 0.00996834 -0.05011433 -0.01735007 0 -0.04848545 -0.03585004 0 -0.05149996 -0.03285002 0 -0.04999274 -0.03544807 0 -0.05109608 -0.03435003 0 -0.04848545 -0.01585006 0 -0.05149996 -0.01885008 0 -0.04999274 -0.01625204 0 -0.05109608 -0.01735007 -0.009459018 -0.04755383 -0.03585004 -0.01004713 -0.0505104 -0.03285002 -0.009753048 -0.04903209 -0.03544807 -0.00996834 -0.05011433 -0.03435003 -0.009459018 -0.04755383 -0.01585006 -0.01004713 -0.0505104 -0.01885008 -0.009753048 -0.04903209 -0.01625204 -0.00996834 -0.05011433 -0.01735007 -0.01855456 -0.04479473 -0.03585004 -0.01970815 -0.04757976 -0.03285002 -0.01913136 -0.04618722 -0.03544807 -0.0195536 -0.04720664 -0.03435003 -0.01855456 -0.04479473 -0.01585006 -0.01970815 -0.04757976 -0.01885008 -0.01913136 -0.04618722 -0.01625204 -0.0195536 -0.04720664 -0.01735007 -0.02693706 -0.04031419 -0.03585004 -0.02861183 -0.04282063 -0.03285002 -0.02777445 -0.04156744 -0.03544807 -0.02838748 -0.04248487 -0.03435003 -0.02693706 -0.04031419 -0.01585006 -0.02861183 -0.04282063 -0.01885008 -0.02777445 -0.04156744 -0.01625204 -0.02838748 -0.04248487 -0.01735007 -0.03428441 -0.03428441 -0.03585004 -0.03641599 -0.03641599 -0.03285002 -0.0353502 -0.0353502 -0.03544807 -0.03613036 -0.03613036 -0.03435003 -0.03428441 -0.03428441 -0.01585006 -0.03641599 -0.03641599 -0.01885008 -0.0353502 -0.0353502 -0.01625204 -0.03613036 -0.03613036 -0.01735007 -0.04031419 -0.02693706 -0.03585004 -0.04282063 -0.02861183 -0.03285002 -0.04156744 -0.02777445 -0.03544807 -0.04248487 -0.02838748 -0.03435003 -0.04031419 -0.02693706 -0.01585006 -0.04282063 -0.02861183 -0.01885008 -0.04156744 -0.02777445 -0.01625204 -0.04248487 -0.02838748 -0.01735007 -0.04479473 -0.01855456 -0.03585004 -0.04757976 -0.01970815 -0.03285002 -0.04618722 -0.01913136 -0.03544807 -0.04720664 -0.0195536 -0.03435003 -0.04479473 -0.01855456 -0.01585006 -0.04757976 -0.01970815 -0.01885008 -0.04618722 -0.01913136 -0.01625204 -0.04720664 -0.0195536 -0.01735007 -0.04755383 -0.009459018 -0.03585004 -0.0505104 -0.01004713 -0.03285002 -0.04903209 -0.009753048 -0.03544807 -0.05011433 -0.00996834 -0.03435003 -0.04755383 -0.009459018 -0.01585006 -0.0505104 -0.01004713 -0.01885008 -0.04903209 -0.009753048 -0.01625204 -0.05011433 -0.00996834 -0.01735007 -0.04848545 0 -0.03585004 -0.05149996 0 -0.03285002 -0.04999274 0 -0.03544807 -0.05109608 0 -0.03435003 -0.04848545 0 -0.01585006 -0.05149996 0 -0.01885008 -0.04999274 0 -0.01625204 -0.05109608 0 -0.01735007 -0.04755383 0.009459018 -0.03585004 -0.0505104 0.01004713 -0.03285002 -0.04903209 0.009753048 -0.03544807 -0.05011433 0.00996834 -0.03435003 -0.04755383 0.009459018 -0.01585006 -0.0505104 0.01004713 -0.01885008 -0.04903209 0.009753048 -0.01625204 -0.05011433 0.00996834 -0.01735007 -0.04479473 0.01855456 -0.03585004 -0.04757976 0.01970815 -0.03285002 -0.04618722 0.01913136 -0.03544807 -0.04720664 0.0195536 -0.03435003 -0.04479473 0.01855456 -0.01585006 -0.04757976 0.01970815 -0.01885008 -0.04618722 0.01913136 -0.01625204 -0.04720664 0.0195536 -0.01735007 -0.04031419 0.02693706 -0.03585004 -0.04282063 0.02861183 -0.03285002 -0.04156744 0.02777445 -0.03544807 -0.04248487 0.02838748 -0.03435003 -0.04031419 0.02693706 -0.01585006 -0.04282063 0.02861183 -0.01885008 -0.04156744 0.02777445 -0.01625204 -0.04248487 0.02838748 -0.01735007 -0.03428441 0.03428441 -0.03585004 -0.03641599 0.03641599 -0.03285002 -0.0353502 0.0353502 -0.03544807 -0.03613036 0.03613036 -0.03435003 -0.03428441 0.03428441 -0.01585006 -0.03641599 0.03641599 -0.01885008 -0.0353502 0.0353502 -0.01625204 -0.03613036 0.03613036 -0.01735007 -0.02693706 0.04031419 -0.03585004 -0.02861183 0.04282063 -0.03285002 -0.02777445 0.04156744 -0.03544807 -0.02838748 0.04248487 -0.03435003 -0.02693706 0.04031419 -0.01585006 -0.02861183 0.04282063 -0.01885008 -0.02777445 0.04156744 -0.01625204 -0.02838748 0.04248487 -0.01735007 -0.01855456 0.04479473 -0.03585004 -0.01970815 0.04757976 -0.03285002 -0.01913136 0.04618722 -0.03544807 -0.0195536 0.04720664 -0.03435003 -0.01855456 0.04479473 -0.01585006 -0.01970815 0.04757976 -0.01885008 -0.01913136 0.04618722 -0.01625204 -0.0195536 0.04720664 -0.01735007 -0.009459018 0.04755383 -0.03585004 -0.01004713 0.0505104 -0.03285002 -0.009753048 0.04903209 -0.03544807 -0.00996834 0.05011433 -0.03435003 -0.009459018 0.04755383 -0.01585006 -0.01004713 0.0505104 -0.01885008 -0.009753048 0.04903209 -0.01625204 -0.00996834 0.05011433 -0.01735007 0 0.04949998 -0.01585006 0 0.04949998 0.01614999 0.009656965 0.04854881 -0.01585006 0.009656965 0.04854881 0.01614999 0.01894283 0.04573202 -0.01585006 0.01894283 0.04573202 0.01614999 0.02750068 0.04115772 -0.01585006 0.02750068 0.04115772 0.01614999 0.03500175 0.03500175 -0.01585006 0.03500175 0.03500175 0.01614999 0.04115772 0.02750068 -0.01585006 0.04115772 0.02750068 0.01614999 0.04573202 0.01894283 -0.01585006 0.04573202 0.01894283 0.01614999 0.04854881 0.009656965 -0.01585006 0.04854881 0.009656965 0.01614999 0.04949998 0 -0.01585006 0.04949998 0 0.01614999 0.04854881 -0.009656965 -0.01585006 0.04854881 -0.009656965 0.01614999 0.04573202 -0.01894283 -0.01585006 0.04573202 -0.01894283 0.01614999 0.04115772 -0.02750068 -0.01585006 0.04115772 -0.02750068 0.01614999 0.03500175 -0.03500175 -0.01585006 0.03500175 -0.03500175 0.01614999 0.02750068 -0.04115772 -0.01585006 0.02750068 -0.04115772 0.01614999 0.01894283 -0.04573202 -0.01585006 0.01894283 -0.04573202 0.01614999 0.009656965 -0.04854881 -0.01585006 0.009656965 -0.04854881 0.01614999 0 -0.04949998 -0.01585006 0 -0.04949998 0.01614999 -0.009656965 -0.04854881 -0.01585006 -0.009656965 -0.04854881 0.01614999 -0.01894283 -0.04573202 -0.01585006 -0.01894283 -0.04573202 0.01614999 -0.02750068 -0.04115772 -0.01585006 -0.02750068 -0.04115772 0.01614999 -0.03500175 -0.03500175 -0.01585006 -0.03500175 -0.03500175 0.01614999 -0.04115772 -0.02750068 -0.01585006 -0.04115772 -0.02750068 0.01614999 -0.04573202 -0.01894283 -0.01585006 -0.04573202 -0.01894283 0.01614999 -0.04854881 -0.009656965 -0.01585006 -0.04854881 -0.009656965 0.01614999 -0.04949998 0 -0.01585006 -0.04949998 0 0.01614999 -0.04854881 0.009656965 -0.01585006 -0.04854881 0.009656965 0.01614999 -0.04573202 0.01894283 -0.01585006 -0.04573202 0.01894283 0.01614999 -0.04115772 0.02750068 -0.01585006 -0.04115772 0.02750068 0.01614999 -0.03500175 0.03500175 -0.01585006 -0.03500175 0.03500175 0.01614999 -0.02750068 0.04115772 -0.01585006 -0.02750068 0.04115772 0.01614999 -0.01894283 0.04573202 -0.01585006 -0.01894283 0.04573202 0.01614999 -0.009656965 0.04854881 -0.01585006 -0.009656965 0.04854881 0.01614999 0 0.05149996 0.01915001 0 0.04848545 0.01614999 0 0.04999274 0.01655197 0 0.05109608 0.01765 0 0.04848545 0.03614997 0 0.05149996 0.03314995 0 0.04999274 0.035748 0 0.05109608 0.03464996 0.009459018 0.04755383 0.01614999 0.01004713 0.0505104 0.01915001 0.009753048 0.04903209 0.01655197 0.00996834 0.05011433 0.01765 0.009459018 0.04755383 0.03614997 0.01004713 0.0505104 0.03314995 0.009753048 0.04903209 0.035748 0.00996834 0.05011433 0.03464996 0.01855456 0.04479473 0.01614999 0.01970815 0.04757976 0.01915001 0.01913136 0.04618722 0.01655197 0.0195536 0.04720664 0.01765 0.01855456 0.04479473 0.03614997 0.01970815 0.04757976 0.03314995 0.01913136 0.04618722 0.035748 0.0195536 0.04720664 0.03464996 0.02693706 0.04031419 0.01614999 0.02861183 0.04282063 0.01915001 0.02777445 0.04156744 0.01655197 0.02838748 0.04248487 0.01765 0.02693706 0.04031419 0.03614997 0.02861183 0.04282063 0.03314995 0.02777445 0.04156744 0.035748 0.02838748 0.04248487 0.03464996 0.03428441 0.03428441 0.01614999 0.03641599 0.03641599 0.01915001 0.0353502 0.0353502 0.01655197 0.03613036 0.03613036 0.01765 0.03428441 0.03428441 0.03614997 0.03641599 0.03641599 0.03314995 0.0353502 0.0353502 0.035748 0.03613036 0.03613036 0.03464996 0.04031419 0.02693706 0.01614999 0.04282063 0.02861183 0.01915001 0.04156744 0.02777445 0.01655197 0.04248487 0.02838748 0.01765 0.04031419 0.02693706 0.03614997 0.04282063 0.02861183 0.03314995 0.04156744 0.02777445 0.035748 0.04248487 0.02838748 0.03464996 0.04479473 0.01855456 0.01614999 0.04757976 0.01970815 0.01915001 0.04618722 0.01913136 0.01655197 0.04720664 0.0195536 0.01765 0.04479473 0.01855456 0.03614997 0.04757976 0.01970815 0.03314995 0.04618722 0.01913136 0.035748 0.04720664 0.0195536 0.03464996 0.04755383 0.009459018 0.01614999 0.0505104 0.01004713 0.01915001 0.04903209 0.009753048 0.01655197 0.05011433 0.00996834 0.01765 0.04755383 0.009459018 0.03614997 0.0505104 0.01004713 0.03314995 0.04903209 0.009753048 0.035748 0.05011433 0.00996834 0.03464996 0.04848545 0 0.01614999 0.05149996 0 0.01915001 0.04999274 0 0.01655197 0.05109608 0 0.01765 0.04848545 0 0.03614997 0.05149996 0 0.03314995 0.04999274 0 0.035748 0.05109608 0 0.03464996 0.04755383 -0.009459018 0.01614999 0.0505104 -0.01004713 0.01915001 0.04903209 -0.009753048 0.01655197 0.05011433 -0.00996834 0.01765 0.04755383 -0.009459018 0.03614997 0.0505104 -0.01004713 0.03314995 0.04903209 -0.009753048 0.035748 0.05011433 -0.00996834 0.03464996 0.04479473 -0.01855456 0.01614999 0.04757976 -0.01970815 0.01915001 0.04618722 -0.01913136 0.01655197 0.04720664 -0.0195536 0.01765 0.04479473 -0.01855456 0.03614997 0.04757976 -0.01970815 0.03314995 0.04618722 -0.01913136 0.035748 0.04720664 -0.0195536 0.03464996 0.04031419 -0.02693706 0.01614999 0.04282063 -0.02861183 0.01915001 0.04156744 -0.02777445 0.01655197 0.04248487 -0.02838748 0.01765 0.04031419 -0.02693706 0.03614997 0.04282063 -0.02861183 0.03314995 0.04156744 -0.02777445 0.035748 0.04248487 -0.02838748 0.03464996 0.03428441 -0.03428441 0.01614999 0.03641599 -0.03641599 0.01915001 0.0353502 -0.0353502 0.01655197 0.03613036 -0.03613036 0.01765 0.03428441 -0.03428441 0.03614997 0.03641599 -0.03641599 0.03314995 0.0353502 -0.0353502 0.035748 0.03613036 -0.03613036 0.03464996 0.02693706 -0.04031419 0.01614999 0.02861183 -0.04282063 0.01915001 0.02777445 -0.04156744 0.01655197 0.02838748 -0.04248487 0.01765 0.02693706 -0.04031419 0.03614997 0.02861183 -0.04282063 0.03314995 0.02777445 -0.04156744 0.035748 0.02838748 -0.04248487 0.03464996 0.01855456 -0.04479473 0.01614999 0.01970815 -0.04757976 0.01915001 0.01913136 -0.04618722 0.01655197 0.0195536 -0.04720664 0.01765 0.01855456 -0.04479473 0.03614997 0.01970815 -0.04757976 0.03314995 0.01913136 -0.04618722 0.035748 0.0195536 -0.04720664 0.03464996 0.009459018 -0.04755383 0.01614999 0.01004713 -0.0505104 0.01915001 0.009753048 -0.04903209 0.01655197 0.00996834 -0.05011433 0.01765 0.009459018 -0.04755383 0.03614997 0.01004713 -0.0505104 0.03314995 0.009753048 -0.04903209 0.035748 0.00996834 -0.05011433 0.03464996 0 -0.04848545 0.01614999 0 -0.05149996 0.01915001 0 -0.04999274 0.01655197 0 -0.05109608 0.01765 0 -0.04848545 0.03614997 0 -0.05149996 0.03314995 0 -0.04999274 0.035748 0 -0.05109608 0.03464996 -0.009459018 -0.04755383 0.01614999 -0.01004713 -0.0505104 0.01915001 -0.009753048 -0.04903209 0.01655197 -0.00996834 -0.05011433 0.01765 -0.009459018 -0.04755383 0.03614997 -0.01004713 -0.0505104 0.03314995 -0.009753048 -0.04903209 0.035748 -0.00996834 -0.05011433 0.03464996 -0.01855456 -0.04479473 0.01614999 -0.01970815 -0.04757976 0.01915001 -0.01913136 -0.04618722 0.01655197 -0.0195536 -0.04720664 0.01765 -0.01855456 -0.04479473 0.03614997 -0.01970815 -0.04757976 0.03314995 -0.01913136 -0.04618722 0.035748 -0.0195536 -0.04720664 0.03464996 -0.02693706 -0.04031419 0.01614999 -0.02861183 -0.04282063 0.01915001 -0.02777445 -0.04156744 0.01655197 -0.02838748 -0.04248487 0.01765 -0.02693706 -0.04031419 0.03614997 -0.02861183 -0.04282063 0.03314995 -0.02777445 -0.04156744 0.035748 -0.02838748 -0.04248487 0.03464996 -0.03428441 -0.03428441 0.01614999 -0.03641599 -0.03641599 0.01915001 -0.0353502 -0.0353502 0.01655197 -0.03613036 -0.03613036 0.01765 -0.03428441 -0.03428441 0.03614997 -0.03641599 -0.03641599 0.03314995 -0.0353502 -0.0353502 0.035748 -0.03613036 -0.03613036 0.03464996 -0.04031419 -0.02693706 0.01614999 -0.04282063 -0.02861183 0.01915001 -0.04156744 -0.02777445 0.01655197 -0.04248487 -0.02838748 0.01765 -0.04031419 -0.02693706 0.03614997 -0.04282063 -0.02861183 0.03314995 -0.04156744 -0.02777445 0.035748 -0.04248487 -0.02838748 0.03464996 -0.04479473 -0.01855456 0.01614999 -0.04757976 -0.01970815 0.01915001 -0.04618722 -0.01913136 0.01655197 -0.04720664 -0.0195536 0.01765 -0.04479473 -0.01855456 0.03614997 -0.04757976 -0.01970815 0.03314995 -0.04618722 -0.01913136 0.035748 -0.04720664 -0.0195536 0.03464996 -0.04755383 -0.009459018 0.01614999 -0.0505104 -0.01004713 0.01915001 -0.04903209 -0.009753048 0.01655197 -0.05011433 -0.00996834 0.01765 -0.04755383 -0.009459018 0.03614997 -0.0505104 -0.01004713 0.03314995 -0.04903209 -0.009753048 0.035748 -0.05011433 -0.00996834 0.03464996 -0.04848545 0 0.01614999 -0.05149996 0 0.01915001 -0.04999274 0 0.01655197 -0.05109608 0 0.01765 -0.04848545 0 0.03614997 -0.05149996 0 0.03314995 -0.04999274 0 0.035748 -0.05109608 0 0.03464996 -0.04755383 0.009459018 0.01614999 -0.0505104 0.01004713 0.01915001 -0.04903209 0.009753048 0.01655197 -0.05011433 0.00996834 0.01765 -0.04755383 0.009459018 0.03614997 -0.0505104 0.01004713 0.03314995 -0.04903209 0.009753048 0.035748 -0.05011433 0.00996834 0.03464996 -0.04479473 0.01855456 0.01614999 -0.04757976 0.01970815 0.01915001 -0.04618722 0.01913136 0.01655197 -0.04720664 0.0195536 0.01765 -0.04479473 0.01855456 0.03614997 -0.04757976 0.01970815 0.03314995 -0.04618722 0.01913136 0.035748 -0.04720664 0.0195536 0.03464996 -0.04031419 0.02693706 0.01614999 -0.04282063 0.02861183 0.01915001 -0.04156744 0.02777445 0.01655197 -0.04248487 0.02838748 0.01765 -0.04031419 0.02693706 0.03614997 -0.04282063 0.02861183 0.03314995 -0.04156744 0.02777445 0.035748 -0.04248487 0.02838748 0.03464996 -0.03428441 0.03428441 0.01614999 -0.03641599 0.03641599 0.01915001 -0.0353502 0.0353502 0.01655197 -0.03613036 0.03613036 0.01765 -0.03428441 0.03428441 0.03614997 -0.03641599 0.03641599 0.03314995 -0.0353502 0.0353502 0.035748 -0.03613036 0.03613036 0.03464996 -0.02693706 0.04031419 0.01614999 -0.02861183 0.04282063 0.01915001 -0.02777445 0.04156744 0.01655197 -0.02838748 0.04248487 0.01765 -0.02693706 0.04031419 0.03614997 -0.02861183 0.04282063 0.03314995 -0.02777445 0.04156744 0.035748 -0.02838748 0.04248487 0.03464996 -0.01855456 0.04479473 0.01614999 -0.01970815 0.04757976 0.01915001 -0.01913136 0.04618722 0.01655197 -0.0195536 0.04720664 0.01765 -0.01855456 0.04479473 0.03614997 -0.01970815 0.04757976 0.03314995 -0.01913136 0.04618722 0.035748 -0.0195536 0.04720664 0.03464996 -0.009459018 0.04755383 0.01614999 -0.01004713 0.0505104 0.01915001 -0.009753048 0.04903209 0.01655197 -0.00996834 0.05011433 0.01765 -0.009459018 0.04755383 0.03614997 -0.01004713 0.0505104 0.03314995 -0.009753048 0.04903209 0.035748 -0.00996834 0.05011433 0.03464996 -0.001999974 -0.01499998 0.03384995 -0.001999974 -0.01499998 0.03984999 -0.001999974 0.01499998 0.03384995 -0.001999974 0.01499998 0.03984999 0.001999974 -0.01499998 0.03384995 0.001999974 -0.01499998 0.03984999 0.001999974 0.01499998 0.03384995 0.001999974 0.01499998 0.03984999 0.001950383 -0.01500648 0.03384995 0.001950383 -0.01500648 0.03984999 -0.005814135 0.0139712 0.03384995 -0.005814135 0.0139712 0.03984999 0.005814135 -0.0139712 0.03384995 0.005814135 -0.0139712 0.03984999 -0.001950383 0.01500648 0.03384995 -0.001950383 0.01500648 0.03984999 0.005767941 -0.01399034 0.03384995 0.005767941 -0.01399034 0.03984999 -0.009232044 0.01199036 0.03384995 -0.009232044 0.01199036 0.03984999 0.009232044 -0.01199036 0.03384995 0.009232044 -0.01199036 0.03984999 -0.005767941 0.01399034 0.03384995 -0.005767941 0.01399034 0.03984999 0.009192347 -0.01202076 0.03384995 0.009192347 -0.01202076 0.03984999 -0.01202076 0.009192347 0.03384995 -0.01202076 0.009192347 0.03984999 0.01202076 -0.009192347 0.03384995 0.01202076 -0.009192347 0.03984999 -0.009192347 0.01202076 0.03384995 -0.009192347 0.01202076 0.03984999 0.01199036 -0.009232044 0.03384995 0.01199036 -0.009232044 0.03984999 -0.01399034 0.005767941 0.03384995 -0.01399034 0.005767941 0.03984999 0.01399034 -0.005767941 0.03384995 0.01399034 -0.005767941 0.03984999 -0.01199036 0.009232044 0.03384995 -0.01199036 0.009232044 0.03984999 0.0139712 -0.005814135 0.03384995 0.0139712 -0.005814135 0.03984999 -0.01500648 0.001950383 0.03384995 -0.01500648 0.001950383 0.03984999 0.01500648 -0.001950383 0.03384995 0.01500648 -0.001950383 0.03984999 -0.0139712 0.005814135 0.03384995 -0.0139712 0.005814135 0.03984999 0.01499998 -0.001999974 0.03384995 0.01499998 -0.001999974 0.03984999 -0.01499998 -0.001999974 0.03384995 -0.01499998 -0.001999974 0.03984999 0.01499998 0.001999974 0.03384995 0.01499998 0.001999974 0.03984999 -0.01499998 0.001999974 0.03384995 -0.01499998 0.001999974 0.03984999 0.01500648 0.001950383 0.03384995 0.01500648 0.001950383 0.03984999 -0.0139712 -0.005814135 0.03384995 -0.0139712 -0.005814135 0.03984999 0.0139712 0.005814135 0.03384995 0.0139712 0.005814135 0.03984999 -0.01500648 -0.001950383 0.03384995 -0.01500648 -0.001950383 0.03984999 0.01399034 0.005767941 0.03384995 0.01399034 0.005767941 0.03984999 -0.01199036 -0.009232044 0.03384995 -0.01199036 -0.009232044 0.03984999 0.01199036 0.009232044 0.03384995 0.01199036 0.009232044 0.03984999 -0.01399034 -0.005767941 0.03384995 -0.01399034 -0.005767941 0.03984999 0.01202076 0.009192347 0.03384995 0.01202076 0.009192347 0.03984999 -0.009192347 -0.01202076 0.03384995 -0.009192347 -0.01202076 0.03984999 0.009192347 0.01202076 0.03384995 0.009192347 0.01202076 0.03984999 -0.01202076 -0.009192347 0.03384995 -0.01202076 -0.009192347 0.03984999 0.009232044 0.01199036 0.03384995 0.009232044 0.01199036 0.03984999 -0.005767941 -0.01399034 0.03384995 -0.005767941 -0.01399034 0.03984999 0.005767941 0.01399034 0.03384995 0.005767941 0.01399034 0.03984999 -0.009232044 -0.01199036 0.03384995 -0.009232044 -0.01199036 0.03984999 0.005814135 0.0139712 0.03384995 0.005814135 0.0139712 0.03984999 -0.001950383 -0.01500648 0.03384995 -0.001950383 -0.01500648 0.03984999 0.001950383 0.01500648 0.03384995 0.001950383 0.01500648 0.03984999 -0.005814135 -0.0139712 0.03384995 -0.005814135 -0.0139712 0.03984999</float_array>
          <technique_common>
            <accessor source="#lidar-mesh-positions-array" count="672" stride="3">
              <param name="X" type="float"/>
              <param name="Y" type="float"/>
              <param name="Z" type="float"/>
            </accessor>
          </technique_common>
        </source>
        <source id="lidar-mesh-normals">
          <float_array id="lidar-mesh-normals-array" count="2340">0.8029257 -0.3325831 -0.4946705 0.4243554 -0.2835456 -0.8599562 0.4715219 -0.1953108 -0.8599539 0.8244053 0.5508517 -0.1300706 0.8029245 0.3325814 -0.4946738 0.7226103 0.4828337 -0.4946777 -0.1934329 0.9724529 0.1300738 -6.76033e-7 0.9915041 -0.130075 -0.1934341 0.9724526 -0.1300738 0.1146697 -0.07662045 -0.9904444 0.1274105 -0.0527755 -0.9904451 0.360888 0.3608877 0.8599535 0.1146674 0.07661914 0.9904448 0.4243554 0.2835456 0.859956 0.3794338 0.9160305 0.1300703 0.5508502 0.824406 -0.1300729 0.3794327 0.9160309 -0.1300703 0.4715245 -0.195311 0.8599526 0.1352603 -0.02690505 0.9904447 0.1274161 -0.05277734 0.9904442 0.6145319 0.6145315 0.4946734 0.7226105 0.4828339 0.4946773 0.5508514 0.8244051 0.130073 0.7010992 0.7010998 -0.130073 0.852381 -0.1695492 0.4946715 0.8029244 -0.3325812 0.4946739 0.7011002 0.701099 0.1300723 0.8244059 0.5508507 0.1300715 0.9160305 -0.3794334 0.1300711 0.3608884 0.360887 -0.8599536 0.1146683 0.0766195 -0.9904447 0.0975179 0.09751719 -0.9904447 0.9160304 0.3794336 -0.1300712 0.1352611 -0.02690529 -0.9904447 0.5005632 -0.09956902 -0.859955 0.6145319 0.6145306 -0.4946744 0.4243541 0.2835453 -0.8599569 0.9160311 0.3794322 0.1300711 0.9724529 0.1934341 -0.1300721 0.8523791 -0.1695498 -0.4946745 0.9724531 0.1934329 0.1300721 0.9915044 6.76033e-7 -0.1300742 0.9160309 -0.3794324 -0.1300712 0.9724531 -0.1934329 -0.1300721 0.07661968 0.1146693 0.9904446 0.09751713 0.09751677 0.9904448 0.9915044 -6.71186e-7 0.1300742 0.5005609 -0.09956824 0.8599563 0.1379129 0 0.9904444 0.2835452 0.4243545 0.8599566 0.9724529 -0.1934341 0.1300721 0.5103689 0 0.8599556 0.482833 0.7226092 0.4946799 0.8244058 -0.5508508 -0.1300715 0.8690764 0 0.494678 0.07662111 0.1146718 -0.9904441 0.2835456 0.4243558 -0.8599559 0.8244052 -0.5508519 0.1300708 0.7011002 -0.7010989 -0.1300723 0.1379118 0 -0.9904446 0.5103684 0 -0.8599559 0.482833 0.7226104 -0.4946783 0.701099 -0.7011 0.1300731 0.5508511 -0.8244054 -0.1300731 0.8690761 0 -0.4946786 0.5508505 -0.8244057 0.1300728 0.3794338 -0.9160304 -0.1300703 0.1953111 0.4715248 0.8599523 0.3794326 -0.916031 0.1300703 0.193434 -0.9724526 -0.1300738 0.5005626 0.09956908 0.8599553 0.3325816 0.8029249 0.4946727 0.1934329 -0.9724529 0.1300738 6.76033e-7 -0.9915041 -0.130075 0.8523789 0.1695498 0.4946749 -6.69975e-7 -0.9915041 0.130075 -0.1934328 -0.9724529 -0.1300738 0.1953105 0.4715218 -0.8599541 0.05277431 0.127411 -0.9904451 -0.1934342 -0.9724526 0.1300738 -0.3794326 -0.9160309 -0.1300703 0.5005614 0.09956824 -0.8599562 0.1352631 0.02690577 -0.9904444 0.3325834 0.802926 -0.49467 -0.3794338 -0.9160305 0.1300703 -0.5508502 -0.824406 -0.1300729 0.8523811 0.1695493 -0.4946712 -0.5508514 -0.8244051 0.130073 -0.7010992 -0.7010998 -0.130073 0.02690505 0.1352599 0.9904448 0.05277645 0.1274137 0.9904446 -0.7011003 -0.7010989 0.1300723 -0.8244053 -0.5508517 -0.1300706 0.4715223 0.1953109 0.8599538 0.1352607 0.02690529 0.9904447 0.1695494 0.85238 0.4946731 -0.8244059 -0.5508507 0.1300715 -0.9160304 -0.3794336 -0.1300712 0.8029257 0.332583 0.4946705 -0.9160311 -0.3794322 0.1300711 -0.9724529 -0.1934341 -0.1300721 0.02690541 0.1352612 -0.9904447 0.09956938 0.5005639 -0.8599545 -0.9724531 -0.1934329 0.1300721 -0.9915044 -6.76033e-7 -0.1300742 0.4715242 0.195311 -0.8599528 0.1274105 0.0527755 -0.9904451 0.1695497 0.8523786 -0.4946753 -0.9915044 6.71186e-7 0.1300742 -0.9724531 0.193433 -0.1300721 0.1934328 0.9724529 -0.1300738 -0.9724529 0.1934341 0.1300721 -0.9160309 0.3794324 -0.1300712 0.0995683 0.5005611 0.8599563 0 0.1379114 0.9904446 -0.9160305 0.3794334 0.1300711 -0.8244058 0.5508508 -0.1300715 0.1274156 0.05277717 0.9904444 0 0.5103694 0.8599554 -0.8244052 0.5508519 0.1300708 -0.7011002 0.7010989 -0.1300723 0.1934342 0.9724526 0.1300738 0 0.8690765 0.4946777 -0.701099 0.7011 0.1300731 -0.5508511 0.8244054 -0.1300731 0 0.137911 -0.9904447 0 0.5103694 -0.8599553 -0.5508505 0.8244057 0.1300728 -0.3794338 0.9160304 -0.1300703 0 0.8690766 -0.4946777 -0.3794326 0.916031 0.1300703 -0.05277621 -0.1274131 0.9904447 6.69975e-7 0.9915041 0.130075 0.7226104 -0.4828338 0.4946776 0.4243547 -0.2835452 0.8599566 0.1146693 -0.07661986 0.9904446 0.7226106 -0.4828339 -0.494677 0.6145324 -0.6145312 -0.4946731 0.3608887 -0.3608876 -0.8599532 0.6145313 -0.614531 0.4946746 0.3608878 -0.3608871 0.8599538 0.09751719 -0.09751677 0.9904448 0.4828324 -0.7226095 -0.4946801 0.2835448 -0.4243546 -0.8599567 0.07661908 -0.1146688 -0.9904447 0.0975179 -0.09751719 -0.9904447 0.4828333 -0.7226102 0.4946782 0.2835459 -0.4243558 0.8599558 0.07661896 -0.1146682 0.9904447 0.3325815 -0.8029249 -0.4946727 0.1953108 -0.4715248 -0.8599525 0.3325833 -0.802926 0.4946701 0.1953108 -0.4715218 0.859954 0.05277734 -0.1274157 0.9904443 0.1695489 -0.8523801 -0.4946731 0.02690654 -0.1352668 -0.9904439 0.05277472 -0.127411 -0.990445 0.16955 -0.8523786 0.4946753 0.09956938 -0.5005638 0.8599545 0.02690511 -0.1352599 0.9904448 0 -0.8690765 -0.4946777 0 -0.5103694 -0.8599554 0.09956824 -0.5005612 -0.8599563 0 -0.137911 -0.9904447 0 -0.8690766 0.4946777 0 -0.5103694 0.8599554 0 -0.1379114 0.9904447 -0.1695497 -0.8523786 -0.4946754 -0.09956938 -0.5005639 -0.8599546 -0.1695493 -0.85238 0.4946731 -0.0995683 -0.5005611 0.8599563 -0.02690535 -0.135261 0.9904447 -0.3325834 -0.802926 -0.49467 -0.1953105 -0.4715218 -0.8599541 -0.02690541 -0.1352612 -0.9904447 -0.3325816 -0.8029249 0.4946727 -0.1953111 -0.4715247 0.8599523 -0.2835456 -0.4243558 -0.8599559 -0.07662111 -0.1146718 -0.9904441 -0.05277431 -0.127411 -0.9904451 -0.4828329 -0.7226093 0.4946799 -0.2835453 -0.4243546 0.8599566 -0.07661968 -0.1146693 0.9904446 -0.482833 -0.7226104 -0.4946783 -0.6145319 -0.6145306 -0.4946743 -0.3608884 -0.3608869 -0.8599536 -0.6145319 -0.6145315 0.4946733 -0.360888 -0.3608878 0.8599535 -0.09751713 -0.09751677 0.9904448 -0.7226104 -0.4828336 -0.4946777 -0.4243541 -0.2835453 -0.8599569 -0.1146683 -0.0766195 -0.9904447 -0.0975179 -0.09751719 -0.9904447 -0.7226105 -0.4828339 0.4946773 -0.4243554 -0.2835456 0.859956 -0.1146674 -0.07661914 0.9904448 -0.8029245 -0.3325814 -0.4946738 -0.4715242 -0.195311 -0.8599528 -0.8029257 -0.332583 0.4946706 -0.4715223 -0.1953109 0.8599538 -0.1274163 -0.0527774 0.9904443 -0.8523811 -0.1695493 -0.4946712 -0.1352631 -0.02690577 -0.9904444 -0.1274105 -0.0527755 -0.9904451 -0.8523789 -0.1695498 0.4946749 -0.5005626 -0.09956908 0.8599553 -0.1352603 -0.02690505 0.9904447 -0.8690761 0 -0.4946786 -0.5103684 0 -0.8599559 -0.5005614 -0.09956824 -0.8599561 -0.1379118 0 -0.9904446 -0.8690764 0 0.494678 -0.5103689 0 0.8599556 -0.1379124 0 0.9904445 -0.852379 0.1695498 -0.4946745 -0.5005632 0.09956902 -0.859955 -0.8523809 0.1695492 0.4946714 -0.5005609 0.09956824 0.8599563 -0.1352606 0.02690529 0.9904448 -0.8029257 0.3325831 -0.4946705 -0.471522 0.1953109 -0.859954 -0.1352611 0.02690529 -0.9904447 -0.8029244 0.3325812 0.4946739 -0.4715245 0.195311 0.8599526 -0.1274154 0.05277705 0.9904444 -0.4243554 0.2835456 -0.8599562 -0.1146697 0.07662045 -0.9904444 -0.1274105 0.0527755 -0.9904451 -0.7226104 0.4828338 0.4946776 -0.4243547 0.2835452 0.8599566 -0.1146693 0.07661986 0.9904446 -0.7226106 0.4828339 -0.494677 -0.6145324 0.6145312 -0.4946731 -0.3608887 0.3608876 -0.8599532 -0.6145313 0.614531 0.4946746 -0.3608878 0.3608871 0.8599538 -0.09751719 0.09751677 0.9904448 -0.4828324 0.7226095 -0.4946801 -0.2835448 0.4243546 -0.8599567 -0.07661908 0.1146688 -0.9904447 -0.0975179 0.09751719 -0.9904447 -0.4828333 0.7226102 0.4946782 -0.2835459 0.4243558 0.8599558 -0.07661896 0.1146682 0.9904447 -0.3325815 0.8029249 -0.4946727 -0.1953108 0.4715248 -0.8599525 -0.3325833 0.802926 0.4946701 -0.1953108 0.4715218 0.859954 -0.05277705 0.1274151 0.9904444 -0.1695489 0.8523801 -0.4946731 -0.02690654 0.1352668 -0.9904439 -0.05277472 0.127411 -0.990445 -0.16955 0.8523786 0.4946753 -0.09956938 0.5005638 0.8599545 -0.02690535 0.135261 0.9904447 -0.09956824 0.5005612 -0.8599563 -2.44032e-6 1 0 0.1950927 0.9807849 0 2.43556e-6 1 0 0.1950879 0.9807859 0 0.3826857 0.9238787 0 0.3826812 0.9238806 0 0.5555723 0.8314682 0 0.5555682 0.831471 0 0.7071086 0.7071049 0 0.7071049 0.7071086 0 0.8314711 0.5555682 0 0.8314682 0.5555724 0 0.9238805 0.382681 0 0.9238786 0.3826858 0 0.9807859 0.1950877 0 0.9807848 0.195093 0 1 -2.7406e-6 0 1 2.7406e-6 0 0.9807848 -0.195093 0 0.9807859 -0.1950877 0 0.9238787 -0.3826858 0 0.9238806 -0.3826811 0 0.8314681 -0.5555724 0 0.8314711 -0.5555682 0 0.7071049 -0.7071086 0 0.7071086 -0.7071049 0 0.5555682 -0.831471 0 0.5555723 -0.8314682 0 0.3826812 -0.9238806 0 0.3826857 -0.9238787 0 0.1950879 -0.9807859 0 0.1950927 -0.9807849 0 -2.43556e-6 -1 0 2.44032e-6 -1 0 -0.1950927 -0.9807849 0 -0.1950879 -0.9807859 0 -0.3826857 -0.9238787 0 -0.3826812 -0.9238806 0 -0.5555723 -0.8314682 0 -0.5555682 -0.831471 0 -0.7071086 -0.7071049 0 -0.7071049 -0.7071086 0 -0.8314711 -0.5555682 0 -0.8314682 -0.5555724 0 -0.9238805 -0.382681 0 -0.9238786 -0.3826858 0 -0.9807859 -0.1950877 0 -0.9807848 -0.195093 0 -1 2.7406e-6 0 -1 -2.7406e-6 0 -0.9807848 0.195093 0 -0.9807859 0.1950877 0 -0.9238787 0.3826858 0 -0.9238806 0.3826811 0 -0.8314681 0.5555724 0 -0.8314711 0.5555682 0 -0.7071049 0.7071086 0 -0.7071086 0.7071049 0 -0.5555682 0.831471 0 -0.5555723 0.8314682 0 -0.3826812 0.9238806 0 0 0 1 -0.3826857 0.9238787 0 -0.1950879 0.9807859 0 -0.1950927 0.9807849 0 0 0 -1 0 0 -1 0 0 -1 0.8029256 -0.3325831 -0.4946706 0.4243555 -0.2835457 -0.859956 0.4715226 -0.1953108 -0.8599535 0.8244054 0.5508516 -0.1300706 0.8029243 0.3325813 -0.4946739 0.7226105 0.4828336 -0.4946776 -0.1934331 0.9724528 0.1300738 -6.71186e-7 0.9915041 -0.130075 -0.1934342 0.9724526 -0.1300738 0.1146705 -0.07662039 -0.9904444 0.1274113 -0.05277544 -0.9904449 0.3608869 0.3608879 0.8599538 0.114671 0.07661908 0.9904445 0.4243562 0.2835456 0.8599557 0.3794335 0.9160306 0.1300703 0.5508507 0.8244056 -0.1300727 0.3794323 0.916031 -0.1300703 0.471524 -0.1953111 0.8599528 0.1352579 -0.02690511 0.9904451 0.127416 -0.05277734 0.9904443 0.6145315 0.6145317 0.4946735 0.7226104 0.4828339 0.4946774 0.5508517 0.824405 0.130073 0.7010987 0.7011002 -0.1300731 0.852381 -0.1695492 0.4946714 0.8029239 -0.3325815 0.4946743 0.7011 0.7010992 0.1300724 0.8244059 0.5508505 0.1300714 0.9160304 -0.3794336 0.1300712 0.3608877 0.3608871 -0.8599539 0.1146697 0.0766195 -0.9904446 0.09751719 0.09751725 -0.9904448 0.9160304 0.3794335 -0.1300712 0.1352608 -0.02690535 -0.9904447 0.500563 -0.09956902 -0.8599551 0.614531 0.6145312 -0.4946747 0.4243547 0.2835452 -0.8599565 0.9160309 0.3794323 0.1300712 0.9724528 0.1934342 -0.1300722 0.852379 -0.1695498 -0.4946746 0.9724531 0.1934331 0.1300722 0.916031 -0.3794323 -0.1300712 0.9724531 -0.1934331 -0.1300722 0.07661932 0.1146693 0.9904446 0.09751492 0.09751677 0.990445 0.9915044 -6.72398e-7 0.1300742 0.5005612 -0.09956812 0.8599563 0.1379125 0 0.9904445 0.2835449 0.4243546 0.8599568 0.9724528 -0.1934342 0.1300722 0.5103694 0 0.8599554 0.4828331 0.7226092 0.4946799 0.824406 -0.5508506 -0.1300714 0.8690767 0 0.4946775 0.07662111 0.1146718 -0.9904441 0.2835454 0.4243558 -0.8599559 0.8244052 -0.5508518 0.1300707 0.7011001 -0.7010991 -0.1300724 0.1379119 0 -0.9904445 0.5103684 0 -0.8599559 0.4828335 0.7226101 -0.4946783 0.701099 -0.7011001 0.1300731 0.5508516 -0.824405 -0.130073 0.8690761 0 -0.4946785 0.5508507 -0.8244056 0.1300727 0.3794336 -0.9160306 -0.1300703 0.1953114 0.4715247 0.8599523 0.3794323 -0.9160311 0.1300703 0.1934343 -0.9724526 -0.1300738 0.5005621 0.09956914 0.8599556 0.3325816 0.802925 0.4946727 0.1934331 -0.9724528 0.1300738 6.71186e-7 -0.9915041 -0.130075 0.8523785 0.16955 0.4946754 -6.72398e-7 -0.9915041 0.130075 -0.1934329 -0.9724528 -0.1300738 0.1953107 0.4715218 -0.8599541 0.05277562 0.127411 -0.990445 -0.1934344 -0.9724526 0.1300738 -0.3794324 -0.916031 -0.1300703 0.5005612 0.09956824 -0.8599563 0.135263 0.02690577 -0.9904444 0.332583 0.8029261 -0.49467 -0.3794335 -0.9160306 0.1300703 -0.5508507 -0.8244056 -0.1300727 0.8523809 0.1695494 -0.4946713 -0.5508517 -0.824405 0.130073 -0.7010987 -0.7011002 -0.1300731 0.02690529 0.1352599 0.9904448 0.05277621 0.1274137 0.9904446 -0.7011 -0.7010992 0.1300724 -0.8244054 -0.5508515 -0.1300706 0.4715226 0.1953109 0.8599537 0.1352596 0.02690529 0.9904449 0.1695493 0.85238 0.4946731 -0.824406 -0.5508506 0.1300714 -0.9160304 -0.3794335 -0.1300712 0.8029258 0.3325831 0.4946705 -0.9160309 -0.3794323 0.1300712 -0.9724528 -0.1934342 -0.1300722 0.02690535 0.1352612 -0.9904447 0.09956949 0.5005639 -0.8599546 -0.9724531 -0.1934331 0.1300722 0.4715248 0.195311 -0.8599524 0.1274113 0.05277544 -0.9904449 0.1695501 0.8523785 -0.4946753 -0.9915044 6.72398e-7 0.1300742 -0.9724531 0.1934331 -0.1300722 0.1934329 0.9724528 -0.1300738 -0.9724528 0.1934342 0.1300722 -0.916031 0.3794323 -0.1300712 0.09956812 0.5005612 0.8599563 -1.21722e-7 0.1379114 0.9904446 -0.9160304 0.3794336 0.1300712 -0.824406 0.5508506 -0.1300714 0.1274155 0.05277717 0.9904444 -0.8244052 0.5508518 0.1300707 -0.7011001 0.7010991 -0.1300724 0.1934344 0.9724526 0.1300738 0 0.8690765 0.4946777 -0.701099 0.7011001 0.1300731 -0.5508516 0.824405 -0.130073 -0.5508507 0.8244056 0.1300727 -0.3794336 0.9160306 -0.1300703 -0.3794323 0.9160311 0.1300703 -0.05277597 -0.1274131 0.9904447 6.72398e-7 0.9915041 0.130075 0.7226102 -0.4828339 0.4946778 0.4243555 -0.2835452 0.8599562 0.1146706 -0.07661986 0.9904444 0.7226103 -0.4828339 -0.4946774 0.6145316 -0.6145316 -0.4946734 0.3608878 -0.3608877 -0.8599535 0.614531 -0.6145312 0.4946748 0.3608865 -0.3608873 0.8599542 0.09751588 -0.09751677 0.9904449 0.4828329 -0.7226093 -0.49468 0.2835447 -0.4243546 -0.8599568 0.07661902 -0.1146688 -0.9904447 0.09751749 -0.09751725 -0.9904448 0.4828338 -0.72261 0.4946782 0.2835457 -0.4243558 0.8599559 0.07661867 -0.1146682 0.9904448 0.3325817 -0.802925 -0.4946727 0.1953114 -0.4715247 -0.8599523 0.3325833 -0.802926 0.49467 0.195311 -0.4715217 0.859954 0.05277705 -0.1274157 0.9904443 0.1695492 -0.85238 -0.494673 0.02690649 -0.1352668 -0.9904439 0.05277562 -0.127411 -0.990445 0.1695501 -0.8523785 0.4946753 0.09956926 -0.5005638 0.8599545 0.02690547 -0.1352599 0.9904448 0.09956818 -0.5005612 -0.8599563 0 -0.5103694 0.8599554 0 -0.1379114 0.9904447 -0.1695501 -0.8523785 -0.4946753 -0.09956949 -0.5005639 -0.8599546 -0.1695493 -0.85238 0.494673 -0.09956812 -0.5005612 0.8599563 -0.02690529 -0.135261 0.9904447 -0.3325831 -0.802926 -0.49467 -0.1953106 -0.4715218 -0.8599541 -0.02690535 -0.1352612 -0.9904447 -0.3325816 -0.802925 0.4946727 -0.1953114 -0.4715248 0.8599523 -0.2835454 -0.4243558 -0.8599559 -0.07662111 -0.1146718 -0.9904441 -0.05277562 -0.127411 -0.990445 -0.4828332 -0.7226092 0.49468 -0.2835448 -0.4243546 0.8599567 -0.07661932 -0.1146693 0.9904446 -0.4828335 -0.7226101 -0.4946783 -0.614531 -0.6145312 -0.4946747 -0.3608877 -0.3608871 -0.8599538 -0.6145315 -0.6145317 0.4946735 -0.3608869 -0.3608879 0.8599538 -0.09751492 -0.09751677 0.990445 -0.7226105 -0.4828336 -0.4946776 -0.4243547 -0.2835452 -0.8599565 -0.1146697 -0.0766195 -0.9904446 -0.09751719 -0.09751725 -0.9904448 -0.7226103 -0.4828339 0.4946774 -0.4243562 -0.2835456 0.8599557 -0.114671 -0.07661908 0.9904445 -0.8029243 -0.3325813 -0.4946739 -0.4715248 -0.195311 -0.8599524 -0.8029258 -0.3325831 0.4946704 -0.4715226 -0.1953109 0.8599536 -0.1274163 -0.0527774 0.9904443 -0.8523809 -0.1695494 -0.4946713 -0.1352629 -0.02690577 -0.9904444 -0.1274113 -0.05277544 -0.9904449 -0.8523786 -0.16955 0.4946754 -0.5005621 -0.09956914 0.8599556 -0.135258 -0.02690511 0.9904451 -0.8690761 0 -0.4946786 -0.5103684 0 -0.859956 -0.5005611 -0.09956824 -0.8599563 -0.1379119 0 -0.9904445 -0.8690767 0 0.4946775 -0.5103694 0 0.8599554 -0.1379134 0 0.9904443 -0.852379 0.1695498 -0.4946746 -0.500563 0.09956902 -0.8599551 -0.8523809 0.1695492 0.4946714 -0.5005611 0.09956812 0.8599563 -0.1352596 0.02690529 0.9904449 -0.8029257 0.3325831 -0.4946706 -0.4715226 0.1953108 -0.8599535 -0.1352608 0.02690535 -0.9904447 -0.8029239 0.3325815 0.4946743 -0.4715239 0.1953111 0.8599528 -0.1274153 0.05277705 0.9904444 -0.4243555 0.2835457 -0.859956 -0.1146705 0.07662039 -0.9904444 -0.1274113 0.05277544 -0.9904449 -0.7226102 0.4828339 0.4946778 -0.4243555 0.2835452 0.8599562 -0.1146706 0.07661986 0.9904444 -0.7226103 0.4828339 -0.4946774 -0.6145316 0.6145316 -0.4946734 -0.3608878 0.3608877 -0.8599535 -0.614531 0.6145312 0.4946748 -0.3608865 0.3608873 0.8599542 -0.09751588 0.09751677 0.9904449 -0.4828329 0.7226093 -0.49468 -0.2835447 0.4243546 -0.8599568 -0.07661902 0.1146688 -0.9904447 -0.09751749 0.09751725 -0.9904448 -0.4828338 0.72261 0.4946782 -0.2835457 0.4243558 0.8599559 -0.07661867 0.1146682 0.9904448 -0.3325817 0.802925 -0.4946727 -0.1953114 0.4715247 -0.8599523 -0.3325833 0.802926 0.49467 -0.195311 0.4715217 0.859954 -0.05277681 0.1274151 0.9904444 -0.1695492 0.85238 -0.494673 -0.02690649 0.1352668 -0.9904439 -0.05277562 0.127411 -0.990445 -0.1695501 0.8523785 0.4946753 -0.09956926 0.5005638 0.8599545 -0.02690529 0.135261 0.9904447 -0.09956818 0.5005612 -0.8599563 -1 0 0 0 1 0 1 0 0 0 -1 0 0 0 -1 -0.9659259 -0.2588189 0 -0.9659259 -0.2588189 0 -0.2588193 0.9659258 0 -0.2588192 0.9659258 0 -0.2588191 0.9659258 0 0.9659259 0.2588189 0 0.9659259 0.2588189 0 0.2588193 -0.9659258 0 0.2588192 -0.9659258 0 0.2588191 -0.9659258 0 0 0 -1 4.99659e-7 0 -1 5.45697e-7 0 -1 0 0 1 -7.77248e-7 0 1 -0.8660254 -0.5 0 -0.8660253 -0.5000002 0 -0.8660255 -0.5 0 -0.4999999 0.8660255 0 -0.5000001 0.8660255 0 -0.5000002 0.8660253 0 0.8660254 0.5 0 0.8660253 0.5000002 0 0.8660255 0.5 0 0.4999999 -0.8660255 0 0.5000001 -0.8660255 0 0.5000002 -0.8660253 0 0 0 -1 -2.22071e-7 0 -1 0 0 1 3.33106e-7 0 1 3.63798e-7 0 1 -0.7071069 -0.7071067 0 -0.7071068 -0.7071067 0 -0.7071067 0.7071069 0 -0.7071068 0.7071068 0 -0.7071068 0.7071068 0 0.7071069 0.7071067 0 0.7071068 0.7071067 0 0.7071067 -0.7071069 0 0.7071068 -0.7071068 0 0.7071068 -0.7071068 0 -0.5000002 -0.8660253 0 -0.4999998 -0.8660255 0 -0.5000002 -0.8660253 0 -0.8660255 0.5000001 0 -0.8660255 0.4999999 0 -0.8660255 0.5 0 0.5000002 0.8660253 0 0.4999998 0.8660255 0 0.5000002 0.8660253 0 0.8660255 -0.5000001 0 0.8660255 -0.4999999 0 0.8660255 -0.5 0 8.37131e-7 0 -1 -4.73333e-7 0 -1 9.70127e-7 0 -1 0 0 1 2.22071e-7 0 1 2.42532e-7 0 1 -0.2588192 -0.9659259 0 -0.2588192 -0.9659258 0 -0.9659258 0.2588192 0 -0.9659258 0.2588191 0 -0.9659259 0.2588191 0 0.2588192 0.9659259 0 0.2588192 0.9659258 0 0.9659258 -0.2588192 0 0.9659258 -0.2588191 0 0.9659259 -0.2588191 0 0 0 -1 -2.22071e-7 0 -1 4.03219e-7 0 1 -4.03219e-7 0 1 -4.85064e-7 0 1 0 -1 0 0 1 0 0 0 -1 -2.10121e-7 0 -1 1.4164e-7 0 -1 0 0 1 0 0 1 0 0 1 0.2588189 -0.9659259 0 -0.9659261 -0.2588185 0 -0.9659261 -0.2588185 0 -0.2588189 0.9659259 0 0.9659261 0.2588185 0 0.9659261 0.2588185 0 4.2368e-7 0 -1 -1.81148e-7 0 -1 4.85064e-7 0 -1 0.4999998 -0.8660256 0 0.4999998 -0.8660256 0 -0.8660258 -0.4999994 0 -0.866026 -0.4999992 0 -0.8660261 -0.4999989 0 -0.4999998 0.8660256 0 -0.4999998 0.8660256 0 0.8660258 0.4999994 0 0.866026 0.4999992 0 0.8660261 0.4999989 0 0 0 -1 0 0 -1 0 0 1 2.22071e-7 0 1 2.42532e-7 0 1 0.707107 -0.7071066 0 0.707107 -0.7071066 0 -0.7071065 -0.7071071 0 -0.7071066 -0.7071071 0 -0.7071067 -0.707107 0 -0.707107 0.7071066 0 -0.707107 0.7071066 0 0.7071065 0.7071071 0 0.7071066 0.7071071 0 0.7071067 0.707107 0 0.8660254 -0.5000001 0 -0.4999999 -0.8660255 0 -0.5000001 -0.8660255 0 -0.5000002 -0.8660253 0 -0.8660254 0.5000001 0 0.4999999 0.8660255 0 0.5000001 0.8660255 0 0.5000002 0.8660253 0 0 0 -1 -2.22071e-7 0 -1 -2.42532e-7 0 -1 1.64357e-6 0 1 -1.27977e-6 0 1 1.94026e-6 0 1 0.9659259 -0.2588189 0 0.9659259 -0.2588189 0 -0.2588187 -0.9659259 0 -0.2588188 -0.9659259 0 -0.2588189 -0.9659259 0 -0.9659259 0.2588189 0 -0.9659259 0.2588189 0 0.2588187 0.9659259 0 0.2588188 0.9659259 0 0.2588189 0.9659259 0 0 0 -1 -4.44141e-7 0 -1 -4.85064e-7 0 -1 1.64868e-6 0 1 -1.22425e-6 0 1 1.94026e-6 0 1 0 0 1 7.92157e-7 0 1 -1.00786e-6 0 1 0 0 1 0 0 1 -1.58431e-6 0 1 0 0 1 0 0 1 -7.92157e-7 0 1 1.00786e-6 0 1 0 0 1 0 0 1 0 0 1 1.58431e-6 0 1 0 0 -1 0 0 -1 -1.58431e-6 0 -1 0 0 -1 3.2778e-7 0 -1 -1.58431e-6 0 -1 0 0 -1 1.90289e-7 0 -1 0 0 -1 0 0 -1 1.58431e-6 0 -1 0 0 -1 -3.2778e-7 0 -1 1.58431e-6 0 -1 -1.90289e-7 0 -1 -0.2588195 0.9659258 0 0.2588195 -0.9659258 0 -8.48862e-7 0 1 -0.8660253 -0.5000003 0 -0.4999998 0.8660256 0 0.8660253 0.5000003 0 0.4999998 -0.8660256 0 -0.7071067 0.707107 0 0.7071067 -0.707107 0 -0.4999998 -0.8660256 0 0.4999998 0.8660256 0 -6.0633e-7 0 -1 -0.9659258 0.2588194 0 0.9659258 -0.2588194 0 4.85064e-7 0 1 -2.42532e-7 0 -1 0.5000002 -0.8660253 0 -0.8660256 -0.4999997 0 -0.5000002 0.8660253 0 0.8660256 0.4999997 0 1.21266e-7 0 -1 -0.7071065 -0.7071071 0 0.7071065 0.7071071 0 -0.4999998 -0.8660256 0 0.4999998 0.8660256 0 -1.57646e-6 0 1 -0.2588186 -0.9659261 0 0.2588186 0.9659261 0 -1.51582e-6 0 1</float_array>
          <technique_common>
            <accessor source="#lidar-mesh-normals-array" count="780" stride="3">
              <param name="X" type="float"/>
              <param name="Y" type="float"/>
              <param name="Z" type="float"/>
            </accessor>
          </technique_common>
        </source>
        <vertices id="lidar-mesh-vertices">
          <input semantic="POSITION" source="#lidar-mesh-positions"/>
        </vertices>
        <triangles material="aluminium-material" count="1160">
          <input semantic="VERTEX" source="#lidar-mesh-vertices" offset="0"/>
          <input semantic="NORMAL" source="#lidar-mesh-normals" offset="1"/>
          <p>83 0 90 1 82 2 41 3 51 4 43 5 253 6 0 7 249 8 82 2 88 9 80 10 38 11 44 12 46 13 21 14 25 15 17 16 86 17 76 18 84 19 39 20 46 13 47 21 29 22 33 23 25 15 79 24 86 17 87 25 37 26 47 21 45 27 37 26 41 3 33 23 85 28 79 24 87 25 34 29 40 30 32 31 45 27 49 32 41 3 82 2 72 33 74 34 35 35 42 36 34 29 53 37 57 38 49 32 83 0 74 34 75 39 33 23 43 5 35 35 61 40 65 41 57 38 81 42 75 39 73 43 38 11 28 44 36 45 69 46 73 43 65 41 78 47 68 48 76 18 39 20 30 49 38 11 77 50 81 42 73 43 79 24 70 51 78 47 37 26 31 52 39 20 85 28 89 53 81 42 77 50 71 54 79 24 34 29 24 55 26 56 93 57 97 58 89 53 74 34 64 59 66 60 35 35 26 56 27 61 101 62 105 63 97 58 75 39 66 60 67 64 33 23 27 61 25 15 109 65 113 66 105 63 73 43 67 64 65 41 22 67 28 44 30 49 117 68 121 69 113 66 62 70 68 48 70 51 23 71 30 49 31 52 125 72 129 73 121 69 63 74 70 51 71 54 29 22 23 71 31 52 133 75 137 76 129 73 61 40 71 54 69 46 18 77 24 55 16 78 141 79 145 80 137 76 58 81 64 59 56 82 19 83 26 56 18 77 149 84 153 85 145 80 59 86 66 60 58 81 25 15 19 83 17 16 157 87 161 88 153 85 57 38 67 64 59 86 22 67 12 89 20 90 165 91 169 92 161 88 54 93 60 94 62 70 15 95 22 67 23 71 173 96 177 97 169 92 55 98 62 70 63 74 21 14 15 95 23 71 181 99 185 100 177 97 53 37 63 74 61 40 18 77 8 101 10 102 189 103 193 104 185 100 50 105 56 82 48 106 19 83 10 102 11 107 197 108 201 109 193 104 59 86 50 105 51 4 17 16 11 107 9 110 205 111 209 112 201 109 49 32 59 86 51 4 14 113 4 114 12 89 213 115 217 116 209 112 54 93 44 12 52 117 15 95 6 118 14 113 221 119 225 120 217 116 55 98 46 13 54 93 13 121 7 122 15 95 229 123 233 124 225 120 45 27 55 98 53 37 10 102 1 125 2 126 237 127 241 128 233 124 50 105 40 30 42 36 11 107 2 126 3 129 245 130 249 8 241 128 13 121 17 16 9 110 9 110 3 129 0 7 89 53 83 0 81 42 51 4 42 36 43 5 148 131 84 19 20 90 5 132 9 110 0 7 93 57 87 25 95 133 87 25 94 134 95 133 86 17 92 135 94 134 97 58 91 136 89 53 99 137 90 1 91 136 98 138 88 9 90 1 101 62 95 133 103 139 103 139 94 134 102 140 102 140 92 135 100 141 97 58 107 142 99 137 99 137 106 143 98 138 98 138 104 144 96 145 101 62 111 146 109 65 103 139 110 147 111 146 102 140 108 148 110 147 105 63 115 149 107 142 115 149 106 143 107 142 114 150 104 144 106 143 109 65 119 151 117 68 119 151 110 147 118 152 118 152 108 148 116 153 113 66 123 154 115 149 123 154 114 150 115 149 114 150 120 155 112 156 117 68 127 157 125 72 119 151 126 158 127 157 118 152 124 159 126 158 121 69 131 160 123 154 123 154 130 161 122 162 122 162 128 163 120 155 125 72 135 164 133 75 127 157 134 165 135 164 126 158 132 166 134 165 137 76 131 160 129 73 139 167 130 161 131 160 138 168 128 163 130 161 141 79 135 164 143 169 143 169 134 165 142 170 142 170 132 166 140 171 145 80 139 167 137 76 147 172 138 168 139 167 146 173 136 174 138 168 149 84 143 169 151 175 143 169 150 176 151 175 150 176 140 171 148 131 153 85 147 172 145 80 147 172 154 177 146 173 146 173 152 178 144 179 157 87 151 175 159 180 151 175 158 181 159 180 150 176 156 182 158 181 161 88 155 183 153 85 163 184 154 177 155 183 162 185 152 178 154 177 165 91 159 180 167 186 167 186 158 181 166 187 166 187 156 182 164 188 161 88 171 189 163 184 163 184 170 190 162 185 162 185 168 191 160 192 165 91 175 193 173 96 167 186 174 194 175 193 166 187 172 195 174 194 169 92 179 196 171 189 179 196 170 190 171 189 178 197 168 191 170 190 173 96 183 198 181 99 183 198 174 194 182 199 182 199 172 195 180 200 177 97 187 201 179 196 187 201 178 197 179 196 178 197 184 202 176 203 181 99 191 204 189 103 183 198 190 205 191 204 182 199 188 206 190 205 185 100 195 207 187 201 187 201 194 208 186 209 186 209 192 210 184 202 189 103 199 211 197 108 191 204 198 212 199 211 190 205 196 213 198 212 201 109 195 207 193 104 203 214 194 208 195 207 202 215 192 210 194 208 205 111 199 211 207 216 207 216 198 212 206 217 206 217 196 213 204 218 209 112 203 214 201 109 211 219 202 215 203 214 210 220 200 221 202 215 213 115 207 216 215 222 207 216 214 223 215 222 214 223 204 218 212 224 217 116 211 219 209 112 211 219 218 225 210 220 210 220 216 226 208 227 221 119 215 222 223 228 215 222 222 229 223 228 214 223 220 230 222 229 225 120 219 231 217 116 227 232 218 225 219 231 226 233 216 226 218 225 229 123 223 228 231 234 231 234 222 229 230 235 230 235 220 230 228 236 225 120 235 237 227 232 227 232 234 238 226 233 226 233 232 239 224 240 229 123 239 241 237 127 231 234 238 242 239 241 230 235 236 243 238 242 233 124 243 244 235 237 243 244 234 238 235 237 242 245 232 239 234 238 237 127 247 246 245 130 247 246 238 242 246 247 246 247 236 243 244 248 241 128 251 249 243 244 251 249 242 245 243 244 242 245 248 250 240 251 245 130 255 252 253 6 247 246 254 253 255 252 246 247 252 254 254 253 249 8 3 129 251 249 251 249 2 126 250 255 250 255 1 125 248 250 253 6 7 122 5 132 255 252 6 118 7 122 254 253 4 114 6 118 216 226 248 250 120 155 403 324 410 325 402 326 361 327 371 328 363 329 573 330 320 331 569 332 402 326 408 333 400 334 358 335 364 336 366 337 341 338 345 339 337 340 406 341 396 342 404 343 359 344 366 337 367 345 349 346 353 347 345 339 399 348 406 341 407 349 357 350 367 345 365 351 357 350 361 327 353 347 405 352 399 348 407 349 354 353 360 354 352 355 365 351 369 356 361 327 402 326 392 357 394 358 355 359 362 360 354 353 373 361 377 362 369 356 403 324 394 358 395 363 353 347 363 329 355 359 381 364 385 41 377 362 401 365 395 363 393 366 358 335 348 367 356 368 389 369 393 366 385 41 398 370 388 371 396 342 359 344 350 372 358 335 397 373 401 365 393 366 399 348 390 374 398 370 357 350 351 375 359 344 405 352 409 376 401 365 397 373 391 377 399 348 354 353 344 378 346 379 413 380 417 381 409 376 394 358 384 382 386 383 355 359 346 379 347 384 421 385 425 386 417 381 395 363 386 383 387 387 353 347 347 384 345 339 429 388 433 389 425 386 393 366 387 387 385 41 342 390 348 367 350 372 437 391 441 392 433 389 382 393 388 371 390 374 343 394 350 372 351 375 445 395 449 396 441 392 383 397 390 374 391 377 349 346 343 394 351 375 453 398 457 399 449 396 381 364 391 377 389 369 338 400 344 378 336 401 461 402 465 403 457 399 378 404 384 382 376 405 339 406 346 379 338 400 469 407 473 408 465 403 379 409 386 383 378 404 345 339 339 406 337 340 477 410 481 411 473 408 377 362 387 387 379 409 342 390 332 412 340 413 485 414 489 415 481 411 374 416 380 417 382 393 335 418 342 390 343 394 493 419 497 420 489 415 375 421 382 393 383 397 341 338 335 418 343 394 501 422 505 423 497 420 373 361 383 397 381 364 338 400 328 424 330 425 509 426 513 104 505 423 370 427 376 405 368 428 339 406 330 425 331 429 517 430 521 431 513 104 379 409 370 427 371 328 337 340 331 429 329 432 525 433 529 434 521 431 369 356 379 409 371 328 334 435 324 436 332 412 533 437 537 438 529 434 374 416 364 336 372 439 335 418 326 118 334 435 541 440 545 441 537 438 375 421 366 337 374 416 333 442 327 443 335 418 549 444 553 445 545 441 365 351 375 421 373 361 330 425 321 125 322 126 557 446 561 447 553 445 370 427 360 354 362 360 331 429 322 126 323 129 565 448 569 332 561 447 333 442 337 340 329 432 329 432 323 129 320 331 409 376 403 324 401 365 371 328 362 360 363 329 468 449 404 343 340 413 325 450 329 432 320 331 413 380 407 349 415 451 407 349 414 452 415 451 406 341 412 453 414 452 417 381 411 454 409 376 419 455 410 325 411 454 418 456 408 333 410 325 421 385 415 451 423 457 423 457 414 452 422 458 422 458 412 453 420 459 417 381 427 460 419 455 419 455 426 461 418 456 418 456 424 462 416 463 421 385 431 464 429 388 423 457 430 465 431 464 422 458 428 466 430 465 425 386 435 467 427 460 435 467 426 461 427 460 434 468 424 462 426 461 429 388 439 469 437 391 439 469 430 465 438 470 438 470 428 466 436 471 433 389 443 472 435 467 443 472 434 468 435 467 434 468 440 473 432 474 437 391 447 475 445 395 439 469 446 476 447 475 438 470 444 477 446 476 441 392 451 160 443 472 443 472 450 161 442 478 442 478 448 163 440 473 445 395 455 164 453 398 447 475 454 479 455 164 446 476 452 480 454 479 457 399 451 160 449 396 459 481 450 161 451 160 458 482 448 163 450 161 461 402 455 164 463 483 463 483 454 479 462 484 462 484 452 480 460 485 465 403 459 481 457 399 467 486 458 482 459 481 466 487 456 488 458 482 469 407 463 483 471 489 463 483 470 490 471 489 470 490 460 485 468 449 473 408 467 486 465 403 467 486 474 491 466 487 466 487 472 492 464 493 477 410 471 489 479 494 471 489 478 495 479 494 470 490 476 496 478 495 481 411 475 497 473 408 483 498 474 491 475 497 482 499 472 492 474 491 485 414 479 494 487 500 487 500 478 495 486 501 486 501 476 496 484 502 481 411 491 503 483 498 483 498 490 504 482 499 482 499 488 505 480 506 485 414 495 507 493 419 487 500 494 508 495 507 486 501 492 509 494 508 489 415 499 510 491 503 499 510 490 504 491 503 498 511 488 505 490 504 493 419 503 512 501 422 503 512 494 508 502 513 502 513 492 509 500 514 497 420 507 515 499 510 507 515 498 511 499 510 498 511 504 516 496 517 501 422 511 518 509 426 503 512 510 519 511 518 502 513 508 520 510 519 505 423 515 521 507 515 507 515 514 522 506 523 506 523 512 524 504 516 509 426 519 525 517 430 511 518 518 526 519 525 510 519 516 527 518 526 521 431 515 521 513 104 523 528 514 522 515 521 522 529 512 524 514 522 525 433 519 525 527 530 527 530 518 526 526 531 526 531 516 527 524 532 529 434 523 528 521 431 531 533 522 529 523 528 530 534 520 535 522 529 533 437 527 530 535 536 527 530 534 537 535 536 534 537 524 532 532 538 537 438 531 533 529 434 531 533 538 539 530 534 530 534 536 540 528 541 541 440 535 536 543 542 535 536 542 543 543 542 534 537 540 544 542 543 545 441 539 545 537 438 547 546 538 539 539 545 546 547 536 540 538 539 549 444 543 542 551 548 551 548 542 543 550 549 550 549 540 544 548 550 545 441 555 551 547 546 547 546 554 552 546 547 546 547 552 553 544 554 549 444 559 555 557 446 551 548 558 556 559 555 550 549 556 557 558 556 553 445 563 558 555 551 563 558 554 552 555 551 562 559 552 553 554 552 557 446 567 560 565 448 567 560 558 556 566 561 566 561 556 557 564 562 561 447 571 563 563 558 571 563 562 559 563 558 562 559 568 564 560 565 565 448 575 566 573 330 567 560 574 567 575 566 566 561 572 568 574 567 569 332 323 129 571 563 571 563 322 126 570 569 570 569 321 125 568 564 573 330 327 443 325 450 575 566 326 118 327 443 574 567 324 436 326 118 536 540 568 564 440 473 577 570 578 570 576 570 579 571 582 571 578 571 583 572 580 572 582 572 581 573 576 573 580 573 582 574 576 574 578 574 579 317 581 317 583 317 585 575 586 576 584 575 587 577 590 578 586 579 591 580 588 581 590 580 589 582 584 583 588 584 586 585 588 586 584 587 587 588 589 589 591 317 593 590 594 591 592 592 595 593 598 594 594 595 599 596 596 597 598 598 597 599 592 600 596 601 598 602 592 603 594 574 599 604 593 605 597 606 601 607 602 607 600 608 603 609 606 610 602 611 607 612 604 612 606 613 605 614 600 615 604 616 606 574 600 574 602 574 607 317 601 317 605 317 609 617 610 618 608 619 611 620 614 621 610 622 615 623 612 624 614 625 613 626 608 627 612 628 614 629 608 630 610 631 615 632 609 633 613 634 617 635 618 635 616 636 619 637 622 638 618 639 623 640 620 640 622 641 621 642 616 643 620 644 622 645 616 646 618 574 623 647 617 648 621 649 625 650 626 650 624 650 627 570 630 570 626 570 631 651 628 651 630 651 629 572 624 572 628 572 630 652 624 653 626 654 627 655 629 656 631 657 633 658 634 658 632 658 635 659 638 659 634 660 639 661 636 661 638 661 637 662 632 662 636 663 638 664 632 665 634 666 639 317 633 317 637 317 641 667 642 600 640 668 643 669 646 670 642 671 647 672 644 594 646 673 645 674 640 675 644 676 646 677 640 678 642 574 647 679 641 680 645 681 649 682 650 682 648 683 651 684 654 685 650 686 655 687 652 687 654 688 653 689 648 690 652 691 650 574 652 574 648 574 651 317 653 317 655 317 657 692 658 692 656 692 659 693 662 694 658 695 663 696 660 696 662 696 661 697 656 698 660 699 658 700 660 701 656 702 659 703 661 704 663 705 665 706 666 707 664 706 667 708 670 709 666 710 671 711 668 712 670 711 669 713 664 714 668 715 666 716 668 717 664 718 667 719 669 720 671 721 83 0 91 136 90 1 41 3 49 32 51 4 253 6 5 132 0 7 82 2 90 1 88 9 38 11 36 45 44 12 21 14 29 22 25 15 86 17 78 47 76 18 39 20 38 11 46 13 29 22 37 26 33 23 79 24 78 47 86 17 37 26 39 20 47 21 37 26 45 27 41 3 85 28 77 50 79 24 34 29 42 36 40 30 45 27 53 37 49 32 82 2 80 10 72 33 35 35 43 5 42 36 53 37 61 40 57 38 83 0 82 2 74 34 33 23 41 3 43 5 61 40 69 46 65 41 81 42 83 0 75 39 38 11 30 49 28 44 69 46 77 50 73 43 78 47 70 51 68 48 39 20 31 52 30 49 77 50 85 28 81 42 79 24 71 54 70 51 37 26 29 22 31 52 85 28 93 57 89 53 77 50 69 46 71 54 34 29 32 31 24 55 93 57 101 62 97 58 74 34 72 33 64 59 35 35 34 29 26 56 101 62 109 65 105 63 75 39 74 34 66 60 33 23 35 35 27 61 109 65 117 68 113 66 73 43 75 39 67 64 22 67 20 90 28 44 117 68 125 72 121 69 62 70 60 94 68 48 23 71 22 67 30 49 125 72 133 75 129 73 63 74 62 70 70 51 29 22 21 14 23 71 133 75 141 79 137 76 61 40 63 74 71 54 18 77 26 56 24 55 141 79 149 84 145 80 58 81 66 60 64 59 19 83 27 61 26 56 149 84 157 87 153 85 59 86 67 64 66 60 25 15 27 61 19 83 157 87 165 91 161 88 57 38 65 41 67 64 22 67 14 113 12 89 165 91 173 96 169 92 54 93 52 117 60 94 15 95 14 113 22 67 173 96 181 99 177 97 55 98 54 93 62 70 21 14 13 121 15 95 181 99 189 103 185 100 53 37 55 98 63 74 18 77 16 78 8 101 189 103 197 108 193 104 50 105 58 81 56 82 19 83 18 77 10 102 197 108 205 111 201 109 59 86 58 81 50 105 17 16 19 83 11 107 205 111 213 115 209 112 49 32 57 38 59 86 14 113 6 118 4 114 213 115 221 119 217 116 54 93 46 13 44 12 15 95 7 122 6 118 221 119 229 123 225 120 55 98 47 21 46 13 13 121 5 132 7 122 229 123 237 127 233 124 45 27 47 21 55 98 10 102 8 101 1 125 237 127 245 130 241 128 50 105 48 106 40 30 11 107 10 102 2 126 245 130 253 6 249 8 13 121 21 14 17 16 9 110 11 107 3 129 89 53 91 136 83 0 51 4 50 105 42 36 20 90 12 89 4 114 4 114 252 254 20 90 252 254 244 248 20 90 244 248 236 243 228 236 228 236 220 230 244 248 220 230 212 224 244 248 212 224 204 218 180 200 204 218 196 213 180 200 196 213 188 206 180 200 180 200 172 195 164 188 164 188 156 182 180 200 156 182 148 131 180 200 148 131 140 171 116 153 140 171 132 166 116 153 132 166 124 159 116 153 116 153 108 148 100 141 100 141 92 135 116 153 92 135 84 19 116 153 84 19 76 18 68 48 68 48 60 94 84 19 60 94 52 117 84 19 52 117 44 12 36 45 36 45 28 44 52 117 28 44 20 90 52 117 20 90 244 248 212 224 212 224 180 200 148 131 148 131 116 153 84 19 84 19 52 117 20 90 20 90 212 224 148 131 5 132 13 121 9 110 93 57 85 28 87 25 87 25 86 17 94 134 86 17 84 19 92 135 97 58 99 137 91 136 99 137 98 138 90 1 98 138 96 145 88 9 101 62 93 57 95 133 103 139 95 133 94 134 102 140 94 134 92 135 97 58 105 63 107 142 99 137 107 142 106 143 98 138 106 143 104 144 101 62 103 139 111 146 103 139 102 140 110 147 102 140 100 141 108 148 105 63 113 66 115 149 115 149 114 150 106 143 114 150 112 156 104 144 109 65 111 146 119 151 119 151 111 146 110 147 118 152 110 147 108 148 113 66 121 69 123 154 123 154 122 162 114 150 114 150 122 162 120 155 117 68 119 151 127 157 119 151 118 152 126 158 118 152 116 153 124 159 121 69 129 73 131 160 123 154 131 160 130 161 122 162 130 161 128 163 125 72 127 157 135 164 127 157 126 158 134 165 126 158 124 159 132 166 137 76 139 167 131 160 139 167 138 168 130 161 138 168 136 174 128 163 141 79 133 75 135 164 143 169 135 164 134 165 142 170 134 165 132 166 145 80 147 172 139 167 147 172 146 173 138 168 146 173 144 179 136 174 149 84 141 79 143 169 143 169 142 170 150 176 150 176 142 170 140 171 153 85 155 183 147 172 147 172 155 183 154 177 146 173 154 177 152 178 157 87 149 84 151 175 151 175 150 176 158 181 150 176 148 131 156 182 161 88 163 184 155 183 163 184 162 185 154 177 162 185 160 192 152 178 165 91 157 87 159 180 167 186 159 180 158 181 166 187 158 181 156 182 161 88 169 92 171 189 163 184 171 189 170 190 162 185 170 190 168 191 165 91 167 186 175 193 167 186 166 187 174 194 166 187 164 188 172 195 169 92 177 97 179 196 179 196 178 197 170 190 178 197 176 203 168 191 173 96 175 193 183 198 183 198 175 193 174 194 182 199 174 194 172 195 177 97 185 100 187 201 187 201 186 209 178 197 178 197 186 209 184 202 181 99 183 198 191 204 183 198 182 199 190 205 182 199 180 200 188 206 185 100 193 104 195 207 187 201 195 207 194 208 186 209 194 208 192 210 189 103 191 204 199 211 191 204 190 205 198 212 190 205 188 206 196 213 201 109 203 214 195 207 203 214 202 215 194 208 202 215 200 221 192 210 205 111 197 108 199 211 207 216 199 211 198 212 206 217 198 212 196 213 209 112 211 219 203 214 211 219 210 220 202 215 210 220 208 227 200 221 213 115 205 111 207 216 207 216 206 217 214 223 214 223 206 217 204 218 217 116 219 231 211 219 211 219 219 231 218 225 210 220 218 225 216 226 221 119 213 115 215 222 215 222 214 223 222 229 214 223 212 224 220 230 225 120 227 232 219 231 227 232 226 233 218 225 226 233 224 240 216 226 229 123 221 119 223 228 231 234 223 228 222 229 230 235 222 229 220 230 225 120 233 124 235 237 227 232 235 237 234 238 226 233 234 238 232 239 229 123 231 234 239 241 231 234 230 235 238 242 230 235 228 236 236 243 233 124 241 128 243 244 243 244 242 245 234 238 242 245 240 251 232 239 237 127 239 241 247 246 247 246 239 241 238 242 246 247 238 242 236 243 241 128 249 8 251 249 251 249 250 255 242 245 242 245 250 255 248 250 245 130 247 246 255 252 247 246 246 247 254 253 246 247 244 248 252 254 249 8 0 7 3 129 251 249 3 129 2 126 250 255 2 126 1 125 253 6 255 252 7 122 255 252 254 253 6 118 254 253 252 254 4 114 248 250 1 125 8 101 8 101 16 78 24 55 24 55 32 31 56 82 32 31 40 30 56 82 40 30 48 106 56 82 56 82 64 59 72 33 72 33 80 10 88 9 88 9 96 145 120 155 96 145 104 144 120 155 104 144 112 156 120 155 120 155 128 163 136 174 136 174 144 179 152 178 152 178 160 192 184 202 160 192 168 191 184 202 168 191 176 203 184 202 184 202 192 210 200 221 200 221 208 227 216 226 216 226 224 240 248 250 224 240 232 239 248 250 232 239 240 251 248 250 248 250 8 101 24 55 56 82 72 33 88 9 120 155 136 174 152 178 184 202 200 221 216 226 248 250 24 55 56 82 56 82 88 9 248 250 88 9 120 155 248 250 120 155 152 178 184 202 184 202 216 226 120 155 403 324 411 454 410 325 361 327 369 356 371 328 573 330 325 450 320 331 402 326 410 325 408 333 358 335 356 368 364 336 341 338 349 346 345 339 406 341 398 370 396 342 359 344 358 335 366 337 349 346 357 350 353 347 399 348 398 370 406 341 357 350 359 344 367 345 357 350 365 351 361 327 405 352 397 373 399 348 354 353 362 360 360 354 365 351 373 361 369 356 402 326 400 334 392 357 355 359 363 329 362 360 373 361 381 364 377 362 403 324 402 326 394 358 353 347 361 327 363 329 381 364 389 369 385 41 401 365 403 324 395 363 358 335 350 372 348 367 389 369 397 373 393 366 398 370 390 374 388 371 359 344 351 375 350 372 397 373 405 352 401 365 399 348 391 377 390 374 357 350 349 346 351 375 405 352 413 380 409 376 397 373 389 369 391 377 354 353 352 355 344 378 413 380 421 385 417 381 394 358 392 357 384 382 355 359 354 353 346 379 421 385 429 388 425 386 395 363 394 358 386 383 353 347 355 359 347 384 429 388 437 391 433 389 393 366 395 363 387 387 342 390 340 413 348 367 437 391 445 395 441 392 382 393 380 417 388 371 343 394 342 390 350 372 445 395 453 398 449 396 383 397 382 393 390 374 349 346 341 338 343 394 453 398 461 402 457 399 381 364 383 397 391 377 338 400 346 379 344 378 461 402 469 407 465 403 378 404 386 383 384 382 339 406 347 384 346 379 469 407 477 410 473 408 379 409 387 387 386 383 345 339 347 384 339 406 477 410 485 414 481 411 377 362 385 41 387 387 342 390 334 435 332 412 485 414 493 419 489 415 374 416 372 439 380 417 335 418 334 435 342 390 493 419 501 422 497 420 375 421 374 416 382 393 341 338 333 442 335 418 501 422 509 426 505 423 373 361 375 421 383 397 338 400 336 401 328 424 509 426 517 430 513 104 370 427 378 404 376 405 339 406 338 400 330 425 517 430 525 433 521 431 379 409 378 404 370 427 337 340 339 406 331 429 525 433 533 437 529 434 369 356 377 362 379 409 334 435 326 118 324 436 533 437 541 440 537 438 374 416 366 337 364 336 335 418 327 443 326 118 541 440 549 444 545 441 375 421 367 345 366 337 333 442 325 450 327 443 549 444 557 446 553 445 365 351 367 345 375 421 330 425 328 424 321 125 557 446 565 448 561 447 370 427 368 428 360 354 331 429 330 425 322 126 565 448 573 330 569 332 333 442 341 338 337 340 329 432 331 429 323 129 409 376 411 454 403 324 371 328 370 427 362 360 340 413 332 412 324 436 324 436 572 568 340 413 572 568 564 562 340 413 564 562 556 557 548 550 548 550 540 544 564 562 540 544 532 538 564 562 532 538 524 532 500 514 524 532 516 527 500 514 516 527 508 520 500 514 500 514 492 509 484 502 484 502 476 496 500 514 476 496 468 449 500 514 468 449 460 485 436 471 460 485 452 480 436 471 452 480 444 477 436 471 436 471 428 466 420 459 420 459 412 453 436 471 412 453 404 343 436 471 404 343 396 342 388 371 388 371 380 417 404 343 380 417 372 439 404 343 372 439 364 336 356 368 356 368 348 367 372 439 348 367 340 413 372 439 340 413 564 562 532 538 532 538 500 514 468 449 468 449 436 471 404 343 404 343 372 439 340 413 340 413 532 538 468 449 325 450 333 442 329 432 413 380 405 352 407 349 407 349 406 341 414 452 406 341 404 343 412 453 417 381 419 455 411 454 419 455 418 456 410 325 418 456 416 463 408 333 421 385 413 380 415 451 423 457 415 451 414 452 422 458 414 452 412 453 417 381 425 386 427 460 419 455 427 460 426 461 418 456 426 461 424 462 421 385 423 457 431 464 423 457 422 458 430 465 422 458 420 459 428 466 425 386 433 389 435 467 435 467 434 468 426 461 434 468 432 474 424 462 429 388 431 464 439 469 439 469 431 464 430 465 438 470 430 465 428 466 433 389 441 392 443 472 443 472 442 478 434 468 434 468 442 478 440 473 437 391 439 469 447 475 439 469 438 470 446 476 438 470 436 471 444 477 441 392 449 396 451 160 443 472 451 160 450 161 442 478 450 161 448 163 445 395 447 475 455 164 447 475 446 476 454 479 446 476 444 477 452 480 457 399 459 481 451 160 459 481 458 482 450 161 458 482 456 488 448 163 461 402 453 398 455 164 463 483 455 164 454 479 462 484 454 479 452 480 465 403 467 486 459 481 467 486 466 487 458 482 466 487 464 493 456 488 469 407 461 402 463 483 463 483 462 484 470 490 470 490 462 484 460 485 473 408 475 497 467 486 467 486 475 497 474 491 466 487 474 491 472 492 477 410 469 407 471 489 471 489 470 490 478 495 470 490 468 449 476 496 481 411 483 498 475 497 483 498 482 499 474 491 482 499 480 506 472 492 485 414 477 410 479 494 487 500 479 494 478 495 486 501 478 495 476 496 481 411 489 415 491 503 483 498 491 503 490 504 482 499 490 504 488 505 485 414 487 500 495 507 487 500 486 501 494 508 486 501 484 502 492 509 489 415 497 420 499 510 499 510 498 511 490 504 498 511 496 517 488 505 493 419 495 507 503 512 503 512 495 507 494 508 502 513 494 508 492 509 497 420 505 423 507 515 507 515 506 523 498 511 498 511 506 523 504 516 501 422 503 512 511 518 503 512 502 513 510 519 502 513 500 514 508 520 505 423 513 104 515 521 507 515 515 521 514 522 506 523 514 522 512 524 509 426 511 518 519 525 511 518 510 519 518 526 510 519 508 520 516 527 521 431 523 528 515 521 523 528 522 529 514 522 522 529 520 535 512 524 525 433 517 430 519 525 527 530 519 525 518 526 526 531 518 526 516 527 529 434 531 533 523 528 531 533 530 534 522 529 530 534 528 541 520 535 533 437 525 433 527 530 527 530 526 531 534 537 534 537 526 531 524 532 537 438 539 545 531 533 531 533 539 545 538 539 530 534 538 539 536 540 541 440 533 437 535 536 535 536 534 537 542 543 534 537 532 538 540 544 545 441 547 546 539 545 547 546 546 547 538 539 546 547 544 554 536 540 549 444 541 440 543 542 551 548 543 542 542 543 550 549 542 543 540 544 545 441 553 445 555 551 547 546 555 551 554 552 546 547 554 552 552 553 549 444 551 548 559 555 551 548 550 549 558 556 550 549 548 550 556 557 553 445 561 447 563 558 563 558 562 559 554 552 562 559 560 565 552 553 557 446 559 555 567 560 567 560 559 555 558 556 566 561 558 556 556 557 561 447 569 332 571 563 571 563 570 569 562 559 562 559 570 569 568 564 565 448 567 560 575 566 567 560 566 561 574 567 566 561 564 562 572 568 569 332 320 331 323 129 571 563 323 129 322 126 570 569 322 126 321 125 573 330 575 566 327 443 575 566 574 567 326 118 574 567 572 568 324 436 568 564 321 125 328 424 328 424 336 401 344 378 344 378 352 355 376 405 352 355 360 354 376 405 360 354 368 428 376 405 376 405 384 382 392 357 392 357 400 334 408 333 408 333 416 463 440 473 416 463 424 462 440 473 424 462 432 474 440 473 440 473 448 163 456 488 456 488 464 493 472 492 472 492 480 506 504 516 480 506 488 505 504 516 488 505 496 517 504 516 504 516 512 524 520 535 520 535 528 541 536 540 536 540 544 554 568 564 544 554 552 553 568 564 552 553 560 565 568 564 568 564 328 424 344 378 376 405 392 357 408 333 440 473 456 488 472 492 504 516 520 535 536 540 568 564 344 378 376 405 376 405 408 333 568 564 408 333 440 473 568 564 440 473 472 492 504 516 504 516 536 540 440 473 577 570 579 570 578 570 579 571 583 571 582 571 583 572 581 572 580 572 581 573 577 573 576 573 582 574 580 574 576 574 579 317 577 317 581 317 585 575 587 576 586 576 587 577 591 751 590 578 591 580 589 581 588 581 589 582 585 752 584 583 586 585 590 574 588 586 587 588 585 753 589 589 593 590 595 754 594 591 595 593 599 755 598 594 599 596 597 756 596 597 597 599 593 757 592 600 598 602 596 702 592 603 599 604 595 317 593 605 601 607 603 608 602 607 603 609 607 758 606 610 607 612 605 613 604 612 605 614 601 759 600 615 606 574 604 574 600 574 607 317 603 317 601 317 609 617 611 760 610 618 611 620 615 620 614 621 615 623 613 761 612 624 613 626 609 626 608 627 614 629 612 762 608 630 615 632 611 317 609 633 617 635 619 636 618 635 619 637 623 763 622 638 623 640 621 641 620 640 621 642 617 764 616 643 622 645 620 702 616 646 623 647 619 765 617 648 625 650 627 650 626 650 627 570 631 570 630 570 631 651 629 651 628 651 629 572 625 572 624 572 630 652 628 702 624 653 627 655 625 317 629 656 633 658 635 658 634 658 635 659 639 660 638 659 639 661 637 661 636 661 637 662 633 663 632 662 638 664 636 766 632 665 639 317 635 317 633 317 641 667 643 767 642 600 643 669 647 768 646 670 647 672 645 769 644 594 645 674 641 770 640 675 646 677 644 771 640 678 647 679 643 317 641 680 649 682 651 683 650 682 651 684 655 772 654 685 655 687 653 688 652 687 653 689 649 773 648 690 650 574 654 574 652 574 651 317 649 317 653 317 657 692 659 692 658 692 659 693 663 774 662 694 663 696 661 696 660 696 661 697 657 775 656 698 658 700 662 574 660 701 659 703 657 776 661 704 665 706 667 707 666 707 667 708 671 777 670 709 671 711 669 712 668 712 669 713 665 778 664 714 666 716 670 574 668 717 667 719 665 779 669 720</p>
        </triangles>
        <triangles material="lens-material" count="124">
          <input semantic="VERTEX" source="#lidar-mesh-vertices" offset="0"/>
          <input semantic="NORMAL" source="#lidar-mesh-normals" offset="1"/>
          <p>257 256 258 257 256 258 259 259 260 260 258 257 261 261 262 262 260 260 263 263 264 264 262 262 265 265 266 266 264 264 267 267 268 268 266 266 269 269 270 270 268 268 271 271 272 272 270 270 273 273 274 274 272 272 275 275 276 276 274 274 277 277 278 278 276 276 279 279 280 280 278 278 281 281 282 282 280 280 283 283 284 284 282 282 285 285 286 286 284 284 287 287 288 288 286 286 289 289 290 290 288 288 291 291 292 292 290 290 293 293 294 294 292 292 295 295 296 296 294 294 297 297 298 298 296 296 299 299 300 300 298 298 301 301 302 302 300 300 303 303 304 304 302 302 305 305 306 306 304 304 307 307 308 308 306 306 309 309 310 310 308 308 311 311 312 312 310 310 313 313 314 314 312 312 315 315 316 316 314 314 293 317 277 317 261 317 317 318 318 319 316 316 319 320 256 258 318 319 310 321 318 322 286 323 257 256 259 259 258 257 259 259 261 261 260 260 261 261 263 263 262 262 263 263 265 265 264 264 265 265 267 267 266 266 267 267 269 269 268 268 269 269 271 271 270 270 271 271 273 273 272 272 273 273 275 275 274 274 275 275 277 277 276 276 277 277 279 279 278 278 279 279 281 281 280 280 281 281 283 283 282 282 283 283 285 285 284 284 285 285 287 287 286 286 287 287 289 289 288 288 289 289 291 291 290 290 291 291 293 293 292 292 293 293 295 295 294 294 295 295 297 297 296 296 297 297 299 299 298 298 299 299 301 301 300 300 301 301 303 303 302 302 303 303 305 305 304 304 305 305 307 307 306 306 307 307 309 309 308 308 309 309 311 311 310 310 311 311 313 313 312 312 313 313 315 315 314 314 315 315 317 318 316 316 261 317 259 317 257 317 257 317 319 317 261 317 319 317 317 722 261 317 317 722 315 723 313 724 313 724 311 725 317 722 311 725 309 726 317 722 309 726 307 727 305 728 305 728 303 317 309 726 303 317 301 317 309 726 301 317 299 317 297 317 297 317 295 317 301 317 295 317 293 317 301 317 293 317 291 317 285 729 291 317 289 317 285 729 289 317 287 317 285 729 285 729 283 730 281 731 281 731 279 732 285 729 279 732 277 317 285 729 277 317 275 317 269 733 275 317 273 734 269 733 273 734 271 735 269 733 269 733 267 317 265 317 265 317 263 317 269 733 263 317 261 317 269 733 261 317 317 722 309 726 309 726 301 317 293 317 293 317 285 729 277 317 277 317 269 733 261 317 261 317 309 726 293 317 317 318 319 320 318 319 319 320 257 256 256 258 318 322 256 574 258 574 258 574 260 574 262 736 262 736 264 574 266 737 266 737 268 738 270 739 270 739 272 574 274 740 274 740 276 741 278 742 278 742 280 574 282 743 282 743 284 574 286 323 286 323 288 574 290 574 290 574 292 574 294 744 294 744 296 574 298 745 298 745 300 746 302 747 302 747 304 574 306 748 306 748 308 749 310 321 310 321 312 574 314 750 314 750 316 574 318 322 318 322 258 574 262 736 262 736 266 737 270 739 270 739 274 740 278 742 278 742 282 743 286 323 286 323 290 574 294 744 294 744 298 745 302 747 302 747 306 748 310 321 310 321 314 750 318 322 318 322 262 736 270 739 270 739 278 742 318 322 278 742 286 323 318 322 286 323 294 744 302 747 302 747 310 321 286 323</p>
        </triangles>
      </mesh>
    </geometry>
  </library_geometries>
  <library_visual_scenes>
    <visual_scene id="Scene" name="Scene">
      <node id="lidar" name="lidar" type="NODE">
        <matrix sid="transform">1 0 0 0 0 1 0 0 0 0 1 0 0 0 0 1</matrix>
        <instance_geometry url="#lidar-mesh" name="lidar">
          <bind_material>
            <technique_common>
              <instance_material symbol="aluminium-material" target="#aluminium-material"/>
              <instance_material symbol="lens-material" target="#lens-material"/>
            </technique_common>
          </bind_material>
        </instance_geometry>
      </node>
    </visual_scene>
  </library_visual_scenes>
  <scene>
    <instance_visual_scene url="#Scene"/>
  </scene>
</COLLADA>