<?xml version="1.0" encoding="utf-8"?>
<COLLADA xmlns="http://www.collada.org/2005/11/COLLADASchema" version="1.4.1" xmlns:xsi="http://www.w3.org/2001/XMLSchema-instance">
  <asset>
    <contributor>
      <author>Blender User</author>
      <authoring_tool>Blender 4.2.0 commit date:2024-07-16, commit time:07:50, hash:bf738fd35afe</authoring_tool>
    </contributor>
    <created>2026-09-25T18:11:21</created>
    <modified>2026-09-25T18:11:21</modified>
    <unit name="meter" meter="1"/>
    <up_axis>Z_UP</up_axis>
  </asset>
  <library_effects>
    <effect id="aluminium-effect">
      <profile_COMMON>
        <technique sid="common">
          <lambert>
            <emission>
              <color sid="emission">0 0 0 1</color>
            </emission>
            <diffuse>
              <color sid="diffuse">0.55 0.55 0.56 1</color>
            </diffuse>
            <reflectivity>
              <float sid="specular">1</float>
            </reflectivity>
            <index_of_refraction>
              <float sid="ior">1.5</float>
            </index_of_refraction>
          </lambert>
        </technique>
      </profile_COMMON>
    </effect>
    <effect id="blade-effect">
      <profile_COMMON>
        <technique sid="common">
          <lambert>
            <emission>
              <color sid="emission">0 0 0 1</color>
            </emission>
            <diffuse>
              <color sid="diffuse">0.03 0.03 0.032 1</color>
            </diffuse>
            <index_of_refraction>
              <float sid="ior">1.5</float>
            </index_of_refraction>
          </lambert>
        </technique>
      </profile_COMMON>
    </effect>
  </library_effects>
  <library_images/>
  <library_materials>
    <material id="aluminium-material" name="aluminium">
      <instance_effect url="#aluminium-effect"/>
    </material>
    <material id="blade-material" name="blade">
      <instance_effect url="#blade-effect"/>
    </material>
  </library_materials>
  <library_geometries>
    <geometry id="lift_fan-mesh" name="lift_fan">
      <mesh>
        <source id="lift_fan-mesh-positions">
          <float_array id="lift_fan-mesh-positions-array" count="888">0 0.06 -0.01899999 0 0.05394822 -0.02499997 0 0.05697411 -0.02419614 0 0.0591892 -0.02200001 0 0.05394822 0.02499997 0 0.06 0.01899999 0 0.05697411 0.02419614 0 0.0591892 0.02200001 0.0139628 0.05210995 -0.02499997 0.01552915 0.0579555 -0.01899999 0.01474595 0.05503273 -0.02419614 0.01531928 0.05717235 -0.02200001 0.0139628 0.05210995 0.02499997 0.01552915 0.0579555 0.01899999 0.01474595 0.05503273 0.02419614 0.01531928 0.05717235 0.02200001 0.02697408 0.0467205 -0.02499997 0.02999997 0.05196148 -0.01899999 0.02848702 0.04934102 -0.02419614 0.0295946 0.05125933 -0.02200001 0.02697408 0.0467205 0.02499997 0.02999997 0.05196148 0.01899999 0.02848702 0.04934102 0.02419614 0.0295946 0.05125933 0.02200001 0.03814715 0.03814715 -0.02499997 0.0424264 0.0424264 -0.01899999 0.04028677 0.04028677 -0.02419614 0.04185307 0.04185307 -0.02200001 0.03814715 0.03814715 0.02499997 0.0424264 0.0424264 0.01899999 0.04028677 0.04028677 0.02419614 0.04185307 0.04185307 0.02200001 0.0467205 0.02697408 -0.02499997 0.05196154 0.02999997 -0.01899999 0.04934102 0.02848702 -0.02419614 0.05125933 0.0295946 -0.02200001 0.0467205 0.02697408 0.02499997 0.05196154 0.02999997 0.01899999 0.04934102 0.02848702 0.02419614 0.05125933 0.0295946 0.02200001 0.05210995 0.0139628 -0.02499997 0.05795556 0.01552909 -0.01899999 0.05503278 0.01474595 -0.02419614 0.05717241 0.01531928 -0.02200001 0.05210995 0.0139628 0.02499997 0.05795556 0.01552909 0.01899999 0.05503278 0.01474595 0.02419614 0.05717241 0.01531928 0.02200001 0.05394822 0 -0.02499997 0.06 0 -0.01899999 0.05697411 0 -0.02419614 0.0591892 0 -0.02200001 0.05394822 0 0.02499997 0.06 0 0.01899999 0.05697411 0 0.02419614 0.0591892 0 0.02200001 0.05210995 -0.0139628 -0.02499997 0.05795556 -0.01552909 -0.01899999 0.05503278 -0.01474595 -0.02419614 0.05717241 -0.01531928 -0.02200001 0.05210995 -0.0139628 0.02499997 0.05795556 -0.01552909 0.01899999 0.05503278 -0.01474595 0.02419614 0.05717241 -0.01531928 0.02200001 0.0467205 -0.02697408 -0.02499997 0.05196154 -0.02999997 -0.01899999 0.04934102 -0.02848702 -0.02419614 0.05125933 -0.0295946 -0.02200001 0.0467205 -0.02697408 0.02499997 0.05196154 -0.02999997 0.01899999 0.04934102 -0.02848702 0.02419614 0.05125933 -0.0295946 0.02200001 0.03814715 -0.03814715 -0.02499997 0.0424264 -0.0424264 -0.01899999 0.04028677 -0.04028677 -0.02419614 0.04185307 -0.04185307 -0.02200001 0.03814715 -0.03814715 0.02499997 0.0424264 -0.0424264 0.01899999 0.04028677 -0.04028677 0.02419614 0.04185307 -0.04185307 0.02200001 0.02697408 -0.0467205 -0.02499997 0.02999997 -0.05196148 -0.01899999 0.02848702 -0.04934102 -0.02419614 0.0295946 -0.05125933 -0.02200001 0.02697408 -0.0467205 0.02499997 0.02999997 -0.05196148 0.01899999 0.02848702 -0.04934102 0.02419614 0.0295946 -0.05125933 0.02200001 0.0139628 -0.05210995 -0.02499997 0.01552915 -0.0579555 -0.01899999 0.01474595 -0.05503273 -0.02419614 0.01531928 -0.05717235 -0.02200001 0.0139628 -0.05210995 0.02499997 0.01552915 -0.0579555 0.01899999 0.01474595 -0.05503273 0.02419614 0.01531928 -0.05717235 0.02200001 0 -0.05394822 -0.02499997 0 -0.06 -0.01899999 0 -0.05697411 -0.02419614 0 -0.0591892 -0.02200001 0 -0.05394822 0.02499997 0 -0.06 0.01899999 0 -0.05697411 0.02419614 0 -0.0591892 0.02200001 -0.0139628 -0.05210995 -0.02499997 -0.01552915 -0.0579555 -0.01899999 -0.01474595 -0.05503273 -0.02419614 -0.01531928 -0.05717235 -0.02200001 -0.0139628 -0.05210995 0.02499997 -0.01552915 -0.0579555 0.01899999 -0.01474595 -0.05503273 0.02419614 -0.01531928 -0.05717235 0.02200001 -0.02697408 -0.0467205 -0.02499997 -0.02999997 -0.05196148 -0.01899999 -0.02848702 -0.04934102 -0.02419614 -0.0295946 -0.05125933 -0.02200001 -0.02697408 -0.0467205 0.02499997 -0.02999997 -0.05196148 0.01899999 -0.02848702 -0.04934102 0.02419614 -0.0295946 -0.05125933 0.02200001 -0.03814715 -0.03814715 -0.02499997 -0.0424264 -0.0424264 -0.01899999 -0.04028677 -0.04028677 -0.02419614 -0.04185307 -0.04185307 -0.02200001 -0.03814715 -0.03814715 0.02499997 -0.0424264 -0.0424264 0.01899999 -0.04028677 -0.04028677 0.02419614 -0.04185307 -0.04185307 0.02200001 -0.0467205 -0.02697408 -0.02499997 -0.05196148 -0.02999997 -0.01899999 -0.04934102 -0.02848702 -0.02419614 -0.05125933 -0.0295946 -0.02200001 -0.0467205 -0.02697408 0.02499997 -0.05196148 -0.02999997 0.01899999 -0.04934102 -0.02848702 0.02419614 -0.05125933 -0.0295946 0.02200001 -0.05210995 -0.0139628 -0.02499997 -0.05795556 -0.01552909 -0.01899999 -0.05503273 -0.01474595 -0.02419614 -0.05717235 -0.01531928 -0.02200001 -0.05210995 -0.0139628 0.02499997 -0.05795556 -0.01552909 0.01899999 -0.05503273 -0.01474595 0.02419614 -0.05717235 -0.01531928 0.02200001 -0.05394822 0 -0.02499997 -0.06 0 -0.01899999 -0.05697411 0 -0.02419614 -0.0591892 0 -0.02200001 -0.05394822 0 0.02499997 -0.06 0 0.01899999 -0.05697411 0 0.02419614 -0.0591892 0 0.02200001 -0.05210995 0.0139628 -0.02499997 -0.05795556 0.01552909 -0.01899999 -0.05503273 0.01474595 -0.02419614 -0.05717235 0.01531928 -0.02200001 -0.05210995 0.0139628 0.02499997 -0.05795556 0.01552909 0.01899999 -0.05503273 0.01474595 0.02419614 -0.05717235 0.01531928 0.02200001 -0.0467205 0.02697408 -0.02499997 -0.05196148 0.02999997 -0.01899999 -0.04934102 0.02848702 -0.02419614 -0.05125933 0.0295946 -0.02200001 -0.0467205 0.02697408 0.02499997 -0.05196148 0.02999997 0.01899999 -0.04934102 0.02848702 0.02419614 -0.05125933 0.0295946 0.02200001 -0.03814715 0.03814715 -0.02499997 -0.0424264 0.0424264 -0.01899999 -0.04028677 0.04028677 -0.02419614 -0.04185307 0.04185307 -0.02200001 -0.03814715 0.03814715 0.02499997 -0.0424264 0.0424264 0.01899999 -0.04028677 0.04028677 0.02419614 -0.04185307 0.04185307 0.02200001 -0.02697408 0.0467205 -0.02499997 -0.02999997 0.05196148 -0.01899999 -0.02848702 0.04934102 -0.02419614 -0.0295946 0.05125933 -0.02200001 -0.02697408 0.0467205 0.02499997 -0.02999997 0.05196148 0.01899999 -0.02848702 0.04934102 0.02419614 -0.0295946 0.05125933 0.02200001 -0.0139628 0.05210995 -0.02499997 -0.01552915 0.0579555 -0.01899999 -0.01474595 0.05503273 -0.02419614 -0.01531928 0.05717235 -0.02200001 -0.0139628 0.05210995 0.02499997 -0.01552915 0.0579555 0.01899999 -0.01474595 0.05503273 0.02419614 -0.01531928 0.05717235 0.02200001 0 0.03999996 0.02500003 0 0.01199996 0.055 0.0153073 0.03695517 0.02500003 0.00459218 0.01108652 0.055 0.02828425 0.02828425 0.02500003 0.008485257 0.008485257 0.055 0.03695517 0.0153073 0.02500003 0.01108652 0.00459218 0.055 0.03999996 0 0.02500003 0.01199996 0 0.055 0.03695517 -0.0153073 0.02500003 0.01108652 -0.00459218 0.055 0.02828425 -0.02828425 0.02500003 0.008485257 -0.008485257 0.055 0.0153073 -0.03695517 0.02500003 0.00459218 -0.01108652 0.055 0 -0.03999996 0.02500003 0 -0.01199996 0.055 -0.0153073 -0.03695517 0.02500003 -0.00459218 -0.01108652 0.055 -0.02828425 -0.02828425 0.02500003 -0.008485257 -0.008485257 0.055 -0.03695517 -0.0153073 0.02500003 -0.01108652 -0.00459218 0.055 -0.03999996 0 0.02500003 -0.01199996 0 0.055 -0.03695517 0.0153073 0.02500003 -0.01108652 0.00459218 0.055 -0.02828425 0.02828425 0.02500003 -0.008485257 0.008485257 0.055 -0.0153073 0.03695517 0.02500003 -0.00459218 0.01108652 0.055 0.055 -0.04226946 -0.02700537 0.055 0.04602521 0.0199418 0.055 0.04226946 0.02700537 0.055 -0.04602521 -0.0199418 0.28 -0.03199964 -0.01473158 0.28 0.03449833 0.007131814 0.28 0.03199964 0.01473158 0.28 -0.03449833 -0.007131814 0.06930273 0.00297296 -0.02700537 0.01254796 0.0706107 0.0199418 0.01496213 0.06773358 0.02700537 0.0717169 9.59262e-5 -0.0199418 0.2350614 0.1554673 -0.01473158 0.1923173 0.2064078 0.007131814 0.1939234 0.2044937 0.01473158 0.2366675 0.1535533 -0.007131814 0.05117797 0.04682439 -0.02700537 -0.03577536 0.06215661 0.0199418 -0.03207665 0.06150442 0.02700537 0.05487668 0.0461722 -0.0199418 0.08013504 0.2701895 -0.01473158 0.01464724 0.2817367 0.007131814 0.01710796 0.2813029 0.01473158 0.08259576 0.2697556 -0.007131814 0.009106457 0.06876611 -0.02700537 -0.06735903 0.02461874 0.0199418 -0.06410646 0.02649664 0.02700537 0.01235902 0.07064402 -0.0199418 -0.1122874 0.258487 -0.01473158 -0.1698764 0.2252379 0.007131814 -0.1677125 0.2264873 0.01473158 -0.1101235 0.2597363 -0.007131814 -0.03722602 0.0585314 -0.02700537 -0.06742465 -0.02443844 0.0199418 -0.06614011 -0.02090919 0.02700537 -0.03594148 0.06206071 -0.0199418 -0.2521693 0.1258355 -0.01473158 -0.274913 0.06334787 0.007131814 -0.2740584 0.06569582 0.01473158 -0.2513148 0.1281836 -0.007131814 -0.06614011 0.02090919 -0.02700537 -0.03594154 -0.06206065 0.0199418 -0.03722608 -0.0585314 0.02700537 -0.06742465 0.0244385 -0.0199418 -0.2740585 -0.0656957 -0.01473158 -0.2513148 -0.1281834 0.007131814 -0.2521694 -0.1258354 0.01473158 -0.2749131 -0.06334769 -0.007131814 -0.06410646 -0.02649664 -0.02700537 0.01235902 -0.07064402 0.0199418 0.009106457 -0.06876611 0.02700537 -0.06735903 -0.02461874 -0.0199418 -0.1677125 -0.2264873 -0.01473158 -0.1101235 -0.2597363 0.007131814 -0.1122874 -0.258487 0.01473158 -0.1698764 -0.2252379 -0.007131814 -0.03207665 -0.06150442 -0.02700537 0.05487668 -0.0461722 0.0199418 0.05117797 -0.04682439 0.02700537 -0.03577536 -0.06215661 -0.0199418 0.01710796 -0.2813029 -0.01473158 0.08259576 -0.2697556 0.007131814 0.08013504 -0.2701895 0.01473158 0.01464724 -0.2817367 -0.007131814 0.01496213 -0.06773358 -0.02700537 0.0717169 -9.59262e-5 0.0199418 0.06930273 -0.00297296 0.02700537 0.01254796 -0.0706107 -0.0199418 0.1939234 -0.2044937 -0.01473158 0.2366675 -0.1535533 0.007131814 0.2350614 -0.1554673 0.01473158 0.1923173 -0.2064078 -0.007131814</float_array>
          <technique_common>
            <accessor source="#lift_fan-mesh-positions-array" count="296" stride="3">
              <param name="X" type="float"/>
              <param name="Y" type="float"/>
              <param name="Z" type="float"/>
            </accessor>
          </technique_common>
        </source>
        <source id="lift_fan-mesh-normals">
          <float_array id="lift_fan-mesh-normals-array" count="1335">0.8586537 -0.4957448 0.1301955 0.8400397 -0.2250879 0.4936283 0.7531604 -0.4348395 0.4936234 0.7531605 0.4348393 0.4936236 0.3627667 0.3627642 0.858372 0.4442995 0.2565166 0.8583689 -0.2566165 0.9577047 0.1301921 1.64105e-6 0.9914894 -0.1301877 -0.2566133 0.9577054 -0.1301921 0.4955467 -0.1327823 0.8583719 0.4442997 -0.2565166 0.8583689 0.7010861 0.701091 0.1301911 0.8586521 0.4957475 0.1301957 0.4957416 0.8586564 0.1301911 0.7010885 0.7010886 -0.130191 0.4957445 0.8586546 -0.130191 0.7531604 -0.4348393 -0.4936235 0.4955469 -0.1327823 -0.8583718 0.8400397 -0.2250877 -0.4936284 0.4442997 0.2565166 -0.8583689 0.09902536 0.0990253 -0.9901455 0.3627628 0.3627613 -0.8583749 0.8586537 0.4957448 -0.1301955 0.8586521 -0.4957476 -0.1301957 0.9577043 -0.2566189 -0.1301894 0.7531604 0.4348395 -0.4936234 0.6149547 0.6149515 -0.4936249 0.9577053 0.2566143 -0.1301908 0.1400401 0 0.9901459 0.135266 -0.0362448 0.9901462 0.9577043 0.2566189 0.1301894 0.9914886 -3.90121e-6 -0.1301932 0.8696771 7.16465e-7 0.4936211 0.07002174 0.1212806 0.9901455 0.09902197 0.09902113 0.9901463 0.9914887 3.90212e-6 0.1301932 0.9577053 -0.2566143 0.1301908 0.6149546 0.6149516 0.4936248 0.2565155 0.4442951 0.8583716 0.140038 0 -0.9901462 0.5130231 0 -0.8583749 0.7010861 -0.701091 -0.1301911 0.8696771 -7.16465e-7 -0.4936212 0.2565171 0.4442996 -0.8583688 0.07001817 0.1212755 -0.9901464 0.7010885 -0.7010886 0.130191 0.4957416 -0.8586564 -0.130191 0.4348385 0.75316 -0.4936249 0.4957445 -0.8586546 0.130191 0.2566132 -0.9577054 -0.1301921 0.495547 0.1327823 0.8583719 0.5130231 0 0.8583749 0.2566165 -0.9577047 0.1301921 -1.64105e-6 -0.9914894 -0.1301877 0.03624457 0.135266 0.9901462 1.64135e-6 -0.9914894 0.1301877 -0.2566165 -0.9577047 -0.1301921 0.4348385 0.75316 0.4936249 0.1327826 0.4955464 0.8583721 -0.2566133 -0.9577054 0.1301921 -0.4957445 -0.8586546 -0.130191 0.4955468 0.1327823 -0.8583719 0.1352655 0.0362448 -0.9901462 0.2566133 0.9577054 0.1301921 -0.4957416 -0.8586564 0.1301911 -0.7010899 -0.7010871 -0.1301925 0.8400397 0.225088 -0.4936283 0.03624492 0.135267 -0.9901461 0.1327826 0.4955463 -0.8583721 -0.7010875 -0.7010895 0.1301925 -0.8586558 -0.4957435 -0.1301868 0.2250894 0.8400405 -0.4936264 -0.8586542 -0.4957464 0.1301871 -0.9577044 -0.256617 -0.1301932 0.1352658 0.0362448 0.9901462 0.2566164 0.9577047 -0.1301921 -0.9577035 -0.2566202 0.1301932 -0.991489 1.78763e-6 -0.1301908 0.8400397 0.2250877 0.4936284 0 0.1400407 0.9901458 -0.991489 -1.79007e-6 0.1301908 -0.9577035 0.2566202 -0.1301932 0.2250894 0.8400405 0.4936264 0 0.5130239 0.8583744 -0.9577044 0.256617 0.1301932 -0.8586542 0.4957463 -0.1301871 0.1212756 0.07001852 -0.9901463 -1.64135e-6 0.9914894 0.1301877 -0.8586558 0.4957436 0.1301869 -0.7010875 0.7010894 -0.1301925 0 0.1400403 -0.9901458 0 0.513024 -0.8583744 -0.7010898 0.7010871 0.1301925 -0.4957416 0.8586564 -0.130191 0 0.8696725 -0.4936292 -0.4957445 0.8586546 0.130191 0.4442995 -0.2565166 -0.858369 0.1352683 -0.03624558 -0.9901458 0.1212763 0.070019 0.9901462 -0.1400437 0 0.9901453 0.07002103 -0.12128 0.9901456 0.1212766 -0.070019 0.9901462 0.3627667 -0.3627642 -0.858372 0.09902322 -0.09902286 -0.990146 0.1212762 -0.07001852 -0.9901462 0.6149547 -0.6149515 0.4936249 0.3627628 -0.3627613 0.8583749 0.09902197 -0.09902185 0.9901461 0.6149546 -0.6149517 -0.4936248 0.2565155 -0.4442951 -0.8583716 0.07001888 -0.1212761 -0.9901463 0.4348385 -0.75316 0.4936249 0.2565171 -0.4442996 0.8583687 0.4348385 -0.75316 -0.4936248 0.1327826 -0.4955464 -0.8583721 0.03624582 -0.1352702 -0.9901456 0.2250894 -0.8400405 0.4936264 0.1327826 -0.4955463 0.8583721 0.03624445 -0.135266 0.9901462 0.2250894 -0.8400405 -0.4936264 0 -0.5130239 -0.8583744 0 -0.1400383 -0.9901461 0 -0.8696725 0.4936292 0 -0.513024 0.8583744 0 -0.1400407 0.9901458 -0.2250894 -0.8400405 -0.4936264 0 -0.8696725 -0.4936292 -0.1327826 -0.4955464 -0.8583721 -0.2250894 -0.8400405 0.4936264 -0.1327826 -0.4955463 0.8583722 -0.03624457 -0.135266 0.9901462 -0.4348385 -0.75316 -0.4936248 -0.2565172 -0.4442996 -0.8583688 -0.03624522 -0.1352679 -0.9901459 -0.4348385 -0.75316 0.4936248 -0.2565155 -0.4442951 0.8583716 -0.07002067 -0.1212787 0.9901458 -0.6149553 -0.6149551 -0.4936196 -0.0990256 -0.09902554 -0.9901455 -0.07001817 -0.1212755 -0.9901464 -0.6149553 -0.6149551 0.4936196 -0.3627647 -0.3627636 0.8583732 -0.09902286 -0.09902256 0.990146 -0.4442947 -0.2565136 -0.8583724 -0.3627609 -0.3627607 -0.8583759 -0.7531604 -0.4348391 0.4936237 -0.4442944 -0.2565138 0.8583724 -0.121277 -0.07001924 0.9901461 -0.8400393 -0.225091 -0.4936274 -0.7531605 -0.4348392 -0.4936236 -0.4955512 -0.1327834 -0.8583692 -0.121276 -0.07001876 -0.9901463 -0.8400394 -0.2250909 0.4936273 -0.4955513 -0.1327833 0.8583691 -0.1352655 -0.03624427 0.9901463 -0.8696725 0 -0.4936293 -0.5130232 0 -0.8583747 -0.1400402 0 -0.9901459 -0.1352667 -0.03624457 -0.9901462 -0.8696725 0 0.4936293 -0.5130231 0 0.8583748 -0.8400394 0.2250909 -0.4936273 -0.4955513 0.1327833 -0.8583691 -0.8400393 0.225091 0.4936274 -0.4955512 0.1327834 0.8583692 -0.1352655 0.03624427 0.9901463 -0.7531605 0.4348392 -0.4936237 -0.1212766 0.07001876 -0.9901462 -0.1352687 0.03624516 -0.9901458 -0.7531605 0.4348392 0.4936236 -0.4442946 0.2565136 0.8583723 -0.1212773 0.07001924 0.9901461 -0.6149553 0.6149551 -0.4936196 -0.4442944 0.2565138 -0.8583724 -0.0990228 0.09902256 -0.990146 -0.6149553 0.6149551 0.4936196 -0.3627609 0.3627607 0.8583759 -0.0990234 0.09902334 0.9901459 -0.2565155 0.4442951 -0.8583716 -0.3627647 0.3627636 -0.8583732 -0.07001888 0.1212761 -0.9901463 -0.4348385 0.75316 0.4936249 -0.2565171 0.4442996 0.8583687 -0.07001996 0.1212781 0.9901459 -0.4348385 0.75316 -0.4936248 -0.1327826 0.4955464 -0.8583721 -0.0362457 0.1352697 -0.9901457 -0.2250894 0.8400405 0.4936264 -0.1327826 0.4955463 0.8583721 -0.03624445 0.135266 0.9901462 -0.2250894 0.8400405 -0.4936264 0 0.8696725 0.4936292 -1.28114e-7 0.731055 0.6823186 0.2797626 0.6754068 0.6823185 0 0.731055 0.6823186 0.516934 0.5169336 0.6823188 0.516934 0.5169339 0.6823186 0.6754084 0.2797587 0.6823186 0.6754068 0.2797625 0.6823187 0.731055 0 0.6823186 0.6754068 -0.2797625 0.6823187 0.6754084 -0.2797587 0.6823185 0.5169339 -0.5169337 0.6823189 0.516934 -0.5169339 0.6823186 0.2797627 -0.6754068 0.6823185 1.28114e-7 -0.731055 0.6823186 0 -0.731055 0.6823186 -0.2797626 -0.6754068 0.6823185 -0.516934 -0.5169336 0.6823188 -0.516934 -0.5169339 0.6823186 -0.6754084 -0.2797587 0.6823186 -0.6754068 -0.2797625 0.6823187 -0.731055 0 0.6823186 -0.6754068 0.2797625 0.6823187 -0.6754084 0.2797587 0.6823185 -0.5169339 0.5169337 0.6823189 -0.516934 0.5169339 0.6823186 0 0 1 -0.2797627 0.6754068 0.6823185 0 0 -1 0 0 -1 -1 0 0 -1 -1.38126e-7 0 -1 -1.45519e-7 0 1 0 0 -0.01377993 0.4397235 -0.8980275 0.02099567 0.354209 -0.9349306 0.03753858 0.3121142 -0.9493027 0.0658006 0.8827975 0.4651225 0.06631273 0.9467047 0.3152029 0.06630373 0.9478818 0.3116475 -0.01377993 -0.4397235 0.8980275 0.02099567 -0.354209 0.9349306 0.03753858 -0.3121142 0.9493027 0.0658006 -0.8827975 -0.4651225 0.06631273 -0.9467047 -0.3152029 0.06630373 -0.9478818 -0.3116475 -0.7660445 -0.6427877 3.13219e-7 -0.7660443 -0.6427879 7.05417e-7 -0.7660443 -0.6427878 7.27597e-7 0.7660436 0.6427887 -1.3996e-6 0.7660447 0.6427875 1.71143e-6 0.7660435 0.6427888 -1.66308e-6 -0.293205 0.3279901 -0.8980275 -0.2115976 0.2848357 -0.9349306 -0.171867 0.2632228 -0.9493027 -0.5170447 0.7185571 0.4651243 -0.5577318 0.7678432 0.315202 -0.5584952 0.768739 0.3116465 0.2720928 -0.3457054 0.8980275 0.2437648 -0.257844 0.9349306 0.2293794 -0.2149639 0.9493027 0.6178575 -0.6339661 -0.4651228 0.6593275 -0.6825916 -0.315208 0.660077 -0.6834989 -0.311653 -0.1736482 -0.9848079 0 -0.1736482 -0.9848079 5.52504e-7 -0.1736482 -0.9848079 0 0.1736471 0.984808 -6.86309e-6 0.1736471 0.984808 -9.35192e-6 0.1736471 0.984808 -6.65231e-6 -0.435436 0.06278657 -0.8980275 -0.3451819 0.08218449 -0.9349306 -0.300854 0.09116637 -0.9493027 -0.85796 0.2180973 0.465122 -0.9208071 0.2296988 0.3152028 -0.9219678 0.2298944 0.3116473 0.4306502 -0.08992785 0.8980275 0.3524736 -0.04083102 0.9349307 0.3138909 -0.01722973 0.9493027 0.8808122 -0.08849531 -0.4651219 0.9438372 -0.09908831 -0.3152027 0.9449948 -0.09930151 -0.3116475 0.4999999 -0.8660256 -5.00749e-7 0.5000005 -0.8660251 9.3731e-7 0.4999998 -0.8660255 -5.82078e-7 -0.5000002 0.8660253 0 -0.4999999 0.8660255 -3.85658e-7 -0.5000002 0.8660253 0 -0.3739218 -0.2317955 -0.8980275 -0.3172518 -0.1589215 -0.9349306 -0.2890681 -0.1235476 -0.9493027 -0.7974264 -0.3844143 0.4651202 -0.8530268 -0.4159237 0.3152028 -0.8540416 -0.41652 0.3116476 0.3877018 0.2079278 0.8980276 0.2962562 0.1952872 0.9349306 0.2515295 0.1885664 0.9493027 0.7316254 0.4983841 -0.465121 0.7867139 0.5307805 -0.3152037 0.7877377 0.5313612 -0.3116483 0.9396927 -0.3420201 1.01656e-6 0.9396927 -0.3420202 9.79788e-7 0.9396927 -0.34202 1.01864e-6 -0.9396932 0.3420187 -1.66778e-6 -0.9396936 0.3420174 -1.72334e-6 -0.9396932 0.3420187 -1.66308e-6 -0.1374455 -0.417918 -0.8980275 -0.1408762 -0.3256666 -0.9349306 -0.1420242 -0.2804524 -0.9493027 -0.3637672 -0.8070532 0.4651222 -0.3861062 -0.8669312 0.3152023 -0.3865003 -0.8680403 0.3116468 0.1633434 0.408492 0.8980275 0.1014173 0.3400287 0.9349306 0.07147473 0.3061305 0.9493027 0.2401024 0.8520631 -0.4651228 0.261479 0.9122923 -0.3152008 0.2618899 0.9133952 -0.3116456 0.9396927 0.34202 -7.4146e-7 0.9396929 0.3420194 -9.86583e-7 0.9396927 0.34202 -7.27597e-7 -0.9396927 -0.3420202 -8.76706e-7 -0.9396927 -0.3420198 -1.41003e-6 -0.9396927 -0.3420202 -8.31539e-7 0.1633431 -0.4084919 -0.8980275 0.101417 -0.3400286 -0.9349306 0.07147455 -0.3061304 -0.9493027 0.2401019 -0.8520634 0.4651226 0.2614781 -0.9122914 0.3152045 0.2618891 -0.9133942 0.3116493 -0.1374453 0.417918 0.8980275 -0.1408761 0.3256668 0.9349306 -0.142024 0.2804526 0.9493027 -0.363767 0.8070533 -0.4651221 -0.3861055 0.866931 -0.3152034 -0.3864996 0.86804 -0.3116482 0.5000005 0.8660252 -1.09022e-6 0.4999998 0.8660255 2.17104e-7 0.5000005 0.8660252 -1.16416e-6 -0.4999999 -0.8660255 0 -0.5000002 -0.8660253 5.78487e-7 -0.4999999 -0.8660255 0 0.3877018 -0.2079278 -0.8980276 0.2962562 -0.1952872 -0.9349306 0.2515295 -0.1885664 -0.9493027 0.7316254 -0.4983841 0.465121 0.7867139 -0.5307805 0.3152037 0.7877377 -0.5313612 0.3116483 -0.3739218 0.2317955 0.8980275 -0.3172518 0.1589215 0.9349306 -0.2890681 0.1235476 0.9493027 -0.7974264 0.3844143 -0.4651202 -0.8530268 0.4159237 -0.3152028 -0.8540416 0.41652 -0.3116476 -0.1736482 0.9848079 -1.10501e-6 -0.1736482 0.9848079 0 -0.1736482 0.9848079 -1.16416e-6 0.1736471 -0.984808 6.42647e-6 0.1736471 -0.984808 3.75988e-6 0.1736471 -0.984808 6.65231e-6 0.4306502 0.08992785 -0.8980275 0.3524736 0.04083102 -0.9349307 0.3138909 0.01722973 -0.9493027 0.8808122 0.08849531 0.4651219 0.9438372 0.09908831 0.3152027 0.9449948 0.09930151 0.3116475 -0.435436 -0.06278657 0.8980275 -0.3451819 -0.08218449 0.9349306 -0.300854 -0.09116637 0.9493027 -0.85796 -0.2180973 -0.465122 -0.9208071 -0.2296988 -0.3152028 -0.9219678 -0.2298944 -0.3116473 -0.7660443 0.6427879 -5.65587e-7 -0.7660445 0.6427877 -2.73992e-7 -0.7660444 0.6427877 -2.57501e-7 0.766045 -0.642787 -1.36949e-6 0.7660436 -0.6427887 2.09708e-6 0.7660451 -0.6427869 -1.66308e-6 0.2720928 0.3457054 -0.8980275 0.2437648 0.257844 -0.9349306 0.2293794 0.2149639 -0.9493027 0.6178575 0.6339661 0.4651228 0.6593275 0.6825916 0.315208 0.660077 0.6834989 0.311653 -0.293205 -0.3279901 0.8980275 -0.2115976 -0.2848357 0.9349306 -0.171867 -0.2632228 0.9493027 -0.5170447 -0.7185571 -0.4651243 -0.5577318 -0.7678432 -0.315202 -0.5584952 -0.768739 -0.3116465 0.279762 0.6754069 0.6823187 0.731055 0 0.6823186 0.2797619 -0.6754069 0.6823188 -0.279762 -0.6754069 0.6823187 -0.731055 0 0.6823186 -0.2797619 0.6754069 0.6823188 0 0 -1 0 0 -1 -3.12218e-7 0 -1 0 0 -1 3.12218e-7 0 -1 -1 0 0 -0.02620869 0.4693105 -0.8826442 0.06576794 0.8810357 0.4684556 -0.02620869 -0.4693105 0.8826442 0.06576794 -0.8810357 -0.4684556 -0.7660444 -0.6427876 2.91039e-7 0.7660447 0.6427873 1.97491e-6 -0.3217441 0.342666 -0.8826442 -0.5159372 0.7171865 0.4684574 0.28159 -0.3763594 0.8826442 0.6167001 -0.6326375 -0.4684557 -0.1736482 -0.9848079 5.82078e-7 0.1736471 0.984808 -9.5627e-6 -0.4667317 0.05568432 -0.8826442 -0.8562306 0.2177593 0.468455 0.4576296 -0.1073055 0.8826442 0.8790717 -0.08822154 -0.4684548 0.5000005 -0.866025 1.01864e-6 -0.4999999 0.8660255 -4.15769e-7 -0.3933305 -0.2573527 -0.8826442 -0.7958844 -0.3835617 0.4684533 0.4195392 0.2119576 0.8826442 0.730116 0.4974749 -0.4684541 0.9396927 -0.3420201 9.77708e-7 -0.9396937 0.3420173 -1.72804e-6 -0.1358856 -0.4499715 -0.8826442 -0.363134 -0.8054089 0.4684553 0.1851419 0.4320437 0.8826442 0.2395306 0.8503966 -0.4684557 0.9396929 0.3420194 -1.00045e-6 -0.9396928 -0.3420198 -1.45519e-6 0.1851417 -0.4320437 -0.8826442 0.23953 -0.8503968 0.4684557 -0.1358854 0.4499716 0.8826442 -0.3631339 0.8054091 -0.468455 0.4999998 0.8660256 2.91039e-7 -0.5000002 -0.8660253 6.23654e-7 0.4195392 -0.2119576 -0.8826442 0.730116 -0.4974749 0.4684541 -0.3933305 0.2573527 0.8826442 -0.7958844 0.3835617 -0.4684533 -0.1736482 0.9848079 0 0.1736471 -0.984808 3.53404e-6 0.4576296 0.1073055 -0.8826442 0.8790717 0.08822154 0.4684548 -0.4667317 -0.05568432 0.8826442 -0.8562306 -0.2177593 -0.468455 -0.7660443 0.6427878 -5.82077e-7 0.7660435 -0.6427888 2.39067e-6 0.28159 0.3763594 -0.8826442 0.6167001 0.6326375 0.4684557 -0.3217441 -0.342666 0.8826442 -0.5159372 -0.7171865 -0.4684574</float_array>
          <technique_common>
            <accessor source="#lift_fan-mesh-normals-array" count="445" stride="3">
              <param name="X" type="float"/>
              <param name="Y" type="float"/>
              <param name="Z" type="float"/>
            </accessor>
          </technique_common>
        </source>
        <vertices id="lift_fan-mesh-vertices">
          <input semantic="POSITION" source="#lift_fan-mesh-positions"/>
        </vertices>
        <triangles material="aluminium-material" count="440">
          <input semantic="VERTEX" source="#lift_fan-mesh-vertices" offset="0"/>
          <input semantic="NORMAL" source="#lift_fan-mesh-normals" offset="1"/>
          <p>69 0 63 1 71 2 39 3 30 4 38 5 189 6 0 7 185 8 71 2 62 9 70 10 29 11 39 3 37 12 21 13 25 14 17 15 67 16 58 17 59 18 34 19 24 20 26 21 29 11 33 22 25 14 65 23 59 18 57 24 35 25 26 21 27 26 37 12 41 27 33 22 62 9 52 28 60 29 25 14 35 25 27 26 45 30 49 31 41 27 55 32 62 9 63 1 30 4 20 33 28 34 53 35 57 24 49 31 53 35 63 1 61 36 31 37 22 38 30 4 61 36 65 23 57 24 58 17 48 39 50 40 21 13 31 37 29 11 69 0 73 41 65 23 51 42 58 17 50 40 18 43 24 20 16 44 77 45 81 46 73 41 57 24 51 42 49 31 27 26 18 43 19 47 85 48 89 49 81 46 46 50 52 28 54 51 17 15 27 26 19 47 93 52 97 53 89 49 55 32 46 50 54 51 22 38 12 54 20 33 101 55 105 56 97 53 45 30 55 32 53 35 23 57 14 58 22 38 109 59 113 60 105 56 42 61 48 39 40 62 13 63 23 57 21 13 117 64 121 65 113 60 51 42 42 61 43 66 18 43 8 67 10 68 125 69 129 70 121 65 49 31 43 66 41 27 19 47 10 68 11 71 133 72 137 73 129 70 38 5 44 74 46 50 9 75 19 47 11 71 141 76 145 77 137 73 39 3 46 50 47 78 14 58 4 79 12 54 149 80 153 81 145 77 37 12 47 78 45 30 15 82 6 83 14 58 157 84 161 85 153 81 34 19 40 62 32 86 5 87 15 82 13 63 165 88 169 89 161 85 35 25 42 61 34 19 10 68 1 90 2 91 173 92 177 93 169 89 33 22 43 66 35 25 11 71 2 91 3 94 181 95 185 8 177 93 13 63 17 15 9 75 0 7 11 71 3 94 66 96 56 97 58 17 38 5 28 34 36 98 148 99 84 100 20 33 5 87 9 75 0 7 70 10 60 29 68 101 73 41 67 16 65 23 67 16 74 102 66 96 66 96 72 103 64 104 77 45 71 2 79 105 71 2 78 106 79 105 70 10 76 107 78 106 81 46 75 108 73 41 75 108 82 109 74 102 74 102 80 110 72 103 85 48 79 105 87 111 79 105 86 112 87 111 86 112 76 107 84 100 89 49 83 113 81 46 83 113 90 114 82 109 82 109 88 115 80 110 93 52 87 111 95 116 87 111 94 117 95 116 86 112 92 118 94 117 97 53 91 119 89 49 91 119 98 120 90 114 90 114 96 121 88 115 101 55 95 116 103 122 95 116 102 123 103 122 94 117 100 124 102 123 97 53 107 125 99 126 107 125 98 120 99 126 106 127 96 121 98 120 101 55 111 128 109 59 111 128 102 123 110 129 110 129 100 124 108 130 105 56 115 131 107 125 115 131 106 127 107 125 114 132 104 133 106 127 109 59 119 134 117 64 119 134 110 129 118 135 118 135 108 130 116 136 113 60 123 137 115 131 123 137 114 132 115 131 114 132 120 138 112 139 117 64 127 140 125 69 127 140 118 135 126 141 126 141 116 136 124 142 129 70 123 137 121 65 123 137 130 143 122 144 130 143 120 138 122 144 133 72 127 140 135 145 127 140 134 146 135 145 134 146 124 142 132 147 129 70 139 148 131 149 131 149 138 150 130 143 138 150 128 151 130 143 133 72 143 152 141 76 135 145 142 153 143 152 142 153 132 147 140 154 137 73 147 155 139 148 139 148 146 156 138 150 138 150 144 157 136 158 141 76 151 159 149 80 143 152 150 160 151 159 142 153 148 99 150 160 153 81 147 155 145 77 155 161 146 156 147 155 154 162 144 157 146 156 157 84 151 159 159 163 159 163 150 160 158 164 158 164 148 99 156 165 161 85 155 161 153 81 163 166 154 162 155 161 154 162 160 167 152 168 165 88 159 163 167 169 167 169 158 164 166 170 158 164 164 171 166 170 161 85 171 172 163 166 171 172 162 173 163 166 162 173 168 174 160 167 165 88 175 175 173 92 175 175 166 170 174 176 166 170 172 177 174 176 177 93 171 172 169 89 171 172 178 178 170 179 170 179 176 180 168 174 181 95 175 175 183 181 175 175 182 182 183 181 182 182 172 177 180 183 185 8 179 184 177 93 179 184 186 185 178 178 178 178 184 186 176 180 189 6 183 181 191 187 183 181 190 188 191 187 182 182 188 189 190 188 0 7 187 190 185 8 187 190 2 91 186 185 186 185 1 90 184 186 5 87 191 187 7 191 191 187 6 83 7 191 190 188 4 79 6 83 56 97 120 138 184 186 193 192 194 193 192 194 194 193 197 195 196 196 197 195 198 197 196 196 199 198 200 199 198 197 200 199 203 200 202 201 202 201 205 202 204 203 205 202 206 204 204 203 206 204 209 205 208 206 209 205 210 207 208 206 210 207 213 208 212 209 213 208 214 210 212 209 215 211 216 212 214 210 216 212 219 213 218 214 218 214 221 215 220 216 201 217 197 217 213 217 221 215 222 218 220 216 222 218 193 192 192 194 210 219 214 219 222 220 69 0 61 36 63 1 39 3 31 37 30 4 189 6 5 87 0 7 71 2 63 1 62 9 29 11 31 37 39 3 21 13 29 11 25 14 67 16 66 96 58 17 34 19 32 86 24 20 29 11 37 12 33 22 65 23 67 16 59 18 35 25 34 19 26 21 37 12 45 30 41 27 62 9 54 51 52 28 25 14 33 22 35 25 45 30 53 35 49 31 55 32 54 51 62 9 30 4 22 38 20 33 53 35 61 36 57 24 53 35 55 32 63 1 31 37 23 57 22 38 61 36 69 0 65 23 58 17 56 97 48 39 21 13 23 57 31 37 69 0 77 45 73 41 51 42 59 18 58 17 18 43 26 21 24 20 77 45 85 48 81 46 57 24 59 18 51 42 27 26 26 21 18 43 85 48 93 52 89 49 46 50 44 74 52 28 17 15 25 14 27 26 93 52 101 55 97 53 55 32 47 78 46 50 22 38 14 58 12 54 101 55 109 59 105 56 45 30 47 78 55 32 23 57 15 82 14 58 109 59 117 64 113 60 42 61 50 40 48 39 13 63 15 82 23 57 117 64 125 69 121 65 51 42 50 40 42 61 18 43 16 44 8 67 125 69 133 72 129 70 49 31 51 42 43 66 19 47 18 43 10 68 133 72 141 76 137 73 38 5 36 98 44 74 9 75 17 15 19 47 141 76 149 80 145 77 39 3 38 5 46 50 14 58 6 83 4 79 149 80 157 84 153 81 37 12 39 3 47 78 15 82 7 191 6 83 157 84 165 88 161 85 34 19 42 61 40 62 5 87 7 191 15 82 165 88 173 92 169 89 35 25 43 66 42 61 10 68 8 67 1 90 173 92 181 95 177 93 33 22 41 27 43 66 11 71 10 68 2 91 181 95 189 6 185 8 13 63 21 13 17 15 0 7 9 75 11 71 66 96 64 104 56 97 38 5 30 4 28 34 20 33 12 54 4 79 4 79 188 189 180 183 180 183 172 177 148 99 172 177 164 171 148 99 164 171 156 165 148 99 148 99 140 154 132 147 132 147 124 142 148 99 124 142 116 136 148 99 116 136 108 130 100 124 100 124 92 118 84 100 84 100 76 107 68 101 68 101 60 29 84 100 60 29 52 28 84 100 52 28 44 74 20 33 44 74 36 98 20 33 36 98 28 34 20 33 20 33 4 79 180 183 116 136 100 124 84 100 20 33 180 183 148 99 148 99 116 136 84 100 84 100 52 28 20 33 5 87 13 63 9 75 70 10 62 9 60 29 73 41 75 108 67 16 67 16 75 108 74 102 66 96 74 102 72 103 77 45 69 0 71 2 71 2 70 10 78 106 70 10 68 101 76 107 81 46 83 113 75 108 75 108 83 113 82 109 74 102 82 109 80 110 85 48 77 45 79 105 79 105 78 106 86 112 86 112 78 106 76 107 89 49 91 119 83 113 83 113 91 119 90 114 82 109 90 114 88 115 93 52 85 48 87 111 87 111 86 112 94 117 86 112 84 100 92 118 97 53 99 126 91 119 91 119 99 126 98 120 90 114 98 120 96 121 101 55 93 52 95 116 95 116 94 117 102 123 94 117 92 118 100 124 97 53 105 56 107 125 107 125 106 127 98 120 106 127 104 133 96 121 101 55 103 122 111 128 111 128 103 122 102 123 110 129 102 123 100 124 105 56 113 60 115 131 115 131 114 132 106 127 114 132 112 139 104 133 109 59 111 128 119 134 119 134 111 128 110 129 118 135 110 129 108 130 113 60 121 65 123 137 123 137 122 144 114 132 114 132 122 144 120 138 117 64 119 134 127 140 127 140 119 134 118 135 126 141 118 135 116 136 129 70 131 149 123 137 123 137 131 149 130 143 130 143 128 151 120 138 133 72 125 69 127 140 127 140 126 141 134 146 134 146 126 141 124 142 129 70 137 73 139 148 131 149 139 148 138 150 138 150 136 158 128 151 133 72 135 145 143 152 135 145 134 146 142 153 142 153 134 146 132 147 137 73 145 77 147 155 139 148 147 155 146 156 138 150 146 156 144 157 141 76 143 152 151 159 143 152 142 153 150 160 142 153 140 154 148 99 153 81 155 161 147 155 155 161 154 162 146 156 154 162 152 168 144 157 157 84 149 80 151 159 159 163 151 159 150 160 158 164 150 160 148 99 161 85 163 166 155 161 163 166 162 173 154 162 154 162 162 173 160 167 165 88 157 84 159 163 167 169 159 163 158 164 158 164 156 165 164 171 161 85 169 89 171 172 171 172 170 179 162 173 162 173 170 179 168 174 165 88 167 169 175 175 175 175 167 169 166 170 166 170 164 171 172 177 177 93 179 184 171 172 171 172 179 184 178 178 170 179 178 178 176 180 181 95 173 92 175 175 175 175 174 176 182 182 182 182 174 176 172 177 185 8 187 190 179 184 179 184 187 190 186 185 178 178 186 185 184 186 189 6 181 95 183 181 183 181 182 182 190 188 182 182 180 183 188 189 0 7 3 94 187 190 187 190 3 94 2 91 186 185 2 91 1 90 5 87 189 6 191 187 191 187 190 188 6 83 190 188 188 189 4 79 184 186 1 90 24 20 1 90 8 67 24 20 8 67 16 44 24 20 24 20 32 86 40 62 40 62 48 39 56 97 56 97 64 104 72 103 72 103 80 110 88 115 88 115 96 121 104 133 104 133 112 139 120 138 120 138 128 151 136 158 136 158 144 157 120 138 144 157 152 168 120 138 152 168 160 167 168 174 168 174 176 180 184 186 24 20 40 62 184 186 40 62 56 97 184 186 56 97 72 103 88 115 88 115 104 133 56 97 104 133 120 138 56 97 152 168 168 174 120 138 168 174 184 186 120 138 193 192 195 381 194 193 194 193 195 381 197 195 197 195 199 198 198 197 199 198 201 382 200 199 200 199 201 382 203 200 202 201 203 200 205 202 205 202 207 383 206 204 206 204 207 383 209 205 209 205 211 384 210 207 210 207 211 384 213 208 213 208 215 211 214 210 215 211 217 385 216 212 216 212 217 385 219 213 218 214 219 213 221 215 197 217 195 217 193 217 193 217 223 217 221 217 221 217 219 217 217 217 217 217 215 217 213 217 213 217 211 217 209 217 209 217 207 217 205 217 205 217 203 217 201 217 201 217 199 217 197 217 197 217 193 217 221 217 221 217 217 217 197 217 217 217 213 217 197 217 213 217 209 217 205 217 205 217 201 217 213 217 221 215 223 386 222 218 222 218 223 386 193 192 222 220 192 219 194 219 194 219 196 219 198 219 198 219 200 219 206 387 200 219 202 388 206 387 202 388 204 389 206 387 206 387 208 219 210 219 210 219 212 219 214 219 214 219 216 219 222 220 216 219 218 390 222 220 218 390 220 391 222 220 222 220 194 219 206 387 194 219 198 219 206 387 206 387 210 219 222 220</p>
        </triangles>
        <triangles material="blade-material" count="108">
          <input semantic="VERTEX" source="#lift_fan-mesh-vertices" offset="0"/>
          <input semantic="NORMAL" source="#lift_fan-mesh-normals" offset="1"/>
          <p>224 221 226 222 225 223 228 224 230 224 231 224 224 225 229 226 228 227 225 228 230 229 229 230 226 231 231 232 230 233 227 234 228 235 231 236 232 237 234 238 233 239 236 240 238 241 239 242 232 243 237 244 236 245 233 246 238 247 237 248 234 249 239 250 238 251 235 252 236 253 239 254 243 255 241 256 240 257 244 258 246 259 247 260 240 261 245 262 244 263 241 264 246 265 245 266 242 267 247 268 246 269 243 270 244 271 247 272 251 273 249 274 248 275 252 276 254 277 255 278 248 279 253 280 252 281 249 282 254 283 253 284 250 285 255 286 254 287 251 288 252 289 255 290 259 291 257 292 256 293 260 294 262 295 263 296 256 297 261 298 260 299 257 300 262 301 261 302 258 303 263 304 262 305 259 306 260 307 263 308 267 309 265 310 264 311 268 312 270 313 271 314 264 315 269 316 268 317 265 318 270 319 269 320 266 321 271 322 270 323 267 324 268 325 271 326 275 327 273 328 272 329 276 330 278 331 279 332 272 333 277 334 276 335 273 336 278 337 277 338 274 339 279 340 278 341 275 342 276 343 279 344 283 345 281 346 280 347 284 348 286 349 287 350 280 351 285 352 284 353 281 354 286 355 285 356 282 357 287 358 286 359 283 360 284 361 287 362 288 363 290 364 289 365 292 366 294 367 295 368 288 369 293 370 292 371 289 372 294 373 293 374 290 375 295 376 294 377 291 378 292 379 295 380 224 221 227 392 226 222 228 224 229 224 230 224 224 225 225 393 229 226 225 228 226 394 230 229 226 231 227 395 231 232 227 234 224 396 228 235 232 237 235 397 234 238 236 240 237 398 238 241 232 243 233 399 237 244 233 246 234 400 238 247 234 249 235 401 239 250 235 252 232 402 236 253 243 255 242 403 241 256 244 258 245 404 246 259 240 261 241 405 245 262 241 264 242 406 246 265 242 267 243 407 247 268 243 270 240 408 244 271 251 273 250 409 249 274 252 276 253 410 254 277 248 279 249 411 253 280 249 282 250 412 254 283 250 285 251 413 255 286 251 288 248 414 252 289 259 291 258 415 257 292 260 294 261 416 262 295 256 297 257 417 261 298 257 300 258 418 262 301 258 303 259 419 263 304 259 306 256 420 260 307 267 309 266 421 265 310 268 312 269 422 270 313 264 315 265 423 269 316 265 318 266 424 270 319 266 321 267 425 271 322 267 324 264 426 268 325 275 327 274 427 273 328 276 330 277 428 278 331 272 333 273 429 277 334 273 336 274 430 278 337 274 339 275 431 279 340 275 342 272 432 276 343 283 345 282 433 281 346 284 348 285 434 286 349 280 351 281 435 285 352 281 354 282 436 286 355 282 357 283 437 287 358 283 360 280 438 284 361 288 363 291 439 290 364 292 366 293 440 294 367 288 369 289 441 293 370 289 372 290 442 294 373 290 375 291 443 295 376 291 378 288 444 292 379</p>
        </triangles>
      </mesh>
    </geometry>
  </library_geometries>
  <library_visual_scenes>
    <visual_scene id="Scene" name="Scene">
      <node id="lift_fan" name="lift_fan" type="NODE">
        <matrix sid="transform">1 0 0 0 0 1 0 0 0 0 1 0 0 0 0 1</matrix>
        <instance_geometry url="#lift_fan-mesh" name="lift_fan">
          <bind_material>
            <technique_common>
              <instance_material symbol="aluminium-material" target="#aluminium-material"/>
              <instance_material symbol="blade-material" target="#blade-material"/>
            </technique_common>
          </bind_material>
        </instance_geometry>
      </node>
    </visual_scene>
  </library_visual_scenes>
  <scene>
    <instance_visual_scene url="#Scene"/>
  </scene>
</COLLADA>