<?xml version="1.0" encoding="utf-8"?>
<COLLADA xmlns="http://www.collada.org/2005/11/COLLADASchema" version="1.4.1" xmlns:xsi="http://www.w3.org/2001/XMLSchema-instance">
  <asset>
    <contributor>
      <author>Blender User</author>
      <authoring_tool>Blender 4.2.0 commit date:2024-07-16, commit time:07:50, hash:bf738fd35afe</authoring_tool>
    </contributor>
    <created>2026-09-26T13:49:36</created>
    <modified>2026-09-26T13:49:36</modified>
    <unit name="meter" meter="1"/>
    <up_axis>Z_UP</up_axis>
  </asset>
  <library_effects>
    <effect id="olive-effect">
      <profile_COMMON>
        <technique sid="common">
          <lambert>
            <emission>
              <color sid="emission">0 0 0 1</color>
            </emission>
            <diffuse>
              <color sid="diffuse">0.115 0.135 0.04 1</color>
            </diffuse>
            <index_of_refraction>
              <float sid="ior">1.5</float>
            </index_of_refraction>
          </lambert>
        </technique>
      </profile_COMMON>
    </effect>
    <effect id="gunmetal-effect">
      <profile_COMMON>
        <technique sid="common">
          <lambert>
            <emission>
              <color sid="emission">0 0 0 1</color>
            </emission>
            <diffuse>
              <color sid="diffuse">0.045 0.047 0.05 1</color>
            </diffuse>
            <reflectivity>
              <float sid="specular">0.7</float>
            </reflectivity>
            <index_of_refraction>
              <float sid="ior">1.5</float>
            </index_of_refraction>
          </lambert>
        </technique>
      </profile_COMMON>
    </effect>
    <effect id="orange-effect">
      <profile_COMMON>
        <technique sid="common">
          <lambert>
            <emission>
              <color sid="emission">0 0 0 1</color>
            </emission>
            <diffuse>
              <color sid="diffuse">1 0.23 0.01 1</color>
            </diffuse>
            <index_of_refraction>
              <float sid="ior">1.5</float>
            </index_of_refraction>
          </lambert>
        </technique>
      </profile_COMMON>
    </effect>
  </library_effects>
  <library_images/>
  <library_materials>
    <material id="olive-material" name="olive">
      <instance_effect url="#olive-effect"/>
    </material>
    <material id="gunmetal-material" name="gunmetal">
      <instance_effect url="#gunmetal-effect"/>
    </material>
    <material id="orange-material" name="orange">
      <instance_effect url="#orange-effect"/>
    </material>
  </library_materials>
  <library_geometries>
    <geometry id="puff_bow_left-mesh" name="puff_bow_left">
      <mesh>
        <source id="puff_bow_left-mesh-positions">
          <float_array id="puff_bow_left-mesh-positions-array" count="552">-0.1269999 0 -0.06999999 -0.1269999 -0.00300002 -0.06699997 -0.1269999 -0.001498043 -0.06959921 -0.128498 0 -0.06959921 -0.1284346 -0.001434624 -0.06920987 -0.128498 -0.002599239 -0.06699997 -0.1269999 -0.002599239 -0.06849801 -0.1284346 -0.002209901 -0.06843459 -0.1295992 -0.001498043 -0.06699997 -0.1292098 -0.001434624 -0.06843459 -0.1269999 -0.00300002 0.06700003 -0.1299999 0 0.06700003 -0.1269999 -0.002599239 0.06849801 -0.128498 -0.002599239 0.06700003 -0.1284346 -0.002209901 0.06843465 -0.128498 0 0.06959921 -0.1269999 -0.001498043 0.06959921 -0.1284346 -0.001434624 0.06920987 -0.1295992 -0.001498043 0.06700003 -0.1292098 -0.001434624 0.06843465 -0.1299999 0 -0.06699997 -0.1269999 0.00300002 -0.06699997 -0.1269999 0.001498043 -0.06959921 -0.1284345 0.001434624 -0.06920987 -0.1295992 0.001498043 -0.06699997 -0.1295992 0 -0.06849801 -0.1292098 0.001434624 -0.06843459 -0.1269999 0.002599239 -0.06849801 -0.128498 0.002599239 -0.06699997 -0.1284345 0.002209901 -0.06843459 -0.1269999 0 0.06999999 -0.1269999 0.00300002 0.06700003 -0.1269999 0.001498043 0.06959921 -0.1284346 0.001434624 0.06920987 -0.128498 0.002599239 0.06700003 -0.1269999 0.002599239 0.06849801 -0.1284346 0.002209901 0.06843465 -0.1295992 0 0.06849801 -0.1295992 0.001498043 0.06700003 -0.1292098 0.001434624 0.06843465 0.1269999 -0.00300002 -0.06699997 0.1269999 -0.001498043 -0.06959921 0.1284345 -0.001434624 -0.06920987 0.1295992 -0.001498043 -0.06699997 0.1292098 -0.001434624 -0.06843459 0.1269999 -0.002599239 -0.06849801 0.128498 -0.002599239 -0.06699997 0.1284345 -0.002209901 -0.06843459 0.1269999 0 0.06999999 0.1269999 -0.00300002 0.06700003 0.1269999 -0.001498043 0.06959921 0.1284346 -0.001434624 0.06920987 0.128498 -0.002599239 0.06700003 0.1269999 -0.002599239 0.06849801 0.1284346 -0.002209901 0.06843465 0.1295992 -0.001498043 0.06700003 0.1292098 -0.001434624 0.06843465 0.1269999 0 -0.06999999 0.1269999 0.00300002 -0.06699997 0.1299999 0 -0.06699997 0.1269999 0.001498043 -0.06959921 0.128498 0 -0.06959921 0.1284346 0.001434624 -0.06920987 0.128498 0.002599239 -0.06699997 0.1269999 0.002599239 -0.06849801 0.1284346 0.002209901 -0.06843459 0.1295992 0 -0.06849801 0.1295992 0.001498043 -0.06699997 0.1292098 0.001434624 -0.06843459 0.1299999 0 0.06700003 0.1269999 0.00300002 0.06700003 0.128498 0 0.06959921 0.1269999 0.001498043 0.06959921 0.1284345 0.001434624 0.06920987 0.1295992 0.001498043 0.06700003 0.1295992 0 0.06849801 0.1292098 0.001434624 0.06843465 0.1269999 0.002599239 0.06849801 0.128498 0.002599239 0.06700003 0.1284345 0.002209901 0.06843465 0.1069999 0.002999961 -0.04500001 0.1069999 0 -0.04199999 0.104 0.002999961 -0.04199999 0.1069999 0.001501977 -0.04459917 0.105502 0.002999961 -0.04459917 0.1055653 0.001565337 -0.04420989 0.105502 4.00782e-4 -0.04199999 0.1069999 4.00782e-4 -0.04349803 0.1055653 7.9006e-4 -0.04343461 0.1044008 0.002999961 -0.04349803 0.1044008 0.001501977 -0.04199999 0.10479 0.001565337 -0.04343461 0.1069999 0 0.04199999 0.1069999 0.002999961 0.04500001 0.104 0.002999961 0.04199999 0.1069999 4.00782e-4 0.04349803 0.105502 4.00782e-4 0.04199999 0.1055653 7.9006e-4 0.04343461 0.105502 0.002999961 0.04459923 0.1069999 0.001501977 0.04459923 0.1055653 0.001565337 0.04420989 0.1044008 0.001501977 0.04199999 0.1044008 0.002999961 0.04349803 0.10479 0.001565337 0.04343461 0.1069999 0.009000003 -0.04500001 0.104 0.009000003 -0.04199999 0.1069999 0.01199996 -0.04199999 0.105502 0.009000003 -0.04459917 0.1069999 0.01049798 -0.04459917 0.1055653 0.01043462 -0.04420989 0.1044008 0.01049798 -0.04199999 0.1044008 0.009000003 -0.04349803 0.10479 0.01043462 -0.04343461 0.1069999 0.01159918 -0.04349803 0.105502 0.01159918 -0.04199999 0.1055653 0.0112099 -0.04343461 0.1069999 0.009000003 0.04500001 0.1069999 0.01199996 0.04199999 0.104 0.009000003 0.04199999 0.1069999 0.01049798 0.04459923 0.105502 0.009000003 0.04459923 0.1055653 0.01043462 0.04420989 0.105502 0.01159918 0.04199999 0.1069999 0.01159918 0.04349803 0.1055653 0.0112099 0.04343461 0.1044008 0.009000003 0.04349803 0.1044008 0.01049798 0.04199999 0.10479 0.01043462 0.04343461 0.113 0.002999961 -0.04500001 0.1159999 0.002999961 -0.04199999 0.113 0 -0.04199999 0.114498 0.002999961 -0.04459917 0.113 0.001501977 -0.04459917 0.1144346 0.001565337 -0.04420989 0.1155992 0.001501977 -0.04199999 0.1155992 0.002999961 -0.04349803 0.1152099 0.001565337 -0.04343461 0.113 4.00782e-4 -0.04349803 0.114498 4.00782e-4 -0.04199999 0.1144346 7.9006e-4 -0.04343461 0.113 0.002999961 0.04500001 0.113 0 0.04199999 0.1159999 0.002999961 0.04199999 0.113 0.001501977 0.04459923 0.114498 0.002999961 0.04459923 0.1144346 0.001565337 0.04420989 0.114498 4.00782e-4 0.04199999 0.113 4.00782e-4 0.04349803 0.1144346 7.9006e-4 0.04343461 0.1155992 0.002999961 0.04349803 0.1155992 0.001501977 0.04199999 0.1152099 0.001565337 0.04343461 0.113 0.009000003 -0.04500001 0.113 0.01199996 -0.04199999 0.1159999 0.009000003 -0.04199999 0.113 0.01049798 -0.04459917 0.114498 0.009000003 -0.04459917 0.1144346 0.01043462 -0.04420989 0.114498 0.01159918 -0.04199999 0.113 0.01159918 -0.04349803 0.1144346 0.0112099 -0.04343461 0.1155992 0.009000003 -0.04349803 0.1155992 0.01049798 -0.04199999 0.1152099 0.01043462 -0.04343461 0.113 0.009000003 0.04500001 0.1159999 0.009000003 0.04199999 0.113 0.01199996 0.04199999 0.114498 0.009000003 0.04459923 0.113 0.01049798 0.04459923 0.1144346 0.01043462 0.04420989 0.1155992 0.01049798 0.04199999 0.1155992 0.009000003 0.04349803 0.1152099 0.01043462 0.04343461 0.113 0.01159918 0.04349803 0.114498 0.01159918 0.04199999 0.1144346 0.0112099 0.04343461 -0.1299999 0.002499997 -0.06999999 -0.1299999 0.002499997 0.06999999 -0.1299999 0.004499971 -0.06999999 -0.1299999 0.004499971 0.06999999 -0.1 0.002499997 -0.06999999 -0.1 0.002499997 0.06999999 -0.1 0.004499971 -0.06999999 -0.1 0.004499971 0.06999999</float_array>
          <technique_common>
            <accessor source="#puff_bow_left-mesh-positions-array" count="184" stride="3">
              <param name="X" type="float"/>
              <param name="Y" type="float"/>
              <param name="Z" type="float"/>
            </accessor>
          </technique_common>
        </source>
        <source id="puff_bow_left-mesh-normals">
          <float_array id="puff_bow_left-mesh-normals-array" count="546">0.1279696 -0.9834868 0.1279747 -0.1279692 -0.9834873 -0.127972 0.1279688 -0.9834874 -0.1279708 -0.1279696 0.9834868 0.1279747 0.1279692 0.9834873 -0.127972 -0.1279688 0.9834874 -0.1279708 -0.1216018 -0.4915667 -0.862308 -0.4902986 1.01572e-5 -0.8715546 -0.1276506 3.94234e-7 -0.9918192 -0.4488583 -0.7726972 -0.4488489 -0.4488593 -0.4488347 -0.7727048 -0.4915656 -0.8623085 -0.1216039 -0.1216026 -0.8623078 -0.4915671 -0.8623097 -0.4915622 -0.1216083 -0.8715535 2.90282e-6 -0.4903005 -0.9918192 -3.74016e-7 -0.127651 -0.7727125 -0.4488377 -0.4488431 -0.1215991 -0.8623076 0.4915683 -0.4915635 -0.8623096 0.1216046 -0.1279692 -0.983487 0.1279735 -0.1216041 -0.4915655 0.8623085 -0.4488548 -0.7726928 0.4488599 -0.4902979 1.26702e-6 0.8715549 -0.1276506 -3.94234e-7 0.9918192 -0.8715524 -1.26965e-6 0.4903025 -0.4488603 -0.4488261 0.7727092 -0.862308 -0.4915652 0.1216087 -0.991819 3.79071e-7 0.127653 -0.7727077 -0.4488275 0.4488617 -0.121605 0.4915683 -0.8623066 -0.7726979 0.44885 -0.4488561 -0.4488456 0.4488461 -0.7727063 -0.8623068 0.4915665 -0.1216114 -0.4915669 0.8623066 -0.1216115 -0.1216055 0.8623076 -0.4915666 -0.4488442 0.7726996 -0.4488587 -0.1216039 0.4915651 0.8623087 -0.4488546 0.772693 0.4488597 -0.448856 0.4488292 0.7727099 -0.4915655 0.8623083 0.1216045 -0.1215991 0.8623074 0.4915686 -0.8623095 0.4915624 0.1216087 -0.7727075 0.4488234 0.4488663 0.4902986 -1.01572e-5 -0.8715545 0.121605 -0.4915683 -0.8623066 0.1276506 -3.94234e-7 -0.9918192 0.7726979 -0.44885 -0.4488561 0.4488456 -0.4488461 -0.7727063 0.8623068 -0.4915665 -0.1216114 0.8715535 -2.91072e-6 -0.4903005 0.9918192 3.7907e-7 -0.127651 0.4915669 -0.8623066 -0.1216115 0.1216055 -0.8623076 -0.4915666 0.4488442 -0.7726996 -0.4488587 0.1216039 -0.4915651 0.8623087 0.4902997 4.27519e-6 0.871554 0.1276506 3.94234e-7 0.9918192 0.4488546 -0.772693 0.4488597 0.448856 -0.4488292 0.7727099 0.4915655 -0.8623083 0.1216045 0.1215991 -0.8623074 0.4915686 0.8623095 -0.4915624 0.1216087 0.8715532 6.08488e-7 0.4903011 0.991819 -3.84126e-7 0.127653 0.7727075 -0.4488234 0.4488663 0.1216018 0.4915667 -0.862308 0.4488583 0.7726972 -0.4488489 0.4488593 0.4488347 -0.7727048 0.4915656 0.8623085 -0.1216039 0.1216026 0.8623078 -0.4915671 0.8623097 0.4915622 -0.1216083 0.7727125 0.4488377 -0.4488431 0.1216074 0.4915662 0.8623076 0.7726942 0.4488448 0.4488678 0.4488405 0.4488406 0.7727125 0.8623068 0.4915664 0.1216117 0.4915673 0.8623062 0.1216123 0.1216021 0.8623071 0.4915683 0.1279692 0.983487 0.1279735 0.4488416 0.7726944 0.4488704 0.1279747 -0.9834873 0.1279662 -0.1279745 -0.9834873 -0.1279668 0.1279733 -0.9834873 -0.1279678 0.983487 0.1279761 0.1279665 0.983487 -0.1279761 -0.1279665 0.983487 0.1279756 -0.1279681 -0.1279696 0.127972 0.9834871 0.1279696 -0.1279723 0.9834872 0.1279754 0.1279714 0.9834865 -0.9834867 -0.1279795 0.1279665 -0.9834867 0.1279795 -0.1279665 -0.983487 -0.1279757 -0.1279681 -0.1279745 0.9834871 0.1279671 0.1279747 0.9834873 -0.1279665 -0.127974 0.9834871 -0.1279683 -0.1216018 -0.4915695 -0.8623065 -0.4915653 -0.1216033 -0.8623086 -0.1279793 -0.1279813 -0.9834847 -0.1215992 -0.8623082 -0.4915673 -0.4488371 -0.4488368 -0.7727167 -0.4915686 -0.8623087 -0.1215904 -0.8623095 -0.4915669 -0.1215904 -0.448843 -0.7727151 -0.4488333 -0.8623052 -0.1216003 -0.4915722 -0.7727159 -0.4488373 -0.4488376 -0.1216033 -0.8623072 0.4915679 -0.4915689 -0.8623083 0.1215922 -0.127974 -0.9834871 0.1279684 -0.4488486 -0.448849 0.7727028 -0.4488447 -0.7727164 0.4488294 -0.4915716 -0.1216061 0.8623048 -0.121605 -0.4915643 0.862309 -0.1279754 -0.1279712 0.9834865 -0.8623105 -0.1216045 0.4915619 -0.8623078 -0.4915696 0.1215918 -0.772716 -0.4488477 0.4488273 -0.4915702 0.1216033 -0.8623058 -0.1216017 0.4915646 -0.8623092 -0.1279839 0.1279804 -0.9834842 -0.862308 0.1215999 -0.4915672 -0.4488369 0.4488369 -0.7727166 -0.8623085 0.491569 -0.12159 -0.4915684 0.8623086 -0.1215908 -0.7727164 0.4488398 -0.4488343 -0.1215994 0.8623052 -0.4915723 -0.4488387 0.7727156 -0.4488366 -0.1216052 0.4915693 0.8623061 -0.4915648 0.1216061 0.8623086 -0.1216034 0.8623098 0.4915635 -0.4488489 0.448849 0.7727028 -0.4915688 0.8623083 0.1215921 -0.8623092 0.4915673 0.1215922 -0.4488497 0.7727152 0.4488267 -0.8623071 0.1216044 0.4915677 -0.9834869 0.1279757 0.1279681 -0.7727163 0.4488437 0.4488307 0.4915705 -0.1216004 -0.8623061 0.1216017 -0.4915645 -0.8623093 0.1279839 -0.1279806 -0.9834842 0.8623082 -0.1215986 -0.4915673 0.4488369 -0.448837 -0.7727164 0.8623094 -0.4915675 -0.1215898 0.491567 -0.8623095 -0.12159 0.7727154 -0.4488425 -0.4488336 0.1215988 -0.8623056 -0.4915719 0.4488382 -0.7727169 -0.448835 0.1216049 -0.4915705 0.8623056 0.4915651 -0.1216043 0.8623086 0.1216028 -0.8623106 0.4915621 0.448849 -0.4488498 0.7727021 0.4915654 -0.8623104 0.1215911 0.862308 -0.4915692 0.1215922 0.4488481 -0.7727171 0.4488248 0.8623076 -0.1216015 0.4915677 0.983487 -0.1279756 0.1279681 0.7727179 -0.4488407 0.448831 0.1216017 0.4915693 -0.8623066 0.4915657 0.1216004 -0.8623089 0.1279793 0.1279815 -0.9834847 0.121599 0.862308 -0.4915675 0.4488371 0.4488371 -0.7727164 0.4915654 0.8623106 -0.1215897 0.8623077 0.4915702 -0.1215903 0.4488419 0.7727164 -0.4488322 0.8623052 0.1215994 -0.4915724 0.7727149 0.4488396 -0.4488372 0.4915718 0.1216043 0.8623048 0.1216048 0.4915658 0.8623082 0.8623106 0.1216019 0.4915622 0.4488487 0.44885 0.7727023 0.8623092 0.4915674 0.1215915 0.4915674 0.8623091 0.1215915 0.7727163 0.4488466 0.4488276 0.1216025 0.862308 0.4915667 0.1279733 0.9834873 0.1279678 0.4488441 0.7727175 0.4488282 -1 0 0 0 1 0 1 0 0 0 -1 0 0 0 -1 0 0 1</float_array>
          <technique_common>
            <accessor source="#puff_bow_left-mesh-normals-array" count="182" stride="3">
              <param name="X" type="float"/>
              <param name="Y" type="float"/>
              <param name="Z" type="float"/>
            </accessor>
          </technique_common>
        </source>
        <vertices id="puff_bow_left-mesh-vertices">
          <input semantic="POSITION" source="#puff_bow_left-mesh-positions"/>
        </vertices>
        <triangles material="olive-material" count="156">
          <input semantic="VERTEX" source="#puff_bow_left-mesh-vertices" offset="0"/>
          <input semantic="NORMAL" source="#puff_bow_left-mesh-normals" offset="1"/>
          <p>49 0 1 1 40 2 31 3 58 4 21 5 2 6 3 7 0 8 2 6 7 9 4 10 5 11 6 12 1 1 8 13 7 9 5 11 25 14 8 13 20 15 25 14 4 10 9 16 4 10 7 9 9 16 12 17 13 18 10 19 16 20 14 21 12 17 15 22 16 20 30 23 37 24 17 25 15 22 18 26 37 24 11 27 18 26 14 21 19 28 14 21 17 25 19 28 3 7 22 29 0 8 3 7 26 30 23 31 24 32 25 14 20 15 28 33 26 30 24 32 27 34 28 33 21 5 22 29 29 35 27 34 23 31 26 30 29 35 32 36 15 22 30 23 32 36 36 37 33 38 34 39 35 40 31 3 38 41 36 37 34 39 37 24 38 41 11 27 15 22 39 42 37 24 33 38 36 37 39 42 61 43 41 44 57 45 61 43 44 46 42 47 43 48 66 49 59 50 46 51 44 46 43 48 45 52 46 51 40 2 41 44 47 53 45 52 42 47 44 46 47 53 50 54 71 55 48 56 50 54 54 57 51 58 52 59 53 60 49 0 55 61 54 57 52 59 75 62 55 61 69 63 71 55 56 64 75 62 51 58 54 57 56 64 60 65 61 43 57 45 60 65 65 66 62 67 63 68 64 69 58 4 67 70 65 66 63 68 66 49 67 70 59 50 66 49 62 67 68 71 62 67 65 66 68 71 71 55 72 72 48 56 71 55 76 73 73 74 74 75 75 62 69 63 78 76 76 73 74 75 77 77 78 76 70 78 72 72 79 79 77 77 73 74 76 73 79 79 10 19 5 11 1 1 13 18 8 13 5 11 18 26 20 15 8 13 21 5 34 39 31 3 28 33 38 41 34 39 24 32 11 27 38 41 0 8 60 65 57 45 22 29 64 69 60 65 27 34 58 4 64 69 48 56 32 36 30 23 72 72 35 40 32 36 77 77 31 3 35 40 59 50 74 75 69 63 67 70 78 76 74 75 63 68 70 78 78 76 40 2 52 59 49 0 46 51 55 61 52 59 43 48 69 63 55 61 57 45 2 6 0 8 41 44 6 12 2 6 45 52 1 1 6 12 30 23 50 54 48 56 16 20 53 60 50 54 12 17 49 0 53 60 49 0 10 19 1 1 31 3 70 78 58 4 2 6 4 10 3 7 2 6 6 12 7 9 5 11 7 9 6 12 8 13 9 16 7 9 25 14 9 16 8 13 25 14 3 7 4 10 12 17 14 21 13 18 16 20 17 25 14 21 15 22 17 25 16 20 37 24 19 28 17 25 18 26 19 28 37 24 18 26 13 18 14 21 3 7 23 31 22 29 3 7 25 14 26 30 24 32 26 30 25 14 28 33 29 35 26 30 27 34 29 35 28 33 22 29 23 31 29 35 32 36 33 38 15 22 32 36 35 40 36 37 34 39 36 37 35 40 38 41 39 42 36 37 37 24 39 42 38 41 15 22 33 38 39 42 61 43 42 47 41 44 61 43 66 49 44 46 43 48 44 46 66 49 46 51 47 53 44 46 45 52 47 53 46 51 41 44 42 47 47 53 50 54 51 58 71 55 50 54 53 60 54 57 52 59 54 57 53 60 55 61 56 64 54 57 75 62 56 64 55 61 71 55 51 58 56 64 60 65 62 67 61 43 60 65 64 69 65 66 63 68 65 66 64 69 67 70 68 71 65 66 66 49 68 71 67 70 66 49 61 43 62 67 71 55 73 74 72 72 71 55 75 62 76 73 74 75 76 73 75 62 78 76 79 79 76 73 77 77 79 79 78 76 72 72 73 74 79 79 10 19 13 18 5 11 13 18 18 26 8 13 18 26 11 27 20 15 21 5 28 33 34 39 28 33 24 32 38 41 24 32 20 15 11 27 0 8 22 29 60 65 22 29 27 34 64 69 27 34 21 5 58 4 48 56 72 72 32 36 72 72 77 77 35 40 77 77 70 78 31 3 59 50 67 70 74 75 67 70 63 68 78 76 63 68 58 4 70 78 40 2 46 51 52 59 46 51 43 48 55 61 43 48 59 50 69 63 57 45 41 44 2 6 41 44 45 52 6 12 45 52 40 2 1 1 30 23 16 20 50 54 16 20 12 17 53 60 12 17 10 19 49 0</p>
        </triangles>
        <triangles material="gunmetal-material" count="188">
          <input semantic="VERTEX" source="#puff_bow_left-mesh-vertices" offset="0"/>
          <input semantic="NORMAL" source="#puff_bow_left-mesh-normals" offset="1"/>
          <p>141 80 81 81 130 82 165 83 129 84 154 85 116 86 140 87 164 88 94 89 105 90 82 91 117 92 153 93 106 94 83 95 84 96 80 97 87 98 85 99 83 95 86 100 87 98 81 81 90 101 88 102 86 100 89 103 90 101 82 91 89 103 85 99 91 104 85 99 88 102 91 104 95 105 96 106 92 107 95 105 100 108 97 109 98 110 99 111 93 112 102 113 100 108 98 110 101 114 102 113 94 89 96 106 103 115 101 114 97 109 100 108 103 115 107 116 108 117 104 118 111 119 109 120 107 116 110 121 111 119 105 90 114 122 112 123 110 121 113 124 114 122 106 94 113 124 109 120 115 125 109 120 112 123 115 125 119 126 120 127 116 86 123 128 121 129 119 126 122 130 123 128 117 92 126 131 124 132 122 130 125 133 126 131 118 134 125 133 121 129 127 135 121 129 124 132 127 135 131 136 132 137 128 138 135 139 133 140 131 136 134 141 135 139 129 84 138 142 136 143 134 141 137 144 138 142 130 82 137 144 133 140 139 145 133 140 136 143 139 145 143 146 144 147 140 87 147 148 145 149 143 146 146 150 147 148 141 80 150 151 148 152 146 150 149 153 150 151 142 154 149 153 145 149 151 155 145 149 148 152 151 155 155 156 156 157 152 158 159 159 157 160 155 156 158 161 159 159 153 93 162 162 160 163 158 161 161 164 162 162 154 85 161 164 157 160 163 165 157 160 160 163 163 165 167 166 168 167 164 88 171 168 169 169 167 166 170 170 171 168 165 83 174 171 172 172 170 170 173 173 174 171 166 174 173 173 169 169 175 175 169 169 172 172 175 175 80 97 107 116 104 118 84 96 111 119 107 116 89 103 105 90 111 119 92 107 86 100 81 81 96 106 90 101 86 100 101 114 82 91 90 101 116 86 98 110 93 112 120 127 102 113 98 110 125 133 94 89 102 113 106 94 122 130 117 92 114 122 126 131 122 130 110 121 118 134 126 131 104 118 155 156 152 158 108 117 159 159 155 156 113 124 153 93 159 159 164 88 119 126 116 86 168 167 123 128 119 126 173 173 117 92 123 128 154 85 170 170 165 83 162 162 174 171 170 170 158 161 166 174 174 171 152 158 131 136 128 138 156 157 135 139 131 136 161 164 129 84 135 139 140 87 167 166 164 88 144 147 171 168 167 166 149 153 165 83 171 168 130 82 146 150 141 80 138 142 150 151 146 150 134 141 142 154 150 151 128 138 83 95 80 97 132 137 87 98 83 95 137 144 81 81 87 98 93 112 143 146 140 87 99 111 147 148 143 146 95 105 141 80 147 148 152 158 80 97 104 118 141 80 92 107 81 81 165 83 142 154 129 84 116 86 93 112 140 87 94 89 118 134 105 90 117 92 166 174 153 93 83 95 85 99 84 96 87 98 88 102 85 99 86 100 88 102 87 98 90 101 91 104 88 102 89 103 91 104 90 101 89 103 84 96 85 99 95 105 97 109 96 106 95 105 99 111 100 108 98 110 100 108 99 111 102 113 103 115 100 108 101 114 103 115 102 113 96 106 97 109 103 115 107 116 109 120 108 117 111 119 112 123 109 120 110 121 112 123 111 119 114 122 115 125 112 123 113 124 115 125 114 122 113 124 108 117 109 120 119 126 121 129 120 127 123 128 124 132 121 129 122 130 124 132 123 128 126 131 127 135 124 132 125 133 127 135 126 131 125 133 120 127 121 129 131 136 133 140 132 137 135 139 136 143 133 140 134 141 136 143 135 139 138 142 139 145 136 143 137 144 139 145 138 142 137 144 132 137 133 140 143 146 145 149 144 147 147 148 148 152 145 149 146 150 148 152 147 148 150 151 151 155 148 152 149 153 151 155 150 151 149 153 144 147 145 149 155 156 157 160 156 157 159 159 160 163 157 160 158 161 160 163 159 159 162 162 163 165 160 163 161 164 163 165 162 162 161 164 156 157 157 160 167 166 169 169 168 167 171 168 172 172 169 169 170 170 172 172 171 168 174 171 175 175 172 172 173 173 175 175 174 171 173 173 168 167 169 169 80 97 84 96 107 116 84 96 89 103 111 119 89 103 82 91 105 90 92 107 96 106 86 100 96 106 101 114 90 101 101 114 94 89 82 91 116 86 120 127 98 110 120 127 125 133 102 113 125 133 118 134 94 89 106 94 114 122 122 130 114 122 110 121 126 131 110 121 105 90 118 134 104 118 108 117 155 156 108 117 113 124 159 159 113 124 106 94 153 93 164 88 168 167 119 126 168 167 173 173 123 128 173 173 166 174 117 92 154 85 162 162 170 170 162 162 158 161 174 171 158 161 153 93 166 174 152 158 156 157 131 136 156 157 161 164 135 139 161 164 154 85 129 84 140 87 144 147 167 166 144 147 149 153 171 168 149 153 142 154 165 83 130 82 138 142 146 150 138 142 134 141 150 151 134 141 129 84 142 154 128 138 132 137 83 95 132 137 137 144 87 98 137 144 130 82 81 81 93 112 99 111 143 146 99 111 95 105 147 148 95 105 92 107 141 80 152 158 128 138 80 97</p>
        </triangles>
        <triangles material="orange-material" count="12">
          <input semantic="VERTEX" source="#puff_bow_left-mesh-vertices" offset="0"/>
          <input semantic="NORMAL" source="#puff_bow_left-mesh-normals" offset="1"/>
          <p>177 176 178 176 176 176 179 177 182 177 178 177 183 178 180 178 182 178 181 179 176 179 180 179 182 180 176 180 178 180 179 181 181 181 183 181 177 176 179 176 178 176 179 177 183 177 182 177 183 178 181 178 180 178 181 179 177 179 176 179 182 180 180 180 176 180 179 181 177 181 181 181</p>
        </triangles>
      </mesh>
    </geometry>
  </library_geometries>
  <library_visual_scenes>
    <visual_scene id="Scene" name="Scene">
      <node id="puff_bow_left" name="puff_bow_left" type="NODE">
        <matrix sid="transform">1 0 0 0 0 1 0 0 0 0 1 0 0 0 0 1</matrix>
        <instance_geometry url="#puff_bow_left-mesh" name="puff_bow_left">
          <bind_material>
            <technique_common>
              <instance_material symbol="olive-material" target="#olive-material"/>
              <instance_material symbol="gunmetal-material" target="#gunmetal-material"/>
              <instance_material symbol="orange-material" target="#orange-material"/>
            </technique_common>
          </bind_material>
        </instance_geometry>
      </node>
    </visual_scene>
  </library_visual_scenes>
  <scene>
    <instance_visual_scene url="#Scene"/>
  </scene>
</COLLADA>