<?xml version="1.0" encoding="utf-8"?>
<COLLADA xmlns="http://www.collada.org/2005/11/COLLADASchema" version="1.4.1" xmlns:xsi="http://www.w3.org/2001/XMLSchema-instance">
  <asset>
    <contributor>
      <author>Blender User</author>
      <authoring_tool>Blender 4.2.0 commit date:2024-07-16, commit time:07:50, hash:bf738fd35afe</authoring_tool>
    </contributor>
    <created>2026-09-25T15:10:48</created>
    <modified>2026-09-25T15:10:48</modified>
    <unit name="meter" meter="1"/>
    <up_axis>Z_UP</up_axis>
  </asset>
  <library_effects>
    <effect id="dark_green-effect">
      <profile_COMMON>
        <technique sid="common">
          <lambert>
            <emission>
              <color sid="emission">0 0 0 1</color>
            </emission>
            <diffuse>
              <color sid="diffuse">0.035 0.055 0.022 1</color>
            </diffuse>
            <index_of_refraction>
              <float sid="ior">1.5</float>
            </index_of_refraction>
          </lambert>
        </technique>
      </profile_COMMON>
    </effect>
    <effect id="aluminium-effect">
      <profile_COMMON>
        <technique sid="common">
          <lambert>
            <emission>
              <color sid="emission">0 0 0 1</color>
            </emission>
            <diffuse>
              <color sid="diffuse">0.55 0.55 0.56 1</color>
            </diffuse>
            <reflectivity>
              <float sid="specular">1</float>
            </reflectivity>
            <index_of_refraction>
              <float sid="ior">1.5</float>
            </index_of_refraction>
          </lambert>
        </technique>
      </profile_COMMON>
    </effect>
  </library_effects>
  <library_images/>
  <library_materials>
    <material id="dark_green-material" name="dark_green">
      <instance_effect url="#dark_green-effect"/>
    </material>
    <material id="aluminium-material" name="aluminium">
      <instance_effect url="#aluminium-effect"/>
    </material>
  </library_materials>
  <library_geometries>
    <geometry id="rudder_right-mesh" name="rudder_right">
      <mesh>
        <source id="rudder_right-mesh-positions">
          <float_array id="rudder_right-mesh-positions-array" count="336">-0.08399999 -0.001999974 -0.25 -0.08399999 -0.005999982 -0.2459999 -0.08799993 -0.001999974 -0.2459999 -0.08399999 -0.003997385 -0.2494655 -0.08599734 -0.001999974 -0.2494655 -0.08591282 -0.003912806 -0.2489465 -0.08599734 -0.005465626 -0.2459999 -0.08399999 -0.005465626 -0.2479973 -0.08591282 -0.004946529 -0.2479128 -0.08746564 -0.001999974 -0.2479973 -0.08746564 -0.003997385 -0.2459999 -0.08694648 -0.003912806 -0.2479128 -0.08399999 -0.005999982 0.246 -0.08399999 -0.001999974 0.25 -0.08799993 -0.001999974 0.246 -0.08399999 -0.005465626 0.2479974 -0.08599734 -0.005465626 0.246 -0.08591282 -0.004946529 0.2479128 -0.08599734 -0.001999974 0.2494655 -0.08399999 -0.003997385 0.2494655 -0.08591282 -0.003912806 0.2489465 -0.08746564 -0.003997385 0.246 -0.08746564 -0.001999974 0.2479974 -0.08694648 -0.003912806 0.2479128 -0.08399999 0.001999974 -0.25 -0.08799993 0.001999974 -0.2459999 -0.08399999 0.005999982 -0.2459999 -0.08599734 0.001999974 -0.2494655 -0.08399999 0.003997385 -0.2494655 -0.08591282 0.003912806 -0.2489465 -0.08746564 0.003997385 -0.2459999 -0.08746564 0.001999974 -0.2479973 -0.08694648 0.003912806 -0.2479128 -0.08399999 0.005465626 -0.2479973 -0.08599734 0.005465626 -0.2459999 -0.08591282 0.004946529 -0.2479128 -0.08399999 0.001999974 0.25 -0.08399999 0.005999982 0.246 -0.08799993 0.001999974 0.246 -0.08399999 0.003997385 0.2494655 -0.08599734 0.001999974 0.2494655 -0.08591282 0.003912806 0.2489465 -0.08599734 0.005465626 0.246 -0.08399999 0.005465626 0.2479974 -0.08591282 0.004946529 0.2479128 -0.08746564 0.001999974 0.2479974 -0.08746564 0.003997385 0.246 -0.08694648 0.003912806 0.2479128 0.008000016 -0.001999974 -0.25 0.01199996 -0.001999974 -0.2459999 0.008000016 -0.005999982 -0.2459999 0.009997367 -0.001999974 -0.2494655 0.008000016 -0.003997385 -0.2494655 0.009912848 -0.003912806 -0.2489465 0.01146566 -0.003997385 -0.2459999 0.01146566 -0.001999974 -0.2479973 0.01094651 -0.003912806 -0.2479128 0.008000016 -0.005465626 -0.2479973 0.009997367 -0.005465626 -0.2459999 0.009912848 -0.004946529 -0.2479128 0.008000016 -0.001999974 0.25 0.008000016 -0.005999982 0.246 0.01199996 -0.001999974 0.246 0.008000016 -0.003997385 0.2494655 0.009997367 -0.001999974 0.2494655 0.009912848 -0.003912806 0.2489465 0.009997367 -0.005465626 0.246 0.008000016 -0.005465626 0.2479974 0.009912848 -0.004946529 0.2479128 0.01146566 -0.001999974 0.2479974 0.01146566 -0.003997385 0.246 0.01094651 -0.003912806 0.2479128 0.008000016 0.001999974 -0.25 0.008000016 0.005999982 -0.2459999 0.01199996 0.001999974 -0.2459999 0.008000016 0.003997385 -0.2494655 0.009997367 0.001999974 -0.2494655 0.009912848 0.003912806 -0.2489465 0.009997367 0.005465626 -0.2459999 0.008000016 0.005465626 -0.2479973 0.009912848 0.004946529 -0.2479128 0.01146566 0.001999974 -0.2479973 0.01146566 0.003997385 -0.2459999 0.01094651 0.003912806 -0.2479128 0.008000016 0.001999974 0.25 0.01199996 0.001999974 0.246 0.008000016 0.005999982 0.246 0.009997367 0.001999974 0.2494655 0.008000016 0.003997385 0.2494655 0.009912848 0.003912806 0.2489465 0.01146566 0.003997385 0.246 0.01146566 0.001999974 0.2479974 0.01094651 0.003912806 0.2479128 0.008000016 0.005465626 0.2479974 0.009997367 0.005465626 0.246 0.009912848 0.004946529 0.2479128 0 0.007999956 -0.27 0 0.007999956 0.27 0.005656838 0.005656838 -0.27 0.005656838 0.005656838 0.27 0.008000016 0 -0.27 0.008000016 0 0.27 0.005656838 -0.005656838 -0.27 0.005656838 -0.005656838 0.27 0 -0.007999956 -0.27 0 -0.007999956 0.27 -0.005656838 -0.005656838 -0.27 -0.005656838 -0.005656838 0.27 -0.008000016 0 -0.27 -0.008000016 0 0.27 -0.005656838 0.005656838 -0.27 -0.005656838 0.005656838 0.27</float_array>
          <technique_common>
            <accessor source="#rudder_right-mesh-positions-array" count="112" stride="3">
              <param name="X" type="float"/>
              <param name="Y" type="float"/>
              <param name="Z" type="float"/>
            </accessor>
          </technique_common>
        </source>
        <source id="rudder_right-mesh-normals">
          <float_array id="rudder_right-mesh-normals-array" count="384">0.1279731 -0.9834865 0.1279738 -0.1279724 -0.9834866 -0.1279735 0.1279728 -0.9834866 -0.1279728 0.9834919 0.1279524 0.1279532 0.9834919 -0.1279524 -0.1279526 0.983492 0.127952 -0.1279525 -0.1279756 0.1279779 0.9834856 0.1279756 -0.127978 0.9834856 0.1279767 0.127978 0.9834855 -0.9834917 -0.127954 0.1279532 -0.9834917 0.127954 -0.1279526 -0.9834921 -0.1279515 -0.1279525 -0.1279724 0.9834866 0.1279735 0.1279731 0.9834865 -0.1279738 -0.1279727 0.9834867 -0.1279725 -0.1216036 -0.4915722 -0.8623047 -0.4915655 -0.1216042 -0.8623084 -0.1279756 -0.1279779 -0.9834856 -0.4488467 -0.7727042 -0.4488484 -0.448853 -0.4488382 -0.7727065 -0.4915628 -0.8623093 -0.1216092 -0.1216024 -0.8623064 -0.4915697 -0.7726943 -0.4488546 -0.4488575 -0.862307 -0.1216074 -0.4915671 -0.8623082 -0.4915643 -0.121611 -0.1216036 -0.8623023 0.4915765 -0.4915642 -0.8623086 0.1216092 -0.1279727 -0.9834867 0.1279726 -0.1216033 -0.4915646 0.8623092 -0.4488481 -0.7726985 0.4488568 -0.4915635 -0.1216042 0.8623095 -0.1279767 -0.1279778 0.9834855 -0.772692 -0.4488514 0.4488649 -0.4488449 -0.4488295 0.7727162 -0.8623077 -0.491565 0.1216109 -0.8623052 -0.1216069 0.4915704 -0.4915725 0.1216043 -0.8623043 -0.1216043 0.4915736 -0.8623039 -0.1279767 0.1279778 -0.9834855 -0.7726942 0.4488548 -0.4488576 -0.4488544 0.4488379 -0.7727058 -0.8623079 0.4915648 -0.1216109 -0.8623099 0.1216073 -0.491562 -0.4915643 0.8623085 -0.1216092 -0.1216023 0.8623071 -0.4915683 -0.4488466 0.7727044 -0.4488483 -0.1216026 0.4915632 0.86231 -0.4915566 0.1216042 0.8623136 -0.4488482 0.7726984 0.448857 -0.4488434 0.4488298 0.7727169 -0.4915626 0.8623093 0.1216092 -0.1216036 0.8623014 0.491578 -0.7726922 0.4488512 0.4488648 -0.8623018 0.121607 0.4915766 -0.862308 0.4915645 0.121611 -0.9834918 0.1279516 0.1279543 0.4915725 -0.1216043 -0.8623044 0.1216043 -0.4915739 -0.8623036 0.1279767 -0.127978 -0.9834855 0.7726942 -0.4488548 -0.4488576 0.4488548 -0.4488371 -0.772706 0.8623082 -0.4915642 -0.1216109 0.8623099 -0.1216082 -0.4915619 0.4915637 -0.8623088 -0.1216092 0.1216024 -0.8623071 -0.4915683 0.4488465 -0.7727048 -0.4488478 0.1216025 -0.4915635 0.8623098 0.4915565 -0.1216039 0.8623136 0.4488479 -0.7726989 0.4488564 0.448844 -0.4488284 0.7727174 0.4915635 -0.8623089 0.1216092 0.1216036 -0.8623014 0.4915779 0.7726925 -0.4488508 0.4488648 0.8623017 -0.1216077 0.4915764 0.862308 -0.4915647 0.1216109 0.9834918 -0.127952 0.1279543 0.1216035 0.4915724 -0.8623045 0.4915655 0.1216043 -0.8623084 0.1279756 0.127978 -0.9834856 0.4488465 0.7727048 -0.4488478 0.4488533 0.4488373 -0.7727068 0.4915637 0.8623089 -0.1216092 0.1216023 0.8623063 -0.4915696 0.7726943 0.4488547 -0.4488575 0.862307 0.1216084 -0.491567 0.8623081 0.4915645 -0.1216109 0.4915636 0.121604 0.8623095 0.1216033 0.4915649 0.8623089 0.7726921 0.4488509 0.4488651 0.4488455 0.4488282 0.7727167 0.8623081 0.4915644 0.1216109 0.8623052 0.1216077 0.4915702 0.4915635 0.8623089 0.1216093 0.1216037 0.8623023 0.4915766 0.1279728 0.9834867 0.1279728 0.4488479 0.7726988 0.4488564 0.3826805 0.9238808 0 0.3826805 0.9238808 0 0.923878 0.3826872 0 0.923878 0.3826871 0 0.9238781 0.3826871 0 0.923878 -0.3826871 0 0.923878 -0.3826872 0 0.9238781 -0.3826872 0 0.3826805 -0.9238808 0 0.3826805 -0.9238808 0 -0.3826805 -0.9238808 0 -0.3826805 -0.9238808 0 -0.923878 -0.3826872 0 -0.923878 -0.3826871 0 -0.9238781 -0.3826871 0 -7.31839e-7 0 1 7.31864e-7 0 1 7.31839e-7 0 1 -0.923878 0.3826871 0 -0.923878 0.3826872 0 -0.9238781 0.3826872 0 -0.3826805 0.9238808 0 -0.3826805 0.9238808 0 0 0 -1 0.9238781 0.3826872 0 0.9238781 -0.3826871 0 -0.9238781 -0.3826872 0 -7.31864e-7 0 1 -4.39143e-6 0 1 0 0 1 4.39143e-6 0 1 -0.9238781 0.3826871 0</float_array>
          <technique_common>
            <accessor source="#rudder_right-mesh-normals-array" count="128" stride="3">
              <param name="X" type="float"/>
              <param name="Y" type="float"/>
              <param name="Z" type="float"/>
            </accessor>
          </technique_common>
        </source>
        <vertices id="rudder_right-mesh-vertices">
          <input semantic="POSITION" source="#rudder_right-mesh-positions"/>
        </vertices>
        <triangles material="dark_green-material" count="188">
          <input semantic="VERTEX" source="#rudder_right-mesh-vertices" offset="0"/>
          <input semantic="NORMAL" source="#rudder_right-mesh-normals" offset="1"/>
          <p>61 0 1 1 50 2 85 3 49 4 74 5 36 6 60 7 84 8 14 9 25 10 2 11 37 12 73 13 26 14 3 15 4 16 0 17 3 15 8 18 5 19 6 20 7 21 1 1 6 20 11 22 8 18 9 23 10 24 2 11 4 16 11 22 9 23 5 19 8 18 11 22 15 25 16 26 12 27 19 28 17 29 15 25 18 30 19 28 13 31 18 30 23 32 20 33 21 34 22 35 14 9 16 26 23 32 21 34 17 29 20 33 23 32 27 36 28 37 24 38 27 36 32 39 29 40 30 41 31 42 25 10 34 43 32 39 30 41 33 44 34 43 26 14 28 37 35 45 33 44 29 40 32 39 35 45 39 46 40 47 36 6 39 46 44 48 41 49 42 50 43 51 37 12 42 50 47 52 44 48 45 53 46 54 38 55 40 47 47 52 45 53 41 49 44 48 47 52 51 56 52 57 48 58 51 56 56 59 53 60 54 61 55 62 49 4 58 63 56 59 54 61 57 64 58 63 50 2 52 57 59 65 57 64 53 60 56 59 59 65 63 66 64 67 60 7 63 66 68 68 65 69 66 70 67 71 61 0 66 70 71 72 68 68 69 73 70 74 62 75 64 67 71 72 69 73 65 69 68 68 71 72 75 76 76 77 72 78 75 76 80 79 77 80 78 81 79 82 73 13 78 81 83 83 80 79 81 84 82 85 74 5 76 77 83 83 81 84 77 80 80 79 83 83 87 86 88 87 84 8 87 86 92 88 89 89 90 90 91 91 85 3 94 92 92 88 90 90 93 93 94 92 86 94 88 87 95 95 93 93 89 89 92 88 95 95 0 17 27 36 24 38 4 16 31 42 27 36 9 23 25 10 31 42 12 27 6 20 1 1 16 26 10 24 6 20 21 34 2 11 10 24 36 6 18 30 13 31 40 47 22 35 18 30 45 53 14 9 22 35 26 14 42 50 37 12 34 43 46 54 42 50 30 41 38 55 46 54 24 38 75 76 72 78 28 37 79 82 75 76 33 44 73 13 79 82 84 8 39 46 36 6 88 87 43 51 39 46 93 93 37 12 43 51 74 5 90 90 85 3 82 85 94 92 90 90 78 81 86 94 94 92 72 78 51 56 48 58 76 77 55 62 51 56 81 84 49 4 55 62 60 7 87 86 84 8 64 67 91 91 87 86 69 73 85 3 91 91 50 2 66 70 61 0 58 63 70 74 66 70 54 61 62 75 70 74 48 58 3 15 0 17 52 57 7 21 3 15 57 64 1 1 7 21 13 31 63 66 60 7 19 28 67 71 63 66 15 25 61 0 67 71 72 78 0 17 24 38 61 0 12 27 1 1 85 3 62 75 49 4 36 6 13 31 60 7 14 9 38 55 25 10 37 12 86 94 73 13 3 15 5 19 4 16 3 15 7 21 8 18 6 20 8 18 7 21 6 20 10 24 11 22 9 23 11 22 10 24 4 16 5 19 11 22 15 25 17 29 16 26 19 28 20 33 17 29 18 30 20 33 19 28 18 30 22 35 23 32 21 34 23 32 22 35 16 26 17 29 23 32 27 36 29 40 28 37 27 36 31 42 32 39 30 41 32 39 31 42 34 43 35 45 32 39 33 44 35 45 34 43 28 37 29 40 35 45 39 46 41 49 40 47 39 46 43 51 44 48 42 50 44 48 43 51 42 50 46 54 47 52 45 53 47 52 46 54 40 47 41 49 47 52 51 56 53 60 52 57 51 56 55 62 56 59 54 61 56 59 55 62 58 63 59 65 56 59 57 64 59 65 58 63 52 57 53 60 59 65 63 66 65 69 64 67 63 66 67 71 68 68 66 70 68 68 67 71 66 70 70 74 71 72 69 73 71 72 70 74 64 67 65 69 71 72 75 76 77 80 76 77 75 76 79 82 80 79 78 81 80 79 79 82 78 81 82 85 83 83 81 84 83 83 82 85 76 77 77 80 83 83 87 86 89 89 88 87 87 86 91 91 92 88 90 90 92 88 91 91 94 92 95 95 92 88 93 93 95 95 94 92 88 87 89 89 95 95 0 17 4 16 27 36 4 16 9 23 31 42 9 23 2 11 25 10 12 27 16 26 6 20 16 26 21 34 10 24 21 34 14 9 2 11 36 6 40 47 18 30 40 47 45 53 22 35 45 53 38 55 14 9 26 14 34 43 42 50 34 43 30 41 46 54 30 41 25 10 38 55 24 38 28 37 75 76 28 37 33 44 79 82 33 44 26 14 73 13 84 8 88 87 39 46 88 87 93 93 43 51 93 93 86 94 37 12 74 5 82 85 90 90 82 85 78 81 94 92 78 81 73 13 86 94 72 78 76 77 51 56 76 77 81 84 55 62 81 84 74 5 49 4 60 7 64 67 87 86 64 67 69 73 91 91 69 73 62 75 85 3 50 2 58 63 66 70 58 63 54 61 70 74 54 61 49 4 62 75 48 58 52 57 3 15 52 57 57 64 7 21 57 64 50 2 1 1 13 31 19 28 63 66 19 28 15 25 67 71 15 25 12 27 61 0 72 78 48 58 0 17</p>
        </triangles>
        <triangles material="aluminium-material" count="28">
          <input semantic="VERTEX" source="#rudder_right-mesh-vertices" offset="0"/>
          <input semantic="NORMAL" source="#rudder_right-mesh-normals" offset="1"/>
          <p>97 96 98 96 96 97 99 98 100 99 98 100 101 101 102 102 100 103 103 104 104 104 102 105 105 106 106 106 104 107 107 108 108 109 106 110 97 111 109 112 105 113 109 114 110 115 108 116 111 117 96 117 110 118 106 119 108 119 110 119 97 96 99 97 98 96 99 98 101 120 100 99 101 101 103 121 102 102 103 104 105 105 104 104 105 106 107 107 106 106 107 108 109 122 108 109 101 123 99 124 97 111 97 111 111 125 109 112 109 112 107 126 105 113 105 113 103 125 101 123 101 123 97 111 105 113 109 114 111 127 110 115 111 117 97 118 96 117 110 119 96 119 102 119 96 119 98 119 102 119 98 119 100 119 102 119 102 119 104 119 110 119 104 119 106 119 110 119</p>
        </triangles>
      </mesh>
    </geometry>
  </library_geometries>
  <library_visual_scenes>
    <visual_scene id="Scene" name="Scene">
      <node id="rudder_right" name="rudder_right" type="NODE">
        <matrix sid="transform">1 0 0 0 0 1 0 0 0 0 1 0 0 0 0 1</matrix>
        <instance_geometry url="#rudder_right-mesh" name="rudder_right">
          <bind_material>
            <technique_common>
              <instance_material symbol="dark_green-material" target="#dark_green-material"/>
              <instance_material symbol="aluminium-material" target="#aluminium-material"/>
            </technique_common>
          </bind_material>
        </instance_geometry>
      </node>
    </visual_scene>
  </library_visual_scenes>
  <scene>
    <instance_visual_scene url="#Scene"/>
  </scene>
</COLLADA>