<?xml version="1.0" encoding="utf-8"?>
<COLLADA xmlns="http://www.collada.org/2005/11/COLLADASchema" version="1.4.1" xmlns:xsi="http://www.w3.org/2001/XMLSchema-instance">
  <asset>
    <contributor>
      <author>Blender User</author>
      <authoring_tool>Blender 4.2.0 commit date:2024-07-16, commit time:07:50, hash:bf738fd35afe</authoring_tool>
    </contributor>
    <created>2026-09-25T15:10:48</created>
    <modified>2026-09-25T15:10:48</modified>
    <unit name="meter" meter="1"/>
    <up_axis>Z_UP</up_axis>
  </asset>
  <library_effects>
    <effect id="aluminium-effect">
      <profile_COMMON>
        <technique sid="common">
          <lambert>
            <emission>
              <color sid="emission">0 0 0 1</color>
            </emission>
            <diffuse>
              <color sid="diffuse">0.55 0.55 0.56 1</color>
            </diffuse>
            <reflectivity>
              <float sid="specular">1</float>
            </reflectivity>
            <index_of_refraction>
              <float sid="ior">1.5</float>
            </index_of_refraction>
          </lambert>
        </technique>
      </profile_COMMON>
    </effect>
    <effect id="blade-effect">
      <profile_COMMON>
        <technique sid="common">
          <lambert>
            <emission>
              <color sid="emission">0 0 0 1</color>
            </emission>
            <diffuse>
              <color sid="diffuse">0.03 0.03 0.032 1</color>
            </diffuse>
            <index_of_refraction>
              <float sid="ior">1.5</float>
            </index_of_refraction>
          </lambert>
        </technique>
      </profile_COMMON>
    </effect>
  </library_effects>
  <library_images/>
  <library_materials>
    <material id="aluminium-material" name="aluminium">
      <instance_effect url="#aluminium-effect"/>
    </material>
    <material id="blade-material" name="blade">
      <instance_effect url="#blade-effect"/>
    </material>
  </library_materials>
  <library_geometries>
    <geometry id="thrust_fan_left-mesh" name="thrust_fan_left">
      <mesh>
        <source id="thrust_fan_left-mesh-positions">
          <float_array id="thrust_fan_left-mesh-positions-array" count="840">-0.01899999 0.055 0 -0.02499997 0.04894822 0 -0.02419614 0.05197411 0 -0.02200001 0.0541892 0 0.02499997 0.04894822 0 0.01899999 0.055 0 0.02419614 0.05197411 0 0.02200001 0.0541892 0 -0.02499997 0.04728031 -0.01266872 -0.01899999 0.05312591 -0.01423501 -0.02419614 0.05020314 -0.01345193 -0.02200001 0.05234277 -0.01402521 0.02499997 0.04728031 -0.01266872 0.01899999 0.05312591 -0.01423501 0.02419614 0.05020314 -0.01345193 0.02200001 0.05234277 -0.01402521 -0.02499997 0.0423904 -0.02447414 -0.01899999 0.04763138 -0.02750003 -0.02419614 0.04501086 -0.02598702 -0.02200001 0.04692924 -0.0270946 0.02499997 0.0423904 -0.02447414 0.01899999 0.04763138 -0.02750003 0.02419614 0.04501086 -0.02598702 0.02200001 0.04692924 -0.0270946 -0.02499997 0.03461158 -0.03461164 -0.01899999 0.03889083 -0.03889089 -0.02419614 0.03675121 -0.03675127 -0.02200001 0.03831756 -0.03831756 0.02499997 0.03461158 -0.03461164 0.01899999 0.03889083 -0.03889089 0.02419614 0.03675121 -0.03675127 0.02200001 0.03831756 -0.03831756 -0.02499997 0.02447408 -0.0423904 -0.01899999 0.02749997 -0.04763138 -0.02419614 0.02598702 -0.04501092 -0.02200001 0.0270946 -0.04692924 0.02499997 0.02447408 -0.0423904 0.01899999 0.02749997 -0.04763138 0.02419614 0.02598702 -0.04501092 0.02200001 0.0270946 -0.04692924 -0.02499997 0.01266872 -0.04728037 -0.01899999 0.01423501 -0.05312591 -0.02419614 0.01345187 -0.05020314 -0.02200001 0.01402521 -0.05234277 0.02499997 0.01266872 -0.04728037 0.01899999 0.01423501 -0.05312591 0.02419614 0.01345187 -0.05020314 0.02200001 0.01402521 -0.05234277 -0.02499997 0 -0.04894822 -0.01899999 0 -0.055 -0.02419614 0 -0.05197411 -0.02200001 0 -0.0541892 0.02499997 0 -0.04894822 0.01899999 0 -0.055 0.02419614 0 -0.05197411 0.02200001 0 -0.0541892 -0.02499997 -0.01266872 -0.04728037 -0.01899999 -0.01423501 -0.05312591 -0.02419614 -0.01345187 -0.05020314 -0.02200001 -0.01402521 -0.05234277 0.02499997 -0.01266872 -0.04728037 0.01899999 -0.01423501 -0.05312591 0.02419614 -0.01345187 -0.05020314 0.02200001 -0.01402521 -0.05234277 -0.02499997 -0.02447408 -0.0423904 -0.01899999 -0.02749997 -0.04763138 -0.02419614 -0.02598702 -0.04501092 -0.02200001 -0.0270946 -0.04692924 0.02499997 -0.02447408 -0.0423904 0.01899999 -0.02749997 -0.04763138 0.02419614 -0.02598702 -0.04501092 0.02200001 -0.0270946 -0.04692924 -0.02499997 -0.03461158 -0.03461164 -0.01899999 -0.03889083 -0.03889089 -0.02419614 -0.03675121 -0.03675127 -0.02200001 -0.03831756 -0.03831756 0.02499997 -0.03461158 -0.03461164 0.01899999 -0.03889083 -0.03889089 0.02419614 -0.03675121 -0.03675127 0.02200001 -0.03831756 -0.03831756 -0.02499997 -0.0423904 -0.02447414 -0.01899999 -0.04763138 -0.02750003 -0.02419614 -0.04501086 -0.02598702 -0.02200001 -0.04692924 -0.0270946 0.02499997 -0.0423904 -0.02447414 0.01899999 -0.04763138 -0.02750003 0.02419614 -0.04501086 -0.02598702 0.02200001 -0.04692924 -0.0270946 -0.02499997 -0.04728031 -0.01266872 -0.01899999 -0.05312591 -0.01423501 -0.02419614 -0.05020314 -0.01345193 -0.02200001 -0.05234277 -0.01402521 0.02499997 -0.04728031 -0.01266872 0.01899999 -0.05312591 -0.01423501 0.02419614 -0.05020314 -0.01345193 0.02200001 -0.05234277 -0.01402521 -0.02499997 -0.04894822 0 -0.01899999 -0.055 0 -0.02419614 -0.05197411 0 -0.02200001 -0.0541892 0 0.02499997 -0.04894822 0 0.01899999 -0.055 0 0.02419614 -0.05197411 0 0.02200001 -0.0541892 0 -0.02499997 -0.04728031 0.01266872 -0.01899999 -0.05312591 0.01423501 -0.02419614 -0.05020314 0.01345193 -0.02200001 -0.05234277 0.01402521 0.02499997 -0.04728031 0.01266872 0.01899999 -0.05312591 0.01423501 0.02419614 -0.05020314 0.01345193 0.02200001 -0.05234277 0.01402521 -0.02499997 -0.0423904 0.02447414 -0.01899999 -0.04763138 0.02750003 -0.02419614 -0.04501086 0.02598702 -0.02200001 -0.04692924 0.0270946 0.02499997 -0.0423904 0.02447414 0.01899999 -0.04763138 0.02750003 0.02419614 -0.04501086 0.02598702 0.02200001 -0.04692924 0.0270946 -0.02499997 -0.03461158 0.03461158 -0.01899999 -0.03889083 0.03889083 -0.02419614 -0.03675121 0.03675127 -0.02200001 -0.03831756 0.03831756 0.02499997 -0.03461158 0.03461158 0.01899999 -0.03889083 0.03889083 0.02419614 -0.03675121 0.03675127 0.02200001 -0.03831756 0.03831756 -0.02499997 -0.02447408 0.04239046 -0.01899999 -0.02749997 0.04763138 -0.02419614 -0.02598702 0.04501092 -0.02200001 -0.0270946 0.04692924 0.02499997 -0.02447408 0.04239046 0.01899999 -0.02749997 0.04763138 0.02419614 -0.02598702 0.04501092 0.02200001 -0.0270946 0.04692924 -0.02499997 -0.01266872 0.04728031 -0.01899999 -0.01423501 0.05312585 -0.02419614 -0.01345187 0.05020308 -0.02200001 -0.01402521 0.05234277 0.02499997 -0.01266872 0.04728031 0.01899999 -0.01423501 0.05312597 0.02419614 -0.01345187 0.05020308 0.02200001 -0.01402521 0.05234277 -0.02499997 0 0.04894816 -0.01899999 0 0.05499994 -0.02419614 0 0.05197405 -0.02200001 0 0.0541892 0.02499997 0 0.04894816 0.01899999 0 0.05499994 0.02419614 0 0.05197405 0.02200001 0 0.0541892 -0.02499997 0.01266872 0.04728031 -0.01899999 0.01423501 0.05312585 -0.02419614 0.01345187 0.05020308 -0.02200001 0.01402521 0.05234277 0.02499997 0.01266872 0.04728031 0.01899999 0.01423501 0.05312597 0.02419614 0.01345187 0.05020308 0.02200001 0.01402521 0.05234277 -0.02499997 0.02447408 0.04239046 -0.01899999 0.02749997 0.04763138 -0.02419614 0.02598702 0.04501092 -0.02200001 0.0270946 0.04692924 0.02499997 0.02447408 0.04239046 0.01899999 0.02749997 0.04763138 0.02419614 0.02598702 0.04501092 0.02200001 0.0270946 0.04692924 -0.02499997 0.03461158 0.03461158 -0.01899999 0.03889083 0.03889083 -0.02419614 0.03675121 0.03675127 -0.02200001 0.03831756 0.03831756 0.02499997 0.03461158 0.03461158 0.01899999 0.03889083 0.03889083 0.02419614 0.03675121 0.03675127 0.02200001 0.03831756 0.03831756 -0.02499997 0.0423904 0.02447414 -0.01899999 0.04763138 0.02750003 -0.02419614 0.04501086 0.02598702 -0.02200001 0.04692924 0.0270946 0.02499997 0.0423904 0.02447414 0.01899999 0.04763138 0.02750003 0.02419614 0.04501086 0.02598702 0.02200001 0.04692924 0.0270946 -0.02499997 0.04728031 0.01266872 -0.01899999 0.05312591 0.01423501 -0.02419614 0.05020314 0.01345193 -0.02200001 0.05234277 0.01402521 0.02499997 0.04728031 0.01266872 0.01899999 0.05312591 0.01423501 0.02419614 0.05020314 0.01345193 0.02200001 0.05234277 0.01402521 0.02500003 0.05000001 0 0.06499999 0.01199996 0 0.02500003 0.04619395 -0.01913416 0.06499999 0.01108652 -0.00459218 0.02500003 0.03535532 -0.03535532 0.06499999 0.008485257 -0.008485317 0.02500003 0.01913416 -0.04619395 0.06499999 0.00459218 -0.01108658 0.02500003 0 -0.05000001 0.06499999 0 -0.01199996 0.02500003 -0.01913416 -0.04619395 0.06499999 -0.00459218 -0.01108658 0.02500003 -0.03535532 -0.03535532 0.06499999 -0.008485257 -0.008485317 0.02500003 -0.04619395 -0.01913416 0.06499999 -0.01108652 -0.00459218 0.02500003 -0.05000001 0 0.06499999 -0.01199996 0 0.02500003 -0.04619395 0.01913416 0.06499999 -0.01108652 0.00459218 0.02500003 -0.03535532 0.03535532 0.06499999 -0.008485257 0.008485317 0.02500003 -0.01913416 0.04619395 0.06499999 -0.00459218 0.01108658 0.02500003 0 0.04999995 0.06499999 0 0.01199996 0.02500003 0.01913416 0.04619395 0.06499999 0.00459218 0.01108658 0.02500003 0.03535532 0.03535532 0.06499999 0.008485257 0.008485317 0.02500003 0.04619395 0.01913416 0.06499999 0.01108652 0.00459218 -0.02723854 -0.03604245 -0.05000001 0.02045416 0.04028183 -0.05000001 0.02723854 0.03604245 -0.05000001 -0.02045416 -0.04028183 -0.05000001 -0.01439249 -0.02662432 -0.25 0.0069139 0.02946519 -0.25 0.01439255 0.02662432 -0.25 -0.0069139 -0.02946519 -0.25 -0.02723854 0.01661944 -0.05935364 0.02045416 0.06420689 3.19123e-4 0.02723854 0.06156367 -0.002995371 -0.02045416 0.01397627 -0.06266808 -0.01439249 0.1788579 -0.1766881 0.0069139 0.2138291 -0.1328356 0.01439249 0.2120579 -0.1350566 -0.0069139 0.1770866 -0.1789092 -0.02723854 0.05676656 -0.0240128 0.02045416 0.03978282 0.05039799 0.02723854 0.04072618 0.04626488 -0.02045416 0.05770993 -0.02814579 -0.01439249 0.2496564 0.02967345 0.0069139 0.2371754 0.08435666 0.01439249 0.2378075 0.08158707 -0.0069139 0.2502886 0.02690374 -0.02723854 0.05416733 0.02941024 0.02045416 -0.01459848 0.0625261 0.02723854 -0.01077896 0.0606867 -0.02045416 0.05798685 0.02757084 -0.01439255 0.1324586 0.2136902 0.0069139 0.08192372 0.2380267 0.01439249 0.0844832 0.2367941 -0.0069139 0.1350181 0.2124577 -0.02723854 0.01077896 0.0606867 0.02045416 -0.05798685 0.02757084 0.02723854 -0.05416733 0.02941024 -0.02045416 0.01459848 0.0625261 -0.01439255 -0.08448314 0.2367941 0.0069139 -0.1350181 0.2124577 0.01439249 -0.1324585 0.2136904 -0.0069139 -0.0819236 0.2380267 -0.02723854 -0.04072618 0.04626488 0.02045416 -0.05770993 -0.02814579 0.02723854 -0.05676656 -0.0240128 -0.02045416 -0.03978282 0.05039799 -0.01439249 -0.2378075 0.08158707 0.0069139 -0.2502886 0.02690374 0.01439249 -0.2496564 0.02967345 -0.0069139 -0.2371753 0.08435666 -0.02723854 -0.06156367 -0.002995252 0.02045416 -0.01397627 -0.06266808 0.02723854 -0.01661944 -0.05935364 -0.02045416 -0.06420689 3.19123e-4 -0.01439249 -0.212058 -0.1350565 0.0069139 -0.1770867 -0.1789091 0.01439255 -0.1788579 -0.176688 -0.0069139 -0.2138292 -0.1328355</float_array>
          <technique_common>
            <accessor source="#thrust_fan_left-mesh-positions-array" count="280" stride="3">
              <param name="X" type="float"/>
              <param name="Y" type="float"/>
              <param name="Z" type="float"/>
            </accessor>
          </technique_common>
        </source>
        <source id="thrust_fan_left-mesh-normals">
          <float_array id="thrust_fan_left-mesh-normals-array" count="1236">0.1301871 -0.2566149 -0.9577057 0.4936172 -0.4348397 -0.7531645 0.1301899 -0.4957414 -0.8586565 0.4936171 0.4348394 -0.7531646 0.8583683 0.3627694 -0.3627701 0.8583747 0.2565115 -0.4442913 0.1301864 0.9577051 0.2566171 -0.1301954 0.9914885 -1.74618e-6 -0.1301864 0.9577061 0.2566137 0.8583712 -0.132781 -0.4955483 0.8583747 -0.2565115 -0.4442914 0.1301929 0.70109 -0.7010868 0.1301915 0.4957457 -0.8586538 0.1301953 0.8586564 -0.4957404 -0.1301951 0.7010857 -0.7010907 -0.1301952 0.8586546 -0.4957434 -0.4936171 -0.4348394 -0.7531646 -0.8583712 -0.132781 -0.4955483 -0.4936283 -0.2250877 -0.8400396 -0.8583683 0.3627694 -0.3627701 -0.9901462 0.07001858 -0.1212759 -0.9901458 0.09902411 -0.09902429 -0.1301899 0.4957415 -0.8586565 -0.130187 -0.2566183 -0.9577047 -0.4936172 0.4348397 -0.7531645 -0.4936262 0.6149511 -0.6149539 -0.1301871 0.2566149 -0.9577057 0.8583692 0 -0.5130325 0.9901462 -0.03624427 -0.1352662 0.130187 0.2566183 -0.9577047 -0.130195 -1.74862e-6 -0.9914885 0.4936208 0 -0.8696773 0.4936283 -0.2250877 -0.8400396 0.9901457 0.1212793 -0.07002079 0.9901464 0.09902065 -0.09902089 0.130195 1.75106e-6 -0.9914885 0.4936265 0.6149514 -0.6149535 0.8583728 0.4442934 -0.2565146 -0.1301915 -0.4957458 -0.8586538 -0.8583692 0 -0.5130326 -0.9901456 -0.03624552 -0.1352708 -0.9901461 0 -0.1400387 -0.1301929 -0.70109 -0.7010868 -0.4936208 0 -0.8696773 -0.990146 0.1212778 -0.0700196 -0.8583728 0.4442934 -0.2565146 0.1301951 -0.7010857 -0.7010907 -0.1301953 -0.8586564 -0.4957404 -0.4936305 0.7531571 -0.4348371 0.1301952 -0.8586546 -0.4957434 -0.1301864 -0.9577061 -0.2566137 0.9901462 0.03624427 -0.1352662 0.9901456 0 -0.1400418 0.1301864 -0.9577051 -0.2566171 -0.1301954 -0.9914885 1.74618e-6 0.8583712 0.132781 -0.4955483 0.9901463 0.1352652 -0.03624415 0.1301954 -0.9914885 -1.74374e-6 -0.1301864 -0.9577051 0.2566171 0.4936305 0.7531571 -0.4348371 0.8583753 0.4955413 -0.1327813 0.1301864 -0.9577061 0.2566137 -0.1301974 -0.8586526 0.4957464 -0.9901461 0.03624451 -0.1352671 -0.8583712 0.132781 -0.4955483 0.1301864 0.9577061 -0.2566137 0.1301974 -0.8586543 0.4957433 -0.1301874 -0.7010862 0.7010916 -0.4936283 0.2250877 -0.8400396 -0.9901461 0.1352671 -0.03624469 -0.8583753 0.4955412 -0.1327812 0.1301874 -0.7010887 0.7010891 -0.1301895 -0.4957407 0.858657 -0.4936214 0.840043 -0.2250909 0.1301871 -0.4957478 0.8586534 -0.1301814 -0.2566132 0.9577069 0.990146 0.07001978 -0.121278 -0.1301864 0.9577051 -0.2566171 0.1301952 -0.2566195 0.9577034 -0.130185 0 0.9914897 0.4936283 0.2250877 -0.8400396 0.8583677 0.5130351 0 0.1301952 0.2566195 0.9577034 -0.1301814 0.2566132 0.9577069 0.4936214 0.840043 -0.2250909 0.1301888 0.4957461 0.858654 -0.1301878 0.4957423 0.8586564 -0.8583747 0.2565115 -0.4442913 0.4936304 0.8696718 0 -0.1301874 0.7010887 0.7010891 -0.8583677 0.5130351 0 -0.9901463 0.140037 0 0.1301874 0.7010862 0.7010916 -0.1301974 0.8586543 0.4957433 -0.4936304 0.8696718 0 0.1301974 0.8586525 0.4957463 -0.9901461 -0.07001954 -0.1212776 0.990145 0 0.140046 0.1301954 0.9914885 1.74374e-6 0.990146 -0.07001978 -0.1212779 -0.8583683 -0.3627694 -0.3627701 -0.8583747 -0.2565115 -0.4442913 0.4936262 -0.6149512 -0.6149539 0.8583683 -0.3627695 -0.3627701 0.9901464 -0.09902071 -0.09902089 -0.4936265 -0.6149514 -0.6149535 -0.8583728 -0.4442934 -0.2565146 -0.9901459 -0.1212778 -0.0700196 -0.9901463 -0.09902101 -0.09902161 0.4936305 -0.7531571 -0.4348371 0.8583728 -0.4442934 -0.2565146 0.9901458 -0.1212793 -0.07002079 -0.4936306 -0.7531571 -0.4348371 -0.8583753 -0.4955413 -0.1327813 -0.9901457 -0.1352695 -0.03624528 0.4936214 -0.840043 -0.2250909 0.8583753 -0.4955413 -0.1327813 0.9901463 -0.1352652 -0.03624415 -0.4936304 -0.8696718 0 -0.4936214 -0.840043 -0.2250909 -0.8583677 -0.5130351 0 0.4936304 -0.8696718 0 0.8583677 -0.5130351 0 0.990146 -0.140039 0 -0.4936214 -0.840043 0.2250909 -0.9901461 -0.1352676 0.0362448 -0.9901463 -0.140037 0 0.4936214 -0.840043 0.2250909 0.8583753 -0.4955413 0.1327812 0.9901463 -0.1352652 0.03624415 -0.4936299 -0.753157 0.4348382 -0.8583753 -0.4955413 0.1327813 -0.8583701 -0.4442976 0.2565166 0.4936299 -0.753157 0.4348382 0.85837 -0.4442976 0.2565165 0.9901457 -0.1212795 0.07002133 -0.4936207 -0.6149537 0.6149559 -0.9901459 -0.09902411 0.09902286 -0.9901462 -0.1212766 0.0700196 0.4936206 -0.6149536 0.6149559 0.858372 -0.3627658 0.3627651 0.9901463 -0.09902185 0.09902065 -0.493617 -0.4348386 0.7531653 -0.858372 -0.3627658 0.3627651 -0.9901459 -0.07001978 0.1212781 0.4936171 -0.4348394 0.7531645 0.8583735 -0.2565118 0.4442935 0.9901458 -0.07001996 0.121279 -0.8583754 -0.1327795 0.4955416 -0.8583735 -0.2565118 0.4442935 0.4936355 -0.2250896 0.840035 0.8583753 -0.1327795 0.4955415 0.9901463 -0.03624337 0.1352659 -0.4936206 -0.2250909 0.8400433 -0.8583711 0 0.5130293 -0.9901462 -0.03624367 0.1352669 0.4936297 0 0.8696722 0.1301848 0 0.9914898 0.8583711 0 0.5130294 -0.4936206 0.2250909 0.8400434 -0.4936287 0 0.8696728 -0.9901458 0.03624421 0.1352688 -0.9901461 0 0.1400387 0.4936355 0.2250896 0.8400349 0.8583753 0.1327795 0.4955415 0.9901463 0.03624337 0.1352659 -0.493617 0.4348385 0.7531652 -0.8583753 0.1327795 0.4955415 -0.9901459 0.07001978 0.1212781 0.4936172 0.4348393 0.7531645 0.8583735 0.2565118 0.4442935 0.9901458 0.07002002 0.121279 -0.4936206 0.6149537 0.6149559 -0.858372 0.3627658 0.3627651 -0.8583735 0.2565118 0.4442935 0.4936207 0.6149537 0.6149559 0.858372 0.3627658 0.3627651 0.9901462 0.09902197 0.09902065 -0.4936299 0.753157 0.4348382 -0.85837 0.4442975 0.2565166 -0.9901463 0.09902203 0.09902095 0.4936299 0.753157 0.4348382 0.8583701 0.4442976 0.2565165 0.9901457 0.1212795 0.07002127 -0.8583753 0.4955413 0.1327813 -0.990146 0.1352679 0.03624486 -0.9901462 0.1212766 0.0700196 0.4936214 0.840043 0.2250909 0.8583753 0.4955413 0.1327813 0.9901463 0.1352652 0.03624415 -0.4936214 0.840043 0.2250909 0.990146 0.140039 0 0.68875 0.724999 7.63564e-7 0.6887498 0.6698119 -0.2774453 0.68875 0.724999 -3.06658e-6 0.68875 0.5126531 -0.5126502 0.6887494 0.5126518 -0.5126524 0.6887494 0.2774429 -0.6698132 0.6887505 0.2774415 -0.6698128 0.6887497 0 -0.7249993 0.6887505 -0.2774412 -0.6698128 0.6887494 -0.2774429 -0.6698132 0.6887502 -0.5126529 -0.5126503 0.6887494 -0.5126518 -0.5126524 0.6887497 -0.669813 -0.2774425 0.68875 -0.6698127 -0.2774427 0.68875 -0.724999 3.06658e-6 0.68875 -0.724999 -7.63564e-7 0.6887498 -0.6698119 0.2774453 0.68875 -0.5126531 0.5126502 0.6887494 -0.5126518 0.5126524 0.6887494 -0.277442 0.6698136 0.6887502 -0.2774413 0.669813 0.6887492 0 0.7249997 0.6887503 0.277441 0.6698131 0.6887493 0.277442 0.6698136 0.6887502 0.5126529 0.5126503 0.6887494 0.5126518 0.5126524 1 3.15201e-7 0 1 -3.1454e-7 0 1 0 0 0.6887497 0.669813 0.2774425 0.68875 0.6698127 0.2774427 -1 0 0 -1 0 0 -1 0 0 0 0 1 0 0 1 0 0 1 0 0 -1 -0.8669139 0.4982277 0.01515251 -0.91514 0.4023929 -0.02447223 -0.9339498 0.3547738 -0.04328131 0.5243744 0.848282 -0.07381969 0.358589 0.9305251 -0.07441127 0.35412 0.9322365 -0.07439267 0.8669139 -0.4982278 0.01515257 0.9151397 -0.4023934 -0.02447199 0.9339496 -0.3547747 -0.04328095 -0.5243744 -0.8482819 -0.07381987 -0.3585913 -0.9305242 -0.07441139 -0.3541225 -0.9322355 -0.07439279 -1.41667e-6 -0.7818306 0.6234909 1.7312e-6 -0.7818324 0.6234887 1.93141e-6 -0.7818325 0.6234886 3.55314e-6 0.781831 -0.6234905 3.27377e-7 0.7818318 -0.6234895 0 0.7818319 -0.6234894 -0.8669139 0.2987931 0.3989774 -0.91514 0.270021 0.2993452 -0.9339498 0.2550365 0.250388 0.5243774 0.5866087 0.6171863 0.3585885 0.63835 0.6811194 0.3541198 0.6394024 0.6824689 0.8669138 -0.3224866 -0.3800827 0.91514 -0.2317544 -0.3298616 0.9339498 -0.187359 -0.3043588 -0.5243725 -0.471181 -0.7092404 -0.3585929 -0.5219948 -0.7739074 -0.354124 -0.5230763 -0.7752338 3.52758e-6 -0.9749277 -0.2225224 -2.02183e-6 -0.9749282 -0.22252 3.88053e-6 -0.9749276 -0.2225225 6.55174e-6 0.9749283 0.2225194 4.19546e-6 0.9749285 0.2225188 6.79087e-6 0.9749283 0.2225195 -0.866914 -0.1256385 0.4823639 -0.9151399 -0.06568223 0.3977497 -0.9339498 -0.03674864 0.3555103 0.5243782 -0.1167907 0.843438 0.3585875 -0.1345155 0.9237536 0.3541185 -0.1349144 0.9254179 0.8669139 0.09609329 -0.4891079 0.9151401 0.1133994 -0.3868582 0.93395 0.1211407 -0.3362476 -0.5243691 0.2607304 -0.8105905 -0.3585985 0.2796063 -0.8906332 -0.3541303 0.2799689 -0.8923056 -1.29807e-6 -0.4338843 -0.9009686 -1.36979e-6 -0.4338842 -0.9009687 -1.37435e-6 -0.4338843 -0.9009687 -1.02092e-5 0.4338817 0.9009699 3.90343e-6 0.4338844 0.9009686 5.33571e-6 0.4338846 0.9009684 -0.8669139 -0.4554621 0.2025209 -0.9151398 -0.3519257 0.1966404 -0.9339496 -0.3008617 0.1929257 0.5243757 -0.7322456 0.4345647 0.358592 -0.8060872 0.4707816 0.3541235 -0.807637 0.4715073 0.8669139 0.4423133 -0.2298249 0.91514 0.3731615 -0.152543 0.9339499 0.3384193 -0.1149355 -0.5243746 0.7963047 -0.3015465 -0.3585854 0.8706612 -0.3366982 -0.3541166 0.872195 -0.3374574 1.2878e-6 0.4338842 -0.9009686 1.19815e-6 0.4338843 -0.9009686 1.19245e-6 0.4338843 -0.9009686 -3.73726e-6 -0.4338846 0.9009686 -2.32602e-6 -0.4338845 0.9009685 -2.18279e-6 -0.4338845 0.9009686 -0.8669139 -0.4423133 -0.2298248 -0.9151398 -0.373162 -0.1525434 -0.9339496 -0.3384199 -0.1149361 0.5243746 -0.7963048 -0.3015457 0.3585945 -0.8706582 -0.336696 0.3541255 -0.8721922 -0.3374553 0.8669139 0.455462 0.2025207 0.91514 0.3519254 0.1966403 0.9339498 0.3008613 0.1929256 -0.5243755 0.7322459 0.4345645 -0.3585901 0.806088 0.4707816 -0.3541211 0.8076379 0.4715074 2.03165e-6 0.9749282 -0.2225199 -3.52224e-6 0.9749276 -0.2225226 2.38489e-6 0.9749282 -0.2225198 2.67253e-6 -0.9749276 0.2225227 3.28808e-7 -0.9749279 0.222521 2.91039e-6 -0.9749275 0.2225229 -0.8669138 -0.09609329 -0.4891079 -0.9151402 -0.1133994 -0.3868582 -0.93395 -0.1211407 -0.3362476 0.5243692 -0.2607305 -0.8105904 0.3586006 -0.2796062 -0.8906323 0.3541322 -0.2799689 -0.8923048 0.8669142 0.1256386 0.482364 0.91514 0.06568223 0.3977497 0.9339497 0.03674864 0.3555102 -0.5243781 0.1167907 0.843438 -0.3585888 0.1345154 0.9237532 -0.3541198 0.1349143 0.9254175 5.77468e-6 0.7818298 0.6234918 0 0.7818318 0.6234896 6.14417e-6 0.7818297 0.6234921 -1.40827e-6 -0.7818313 -0.6234901 3.83356e-6 -0.781832 -0.6234893 4.36554e-6 -0.781832 -0.6234892 -0.866914 0.3224863 -0.3800826 -0.91514 0.2317543 -0.3298615 -0.9339499 0.1873589 -0.3043588 0.5243724 0.4711809 -0.7092406 0.3585927 0.5219943 -0.7739078 0.3541238 0.5230758 -0.7752343 0.8669138 -0.2987928 0.3989778 0.9151396 -0.270021 0.2993461 0.9339494 -0.2550367 0.2503892 -0.5243692 -0.5866113 0.6171905 -0.3585906 -0.6383492 0.681119 -0.3541221 -0.6394016 0.6824684 0.68875 0.669813 -0.2774418 0.6887503 1.41237e-7 -0.7249987 0.68875 -0.669813 0.2774418 0.6887497 -1.3241e-7 0.7249992 1 -6.9383e-6 0 1 -4.95492e-7 0 1 -4.52079e-6 0 1 0 0 1 -1.7345e-6 0 1 -3.15201e-7 0 1 0 0 1 1.56433e-6 0 1 -6.95271e-7 0 1 -4.02929e-6 0 1 6.9383e-6 0 1 1.7345e-6 0 -1 0 0 -1 0 0 -1 -1.30199e-7 0 -1 0 0 -1 3.9964e-7 0 -1.21266e-7 0 1 -0.8476978 0.5297003 0.02874237 0.5284753 0.8457375 -0.07377022 0.8476978 -0.5297003 0.02874237 -0.5284753 -0.8457375 -0.0737704 -1.61688e-6 -0.7818305 0.6234911 3.88052e-6 0.781831 -0.6234906 -0.8476978 0.3077909 0.4320569 0.528478 0.5849835 0.6152278 0.8476977 -0.3527345 -0.3962158 -0.528473 -0.4696335 -0.7072205 -2.37479e-6 -0.9749283 -0.2225199 3.95632e-6 0.9749284 0.2225187 -0.8476981 -0.1458909 0.5100234 0.528479 -0.1162727 0.8409464 0.8476977 0.08984744 -0.5228156 -0.5284694 0.2601161 -0.8081212 -1.2935e-6 -0.4338843 -0.9009687 -1.16415e-5 0.4338815 0.9009701 -0.8476979 -0.4897143 0.2039323 0.5284763 -0.7299748 0.4334163 0.8476979 0.4647727 -0.2557243 -0.5284757 0.7939907 -0.3004871 1.2935e-6 0.4338842 -0.9009686 -3.88049e-6 -0.4338846 0.9009686 -0.8476979 -0.4647727 -0.2557242 0.5284755 -0.793991 -0.3004864 0.8476978 0.4897143 0.2039321 -0.5284764 0.7299749 0.4334159 -3.87548e-6 0.9749275 -0.2225227 0 -0.974928 0.2225208 -0.8476977 -0.08984744 -0.5228155 0.5284694 -0.2601161 -0.8081212 0.8476982 0.145891 0.5100234 -0.528479 0.1162727 0.8409464 -4.04221e-7 0.7818318 0.6234894 -1.94026e-6 -0.7818312 -0.6234902 -0.8476979 0.3527341 -0.3962157 0.5284731 0.4696332 -0.7072206 0.8476978 -0.3077906 0.4320571 -0.5284698 -0.5849864 0.6152322</float_array>
          <technique_common>
            <accessor source="#thrust_fan_left-mesh-normals-array" count="412" stride="3">
              <param name="X" type="float"/>
              <param name="Y" type="float"/>
              <param name="Z" type="float"/>
            </accessor>
          </technique_common>
        </source>
        <vertices id="thrust_fan_left-mesh-vertices">
          <input semantic="POSITION" source="#thrust_fan_left-mesh-positions"/>
        </vertices>
        <triangles material="aluminium-material" count="440">
          <input semantic="VERTEX" source="#thrust_fan_left-mesh-vertices" offset="0"/>
          <input semantic="NORMAL" source="#thrust_fan_left-mesh-normals" offset="1"/>
          <p>61 0 71 1 69 2 39 3 30 4 38 5 189 6 0 7 185 8 71 1 62 9 70 10 29 11 39 3 37 12 21 13 25 14 17 15 67 16 58 17 59 18 26 19 32 20 24 21 29 11 33 22 25 14 57 23 67 16 59 18 35 24 26 19 27 25 37 12 41 26 33 22 54 27 60 28 62 9 33 22 27 25 25 14 45 29 49 30 41 26 55 31 62 9 63 32 30 4 20 33 28 34 53 35 57 23 49 30 61 0 55 31 63 32 31 36 22 37 30 4 61 0 65 38 57 23 50 39 56 40 48 41 21 13 31 36 29 11 69 2 73 42 65 38 51 43 58 17 50 39 26 19 16 44 18 45 77 46 81 47 73 42 57 23 51 43 49 30 27 25 18 45 19 48 85 49 89 50 81 47 54 27 44 51 52 52 17 15 27 25 19 48 93 53 97 54 89 50 55 31 46 55 54 27 22 37 12 56 20 33 101 57 105 58 97 54 45 29 55 31 53 35 23 59 14 60 22 37 109 61 113 62 105 58 50 39 40 63 42 64 13 65 23 59 21 13 117 66 121 67 113 62 51 43 42 64 43 68 18 45 8 69 10 70 125 71 129 72 121 67 41 26 51 43 43 68 19 48 10 70 11 73 133 74 137 75 129 72 46 55 36 76 44 51 9 77 19 48 11 73 141 78 145 79 137 75 39 3 46 55 47 80 6 81 12 56 14 60 145 79 157 82 153 83 45 29 39 3 47 80 15 84 6 81 14 60 153 83 165 85 161 86 42 64 32 20 34 87 13 65 7 88 15 84 165 85 169 89 161 86 35 24 42 64 34 87 2 90 8 69 1 91 173 92 177 93 169 89 41 26 35 24 33 22 11 73 2 90 3 94 181 95 185 8 177 93 13 65 17 15 9 77 9 77 3 94 0 7 58 17 64 96 56 40 30 4 36 76 38 5 52 52 20 33 148 97 5 98 9 77 0 7 62 9 68 99 70 10 73 42 67 16 65 38 67 16 74 100 66 101 74 100 64 96 66 101 69 2 79 102 77 46 71 1 78 103 79 102 78 103 68 99 76 104 81 47 75 105 73 42 75 105 82 106 74 100 74 100 80 107 72 108 85 49 79 102 87 109 79 102 86 110 87 109 78 103 84 111 86 110 89 50 83 112 81 47 83 112 90 113 82 106 82 106 88 114 80 107 93 53 87 109 95 115 87 109 94 116 95 115 86 110 92 117 94 116 89 50 99 118 91 119 91 119 98 120 90 113 98 120 88 114 90 113 93 53 103 121 101 57 95 115 102 122 103 121 102 122 92 117 100 123 105 58 99 118 97 54 107 124 98 120 99 118 98 120 104 125 96 126 109 61 103 121 111 127 111 127 102 122 110 128 102 122 108 129 110 128 105 58 115 130 107 124 115 130 106 131 107 124 114 132 104 125 106 131 109 61 119 133 117 66 119 133 110 128 118 134 118 134 108 129 116 135 121 67 115 130 113 62 123 136 114 132 115 130 114 132 120 137 112 138 125 71 119 133 127 139 127 139 118 134 126 140 118 134 124 141 126 140 129 72 123 136 121 67 131 142 122 143 123 136 122 143 128 144 120 137 133 74 127 139 135 145 135 145 126 140 134 146 126 140 132 147 134 146 137 75 131 142 129 72 131 142 138 148 130 149 138 148 128 144 130 149 133 74 143 150 141 78 135 145 142 151 143 150 142 151 132 147 140 152 145 79 139 153 137 75 139 153 146 154 138 148 146 154 136 155 138 148 141 78 151 156 149 157 143 150 150 158 151 156 150 158 140 152 148 97 145 79 155 159 147 160 155 159 146 154 147 160 146 154 152 161 144 162 157 82 151 156 159 163 159 163 150 158 158 164 150 158 156 165 158 164 153 83 163 166 155 159 163 166 154 167 155 159 154 167 160 168 152 161 165 85 159 163 167 169 167 169 158 164 166 170 158 164 164 171 166 170 161 86 171 172 163 166 163 166 170 173 162 174 170 173 160 168 162 174 165 85 175 175 173 92 167 169 174 176 175 175 174 176 164 171 172 177 169 89 179 178 171 172 171 172 178 179 170 173 178 179 168 180 170 173 173 92 183 181 181 95 175 175 182 182 183 181 182 182 172 177 180 183 185 8 179 178 177 93 179 178 186 184 178 179 178 179 184 185 176 186 189 6 183 181 191 187 183 181 190 188 191 187 182 182 188 189 190 188 185 8 3 94 187 190 187 190 2 90 186 184 2 90 184 185 186 184 189 6 7 88 5 98 191 187 6 81 7 88 6 81 188 189 4 191 56 40 120 137 184 185 193 192 194 193 192 194 194 193 197 195 196 196 197 195 198 197 196 196 199 198 200 199 198 197 200 199 203 200 202 201 202 201 205 202 204 203 205 202 206 204 204 203 207 205 208 206 206 204 209 207 210 208 208 206 210 208 213 209 212 210 213 209 214 211 212 210 215 212 216 213 214 211 216 213 219 214 218 215 218 215 221 216 220 217 201 218 197 219 213 220 221 216 222 221 220 217 223 222 192 194 222 221 198 223 206 224 214 225 61 0 63 32 71 1 39 3 31 36 30 4 189 6 5 98 0 7 71 1 63 32 62 9 29 11 31 36 39 3 21 13 29 11 25 14 67 16 66 101 58 17 26 19 34 87 32 20 29 11 37 12 33 22 57 23 65 38 67 16 35 24 34 87 26 19 37 12 45 29 41 26 54 27 52 52 60 28 33 22 35 24 27 25 45 29 53 35 49 30 55 31 54 27 62 9 30 4 22 37 20 33 53 35 61 0 57 23 61 0 53 35 55 31 31 36 23 59 22 37 61 0 69 2 65 38 50 39 58 17 56 40 21 13 23 59 31 36 69 2 77 46 73 42 51 43 59 18 58 17 26 19 24 21 16 44 77 46 85 49 81 47 57 23 59 18 51 43 27 25 26 19 18 45 85 49 93 53 89 50 54 27 46 55 44 51 17 15 25 14 27 25 93 53 101 57 97 54 55 31 47 80 46 55 22 37 14 60 12 56 101 57 109 61 105 58 45 29 47 80 55 31 23 59 15 84 14 60 109 61 117 66 113 62 50 39 48 41 40 63 13 65 15 84 23 59 117 66 125 71 121 67 51 43 50 39 42 64 18 45 16 44 8 69 125 71 133 74 129 72 41 26 49 30 51 43 19 48 18 45 10 70 133 74 141 78 137 75 46 55 38 5 36 76 9 77 17 15 19 48 141 78 149 157 145 79 39 3 38 5 46 55 6 81 4 191 12 56 145 79 149 157 157 82 45 29 37 12 39 3 15 84 7 88 6 81 153 83 157 82 165 85 42 64 40 63 32 20 13 65 5 98 7 88 165 85 173 92 169 89 35 24 43 68 42 64 2 90 10 70 8 69 173 92 181 95 177 93 41 26 43 68 35 24 11 73 10 70 2 90 181 95 189 6 185 8 13 65 21 13 17 15 9 77 11 73 3 94 58 17 66 101 64 96 30 4 28 34 36 76 20 33 12 56 4 191 4 191 188 189 180 183 180 183 172 177 148 97 172 177 164 171 148 97 164 171 156 165 148 97 148 97 140 152 132 147 132 147 124 141 148 97 124 141 116 135 148 97 116 135 108 129 100 123 100 123 92 117 84 111 84 111 76 104 68 99 68 99 60 28 52 52 52 52 44 51 36 76 36 76 28 34 20 33 20 33 4 191 148 97 4 191 180 183 148 97 116 135 100 123 148 97 100 123 84 111 148 97 84 111 68 99 52 52 52 52 36 76 20 33 84 111 52 52 148 97 5 98 13 65 9 77 62 9 60 28 68 99 73 42 75 105 67 16 67 16 75 105 74 100 74 100 72 108 64 96 69 2 71 1 79 102 71 1 70 10 78 103 78 103 70 10 68 99 81 47 83 112 75 105 75 105 83 112 82 106 74 100 82 106 80 107 85 49 77 46 79 102 79 102 78 103 86 110 78 103 76 104 84 111 89 50 91 119 83 112 83 112 91 119 90 113 82 106 90 113 88 114 93 53 85 49 87 109 87 109 86 110 94 116 86 110 84 111 92 117 89 50 97 54 99 118 91 119 99 118 98 120 98 120 96 126 88 114 93 53 95 115 103 121 95 115 94 116 102 122 102 122 94 116 92 117 105 58 107 124 99 118 107 124 106 131 98 120 98 120 106 131 104 125 109 61 101 57 103 121 111 127 103 121 102 122 102 122 100 123 108 129 105 58 113 62 115 130 115 130 114 132 106 131 114 132 112 138 104 125 109 61 111 127 119 133 119 133 111 127 110 128 118 134 110 128 108 129 121 67 123 136 115 130 123 136 122 143 114 132 114 132 122 143 120 137 125 71 117 66 119 133 127 139 119 133 118 134 118 134 116 135 124 141 129 72 131 142 123 136 131 142 130 149 122 143 122 143 130 149 128 144 133 74 125 71 127 139 135 145 127 139 126 140 126 140 124 141 132 147 137 75 139 153 131 142 131 142 139 153 138 148 138 148 136 155 128 144 133 74 135 145 143 150 135 145 134 146 142 151 142 151 134 146 132 147 145 79 147 160 139 153 139 153 147 160 146 154 146 154 144 162 136 155 141 78 143 150 151 156 143 150 142 151 150 158 150 158 142 151 140 152 145 79 153 83 155 159 155 159 154 167 146 154 146 154 154 167 152 161 157 82 149 157 151 156 159 163 151 156 150 158 150 158 148 97 156 165 153 83 161 86 163 166 163 166 162 174 154 167 154 167 162 174 160 168 165 85 157 82 159 163 167 169 159 163 158 164 158 164 156 165 164 171 161 86 169 89 171 172 163 166 171 172 170 173 170 173 168 180 160 168 165 85 167 169 175 175 167 169 166 170 174 176 174 176 166 170 164 171 169 89 177 93 179 178 171 172 179 178 178 179 178 179 176 186 168 180 173 92 175 175 183 181 175 175 174 176 182 182 182 182 174 176 172 177 185 8 187 190 179 178 179 178 187 190 186 184 178 179 186 184 184 185 189 6 181 95 183 181 183 181 182 182 190 188 182 182 180 183 188 189 185 8 0 7 3 94 187 190 3 94 2 90 2 90 1 91 184 185 189 6 191 187 7 88 191 187 190 188 6 81 6 81 190 188 188 189 184 185 1 91 8 69 8 69 16 44 24 21 24 21 32 20 40 63 40 63 48 41 24 21 48 41 56 40 24 21 56 40 64 96 88 114 64 96 72 108 88 114 72 108 80 107 88 114 88 114 96 126 104 125 104 125 112 138 120 137 120 137 128 144 136 155 136 155 144 162 120 137 144 162 152 161 120 137 152 161 160 168 168 180 168 180 176 186 184 185 184 185 8 69 56 40 8 69 24 21 56 40 88 114 104 125 120 137 152 161 168 180 184 185 56 40 88 114 120 137 120 137 152 161 184 185 193 192 195 350 194 193 194 193 195 350 197 195 197 195 199 198 198 197 199 198 201 351 200 199 200 199 201 351 203 200 202 201 203 200 205 202 205 202 207 205 206 204 207 205 209 207 208 206 209 207 211 352 210 208 210 208 211 352 213 209 213 209 215 212 214 211 215 212 217 353 216 213 216 213 217 353 219 214 218 215 219 214 221 216 197 219 195 354 193 355 193 355 223 356 197 219 223 356 221 357 197 219 221 357 219 358 217 359 217 359 215 360 213 220 213 220 211 361 205 362 211 361 209 363 205 362 209 363 207 364 205 362 205 362 203 365 201 218 201 218 199 360 197 219 221 357 217 359 197 219 217 359 213 220 197 219 205 362 201 218 213 220 221 216 223 222 222 221 223 222 193 192 192 194 222 366 192 367 194 367 194 367 196 367 222 366 196 367 198 223 222 366 198 223 200 367 202 367 202 367 204 368 198 223 204 368 206 224 198 223 206 224 208 367 210 367 210 367 212 367 206 224 212 367 214 225 206 224 214 225 216 367 222 366 216 367 218 369 222 366 218 369 220 370 222 366 222 366 198 223 214 225</p>
        </triangles>
        <triangles material="blade-material" count="84">
          <input semantic="VERTEX" source="#thrust_fan_left-mesh-vertices" offset="0"/>
          <input semantic="NORMAL" source="#thrust_fan_left-mesh-normals" offset="1"/>
          <p>227 226 225 227 224 228 231 229 229 229 230 229 224 230 229 231 228 232 225 233 230 234 229 235 226 236 231 237 230 238 227 239 228 240 231 241 232 242 234 243 233 244 239 245 237 246 238 247 232 248 237 249 236 250 233 251 238 252 237 253 234 254 239 255 238 256 235 257 236 258 239 259 243 260 241 261 240 262 244 263 246 264 247 265 240 266 245 267 244 268 241 269 246 270 245 271 242 272 247 273 246 274 243 275 244 276 247 277 248 278 250 279 249 280 255 281 253 282 254 283 248 284 253 285 252 286 249 287 254 288 253 289 250 290 255 291 254 292 251 293 252 294 255 295 256 296 258 297 257 298 263 299 261 300 262 301 256 302 261 303 260 304 257 305 262 306 261 307 258 308 263 309 262 310 259 311 260 312 263 313 267 314 265 315 264 316 268 317 270 318 271 319 264 320 269 321 268 322 265 323 270 324 269 325 266 326 271 327 270 328 267 329 268 330 271 331 275 332 273 333 272 334 279 335 277 336 278 337 272 338 277 339 276 340 273 341 278 342 277 343 274 344 279 345 278 346 275 347 276 348 279 349 227 226 226 371 225 227 231 229 228 229 229 229 224 230 225 372 229 231 225 233 226 373 230 234 226 236 227 374 231 237 227 239 224 375 228 240 232 242 235 376 234 243 239 245 236 377 237 246 232 248 233 378 237 249 233 251 234 379 238 252 234 254 235 380 239 255 235 257 232 381 236 258 243 260 242 382 241 261 244 263 245 383 246 264 240 266 241 384 245 267 241 269 242 385 246 270 242 272 243 386 247 273 243 275 240 387 244 276 248 278 251 388 250 279 255 281 252 389 253 282 248 284 249 390 253 285 249 287 250 391 254 288 250 290 251 392 255 291 251 293 248 393 252 294 256 296 259 394 258 297 263 299 260 395 261 300 256 302 257 396 261 303 257 305 258 397 262 306 258 308 259 398 263 309 259 311 256 399 260 312 267 314 266 400 265 315 268 317 269 401 270 318 264 320 265 402 269 321 265 323 266 403 270 324 266 326 267 404 271 327 267 329 264 405 268 330 275 332 274 406 273 333 279 335 276 407 277 336 272 338 273 408 277 339 273 341 274 409 278 342 274 344 275 410 279 345 275 347 272 411 276 348</p>
        </triangles>
      </mesh>
    </geometry>
  </library_geometries>
  <library_visual_scenes>
    <visual_scene id="Scene" name="Scene">
      <node id="thrust_fan_left" name="thrust_fan_left" type="NODE">
        <matrix sid="transform">1 0 0 0 0 1 0 0 0 0 1 0 0 0 0 1</matrix>
        <instance_geometry url="#thrust_fan_left-mesh" name="thrust_fan_left">
          <bind_material>
            <technique_common>
              <instance_material symbol="aluminium-material" target="#aluminium-material"/>
              <instance_material symbol="blade-material" target="#blade-material"/>
            </technique_common>
          </bind_material>
        </instance_geometry>
      </node>
    </visual_scene>
  </library_visual_scenes>
  <scene>
    <instance_visual_scene url="#Scene"/>
  </scene>
</COLLADA>