<?xml version="1.0" encoding="utf-8"?>
<COLLADA xmlns="http://www.collada.org/2005/11/COLLADASchema" version="1.4.1" xmlns:xsi="http://www.w3.org/2001/XMLSchema-instance">
  <asset>
    <contributor>
      <author>Blender User</author>
      <authoring_tool>Blender 4.2.0 commit date:2024-07-16, commit time:07:50, hash:bf738fd35afe</authoring_tool>
    </contributor>
    <created>2026-09-26T17:43:45</created>
    <modified>2026-09-26T17:43:45</modified>
    <unit name="meter" meter="1"/>
    <up_axis>Z_UP</up_axis>
  </asset>
  <library_effects>
    <effect id="blade-effect">
      <profile_COMMON>
        <technique sid="common">
          <lambert>
            <emission>
              <color sid="emission">0 0 0 1</color>
            </emission>
            <diffuse>
              <color sid="diffuse">0.03 0.03 0.032 1</color>
            </diffuse>
            <index_of_refraction>
              <float sid="ior">1.5</float>
            </index_of_refraction>
          </lambert>
        </technique>
      </profile_COMMON>
    </effect>
    <effect id="gunmetal-effect">
      <profile_COMMON>
        <technique sid="common">
          <lambert>
            <emission>
              <color sid="emission">0 0 0 1</color>
            </emission>
            <diffuse>
              <color sid="diffuse">0.045 0.047 0.05 1</color>
            </diffuse>
            <reflectivity>
              <float sid="specular">0.7</float>
            </reflectivity>
            <index_of_refraction>
              <float sid="ior">1.5</float>
            </index_of_refraction>
          </lambert>
        </technique>
      </profile_COMMON>
    </effect>
    <effect id="lens-effect">
      <profile_COMMON>
        <technique sid="common">
          <lambert>
            <emission>
              <color sid="emission">0 0 0 1</color>
            </emission>
            <diffuse>
              <color sid="diffuse">0.005 0.01 0.03 1</color>
            </diffuse>
            <index_of_refraction>
              <float sid="ior">1.5</float>
            </index_of_refraction>
          </lambert>
        </technique>
      </profile_COMMON>
    </effect>
  </library_effects>
  <library_images/>
  <library_materials>
    <material id="blade-material" name="blade">
      <instance_effect url="#blade-effect"/>
    </material>
    <material id="gunmetal-material" name="gunmetal">
      <instance_effect url="#gunmetal-effect"/>
    </material>
    <material id="lens-material" name="lens">
      <instance_effect url="#lens-effect"/>
    </material>
  </library_materials>
  <library_geometries>
    <geometry id="camera-mesh" name="camera">
      <mesh>
        <source id="camera-mesh-positions">
          <float_array id="camera-mesh-positions-array" count="552">-0.1014 -0.0564 -0.03750002 -0.1014 -0.06599998 -0.0295 -0.111 -0.0564 -0.0295 -0.1014 -0.06119364 -0.03643125 -0.1061937 -0.05639994 -0.03643125 -0.1059908 -0.06099081 -0.03539305 -0.1061937 -0.06471747 -0.0295 -0.1014 -0.06471747 -0.03349477 -0.1059908 -0.06347167 -0.03332567 -0.1097176 -0.05639994 -0.03349477 -0.1097176 -0.06119364 -0.0295 -0.1084717 -0.06099081 -0.03332567 -0.1014 -0.06599998 0.0295 -0.1014 -0.0564 0.03750002 -0.111 -0.0564 0.0295 -0.1014 -0.06471747 0.03349477 -0.1061937 -0.06471747 0.0295 -0.1059908 -0.06347167 0.03332567 -0.1061937 -0.05639994 0.03643125 -0.1014 -0.06119364 0.03643125 -0.1059908 -0.06099081 0.03539305 -0.1097176 -0.06119364 0.0295 -0.1097176 -0.05639994 0.03349477 -0.1084717 -0.06099081 0.03332567 -0.1014 0.0564 -0.03750002 -0.111 0.0564 -0.0295 -0.1014 0.06599998 -0.0295 -0.1061937 0.05639994 -0.03643125 -0.1014 0.06119364 -0.03643125 -0.1059908 0.06099081 -0.03539305 -0.1097176 0.06119364 -0.0295 -0.1097176 0.05639994 -0.03349477 -0.1084717 0.06099081 -0.03332567 -0.1014 0.06471747 -0.03349477 -0.1061937 0.06471747 -0.0295 -0.1059908 0.06347167 -0.03332567 -0.1014 0.0564 0.03750002 -0.1014 0.06599998 0.0295 -0.111 0.0564 0.0295 -0.1014 0.06119364 0.03643125 -0.1061937 0.05639994 0.03643125 -0.1059908 0.06099081 0.03539305 -0.1061937 0.06471747 0.0295 -0.1014 0.06471747 0.03349477 -0.1059908 0.06347167 0.03332567 -0.1097176 0.05639994 0.03349477 -0.1097176 0.06119364 0.0295 -0.1084717 0.06099081 0.03332567 -0.03060007 -0.0564 -0.03750002 -0.02100002 -0.0564 -0.0295 -0.03060007 -0.06599998 -0.0295 -0.02580642 -0.05639994 -0.03643125 -0.03060007 -0.06119364 -0.03643125 -0.0260092 -0.06099081 -0.03539305 -0.0222826 -0.06119364 -0.0295 -0.0222826 -0.05639994 -0.03349477 -0.02352833 -0.06099081 -0.03332567 -0.03060007 -0.06471747 -0.03349477 -0.02580642 -0.06471747 -0.0295 -0.0260092 -0.06347167 -0.03332567 -0.03060007 -0.0564 0.03750002 -0.03060007 -0.06599998 0.0295 -0.02100002 -0.0564 0.0295 -0.03060007 -0.06119364 0.03643125 -0.02580642 -0.05639994 0.03643125 -0.0260092 -0.06099081 0.03539305 -0.02580642 -0.06471747 0.0295 -0.03060007 -0.06471747 0.03349477 -0.0260092 -0.06347167 0.03332567 -0.0222826 -0.05639994 0.03349477 -0.0222826 -0.06119364 0.0295 -0.02352833 -0.06099081 0.03332567 -0.03060007 0.0564 -0.03750002 -0.03060007 0.06599998 -0.0295 -0.02100002 0.0564 -0.0295 -0.03060007 0.06119364 -0.03643125 -0.02580642 0.05639994 -0.03643125 -0.0260092 0.06099081 -0.03539305 -0.02580642 0.06471747 -0.0295 -0.03060007 0.06471747 -0.03349477 -0.0260092 0.06347167 -0.03332567 -0.0222826 0.05639994 -0.03349477 -0.0222826 0.06119364 -0.0295 -0.02352833 0.06099081 -0.03332567 -0.03060007 0.0564 0.03750002 -0.02100002 0.0564 0.0295 -0.03060007 0.06599998 0.0295 -0.02580642 0.05639994 0.03643125 -0.03060007 0.06119364 0.03643125 -0.0260092 0.06099081 0.03539305 -0.0222826 0.06119364 0.0295 -0.0222826 0.05639994 0.03349477 -0.02352833 0.06099081 0.03332567 -0.03060007 0.06471747 0.03349477 -0.02580642 0.06471747 0.0295 -0.0260092 0.06347167 0.03332567 -0.02400004 0.02879995 0 -1.19209e-7 0.02879995 0 -0.02400004 0.02739042 -0.007416427 -1.19209e-7 0.02739042 -0.007416427 -0.02400004 0.02329969 -0.01410686 -1.19209e-7 0.02329969 -0.01410686 -0.02400004 0.01692819 -0.01941639 -1.19209e-7 0.01692819 -0.01941639 -0.02400004 0.008899688 -0.02282536 -1.19209e-7 0.008899688 -0.02282536 -0.02400004 0 -0.02399998 -1.19209e-7 0 -0.02399998 -0.02400004 -0.008899688 -0.02282536 -1.19209e-7 -0.008899688 -0.02282536 -0.02400004 -0.01692819 -0.01941639 -1.19209e-7 -0.01692819 -0.01941639 -0.02400004 -0.02329969 -0.01410686 -1.19209e-7 -0.02329969 -0.01410686 -0.02400004 -0.02739042 -0.007416427 -1.19209e-7 -0.02739042 -0.007416427 -0.02400004 -0.02879995 0 -1.19209e-7 -0.02879995 0 -0.02400004 -0.02739042 0.007416427 -1.19209e-7 -0.02739042 0.007416427 -0.02400004 -0.02329969 0.01410686 -1.19209e-7 -0.02329969 0.01410686 -0.02400004 -0.01692819 0.01941639 -1.19209e-7 -0.01692819 0.01941639 -0.02400004 -0.008899688 0.02282536 -1.19209e-7 -0.008899688 0.02282536 -0.02400004 0 0.02399998 -1.19209e-7 0 0.02399998 -0.02400004 0.008899688 0.02282536 -1.19209e-7 0.008899688 0.02282536 -0.02400004 0.01692819 0.01941639 -1.19209e-7 0.01692819 0.01941639 -0.02400004 0.02329969 0.01410686 -1.19209e-7 0.02329969 0.01410686 -0.02400004 0.02739042 0.007416427 -1.19209e-7 0.02739042 0.007416427 -0.003600001 0.02159994 0 0 0.02159994 0 -0.003600001 0.0205428 -0.005562305 0 0.0205428 -0.005562305 -0.003600001 0.01747477 -0.01058012 0 0.01747477 -0.01058012 -0.003600001 0.01269614 -0.0145623 0 0.01269614 -0.0145623 -0.003600001 0.006674766 -0.01711899 0 0.006674766 -0.01711899 -0.003600001 0 -0.018 0 0 -0.018 -0.003600001 -0.006674766 -0.01711899 0 -0.006674766 -0.01711899 -0.003600001 -0.01269614 -0.0145623 0 -0.01269614 -0.0145623 -0.003600001 -0.01747477 -0.01058012 0 -0.01747477 -0.01058012 -0.003600001 -0.0205428 -0.005562305 0 -0.0205428 -0.005562305 -0.003600001 -0.02159994 0 0 -0.02159994 0 -0.003600001 -0.0205428 0.005562305 0 -0.0205428 0.005562305 -0.003600001 -0.01747477 0.01058012 0 -0.01747477 0.01058012 -0.003600001 -0.01269614 0.0145623 0 -0.01269614 0.0145623 -0.003600001 -0.006674766 0.01711899 0 -0.006674766 0.01711899 -0.003600001 0 0.018 0 0 0.018 -0.003600001 0.006674766 0.01711899 0 0.006674766 0.01711899 -0.003600001 0.01269614 0.0145623 0 0.01269614 0.0145623 -0.003600001 0.01747477 0.01058012 0 0.01747477 0.01058012 -0.003600001 0.0205428 0.005562305 0 0.0205428 0.005562305 -0.08399999 -0.07499998 0.03999996 -0.08399999 -0.07499998 0.046 -0.08399999 0.07499998 0.03999996 -0.08399999 0.07499998 0.046 -0.02400004 -0.07499998 0.03999996 -0.02400004 -0.07499998 0.046 -0.02400004 0.07499998 0.03999996 -0.02400004 0.07499998 0.046</float_array>
          <technique_common>
            <accessor source="#camera-mesh-positions-array" count="184" stride="3">
              <param name="X" type="float"/>
              <param name="Y" type="float"/>
              <param name="Z" type="float"/>
            </accessor>
          </technique_common>
        </source>
        <source id="camera-mesh-normals">
          <float_array id="camera-mesh-normals-array" count="585">0.1273261 -0.980201 0.1516388 -0.1273232 -0.9802013 -0.1516386 0.1273286 -0.9802005 -0.1516394 0.9801991 0.1273313 0.1516459 0.9801991 -0.1273313 -0.1516459 0.9801994 0.1273315 -0.1516438 -0.108035 0.1080356 0.9882595 0.1080375 -0.1080353 0.9882592 0.1080369 0.1080364 0.9882592 -0.9802024 -0.1273208 0.1516332 -0.9802024 0.1273208 -0.1516332 -0.9802029 -0.1273202 -0.1516311 -0.1273232 0.9802013 0.1516386 0.1273261 0.9802009 -0.1516388 -0.1273257 0.9802009 -0.1516392 -0.1060425 -0.4365153 -0.8934258 -0.4365134 -0.1060448 -0.8934264 -0.108035 -0.1080356 -0.9882595 -0.4342505 -0.7447555 -0.5067207 -0.4046184 -0.4046225 -0.8201005 -0.4892507 -0.860125 -0.1442875 -0.1164109 -0.8276401 -0.5490542 -0.7447474 -0.4342618 -0.5067229 -0.8276429 -0.1164134 -0.5490493 -0.860124 -0.4892526 -0.1442865 -0.1164109 -0.8276417 0.5490516 -0.4892523 -0.860124 0.1442872 -0.1273257 -0.9802009 0.1516392 -0.1060423 -0.4365175 0.8934246 -0.4342506 -0.7447556 0.5067204 -0.4365115 -0.1060448 0.8934272 -0.1080344 -0.1080366 0.9882594 -0.7447474 -0.4342616 0.5067231 -0.4046183 -0.4046224 0.8201006 -0.8601247 -0.4892514 0.1442865 -0.8276416 -0.1164132 0.5490514 -0.4365115 0.1060448 -0.8934272 -0.1060423 0.4365175 -0.8934246 -0.1080344 0.1080366 -0.9882594 -0.7447474 0.4342616 -0.5067231 -0.4046183 0.4046224 -0.8201006 -0.8601247 0.4892514 -0.1442865 -0.8276416 0.1164132 -0.5490514 -0.4892524 0.860124 -0.1442873 -0.1164109 0.8276417 -0.5490516 -0.4342506 0.7447556 -0.5067204 -0.1060425 0.4365153 0.8934258 -0.4365134 0.1060448 0.8934264 -0.4342505 0.7447555 0.5067207 -0.4046184 0.4046225 0.8201005 -0.4892507 0.860125 0.1442875 -0.1164109 0.8276401 0.5490542 -0.7447474 0.4342618 0.5067229 -0.8276429 0.1164134 0.5490493 -0.860124 0.4892526 0.1442865 -0.9802029 0.1273202 0.1516311 0.4365123 -0.1060402 -0.8934275 0.1060431 -0.4365169 -0.8934248 0.1080369 -0.1080364 -0.9882592 0.7447587 -0.4342507 -0.5067158 0.4046212 -0.4046177 -0.8201013 0.860121 -0.4892593 -0.1442823 0.8276371 -0.1164096 -0.5490591 0.434257 -0.7447574 -0.5067123 0.1164119 -0.8276419 -0.5490512 0.4892507 -0.8601261 -0.1442803 0.1060432 -0.4365146 0.893426 0.4365141 -0.1060402 0.8934265 0.434257 -0.7447574 0.5067123 0.4046213 -0.4046177 0.8201013 0.4892487 -0.8601273 0.1442802 0.1164119 -0.8276404 0.5490536 0.8601198 -0.4892612 0.1442822 0.8276384 -0.1164096 0.549057 0.9801994 -0.1273315 0.1516438 0.7447588 -0.4342506 0.5067158 0.1060432 0.4365146 -0.893426 0.4365141 0.1060402 -0.8934265 0.1080375 0.1080353 -0.9882592 0.434257 0.7447574 -0.5067123 0.4046213 0.4046177 -0.8201013 0.4892487 0.8601273 -0.1442802 0.1164119 0.8276404 -0.5490536 0.8601198 0.4892612 -0.1442822 0.8276384 0.1164096 -0.549057 0.7447588 0.4342506 -0.5067158 0.4365123 0.1060402 0.8934275 0.1060431 0.4365169 0.8934248 0.7447587 0.4342507 0.5067158 0.4046212 0.4046177 0.8201013 0.860121 0.4892593 0.1442823 0.8276371 0.1164096 0.5490591 0.434257 0.7447574 0.5067123 0.1164119 0.8276419 0.5490512 0.4892507 0.8601261 0.1442803 0.1273286 0.9802005 0.1516394 0 1 4.83788e-6 0 0.9329388 -0.3600353 0 1 -4.82822e-6 0 0.9329422 -0.3600264 0 0.7567783 -0.6536717 0 0.7567842 -0.653665 0 0.521094 -0.8534994 0 0.5211008 -0.8534952 0 0.2632396 -0.9647305 0 0.2632465 -0.9647287 0 -3.44959e-6 -1 0 3.44959e-6 -1 0 -0.2632465 -0.9647287 0 -0.2632396 -0.9647305 0 -0.5211008 -0.8534952 0 -0.521094 -0.8534993 0 -0.7567842 -0.653665 0 -0.7567783 -0.6536717 0 -0.9329422 -0.3600264 0 -0.9329388 -0.3600354 0 -1 4.82822e-6 0 -1 -4.83788e-6 0 -0.9329388 0.3600353 0 -0.9329422 0.3600264 0 -0.7567783 0.6536717 0 -0.7567842 0.653665 0 -0.521094 0.8534994 0 -0.5211008 0.8534952 0 -0.2632396 0.9647305 0 -0.2632465 0.9647287 0 3.44959e-6 1 0 -3.44959e-6 1 0 0.2632465 0.9647287 0 0.2632396 0.9647305 0 0.5211008 0.8534952 0 0.521094 0.8534993 0 0.7567842 0.653665 1 0 0 0 0.7567783 0.6536717 0 0.9329422 0.3600264 0 0.9329388 0.3600354 -1 0 0 0 1 -4.05559e-7 0 0.9329403 -0.3600314 0 1 4.05559e-7 0 0.9329402 -0.3600316 0 0.7567825 -0.6536669 0 0.7567831 -0.6536661 0 0.5210964 -0.8534979 0 0.5210981 -0.8534968 0 0.2632421 -0.9647299 0 0.2632447 -0.9647291 0 -1.48316e-6 -1 0 1.48316e-6 -1 0 -0.2632447 -0.9647291 0 -0.2632421 -0.9647299 0 -0.5210981 -0.8534968 0 -0.5210964 -0.8534979 0 -0.7567831 -0.6536661 0 -0.7567825 -0.6536669 0 -0.9329402 -0.3600316 0 -0.9329403 -0.3600314 0 -1 -4.05559e-7 0 -1 4.05559e-7 0 -0.9329403 0.3600314 0 -0.9329402 0.3600316 0 -0.7567825 0.6536669 0 -0.7567831 0.6536661 0 -0.5210964 0.8534979 0 -0.5210981 0.8534968 0 -0.2632421 0.9647299 0 -0.2632447 0.9647291 0 1.48316e-6 1 0 -1.48316e-6 1 0 0.2632447 0.9647291 0 0.2632421 0.9647299 0 0.5210981 0.8534968 0 0.5210964 0.8534979 0 0.7567831 0.6536661 0 0.7567825 0.6536669 0 0.9329402 0.3600316 0 0.9329403 0.3600314 -1 0 0 -1 0 0 -1 0 0 0 1 0 0 -1 0 0 0 -1 0 0 1 -1 1.23031e-7 0 -1 8.94515e-7 0 -1 0 0 -1 1.93873e-7 0 -1 0 0 -1 0 0 -1 0 0 -1 0 0 -1 -1.93873e-7 0 -1 0 0</float_array>
          <technique_common>
            <accessor source="#camera-mesh-normals-array" count="195" stride="3">
              <param name="X" type="float"/>
              <param name="Y" type="float"/>
              <param name="Z" type="float"/>
            </accessor>
          </technique_common>
        </source>
        <vertices id="camera-mesh-vertices">
          <input semantic="POSITION" source="#camera-mesh-positions"/>
        </vertices>
        <triangles material="blade-material" count="200">
          <input semantic="VERTEX" source="#camera-mesh-vertices" offset="0"/>
          <input semantic="NORMAL" source="#camera-mesh-normals" offset="1"/>
          <p>61 0 1 1 50 2 85 3 49 4 74 5 36 6 60 7 84 8 14 9 25 10 2 11 37 12 73 13 26 14 3 15 4 16 0 17 3 15 8 18 5 19 6 20 7 21 1 1 6 20 11 22 8 18 9 23 10 24 2 11 4 16 11 22 9 23 5 19 8 18 11 22 15 25 16 26 12 27 19 28 17 29 15 25 18 30 19 28 13 31 18 30 23 32 20 33 21 34 22 35 14 9 16 26 23 32 21 34 17 29 20 33 23 32 27 36 28 37 24 38 27 36 32 39 29 40 30 41 31 42 25 10 34 43 32 39 30 41 33 44 34 43 26 14 28 37 35 45 33 44 29 40 32 39 35 45 39 46 40 47 36 6 39 46 44 48 41 49 42 50 43 51 37 12 42 50 47 52 44 48 45 53 46 54 38 55 40 47 47 52 45 53 41 49 44 48 47 52 51 56 52 57 48 58 51 56 56 59 53 60 54 61 55 62 49 4 54 61 59 63 56 59 57 64 58 65 50 2 52 57 59 63 57 64 53 60 56 59 59 63 63 66 64 67 60 7 63 66 68 68 65 69 66 70 67 71 61 0 70 72 68 68 66 70 69 73 70 72 62 74 64 67 71 75 69 73 65 69 68 68 71 75 75 76 76 77 72 78 75 76 80 79 77 80 78 81 79 82 73 13 82 83 80 79 78 81 81 84 82 83 74 5 76 77 83 85 81 84 77 80 80 79 83 85 87 86 88 87 84 8 87 86 92 88 89 89 90 90 91 91 85 3 90 90 95 92 92 88 93 93 94 94 86 95 88 87 95 92 93 93 89 89 92 88 95 92 0 17 27 36 24 38 4 16 31 42 27 36 9 23 25 10 31 42 12 27 6 20 1 1 16 26 10 24 6 20 21 34 2 11 10 24 36 6 18 30 13 31 40 47 22 35 18 30 45 53 14 9 22 35 26 14 42 50 37 12 34 43 46 54 42 50 30 41 38 55 46 54 24 38 75 76 72 78 28 37 79 82 75 76 33 44 73 13 79 82 84 8 39 46 36 6 88 87 43 51 39 46 93 93 37 12 43 51 74 5 90 90 85 3 82 83 94 94 90 90 78 81 86 95 94 94 72 78 51 56 48 58 76 77 55 62 51 56 81 84 49 4 55 62 60 7 87 86 84 8 64 67 91 91 87 86 69 73 85 3 91 91 50 2 66 70 61 0 58 65 70 72 66 70 54 61 62 74 70 72 48 58 3 15 0 17 52 57 7 21 3 15 57 64 1 1 7 21 13 31 63 66 60 7 19 28 67 71 63 66 15 25 61 0 67 71 72 78 0 17 24 38 177 137 178 137 176 137 179 181 182 181 178 181 183 133 180 133 182 133 181 182 176 182 180 182 182 183 176 183 178 183 179 184 181 184 183 184 61 0 12 27 1 1 85 3 62 74 49 4 36 6 13 31 60 7 14 9 38 55 25 10 37 12 86 95 73 13 3 15 5 19 4 16 3 15 7 21 8 18 6 20 8 18 7 21 6 20 10 24 11 22 9 23 11 22 10 24 4 16 5 19 11 22 15 25 17 29 16 26 19 28 20 33 17 29 18 30 20 33 19 28 18 30 22 35 23 32 21 34 23 32 22 35 16 26 17 29 23 32 27 36 29 40 28 37 27 36 31 42 32 39 30 41 32 39 31 42 34 43 35 45 32 39 33 44 35 45 34 43 28 37 29 40 35 45 39 46 41 49 40 47 39 46 43 51 44 48 42 50 44 48 43 51 42 50 46 54 47 52 45 53 47 52 46 54 40 47 41 49 47 52 51 56 53 60 52 57 51 56 55 62 56 59 54 61 56 59 55 62 54 61 58 65 59 63 57 64 59 63 58 65 52 57 53 60 59 63 63 66 65 69 64 67 63 66 67 71 68 68 66 70 68 68 67 71 70 72 71 75 68 68 69 73 71 75 70 72 64 67 65 69 71 75 75 76 77 80 76 77 75 76 79 82 80 79 78 81 80 79 79 82 82 83 83 85 80 79 81 84 83 85 82 83 76 77 77 80 83 85 87 86 89 89 88 87 87 86 91 91 92 88 90 90 92 88 91 91 90 90 94 94 95 92 93 93 95 92 94 94 88 87 89 89 95 92 0 17 4 16 27 36 4 16 9 23 31 42 9 23 2 11 25 10 12 27 16 26 6 20 16 26 21 34 10 24 21 34 14 9 2 11 36 6 40 47 18 30 40 47 45 53 22 35 45 53 38 55 14 9 26 14 34 43 42 50 34 43 30 41 46 54 30 41 25 10 38 55 24 38 28 37 75 76 28 37 33 44 79 82 33 44 26 14 73 13 84 8 88 87 39 46 88 87 93 93 43 51 93 93 86 95 37 12 74 5 82 83 90 90 82 83 78 81 94 94 78 81 73 13 86 95 72 78 76 77 51 56 76 77 81 84 55 62 81 84 74 5 49 4 60 7 64 67 87 86 64 67 69 73 91 91 69 73 62 74 85 3 50 2 58 65 66 70 58 65 54 61 70 72 54 61 49 4 62 74 48 58 52 57 3 15 52 57 57 64 7 21 57 64 50 2 1 1 13 31 19 28 63 66 19 28 15 25 67 71 15 25 12 27 61 0 72 78 48 58 0 17 177 137 179 137 178 137 179 181 183 181 182 181 183 133 181 133 180 133 181 182 177 182 176 182 182 183 180 183 176 183 179 184 177 184 181 184</p>
        </triangles>
        <triangles material="gunmetal-material" count="76">
          <input semantic="VERTEX" source="#camera-mesh-vertices" offset="0"/>
          <input semantic="NORMAL" source="#camera-mesh-normals" offset="1"/>
          <p>97 96 98 97 96 98 99 99 100 100 98 97 101 101 102 102 100 100 103 103 104 104 102 102 105 105 106 106 104 104 107 107 108 108 106 106 109 109 110 110 108 108 111 111 112 112 110 110 113 113 114 114 112 112 115 115 116 116 114 114 117 117 118 118 116 116 119 119 120 120 118 118 121 121 122 122 120 120 123 123 124 124 122 122 125 125 126 126 124 124 127 127 128 128 126 126 129 129 130 130 128 128 131 131 132 132 130 130 105 133 103 133 129 133 133 134 134 135 132 132 135 136 96 98 134 135 130 137 132 137 102 137 97 96 99 99 98 97 99 99 101 101 100 100 101 101 103 103 102 102 103 103 105 105 104 104 105 105 107 107 106 106 107 107 109 109 108 108 109 109 111 111 110 110 111 111 113 113 112 112 113 113 115 115 114 114 115 115 117 117 116 116 117 117 119 119 118 118 119 119 121 121 120 120 121 121 123 123 122 122 123 123 125 125 124 124 125 125 127 127 126 126 127 127 129 129 128 128 129 129 131 131 130 130 131 131 133 134 132 132 101 133 99 133 135 133 99 133 97 133 135 133 135 133 133 133 101 133 133 133 131 133 101 133 131 133 129 133 103 133 101 133 131 133 103 133 129 133 127 133 105 133 127 133 125 133 107 133 105 133 127 133 107 133 125 133 123 133 111 133 123 133 121 133 113 133 121 133 119 133 113 133 119 133 117 133 115 133 113 133 119 133 115 133 113 133 111 133 123 133 111 133 109 133 125 133 109 133 107 133 125 133 133 134 135 136 134 135 135 136 97 96 96 98 134 137 96 137 98 137 98 137 100 137 134 137 100 137 102 137 132 137 134 137 100 137 132 137 102 137 104 137 128 137 104 137 106 137 126 137 106 137 108 137 126 137 108 137 110 137 124 137 126 137 108 137 124 137 110 137 112 185 120 137 112 185 114 186 118 187 114 186 116 137 118 187 118 187 120 137 112 185 120 137 122 137 110 137 122 137 124 137 110 137 126 137 128 137 104 137 128 137 130 137 102 137</p>
        </triangles>
        <triangles material="lens-material" count="76">
          <input semantic="VERTEX" source="#camera-mesh-vertices" offset="0"/>
          <input semantic="NORMAL" source="#camera-mesh-normals" offset="1"/>
          <p>137 138 138 139 136 140 139 141 140 142 138 139 141 143 142 144 140 142 143 145 144 146 142 144 145 147 146 148 144 146 147 149 148 150 146 148 149 151 150 152 148 150 151 153 152 154 150 152 153 155 154 156 152 154 155 157 156 158 154 156 157 159 158 160 156 158 159 161 160 162 158 160 161 163 162 164 160 162 163 165 164 166 162 164 165 167 166 168 164 166 167 169 168 170 166 168 169 171 170 172 168 170 171 173 172 174 170 172 145 133 143 133 169 133 173 175 174 176 172 174 175 177 136 140 174 176 170 178 172 179 142 180 137 138 139 141 138 139 139 141 141 143 140 142 141 143 143 145 142 144 143 145 145 147 144 146 145 147 147 149 146 148 147 149 149 151 148 150 149 151 151 153 150 152 151 153 153 155 152 154 153 155 155 157 154 156 155 157 157 159 156 158 157 159 159 161 158 160 159 161 161 163 160 162 161 163 163 165 162 164 163 165 165 167 164 166 165 167 167 169 166 168 167 169 169 171 168 170 169 171 171 173 170 172 171 173 173 175 172 174 141 133 139 133 173 133 139 133 137 133 175 133 173 133 139 133 175 133 173 133 171 133 141 133 171 133 169 133 143 133 141 133 171 133 143 133 169 133 167 133 145 133 167 133 165 133 147 133 145 133 167 133 147 133 165 133 163 133 151 133 163 133 161 133 153 133 161 133 159 133 153 133 159 133 157 133 155 133 153 133 159 133 155 133 153 133 151 133 163 133 151 133 149 133 165 133 149 133 147 133 165 133 173 175 175 177 174 176 175 177 137 138 136 140 174 188 136 137 138 137 138 137 140 189 174 188 140 189 142 180 172 179 174 188 140 189 172 179 142 180 144 137 168 137 144 137 146 137 166 137 146 137 148 137 166 137 148 137 150 190 164 137 166 137 148 137 164 137 150 190 152 191 160 192 152 191 154 137 158 193 154 137 156 137 158 193 158 193 160 192 152 191 160 192 162 194 150 190 162 194 164 137 150 190 166 137 168 137 144 137 168 137 170 178 142 180</p>
        </triangles>
      </mesh>
    </geometry>
  </library_geometries>
  <library_visual_scenes>
    <visual_scene id="Scene" name="Scene">
      <node id="camera" name="camera" type="NODE">
        <matrix sid="transform">1 0 0 0 0 1 0 0 0 0 1 0 0 0 0 1</matrix>
        <instance_geometry url="#camera-mesh" name="camera">
          <bind_material>
            <technique_common>
              <instance_material symbol="blade-material" target="#blade-material"/>
              <instance_material symbol="gunmetal-material" target="#gunmetal-material"/>
              <instance_material symbol="lens-material" target="#lens-material"/>
            </technique_common>
          </bind_material>
        </instance_geometry>
      </node>
    </visual_scene>
  </library_visual_scenes>
  <scene>
    <instance_visual_scene url="#Scene"/>
  </scene>
</COLLADA>