<?xml version="1.0" encoding="utf-8"?>
<COLLADA xmlns="http://www.collada.org/2005/11/COLLADASchema" version="1.4.1" xmlns:xsi="http://www.w3.org/2001/XMLSchema-instance">
  <asset>
    <contributor>
      <author>Blender User</author>
      <authoring_tool>Blender 4.2.0 commit date:2024-07-16, commit time:07:50, hash:bf738fd35afe</authoring_tool>
    </contributor>
    <created>2026-09-26T17:43:45</created>
    <modified>2026-09-26T17:43:45</modified>
    <unit name="meter" meter="1"/>
    <up_axis>Z_UP</up_axis>
  </asset>
  <library_effects>
    <effect id="aluminium-effect">
      <profile_COMMON>
        <technique sid="common">
          <lambert>
            <emission>
              <color sid="emission">0 0 0 1</color>
            </emission>
            <diffuse>
              <color sid="diffuse">0.55 0.55 0.56 1</color>
            </diffuse>
            <reflectivity>
              <float sid="specular">1</float>
            </reflectivity>
            <index_of_refraction>
              <float sid="ior">1.5</float>
            </index_of_refraction>
          </lambert>
        </technique>
      </profile_COMMON>
    </effect>
    <effect id="blade-effect">
      <profile_COMMON>
        <technique sid="common">
          <lambert>
            <emission>
              <color sid="emission">0 0 0 1</color>
            </emission>
            <diffuse>
              <color sid="diffuse">0.03 0.03 0.032 1</color>
            </diffuse>
            <index_of_refraction>
              <float sid="ior">1.5</float>
            </index_of_refraction>
          </lambert>
        </technique>
      </profile_COMMON>
    </effect>
  </library_effects>
  <library_images/>
  <library_materials>
    <material id="aluminium-material" name="aluminium">
      <instance_effect url="#aluminium-effect"/>
    </material>
    <material id="blade-material" name="blade">
      <instance_effect url="#blade-effect"/>
    </material>
  </library_materials>
  <library_geometries>
    <geometry id="lift_fan-mesh" name="lift_fan">
      <mesh>
        <source id="lift_fan-mesh-positions">
          <float_array id="lift_fan-mesh-positions-array" count="888">0 0.07199996 -0.01899999 0 0.06473785 -0.02499997 0 0.06836891 -0.02419614 0 0.07102704 -0.02200001 0 0.06473785 0.02499997 0 0.07199996 0.01899999 0 0.06836891 0.02419614 0 0.07102704 0.02200001 0.0167554 0.06253194 -0.02499997 0.01863503 0.06954663 -0.01899999 0.01769518 0.06603932 -0.02419614 0.01838314 0.06860685 -0.02200001 0.0167554 0.06253194 0.02499997 0.01863503 0.06954663 0.01899999 0.01769518 0.06603932 0.02419614 0.01838314 0.06860685 0.02200001 0.03236895 0.0560646 -0.02499997 0.03600001 0.06235378 -0.01899999 0.03418451 0.05920922 -0.02419614 0.03551352 0.06151121 -0.02200001 0.03236895 0.0560646 0.02499997 0.03600001 0.06235378 0.01899999 0.03418451 0.05920922 0.02419614 0.03551352 0.06151121 0.02200001 0.0457766 0.04577654 -0.02499997 0.05091172 0.05091166 -0.01899999 0.04834413 0.04834413 -0.02419614 0.05022376 0.0502237 -0.02200001 0.0457766 0.04577654 0.02499997 0.05091172 0.05091166 0.01899999 0.04834413 0.04834413 0.02419614 0.05022376 0.0502237 0.02200001 0.05606466 0.03236889 -0.02499997 0.06235384 0.03599995 -0.01899999 0.05920922 0.03418445 -0.02419614 0.06151121 0.03551352 -0.02200001 0.05606466 0.03236889 0.02499997 0.06235384 0.03599995 0.01899999 0.05920922 0.03418445 0.02419614 0.06151121 0.03551352 0.02200001 0.06253194 0.0167554 -0.02499997 0.06954669 0.01863497 -0.01899999 0.06603938 0.01769518 -0.02419614 0.06860691 0.01838314 -0.02200001 0.06253194 0.0167554 0.02499997 0.06954669 0.01863497 0.01899999 0.06603938 0.01769518 0.02419614 0.06860691 0.01838314 0.02200001 0.06473791 0 -0.02499997 0.07200002 0 -0.01899999 0.06836897 0 -0.02419614 0.07102704 0 -0.02200001 0.06473791 0 0.02499997 0.07200002 0 0.01899999 0.06836897 0 0.02419614 0.07102704 0 0.02200001 0.06253194 -0.0167554 -0.02499997 0.06954669 -0.01863497 -0.01899999 0.06603938 -0.01769518 -0.02419614 0.06860691 -0.01838314 -0.02200001 0.06253194 -0.0167554 0.02499997 0.06954669 -0.01863497 0.01899999 0.06603938 -0.01769518 0.02419614 0.06860691 -0.01838314 0.02200001 0.05606466 -0.03236889 -0.02499997 0.06235384 -0.03599995 -0.01899999 0.05920922 -0.03418445 -0.02419614 0.06151121 -0.03551352 -0.02200001 0.05606466 -0.03236889 0.02499997 0.06235384 -0.03599995 0.01899999 0.05920922 -0.03418445 0.02419614 0.06151121 -0.03551352 0.02200001 0.0457766 -0.04577654 -0.02499997 0.05091172 -0.05091166 -0.01899999 0.04834413 -0.04834413 -0.02419614 0.05022376 -0.0502237 -0.02200001 0.0457766 -0.04577654 0.02499997 0.05091172 -0.05091166 0.01899999 0.04834413 -0.04834413 0.02419614 0.05022376 -0.0502237 0.02200001 0.03236895 -0.0560646 -0.02499997 0.03600001 -0.06235378 -0.01899999 0.03418451 -0.05920922 -0.02419614 0.03551352 -0.06151121 -0.02200001 0.03236895 -0.0560646 0.02499997 0.03600001 -0.06235378 0.01899999 0.03418451 -0.05920922 0.02419614 0.03551352 -0.06151121 0.02200001 0.0167554 -0.06253194 -0.02499997 0.01863503 -0.06954663 -0.01899999 0.01769518 -0.06603932 -0.02419614 0.01838314 -0.06860685 -0.02200001 0.0167554 -0.06253194 0.02499997 0.01863503 -0.06954663 0.01899999 0.01769518 -0.06603932 0.02419614 0.01838314 -0.06860685 0.02200001 0 -0.06473785 -0.02499997 0 -0.07199996 -0.01899999 0 -0.06836891 -0.02419614 0 -0.07102704 -0.02200001 0 -0.06473785 0.02499997 0 -0.07199996 0.01899999 0 -0.06836891 0.02419614 0 -0.07102704 0.02200001 -0.0167554 -0.06253194 -0.02499997 -0.01863497 -0.06954663 -0.01899999 -0.01769512 -0.06603932 -0.02419614 -0.01838314 -0.06860685 -0.02200001 -0.0167554 -0.06253194 0.02499997 -0.01863497 -0.06954663 0.01899999 -0.01769512 -0.06603932 0.02419614 -0.01838314 -0.06860685 0.02200001 -0.03236889 -0.0560646 -0.02499997 -0.03599995 -0.06235378 -0.01899999 -0.03418445 -0.05920922 -0.02419614 -0.03551352 -0.06151121 -0.02200001 -0.03236889 -0.0560646 0.02499997 -0.03599995 -0.06235378 0.01899999 -0.03418445 -0.05920922 0.02419614 -0.03551352 -0.06151121 0.02200001 -0.04577654 -0.04577654 -0.02499997 -0.05091166 -0.05091166 -0.01899999 -0.04834407 -0.04834413 -0.02419614 -0.0502237 -0.0502237 -0.02200001 -0.04577654 -0.04577654 0.02499997 -0.05091166 -0.05091166 0.01899999 -0.04834407 -0.04834413 0.02419614 -0.0502237 -0.0502237 0.02200001 -0.0560646 -0.03236889 -0.02499997 -0.06235378 -0.03599995 -0.01899999 -0.05920916 -0.03418445 -0.02419614 -0.06151121 -0.03551352 -0.02200001 -0.0560646 -0.03236889 0.02499997 -0.06235378 -0.03599995 0.01899999 -0.05920916 -0.03418445 0.02419614 -0.06151121 -0.03551352 0.02200001 -0.06253194 -0.0167554 -0.02499997 -0.06954663 -0.01863497 -0.01899999 -0.06603926 -0.01769518 -0.02419614 -0.06860685 -0.01838314 -0.02200001 -0.06253194 -0.0167554 0.02499997 -0.06954663 -0.01863497 0.01899999 -0.06603926 -0.01769518 0.02419614 -0.06860685 -0.01838314 0.02200001 -0.06473785 0 -0.02499997 -0.07199996 0 -0.01899999 -0.06836891 0 -0.02419614 -0.07102704 0 -0.02200001 -0.06473785 0 0.02499997 -0.07199996 0 0.01899999 -0.06836891 0 0.02419614 -0.07102704 0 0.02200001 -0.06253194 0.0167554 -0.02499997 -0.06954663 0.01863497 -0.01899999 -0.06603926 0.01769518 -0.02419614 -0.06860685 0.01838314 -0.02200001 -0.06253194 0.0167554 0.02499997 -0.06954663 0.01863497 0.01899999 -0.06603926 0.01769518 0.02419614 -0.06860685 0.01838314 0.02200001 -0.0560646 0.03236889 -0.02499997 -0.06235378 0.03599995 -0.01899999 -0.05920916 0.03418445 -0.02419614 -0.06151121 0.03551352 -0.02200001 -0.0560646 0.03236889 0.02499997 -0.06235378 0.03599995 0.01899999 -0.05920916 0.03418445 0.02419614 -0.06151121 0.03551352 0.02200001 -0.04577654 0.04577654 -0.02499997 -0.05091166 0.05091166 -0.01899999 -0.04834407 0.04834413 -0.02419614 -0.0502237 0.0502237 -0.02200001 -0.04577654 0.04577654 0.02499997 -0.05091166 0.05091166 0.01899999 -0.04834407 0.04834413 0.02419614 -0.0502237 0.0502237 0.02200001 -0.03236889 0.0560646 -0.02499997 -0.03599995 0.06235378 -0.01899999 -0.03418445 0.05920922 -0.02419614 -0.03551352 0.06151121 -0.02200001 -0.03236889 0.0560646 0.02499997 -0.03599995 0.06235378 0.01899999 -0.03418445 0.05920922 0.02419614 -0.03551352 0.06151121 0.02200001 -0.0167554 0.06253194 -0.02499997 -0.01863497 0.06954663 -0.01899999 -0.01769512 0.06603932 -0.02419614 -0.01838314 0.06860685 -0.02200001 -0.0167554 0.06253194 0.02499997 -0.01863497 0.06954663 0.01899999 -0.01769512 0.06603932 0.02419614 -0.01838314 0.06860685 0.02200001 0 0.04799997 0.02500003 0 0.01439994 0.055 0.01836884 0.04434621 0.02500003 0.005510687 0.01330381 0.055 0.03394114 0.03394109 0.02500003 0.01018238 0.01018232 0.055 0.04434621 0.01836878 0.02500003 0.01330387 0.005510628 0.055 0.04800003 0 0.02500003 0.0144 0 0.055 0.04434621 -0.01836878 0.02500003 0.01330387 -0.005510628 0.055 0.03394114 -0.03394109 0.02500003 0.01018238 -0.01018232 0.055 0.01836884 -0.04434621 0.02500003 0.005510687 -0.01330381 0.055 0 -0.04799997 0.02500003 0 -0.01439994 0.055 -0.01836878 -0.04434621 0.02500003 -0.005510628 -0.01330381 0.055 -0.03394109 -0.03394109 0.02500003 -0.01018232 -0.01018232 0.055 -0.04434615 -0.01836878 0.02500003 -0.01330381 -0.005510628 0.055 -0.04799997 0 0.02500003 -0.01439994 0 0.055 -0.04434615 0.01836878 0.02500003 -0.01330381 0.005510628 0.055 -0.03394109 0.03394109 0.02500003 -0.01018232 0.01018232 0.055 -0.01836878 0.04434621 0.02500003 -0.005510628 0.01330381 0.055 0.06600004 -0.05072337 -0.02700537 0.06600004 0.05523031 0.0199418 0.06600004 0.05072337 0.02700537 0.06600004 -0.05523031 -0.0199418 0.3360001 -0.03839957 -0.01473158 0.3360001 0.04139798 0.007131814 0.3360001 0.03839957 0.01473158 0.3360001 -0.04139798 -0.007131814 0.08316332 0.003567576 -0.02700537 0.01505756 0.08473283 0.0199418 0.01795458 0.08128035 0.02700537 0.08606028 1.15111e-4 -0.0199418 0.2820737 0.1865608 -0.01473158 0.2307807 0.2476894 0.007131814 0.232708 0.2453925 0.01473158 0.2840011 0.1842639 -0.007131814 0.06141358 0.05618923 -0.02700537 -0.04293042 0.07458794 0.0199418 -0.03849202 0.07380533 0.02700537 0.06585204 0.05540663 -0.0199418 0.09616208 0.3242273 -0.01473158 0.01757669 0.3380841 0.007131814 0.02052956 0.3375635 0.01473158 0.09911495 0.3237067 -0.007131814 0.01092779 0.08251935 -0.02700537 -0.08083081 0.0295425 0.0199418 -0.07692772 0.03179597 0.02700537 0.01483088 0.08477282 -0.0199418 -0.1347448 0.3101844 -0.01473158 -0.2038516 0.2702856 0.007131814 -0.201255 0.2717848 0.01473158 -0.1321481 0.3116836 -0.007131814 -0.04467123 0.07023769 -0.02700537 -0.08090955 -0.02932614 0.0199418 -0.07936811 -0.02509099 0.02700537 -0.0431298 0.07447284 -0.0199418 -0.3026032 0.1510027 -0.01473158 -0.3298956 0.07601743 0.007131814 -0.3288701 0.07883501 0.01473158 -0.3015777 0.1538203 -0.007131814 -0.07936811 0.02509105 -0.02700537 -0.0431298 -0.07447284 0.0199418 -0.04467123 -0.07023769 0.02700537 -0.08090955 0.0293262 -0.0199418 -0.3288701 -0.07883483 -0.01473158 -0.3015778 -0.1538201 0.007131814 -0.3026033 -0.1510025 0.01473158 -0.3298957 -0.07601726 -0.007131814 -0.07692772 -0.03179597 -0.02700537 0.01483088 -0.08477282 0.0199418 0.01092779 -0.08251935 0.02700537 -0.08083081 -0.0295425 -0.0199418 -0.201255 -0.2717848 -0.01473158 -0.1321481 -0.3116836 0.007131814 -0.1347448 -0.3101844 0.01473158 -0.2038516 -0.2702856 -0.007131814 -0.03849202 -0.07380533 -0.02700537 0.06585204 -0.05540663 0.0199418 0.06141358 -0.05618923 0.02700537 -0.04293042 -0.07458794 -0.0199418 0.02052956 -0.3375635 -0.01473158 0.09911495 -0.3237067 0.007131814 0.09616208 -0.3242273 0.01473158 0.01757669 -0.3380841 -0.007131814 0.01795458 -0.08128035 -0.02700537 0.08606028 -1.15111e-4 0.0199418 0.08316332 -0.003567576 0.02700537 0.01505756 -0.08473283 -0.0199418 0.232708 -0.2453925 -0.01473158 0.2840011 -0.1842639 0.007131814 0.2820737 -0.1865608 0.01473158 0.2307807 -0.2476894 -0.007131814</float_array>
          <technique_common>
            <accessor source="#lift_fan-mesh-positions-array" count="296" stride="3">
              <param name="X" type="float"/>
              <param name="Y" type="float"/>
              <param name="Z" type="float"/>
            </accessor>
          </technique_common>
        </source>
        <source id="lift_fan-mesh-normals">
          <float_array id="lift_fan-mesh-normals-array" count="1377">0.8556666 -0.4940202 0.154203 0.8057087 -0.2158892 0.5515663 0.7223769 -0.4170684 0.5515665 0.5898236 0.5898229 0.5515589 0.3933646 0.22711 0.8908903 0.7223769 0.4170683 0.5515666 -0.2557252 0.9543726 0.1542001 9.9808e-7 0.9880403 -0.1541959 -0.255723 0.9543733 -0.1542001 0.4387375 -0.1175603 0.8908923 0.3933646 -0.2271099 0.8908903 0.6986483 0.6986514 0.1541972 0.8556657 0.4940221 0.154203 0.4940175 0.8556688 0.1542 0.6986498 0.69865 -0.1541972 0.4940195 0.8556677 -0.1542 0.722377 -0.4170683 -0.5515666 0.4387375 -0.1175603 -0.8908923 0.8057088 -0.2158892 -0.5515663 0.3933646 0.2271099 -0.8908903 0.08319282 0.0831927 -0.9930549 0.3211743 0.3211737 -0.8908954 0.8556667 0.4940202 -0.154203 0.8556656 -0.4940221 -0.154203 0.9543727 -0.2557256 -0.1541986 0.5898236 0.5898229 -0.551559 0.9543733 0.2557235 -0.1541986 0.1176511 0 0.9930551 0.1136381 -0.03045004 0.9930555 0.7223769 0.4170684 -0.5515666 0.9543728 0.2557256 0.1541986 0.9880385 -1.10596e-6 -0.1542072 0.8341358 0 0.551559 0.3211746 0.3211737 0.8908954 0.05882686 0.1018914 0.9930547 0.0831905 0.08319002 0.9930554 0.9880385 1.10596e-6 0.1542072 0.9543733 -0.2557234 0.1541986 0.227106 0.3933577 0.8908943 0.1176493 0 -0.9930552 0.4542124 0 -0.8908935 0.6986483 -0.6986514 -0.1541972 0.8341358 0 -0.551559 0.05882424 0.1018869 -0.9930554 0.227106 0.3933577 -0.8908943 0.6986498 -0.69865 0.1541972 0.4940176 -0.8556688 -0.1542 0.4170663 0.722381 -0.5515628 0.4940196 -0.8556677 0.1542 0.255722 -0.9543735 -0.1541997 0.4387374 0.1175603 0.8908923 0.4542124 0 0.8908935 0.2557241 -0.954373 0.1541997 -1.22093e-6 -0.9880403 -0.1541959 0.1175611 0.438741 0.8908904 9.9808e-7 -0.9880403 0.1541959 -0.2557252 -0.9543726 -0.1542001 0.4170663 0.7223809 0.5515628 -0.255723 -0.9543733 0.1542001 -0.4940221 -0.8556669 -0.1541956 0.4387374 0.1175603 -0.8908924 0.1136379 0.03045004 -0.9930556 0.255722 0.9543735 0.1541997 -0.4940202 -0.8556681 0.1541956 -0.6986519 -0.6986481 -0.1541961 0.8057088 0.2158891 -0.5515661 0.1175611 0.438741 -0.8908904 0.03044998 0.1136408 -0.9930552 -0.6986503 -0.6986497 0.1541961 -0.8556691 -0.4940183 -0.154196 0.2158892 0.8057106 -0.5515637 -0.855668 -0.4940202 0.154196 -0.954374 -0.2557209 -0.1541982 0.1136382 0.03045004 0.9930555 0.2557241 0.954373 -0.1541997 -0.9543734 -0.2557247 0.1541963 -0.9880402 2.4777e-6 -0.1541967 0.8057088 0.2158892 0.5515663 0 0.1176496 0.9930552 0.03044992 0.1136405 0.9930553 -0.9880402 -2.47432e-6 0.1541967 -0.9543733 0.2557247 -0.1541963 0.2158892 0.8057106 0.5515637 5.67623e-7 0.454208 0.8908958 -0.954374 0.2557209 0.1541982 -0.855668 0.4940202 -0.154196 0.101887 0.05882418 -0.9930554 -1.22124e-6 0.9880403 0.1541959 -0.8556692 0.4940183 0.154196 -0.6986503 0.6986497 -0.1541961 0 0.1176488 -0.9930554 5.67931e-7 0.454208 -0.8908957 -0.6986519 0.6986481 0.1541961 -0.4940202 0.8556681 -0.1541956 1.59828e-6 0.8341324 -0.5515644 -0.4940221 0.855667 0.1541956 0.3933646 -0.22711 -0.8908903 0.1136386 -0.03045022 -0.9930554 0.1018875 0.05882465 0.9930552 -0.1176501 0 0.9930551 0.05882686 -0.1018914 0.9930548 0.1018872 -0.05882459 0.9930552 0.5898236 -0.5898229 -0.5515589 0.08319181 -0.08319145 -0.9930551 0.1018867 -0.05882424 -0.9930553 0.5898236 -0.5898228 0.551559 0.3211743 -0.3211737 0.8908954 0.08319061 -0.08319008 0.9930554 0.227106 -0.3933577 -0.8908943 0.3211745 -0.3211737 -0.8908953 0.0588243 -0.1018869 -0.9930554 0.4170663 -0.722381 0.5515628 0.2271059 -0.3933576 0.8908943 0.4170663 -0.722381 -0.5515629 0.1175611 -0.438741 -0.8908904 0.2158892 -0.8057106 0.5515637 0.1175611 -0.4387411 0.8908904 0.03044992 -0.1136404 0.9930553 0.2158892 -0.8057106 -0.5515637 5.67623e-7 -0.454208 -0.8908958 0 -0.1176488 -0.9930553 0.03045046 -0.1136424 -0.993055 1.60081e-6 -0.8341324 0.5515643 5.67006e-7 -0.454208 0.8908958 0 -0.1176496 0.9930552 -0.2158883 -0.8057118 -0.5515623 1.60081e-6 -0.8341324 -0.5515644 -0.1175581 -0.4387356 -0.8908935 -0.2158883 -0.8057118 0.5515623 -0.1175581 -0.4387357 0.8908935 -0.0304501 -0.1136397 0.9930554 -0.2271082 -0.3933639 -0.890891 -0.03045022 -0.1136405 -0.9930552 -0.417067 -0.722382 0.5515608 -0.2271082 -0.3933639 0.890891 -0.05882585 -0.1018893 0.993055 -0.417067 -0.722382 -0.5515608 -0.321175 -0.3211769 -0.890894 -0.08319252 -0.08319288 -0.9930549 -0.05882465 -0.1018873 -0.9930553 -0.5898212 -0.5898218 0.5515625 -0.3211752 -0.3211769 0.8908939 -0.08318984 -0.08319002 0.9930554 -0.5898212 -0.5898218 -0.5515626 -0.3933582 -0.2271069 -0.8908938 -0.1018878 -0.05882519 -0.9930552 -0.7223806 -0.4170675 0.5515623 -0.3933582 -0.2271069 0.8908939 -0.1018878 -0.05882513 0.9930552 -0.7223806 -0.4170677 -0.5515622 -0.438735 -0.1175602 -0.8908936 -0.1136401 -0.0304501 -0.9930553 -0.8057093 -0.2158909 0.5515649 -0.438735 -0.1175602 0.8908935 -0.113639 -0.03044986 0.9930554 -0.8057104 -0.2158902 -0.5515635 -0.4542102 0 -0.8908945 -0.1176494 0 -0.9930552 -0.8341308 -5.6483e-7 0.5515667 -0.4542102 0 0.8908945 -0.8341308 5.6483e-7 -0.5515667 -0.8057093 0.2158909 -0.5515648 -0.438735 0.1175602 -0.8908935 -0.8057104 0.2158902 0.5515635 -0.438735 0.1175602 0.8908935 -0.1136391 0.03044986 0.9930554 -0.7223806 0.4170675 -0.5515623 -0.3933582 0.2271069 -0.8908939 -0.1136429 0.03045088 -0.993055 -0.7223806 0.4170677 0.5515622 -0.3933583 0.2271069 0.8908939 -0.1018878 0.05882513 0.9930552 -0.5898212 0.5898218 -0.5515625 -0.3211752 0.3211769 -0.890894 -0.1018859 0.0588243 -0.9930554 -0.5898212 0.5898218 0.5515626 -0.321175 0.3211769 0.890894 -0.08319002 0.08319002 0.9930554 -0.417067 0.722382 -0.5515608 -0.2271082 0.3933639 -0.890891 -0.08319103 0.08319121 -0.9930552 -0.417067 0.722382 0.5515608 -0.2271082 0.393364 0.890891 -0.05882585 0.1018893 0.993055 -0.2158883 0.8057118 -0.5515622 -0.03045111 0.1136436 -0.9930548 -0.05882376 0.1018858 -0.9930555 -0.2158883 0.8057118 0.5515623 -0.1175581 0.4387357 0.8908935 -0.03045004 0.1136397 0.9930554 -0.1175581 0.4387357 -0.8908935 1.60081e-6 0.8341324 0.5515644 -4.10405e-6 0.6660155 0.745938 0.2548729 0.615318 0.7459381 0.2548731 0.615318 0.745938 0.4709472 0.4709411 0.7459379 0.4709442 0.4709435 0.7459383 0.6153181 0.2548732 0.7459378 0.6660159 0 0.7459377 0.666015 0 0.7459384 0.6153182 -0.2548732 0.7459378 0.4709442 -0.4709435 0.7459382 0.4709472 -0.4709411 0.7459379 0.2548727 -0.6153181 0.7459381 0.2548732 -0.615318 0.745938 -4.10405e-6 -0.6660155 0.745938 1.40087e-7 -0.6660156 0.7459379 -0.2548769 -0.6153165 0.745938 -0.2548727 -0.6153184 0.7459378 -0.4709469 -0.4709414 0.7459379 -0.4709441 -0.4709435 0.7459383 -0.615318 -0.2548731 0.7459381 -0.6660155 0 0.745938 -0.666015 0 0.7459383 -0.615318 0.2548731 0.745938 -0.4709441 0.4709436 0.7459383 -0.4709469 0.4709414 0.7459379 -6.88178e-7 0 1 -3.011e-7 0 1 3.01099e-7 0 1 -0.2548726 0.6153184 0.7459378 -0.2548769 0.6153166 0.745938 1.57598e-7 0.6660155 0.745938 0 0 -1 0 0 -1 0 0 -1 -1 0 0 -1 -1.74279e-7 0 -1 -1.81899e-7 0 1 -1.26349e-6 0 1 5.70536e-7 0 1 -1.3859e-6 0 -0.01216793 0.378614 -0.9254747 0.01805192 0.3004716 -0.9536199 0.0317654 0.2641134 -0.9639685 0.06286764 0.8432968 0.5337586 0.06491225 0.9268932 0.3696693 0.06493085 0.928255 0.3662332 -0.01216793 -0.378614 0.9254747 0.01805192 -0.3004716 0.9536199 0.0317654 -0.2641134 0.9639685 0.06286764 -0.8432968 -0.5337586 0.06491225 -0.9268932 -0.3696693 0.06493085 -0.928255 -0.3662332 -0.7660453 -0.6427866 -2.22212e-6 -0.7660438 -0.6427885 2.22211e-6 -0.7660437 -0.6427887 2.42532e-6 0.7660437 0.6427885 -2.38926e-6 0.7660446 0.6427876 3.34206e-6 0.7660437 0.6427885 -2.77179e-6 -0.2526895 0.2822136 -0.9254748 -0.1793109 0.2417781 -0.9536199 -0.1454351 0.222741 -0.9639684 -0.4939011 0.6864129 0.5337595 -0.54607 0.7517663 0.3696686 -0.5469312 0.7528215 0.3662323 0.2340472 -0.2978566 0.9254747 0.206968 -0.2185709 0.95362 0.1941024 -0.1819039 0.9639685 0.5902212 -0.6055936 -0.5337559 0.6455202 -0.6683153 -0.3696733 0.6464099 -0.6693467 -0.3662367 -0.1736481 -0.9848079 0 -0.1736486 -0.9848078 -8.71396e-7 -0.1736486 -0.9848077 -9.09497e-7 0.1736474 0.9848079 4.87032e-6 0.1736463 0.9848081 -5.21679e-6 0.1736475 0.9848079 5.54359e-6 -0.3749749 0.05376249 -0.9254747 -0.2927719 0.06995403 -0.95362 -0.2545847 0.07714563 -0.9639685 -0.8195698 0.2083499 0.5337564 -0.9015393 0.2248792 0.3696708 -0.902877 0.225134 0.3662346 0.3707489 -0.07772874 0.9254748 0.2990414 -0.03439861 0.95362 0.2656168 -0.01457995 0.9639685 0.8414022 -0.08452445 -0.5337583 0.9240827 -0.09702718 -0.3696714 0.9254272 -0.09724539 -0.3662349 0.5000002 -0.8660253 9.84736e-7 0.5000004 -0.8660252 1.30417e-6 0.5000004 -0.8660253 1.31877e-6 -0.5 0.8660256 0 -0.5000002 0.8660253 -1.63036e-7 -0.4999999 0.8660255 0 -0.3218053 -0.1998447 -0.9254748 -0.269242 -0.1346023 -0.95362 -0.2446115 -0.1045469 -0.9639685 -0.7617518 -0.3672042 0.533756 -0.8351685 -0.4072304 0.3696716 -0.8363571 -0.4078952 0.3662354 0.3339733 0.1787691 0.9254747 0.25119 0.1658691 0.95362 0.2128461 0.1595662 0.9639685 0.698884 0.476094 -0.5337563 0.7702569 0.5196618 -0.3696699 0.7714271 0.5203588 -0.3662337 0.939693 -0.3420191 2.54087e-6 0.9396929 -0.3420193 2.41588e-6 0.939693 -0.3420193 2.41017e-6 -0.9396923 0.3420214 -1.9271e-6 -0.9396928 0.3420197 3.46317e-7 -0.9396922 0.3420215 -2.07885e-6 -0.1180595 -0.3599423 -0.9254747 -0.1197307 -0.2761768 -0.9536199 -0.1201819 -0.2373209 -0.9639685 -0.3475013 -0.7709385 0.5337572 -0.3780139 -0.8487929 0.3696705 -0.3784971 -0.8500663 0.3662341 0.1409279 0.3516191 0.9254748 0.08580416 0.2885251 0.9536199 0.06048244 0.2590498 0.9639685 0.2293486 0.8139423 -0.5337578 0.2560191 0.8931967 -0.3696674 0.2564674 0.8944829 -0.3662307 0.9396932 0.3420187 -2.07486e-6 0.939693 0.3420192 -2.36651e-6 0.939693 0.3420192 -2.37985e-6 -0.9396923 -0.3420214 -1.35274e-6 -0.9396924 -0.3420208 -8.5603e-7 -0.9396922 -0.3420214 -1.3859e-6 0.1409277 -0.3516191 -0.9254747 0.08580398 -0.2885251 -0.9536199 0.06048226 -0.2590498 -0.9639685 0.2293484 -0.813943 0.5337567 0.2560182 -0.8931956 0.3696708 0.2564665 -0.8944818 0.366234 -0.1180593 0.3599424 0.9254747 -0.1197305 0.2761769 0.9536199 -0.1201817 0.237321 0.9639685 -0.347501 0.7709386 -0.533757 -0.3780134 0.8487932 -0.3696702 -0.3784967 0.8500665 -0.366234 0.5000004 0.8660252 -9.7267e-7 0.5000002 0.8660253 -1.02822e-6 0.5000002 0.8660254 -1.03076e-6 -0.5000002 -0.8660253 0 -0.5 -0.8660256 8.15181e-7 -0.5000002 -0.8660252 0 0.3339733 -0.1787691 -0.9254747 0.25119 -0.1658691 -0.95362 0.2128461 -0.1595662 -0.9639685 0.698884 -0.476094 0.5337563 0.7702569 -0.5196618 0.3696699 0.7714271 -0.5203588 0.3662337 -0.3218053 0.1998447 0.9254748 -0.269242 0.1346023 0.95362 -0.2446115 0.1045469 0.9639685 -0.7617518 0.3672042 -0.533756 -0.8351685 0.4072304 -0.3696716 -0.8363571 0.4078952 -0.3662354 -0.1736486 0.9848077 9.49809e-7 -0.1736481 0.9848079 5.05385e-7 -0.1736481 0.9848079 4.85064e-7 0.1736464 -0.9848081 4.94172e-6 0.1736474 -0.9848079 -4.07554e-6 0.1736463 -0.9848081 5.54359e-6 0.3707489 0.07772874 -0.9254748 0.2990414 0.03439861 -0.95362 0.2656168 0.01457995 -0.9639685 0.8414022 0.08452445 0.5337583 0.9240827 0.09702718 0.3696714 0.9254272 0.09724539 0.3662349 -0.3749749 -0.05376249 0.9254747 -0.2927719 -0.06995403 0.95362 -0.2545847 -0.07714563 0.9639685 -0.8195698 -0.2083499 -0.5337564 -0.9015393 -0.2248792 -0.3696708 -0.902877 -0.225134 -0.3662346 -0.7660438 0.6427885 -2.22374e-6 -0.7660452 0.6427868 2.1849e-6 -0.7660453 0.6427866 2.38648e-6 0.7660444 -0.6427877 -2.39946e-6 0.7660441 -0.6427882 3.17903e-6 0.7660444 -0.6427877 -2.7718e-6 0.2340472 0.2978566 -0.9254747 0.206968 0.2185709 -0.95362 0.1941024 0.1819039 -0.9639685 0.5902212 0.6055936 0.5337559 0.6455202 0.6683153 0.3696733 0.6464099 0.6693467 0.3662367 -0.2526895 -0.2822136 0.9254748 -0.1793109 -0.2417781 0.9536199 -0.1454351 -0.222741 0.9639684 -0.4939011 -0.6864129 -0.5337595 -0.54607 -0.7517663 -0.3696686 -0.5469312 -0.7528215 -0.3662323 0.615319 0.2548713 0.7459378 0.6153191 -0.2548713 0.7459378 -0.6153187 -0.2548712 0.7459381 -0.6153188 0.2548712 0.7459381 6.02267e-7 0 1 0 0 1 0 0 1 3.44095e-7 0 1 4.81825e-6 0 1 6.88178e-7 0 1 -6.02277e-7 0 1 0 0 1 -3.44095e-7 0 1 -4.81825e-6 0 1 0 0 -1 0 0 -1 -2.8255e-7 0 -1 -1 0 0 1 6.92949e-7 0 -0.02261739 0.4050016 -0.9140362 0.06280559 0.8413515 0.5368269 -0.02261739 -0.4050016 0.9140362 0.06280559 -0.8413515 -0.5368269 -0.7660454 -0.6427866 -2.42533e-6 0.7660446 0.6427875 3.7246e-6 -0.277656 0.295711 -0.9140363 -0.4926983 0.6848829 0.5368276 0.2430041 -0.3247875 0.9140362 0.5889234 -0.6041434 -0.5368241 -0.1736481 -0.9848079 0 0.1736463 0.9848082 -5.89006e-6 -0.4027761 0.04805397 -0.9140362 -0.8176652 0.2079511 0.5368242 0.3949212 -0.09260159 0.9140363 0.8394758 -0.08424776 -0.5368267 0.5000001 -0.8660253 9.7013e-7 -0.5000002 0.8660252 -1.73237e-7 -0.339433 -0.222088 -0.9140363 -0.7600362 -0.3662853 0.5368241 0.3620505 0.1829134 0.9140362 0.6972306 0.4750679 -0.5368242 0.939693 -0.3420192 2.54659e-6 -0.9396929 0.3420196 4.98057e-7 -0.1172654 -0.3883126 -0.9140363 -0.3467777 -0.7691319 0.5368252 0.1597722 0.3728415 0.9140362 0.2287415 0.8120928 -0.5368264 0.9396932 0.3420187 -2.06153e-6 -0.9396924 -0.3420208 -8.22877e-7 0.159772 -0.3728414 -0.9140362 0.2287413 -0.8120936 0.5368253 -0.1172652 0.3883126 0.9140362 -0.3467774 0.7691321 -0.5368253 0.5000004 0.8660253 -9.7013e-7 -0.4999999 -0.8660255 8.66186e-7 0.3620505 -0.1829134 -0.9140362 0.6972306 -0.4750679 0.5368242 -0.339433 0.222088 0.9140363 -0.7600362 0.3662853 -0.5368241 -0.1736486 0.9848077 9.7013e-7 0.1736475 -0.984808 -4.6774e-6 0.3949212 0.09260159 -0.9140363 0.8394758 0.08424776 0.5368267 -0.4027761 -0.04805397 0.9140362 -0.8176652 -0.2079511 -0.5368242 -0.7660437 0.6427886 -2.42532e-6 0.766044 -0.6427882 3.55136e-6 0.2430041 0.3247875 -0.9140362 0.5889234 0.6041434 0.5368241 -0.277656 -0.295711 0.9140363 -0.4926983 -0.6848829 -0.5368276</float_array>
          <technique_common>
            <accessor source="#lift_fan-mesh-normals-array" count="459" stride="3">
              <param name="X" type="float"/>
              <param name="Y" type="float"/>
              <param name="Z" type="float"/>
            </accessor>
          </technique_common>
        </source>
        <vertices id="lift_fan-mesh-vertices">
          <input semantic="POSITION" source="#lift_fan-mesh-positions"/>
        </vertices>
        <triangles material="aluminium-material" count="440">
          <input semantic="VERTEX" source="#lift_fan-mesh-vertices" offset="0"/>
          <input semantic="NORMAL" source="#lift_fan-mesh-normals" offset="1"/>
          <p>69 0 63 1 71 2 31 3 38 4 39 5 189 6 0 7 185 8 71 2 62 9 70 10 29 11 39 5 37 12 21 13 25 14 17 15 67 16 58 17 59 18 34 19 24 20 26 21 29 11 33 22 25 14 65 23 59 18 57 24 27 25 34 19 26 21 37 12 41 26 33 22 62 9 52 27 60 28 25 14 35 29 27 25 45 30 49 31 41 26 55 32 62 9 63 1 30 33 20 34 28 35 53 36 57 24 49 31 61 37 55 32 63 1 31 3 22 38 30 33 61 37 65 23 57 24 58 17 48 39 50 40 21 13 31 3 29 11 69 0 73 41 65 23 51 42 58 17 50 40 26 21 16 43 18 44 77 45 81 46 73 41 57 24 51 42 49 31 27 25 18 44 19 47 85 48 89 49 81 46 46 50 52 27 54 51 17 15 27 25 19 47 93 52 97 53 89 49 55 32 46 50 54 51 14 54 20 34 22 38 101 55 105 56 97 53 45 30 55 32 53 36 23 57 14 54 22 38 109 58 113 59 105 56 42 60 48 39 40 61 13 62 23 57 21 13 117 63 121 64 113 59 51 42 42 60 43 65 10 66 16 43 8 67 125 68 129 69 121 64 41 26 51 42 43 65 19 47 10 66 11 70 133 71 137 72 129 69 38 4 44 73 46 50 9 74 19 47 11 70 141 75 145 76 137 72 39 5 46 50 47 77 14 54 4 78 12 79 149 80 153 81 145 76 37 12 47 77 45 30 15 82 6 83 14 54 157 84 161 85 153 81 34 19 40 61 32 86 5 87 15 82 13 62 165 88 169 89 161 85 35 29 42 60 34 19 10 66 1 90 2 91 173 92 177 93 169 89 33 22 43 65 35 29 11 70 2 91 3 94 181 95 185 8 177 93 13 62 17 15 9 74 0 7 11 70 3 94 66 96 56 97 58 17 38 4 28 35 36 98 148 99 84 100 20 34 5 87 9 74 0 7 70 10 60 28 68 101 73 41 67 16 65 23 75 102 66 96 67 16 66 96 72 103 64 104 77 45 71 2 79 105 79 105 70 10 78 106 70 10 76 107 78 106 81 46 75 102 73 41 75 102 82 108 74 109 74 109 80 110 72 103 85 48 79 105 87 111 79 105 86 112 87 111 78 106 84 100 86 112 89 49 83 113 81 46 83 113 90 114 82 108 90 114 80 110 82 108 93 52 87 111 95 115 87 111 94 116 95 115 94 116 84 100 92 117 97 53 91 118 89 49 91 118 98 119 90 114 90 114 96 120 88 121 101 55 95 115 103 122 95 115 102 123 103 122 94 116 100 124 102 123 97 53 107 125 99 126 99 126 106 127 98 119 106 127 96 120 98 119 101 55 111 128 109 58 103 122 110 129 111 128 110 129 100 124 108 130 113 59 107 125 105 56 107 125 114 131 106 127 114 131 104 132 106 127 117 63 111 128 119 133 111 128 118 134 119 133 118 134 108 130 116 135 121 64 115 136 113 59 115 136 122 137 114 131 114 131 120 138 112 139 125 68 119 133 127 140 119 133 126 141 127 140 118 134 124 142 126 141 129 69 123 143 121 64 123 143 130 144 122 137 122 137 128 145 120 138 133 71 127 140 135 146 127 140 134 147 135 146 126 141 132 148 134 147 137 72 131 149 129 69 131 149 138 150 130 144 130 144 136 151 128 145 141 75 135 146 143 152 135 146 142 153 143 152 134 147 140 154 142 153 145 76 139 155 137 72 139 155 146 156 138 150 138 150 144 157 136 151 141 75 151 158 149 80 143 152 150 159 151 158 142 153 148 99 150 159 153 81 147 160 145 76 155 161 146 156 147 160 154 162 144 157 146 156 149 80 159 163 157 84 159 163 150 159 158 164 158 164 148 99 156 165 153 81 163 166 155 161 163 166 154 162 155 161 162 167 152 168 154 162 157 84 167 169 165 88 167 169 158 164 166 170 166 170 156 165 164 171 161 85 171 172 163 166 171 172 162 167 163 166 170 173 160 174 162 167 165 88 175 175 173 92 175 175 166 170 174 176 174 176 164 171 172 177 169 89 179 178 171 172 179 178 170 173 171 172 178 179 168 180 170 173 173 92 183 181 181 95 183 181 174 176 182 182 182 182 172 177 180 183 177 93 187 184 179 178 187 184 178 179 179 178 178 179 184 185 176 186 181 95 191 187 189 6 191 187 182 182 190 188 182 182 188 189 190 188 0 7 187 184 185 8 3 94 186 190 187 184 186 190 1 90 184 185 5 87 191 187 7 191 7 191 190 188 6 83 190 188 4 78 6 83 56 97 120 138 184 185 192 192 195 193 194 194 195 193 196 195 194 194 197 196 198 197 196 195 198 197 201 198 200 199 201 198 202 200 200 199 202 200 205 201 204 202 204 202 207 203 206 204 207 203 208 205 206 204 209 206 210 207 208 205 211 208 212 209 210 207 213 210 214 211 212 209 214 211 217 212 216 213 217 212 218 214 216 213 218 214 221 215 220 216 201 217 197 218 213 219 220 216 223 220 222 221 222 221 193 222 192 192 206 223 214 224 222 225 69 0 61 37 63 1 31 3 30 33 38 4 189 6 5 87 0 7 71 2 63 1 62 9 29 11 31 3 39 5 21 13 29 11 25 14 67 16 66 96 58 17 34 19 32 86 24 20 29 11 37 12 33 22 65 23 67 16 59 18 27 25 35 29 34 19 37 12 45 30 41 26 62 9 54 51 52 27 25 14 33 22 35 29 45 30 53 36 49 31 55 32 54 51 62 9 30 33 22 38 20 34 53 36 61 37 57 24 61 37 53 36 55 32 31 3 23 57 22 38 61 37 69 0 65 23 58 17 56 97 48 39 21 13 23 57 31 3 69 0 77 45 73 41 51 42 59 18 58 17 26 21 24 20 16 43 77 45 85 48 81 46 57 24 59 18 51 42 27 25 26 21 18 44 85 48 93 52 89 49 46 50 44 73 52 27 17 15 25 14 27 25 93 52 101 55 97 53 55 32 47 77 46 50 14 54 12 79 20 34 101 55 109 58 105 56 45 30 47 77 55 32 23 57 15 82 14 54 109 58 117 63 113 59 42 60 50 40 48 39 13 62 15 82 23 57 117 63 125 68 121 64 51 42 50 40 42 60 10 66 18 44 16 43 125 68 133 71 129 69 41 26 49 31 51 42 19 47 18 44 10 66 133 71 141 75 137 72 38 4 36 98 44 73 9 74 17 15 19 47 141 75 149 80 145 76 39 5 38 4 46 50 14 54 6 83 4 78 149 80 157 84 153 81 37 12 39 5 47 77 15 82 7 191 6 83 157 84 165 88 161 85 34 19 42 60 40 61 5 87 7 191 15 82 165 88 173 92 169 89 35 29 43 65 42 60 10 66 8 67 1 90 173 92 181 95 177 93 33 22 41 26 43 65 11 70 10 66 2 91 181 95 189 6 185 8 13 62 21 13 17 15 0 7 9 74 11 70 66 96 64 104 56 97 38 4 30 33 28 35 20 34 12 79 180 183 12 79 4 78 180 183 4 78 188 189 180 183 180 183 172 177 164 171 164 171 156 165 148 99 148 99 140 154 132 148 132 148 124 142 116 135 116 135 108 130 100 124 100 124 92 117 116 135 92 117 84 100 116 135 84 100 76 107 68 101 68 101 60 28 84 100 60 28 52 27 84 100 52 27 44 73 20 34 44 73 36 98 20 34 36 98 28 35 20 34 180 183 164 171 20 34 164 171 148 99 20 34 148 99 132 148 84 100 132 148 116 135 84 100 84 100 52 27 20 34 5 87 13 62 9 74 70 10 62 9 60 28 73 41 75 102 67 16 75 102 74 109 66 96 66 96 74 109 72 103 77 45 69 0 71 2 79 105 71 2 70 10 70 10 68 101 76 107 81 46 83 113 75 102 75 102 83 113 82 108 74 109 82 108 80 110 85 48 77 45 79 105 79 105 78 106 86 112 78 106 76 107 84 100 89 49 91 118 83 113 83 113 91 118 90 114 90 114 88 121 80 110 93 52 85 48 87 111 87 111 86 112 94 116 94 116 86 112 84 100 97 53 99 126 91 118 91 118 99 126 98 119 90 114 98 119 96 120 101 55 93 52 95 115 95 115 94 116 102 123 94 116 92 117 100 124 97 53 105 56 107 125 99 126 107 125 106 127 106 127 104 132 96 120 101 55 103 122 111 128 103 122 102 123 110 129 110 129 102 123 100 124 113 59 115 136 107 125 107 125 115 136 114 131 114 131 112 139 104 132 117 63 109 58 111 128 111 128 110 129 118 134 118 134 110 129 108 130 121 64 123 143 115 136 115 136 123 143 122 137 114 131 122 137 120 138 125 68 117 63 119 133 119 133 118 134 126 141 118 134 116 135 124 142 129 69 131 149 123 143 123 143 131 149 130 144 122 137 130 144 128 145 133 71 125 68 127 140 127 140 126 141 134 147 126 141 124 142 132 148 137 72 139 155 131 149 131 149 139 155 138 150 130 144 138 150 136 151 141 75 133 71 135 146 135 146 134 147 142 153 134 147 132 148 140 154 145 76 147 160 139 155 139 155 147 160 146 156 138 150 146 156 144 157 141 75 143 152 151 158 143 152 142 153 150 159 142 153 140 154 148 99 153 81 155 161 147 160 155 161 154 162 146 156 154 162 152 168 144 157 149 80 151 158 159 163 159 163 151 158 150 159 158 164 150 159 148 99 153 81 161 85 163 166 163 166 162 167 154 162 162 167 160 174 152 168 157 84 159 163 167 169 167 169 159 163 158 164 166 170 158 164 156 165 161 85 169 89 171 172 171 172 170 173 162 167 170 173 168 180 160 174 165 88 167 169 175 175 175 175 167 169 166 170 174 176 166 170 164 171 169 89 177 93 179 178 179 178 178 179 170 173 178 179 176 186 168 180 173 92 175 175 183 181 183 181 175 175 174 176 182 182 174 176 172 177 177 93 185 8 187 184 187 184 186 190 178 179 178 179 186 190 184 185 181 95 183 181 191 187 191 187 183 181 182 182 182 182 180 183 188 189 0 7 3 94 187 184 3 94 2 91 186 190 186 190 2 91 1 90 5 87 189 6 191 187 7 191 191 187 190 188 190 188 188 189 4 78 184 185 1 90 8 67 8 67 16 43 24 20 24 20 32 86 40 61 40 61 48 39 56 97 56 97 64 104 72 103 72 103 80 110 88 121 88 121 96 120 104 132 104 132 112 139 88 121 112 139 120 138 88 121 120 138 128 145 152 168 128 145 136 151 152 168 136 151 144 157 152 168 152 168 160 174 168 180 168 180 176 186 184 185 184 185 8 67 24 20 24 20 40 61 184 185 40 61 56 97 184 185 56 97 72 103 88 121 152 168 168 180 120 138 168 180 184 185 120 138 56 97 88 121 120 138 192 192 193 222 195 193 195 193 197 196 196 195 197 196 199 388 198 197 198 197 199 388 201 198 201 198 203 389 202 200 202 200 203 389 205 201 204 202 205 201 207 203 207 203 209 206 208 205 209 206 211 208 210 207 211 208 213 210 212 209 213 210 215 390 214 211 214 211 215 390 217 212 217 212 219 391 218 214 218 214 219 391 221 215 197 218 195 392 193 393 193 393 223 394 221 395 221 395 219 396 217 397 217 397 215 396 213 219 213 219 211 398 209 399 209 399 207 394 205 400 205 400 203 401 201 217 201 217 199 401 197 218 197 218 193 393 221 395 221 395 217 397 197 218 217 397 213 219 197 218 213 219 209 399 205 400 205 400 201 217 213 219 220 216 221 215 223 220 222 221 223 220 193 222 222 225 192 223 194 223 194 223 196 223 198 402 198 402 200 223 202 403 202 403 204 223 206 223 206 223 208 223 210 223 210 223 212 223 206 223 212 223 214 224 206 223 214 224 216 223 218 223 218 223 220 404 214 224 220 404 222 225 214 224 222 225 194 223 198 402 198 402 202 403 222 225 202 403 206 223 222 225</p>
        </triangles>
        <triangles material="blade-material" count="108">
          <input semantic="VERTEX" source="#lift_fan-mesh-vertices" offset="0"/>
          <input semantic="NORMAL" source="#lift_fan-mesh-normals" offset="1"/>
          <p>224 226 226 227 225 228 228 229 230 230 231 231 224 232 229 233 228 234 225 235 230 236 229 237 226 238 231 239 230 240 227 241 228 242 231 243 232 244 234 245 233 246 236 247 238 248 239 249 232 250 237 251 236 252 233 253 238 254 237 255 234 256 239 257 238 258 235 259 236 260 239 261 240 262 242 263 241 264 244 265 246 266 247 267 240 268 245 269 244 270 241 271 246 272 245 273 242 274 247 275 246 276 243 277 244 278 247 279 248 280 250 281 249 282 252 283 254 284 255 285 248 286 253 287 252 288 249 289 254 290 253 291 250 292 255 293 254 294 251 295 252 296 255 297 256 298 258 299 257 300 260 301 262 302 263 303 256 304 261 305 260 306 257 307 262 308 261 309 258 310 263 311 262 312 259 313 260 314 263 315 264 316 266 317 265 318 268 319 270 320 271 321 264 322 269 323 268 324 265 325 270 326 269 327 266 328 271 329 270 330 267 331 268 332 271 333 272 334 274 335 273 336 276 337 278 338 279 339 272 340 277 341 276 342 273 343 278 344 277 345 274 346 279 347 278 348 275 349 276 350 279 351 280 352 282 353 281 354 284 355 286 356 287 357 280 358 285 359 284 360 281 361 286 362 285 363 282 364 287 365 286 366 283 367 284 368 287 369 288 370 290 371 289 372 292 373 294 374 295 375 288 376 293 377 292 378 289 379 294 380 293 381 290 382 295 383 294 384 291 385 292 386 295 387 224 226 227 405 226 227 228 229 229 406 230 230 224 232 225 407 229 233 225 235 226 408 230 236 226 238 227 409 231 239 227 241 224 410 228 242 232 244 235 411 234 245 236 247 237 412 238 248 232 250 233 413 237 251 233 253 234 414 238 254 234 256 235 415 239 257 235 259 232 416 236 260 240 262 243 417 242 263 244 265 245 418 246 266 240 268 241 419 245 269 241 271 242 420 246 272 242 274 243 421 247 275 243 277 240 422 244 278 248 280 251 423 250 281 252 283 253 424 254 284 248 286 249 425 253 287 249 289 250 426 254 290 250 292 251 427 255 293 251 295 248 428 252 296 256 298 259 429 258 299 260 301 261 430 262 302 256 304 257 431 261 305 257 307 258 432 262 308 258 310 259 433 263 311 259 313 256 434 260 314 264 316 267 435 266 317 268 319 269 436 270 320 264 322 265 437 269 323 265 325 266 438 270 326 266 328 267 439 271 329 267 331 264 440 268 332 272 334 275 441 274 335 276 337 277 442 278 338 272 340 273 443 277 341 273 343 274 444 278 344 274 346 275 445 279 347 275 349 272 446 276 350 280 352 283 447 282 353 284 355 285 448 286 356 280 358 281 449 285 359 281 361 282 450 286 362 282 364 283 451 287 365 283 367 280 452 284 368 288 370 291 453 290 371 292 373 293 454 294 374 288 376 289 455 293 377 289 379 290 456 294 380 290 382 291 457 295 383 291 385 288 458 292 386</p>
        </triangles>
      </mesh>
    </geometry>
  </library_geometries>
  <library_visual_scenes>
    <visual_scene id="Scene" name="Scene">
      <node id="lift_fan" name="lift_fan" type="NODE">
        <matrix sid="transform">1 0 0 0 0 1 0 0 0 0 1 0 0 0 0 1</matrix>
        <instance_geometry url="#lift_fan-mesh" name="lift_fan">
          <bind_material>
            <technique_common>
              <instance_material symbol="aluminium-material" target="#aluminium-material"/>
              <instance_material symbol="blade-material" target="#blade-material"/>
            </technique_common>
          </bind_material>
        </instance_geometry>
      </node>
    </visual_scene>
  </library_visual_scenes>
  <scene>
    <instance_visual_scene url="#Scene"/>
  </scene>
</COLLADA>