<?xml version="1.0" encoding="utf-8"?>
<COLLADA xmlns="http://www.collada.org/2005/11/COLLADASchema" version="1.4.1" xmlns:xsi="http://www.w3.org/2001/XMLSchema-instance">
  <asset>
    <contributor>
      <author>Blender User</author>
      <authoring_tool>Blender 4.2.0 commit date:2024-07-16, commit time:07:50, hash:bf738fd35afe</authoring_tool>
    </contributor>
    <created>2026-09-26T21:45:48</created>
    <modified>2026-09-26T21:45:48</modified>
    <unit name="meter" meter="1"/>
    <up_axis>Z_UP</up_axis>
  </asset>
  <library_effects>
    <effect id="olive-effect">
      <profile_COMMON>
        <technique sid="common">
          <lambert>
            <emission>
              <color sid="emission">0 0 0 1</color>
            </emission>
            <diffuse>
              <color sid="diffuse">0.115 0.135 0.04 1</color>
            </diffuse>
            <index_of_refraction>
              <float sid="ior">1.5</float>
            </index_of_refraction>
          </lambert>
        </technique>
      </profile_COMMON>
    </effect>
    <effect id="gunmetal-effect">
      <profile_COMMON>
        <technique sid="common">
          <lambert>
            <emission>
              <color sid="emission">0 0 0 1</color>
            </emission>
            <diffuse>
              <color sid="diffuse">0.045 0.047 0.05 1</color>
            </diffuse>
            <reflectivity>
              <float sid="specular">0.7</float>
            </reflectivity>
            <index_of_refraction>
              <float sid="ior">1.5</float>
            </index_of_refraction>
          </lambert>
        </technique>
      </profile_COMMON>
    </effect>
    <effect id="orange-effect">
      <profile_COMMON>
        <technique sid="common">
          <lambert>
            <emission>
              <color sid="emission">0 0 0 1</color>
            </emission>
            <diffuse>
              <color sid="diffuse">1 0.23 0.01 1</color>
            </diffuse>
            <index_of_refraction>
              <float sid="ior">1.5</float>
            </index_of_refraction>
          </lambert>
        </technique>
      </profile_COMMON>
    </effect>
  </library_effects>
  <library_images/>
  <library_materials>
    <material id="olive-material" name="olive">
      <instance_effect url="#olive-effect"/>
    </material>
    <material id="gunmetal-material" name="gunmetal">
      <instance_effect url="#gunmetal-effect"/>
    </material>
    <material id="orange-material" name="orange">
      <instance_effect url="#orange-effect"/>
    </material>
  </library_materials>
  <library_geometries>
    <geometry id="puff_stern_left-mesh" name="puff_stern_left">
      <mesh>
        <source id="puff_stern_left-mesh-positions">
          <float_array id="puff_stern_left-mesh-positions-array" count="552">-0.1524 -0.003600001 -0.06699997 -0.1524 -0.001797616 -0.06959921 -0.1541975 0 -0.06959921 -0.1541216 -0.00172156 -0.06920987 -0.1541975 -0.003119051 -0.06699997 -0.1524 -0.003119051 -0.06849801 -0.1541216 -0.00265187 -0.06843459 -0.155519 0 -0.06849801 -0.155519 -0.001797616 -0.06699997 -0.1550518 -0.00172156 -0.06843459 -0.1524 -0.003600001 0.06700003 -0.156 0 0.06700003 -0.1524 -0.003119051 0.06849801 -0.1541975 -0.003119051 0.06700003 -0.1541216 -0.00265187 0.06843465 -0.1541975 0 0.06959921 -0.1524 -0.001797616 0.06959921 -0.1541216 -0.00172156 0.06920987 -0.155519 -0.001797616 0.06700003 -0.155519 0 0.06849801 -0.1550518 -0.00172156 0.06843465 -0.1524 0 -0.06999999 -0.156 0 -0.06699997 -0.1524 0.00360006 -0.06699997 -0.1524 0.001797676 -0.06959921 -0.1541215 0.00172156 -0.06920987 -0.155519 0.001797676 -0.06699997 -0.1550518 0.00172156 -0.06843459 -0.1524 0.003119111 -0.06849801 -0.1541975 0.003119111 -0.06699997 -0.1541215 0.00265187 -0.06843459 -0.1524 0 0.06999999 -0.1524 0.00360006 0.06700003 -0.1524 0.001797676 0.06959921 -0.1541216 0.00172156 0.06920987 -0.1541975 0.003119111 0.06700003 -0.1524 0.003119111 0.06849801 -0.1541216 0.00265187 0.06843465 -0.155519 0.001797676 0.06700003 -0.1550518 0.00172156 0.06843465 0.1523999 0 -0.06999999 0.156 0 -0.06699997 0.1523999 -0.003600001 -0.06699997 0.1523999 -0.001797616 -0.06959921 0.1541215 -0.00172156 -0.06920987 0.155519 -0.001797616 -0.06699997 0.155519 0 -0.06849801 0.1550518 -0.00172156 -0.06843459 0.1523999 -0.003119051 -0.06849801 0.1541976 -0.003119051 -0.06699997 0.1541215 -0.00265187 -0.06843459 0.1523999 -0.003600001 0.06700003 0.1523999 -0.001797616 0.06959921 0.1541976 0 0.06959921 0.1541215 -0.00172156 0.06920987 0.1541976 -0.003119051 0.06700003 0.1523999 -0.003119051 0.06849801 0.1541215 -0.00265187 0.06843465 0.155519 0 0.06849801 0.155519 -0.001797616 0.06700003 0.1550518 -0.00172156 0.06843465 0.1523999 0.00360006 -0.06699997 0.1523999 0.001797676 -0.06959921 0.1541976 0 -0.06959921 0.1541215 0.00172156 -0.06920987 0.1541976 0.003119111 -0.06699997 0.1523999 0.003119111 -0.06849801 0.1541215 0.00265187 -0.06843459 0.155519 0.001797676 -0.06699997 0.1550518 0.00172156 -0.06843459 0.1523999 0 0.06999999 0.156 0 0.06700003 0.1523999 0.00360006 0.06700003 0.1523999 0.001797676 0.06959921 0.1541215 0.00172156 0.06920987 0.155519 0.001797676 0.06700003 0.1550518 0.00172156 0.06843465 0.1523999 0.003119111 0.06849801 0.1541976 0.003119111 0.06700003 0.1541215 0.00265187 0.06843465 -0.1356 0.003599941 -0.04500001 -0.1356 0 -0.04199999 -0.1391999 0.003599941 -0.04199999 -0.1356 0.001802384 -0.04459917 -0.1373976 0.003599941 -0.04459917 -0.1373215 0.00187844 -0.04420989 -0.1373976 4.8095e-4 -0.04199999 -0.1356 4.8095e-4 -0.04349803 -0.1373215 9.48071e-4 -0.04343461 -0.138719 0.003599941 -0.04349803 -0.138719 0.001802384 -0.04199999 -0.1382519 0.00187844 -0.04343461 -0.1356 0 0.04199999 -0.1356 0.003599941 0.04500001 -0.1391999 0.003599941 0.04199999 -0.1356 4.8095e-4 0.04349803 -0.1373976 4.8095e-4 0.04199999 -0.1373215 9.48071e-4 0.04343461 -0.1373976 0.003599941 0.04459923 -0.1356 0.001802384 0.04459923 -0.1373215 0.00187844 0.04420989 -0.138719 0.001802384 0.04199999 -0.138719 0.003599941 0.04349803 -0.1382519 0.00187844 0.04343461 -0.1356 0.0108 -0.04500001 -0.1391999 0.0108 -0.04199999 -0.1356 0.01439994 -0.04199999 -0.1373976 0.0108 -0.04459917 -0.1356 0.01259762 -0.04459917 -0.1373215 0.01252156 -0.04420989 -0.138719 0.01259762 -0.04199999 -0.138719 0.0108 -0.04349803 -0.1382519 0.01252156 -0.04343461 -0.1356 0.01391905 -0.04349803 -0.1373976 0.01391905 -0.04199999 -0.1373215 0.01345187 -0.04343461 -0.1356 0.0108 0.04500001 -0.1356 0.01439994 0.04199999 -0.1391999 0.0108 0.04199999 -0.1356 0.01259762 0.04459923 -0.1373976 0.0108 0.04459923 -0.1373215 0.01252156 0.04420989 -0.1373976 0.01391905 0.04199999 -0.1356 0.01391905 0.04349803 -0.1373215 0.01345187 0.04343461 -0.138719 0.0108 0.04349803 -0.138719 0.01259762 0.04199999 -0.1382519 0.01252156 0.04343461 -0.1283999 0.003599941 -0.04500001 -0.1248 0.003599941 -0.04199999 -0.1283999 0 -0.04199999 -0.1266024 0.003599941 -0.04459917 -0.1283999 0.001802384 -0.04459917 -0.1266784 0.00187844 -0.04420989 -0.1252809 0.001802384 -0.04199999 -0.1252809 0.003599941 -0.04349803 -0.1257481 0.00187844 -0.04343461 -0.1283999 4.8095e-4 -0.04349803 -0.1266024 4.8095e-4 -0.04199999 -0.1266784 9.48071e-4 -0.04343461 -0.1283999 0.003599941 0.04500001 -0.1283999 0 0.04199999 -0.1248 0.003599941 0.04199999 -0.1283999 0.001802384 0.04459923 -0.1266024 0.003599941 0.04459923 -0.1266784 0.00187844 0.04420989 -0.1266024 4.8095e-4 0.04199999 -0.1283999 4.8095e-4 0.04349803 -0.1266784 9.48071e-4 0.04343461 -0.1252809 0.003599941 0.04349803 -0.1252809 0.001802384 0.04199999 -0.1257481 0.00187844 0.04343461 -0.1283999 0.0108 -0.04500001 -0.1283999 0.01439994 -0.04199999 -0.1248 0.0108 -0.04199999 -0.1283999 0.01259762 -0.04459917 -0.1266024 0.0108 -0.04459917 -0.1266784 0.01252156 -0.04420989 -0.1266024 0.01391905 -0.04199999 -0.1283999 0.01391905 -0.04349803 -0.1266784 0.01345187 -0.04343461 -0.1252809 0.0108 -0.04349803 -0.1252809 0.01259762 -0.04199999 -0.1257481 0.01252156 -0.04343461 -0.1283999 0.0108 0.04500001 -0.1248 0.0108 0.04199999 -0.1283999 0.01439994 0.04199999 -0.1266024 0.0108 0.04459923 -0.1283999 0.01259762 0.04459923 -0.1266784 0.01252156 0.04420989 -0.1252809 0.01259762 0.04199999 -0.1252809 0.0108 0.04349803 -0.1257481 0.01252156 0.04343461 -0.1283999 0.01391905 0.04349803 -0.1266024 0.01391905 0.04199999 -0.1266784 0.01345187 0.04343461 0.12 0.00300002 -0.06999999 0.12 0.00300002 0.06999999 0.12 0.005400002 -0.06999999 0.12 0.005400002 0.06999999 0.156 0.00300002 -0.06999999 0.156 0.00300002 0.06999999 0.156 0.005400002 -0.06999999 0.156 0.005400002 0.06999999</float_array>
          <technique_common>
            <accessor source="#puff_stern_left-mesh-positions-array" count="184" stride="3">
              <param name="X" type="float"/>
              <param name="Y" type="float"/>
              <param name="Z" type="float"/>
            </accessor>
          </technique_common>
        </source>
        <source id="puff_stern_left-mesh-normals">
          <float_array id="puff_stern_left-mesh-normals-array" count="546">0.1273263 -0.9801997 0.1516467 -0.1273338 -0.9801992 -0.1516435 0.127325 -0.9802005 -0.1516419 -0.1273338 0.9801987 0.1516464 0.1273263 0.9802001 -0.1516439 -0.1273336 0.9801995 -0.1516415 -0.1060386 -0.4365133 -0.8934271 -0.4365472 4.93753e-6 -0.8996815 -0.1078503 -3.00143e-6 -0.9941672 -0.4342754 -0.7447548 -0.5067003 -0.4046497 -0.4046016 -0.8200953 -0.48925 -0.8601284 -0.144269 -0.1164103 -0.827641 -0.549053 -0.8601171 -0.4892658 -0.1442829 -0.8377873 -1.5001e-6 -0.5459969 -0.988538 -8.11407e-6 -0.1509723 -0.7447772 -0.434226 -0.5067098 -0.1164062 -0.8276416 0.5490529 -0.4892532 -0.8601264 0.1442699 -0.1273335 -0.980199 0.1516444 -0.1060398 -0.4365119 0.8934277 -0.4342727 -0.7447496 0.5067103 -0.4365425 -9.84414e-7 0.8996837 -0.1078503 -3.92419e-6 0.9941672 -0.7447729 -0.4342222 0.5067194 -0.4046444 -0.4045937 0.8201019 -0.8601213 -0.4892583 0.1442838 -0.837788 -1.0662e-6 0.5459958 -0.9885377 1.52712e-7 0.1509745 -0.1060495 0.4365141 -0.8934254 -0.7447521 0.4342494 -0.5067266 -0.4046302 0.4046157 -0.8200979 -0.8601164 0.4892631 -0.1442966 -0.4342682 0.7447403 -0.5067277 -0.116423 0.8276381 -0.5490545 -0.4892612 0.8601178 -0.1442943 -0.1060458 0.4365106 0.8934276 -0.4342819 0.7447353 0.5067235 -0.4046508 0.4045904 0.8201003 -0.4892507 0.860126 0.1442809 -0.1164147 0.8276392 0.5490548 -0.8601164 0.4892646 0.1442913 -0.7447683 0.4342185 0.5067291 0.4365462 -3.7908e-6 -0.899682 0.1060391 -0.4365159 -0.8934258 0.1078435 -3.9341e-6 -0.9941679 0.7447413 -0.4342663 -0.5067281 0.404617 -0.4046257 -0.8200996 0.8601207 -0.489256 -0.1442947 0.8377903 -8.36043e-7 -0.5459921 0.9885405 -3.52758e-6 -0.1509556 0.4892544 -0.8601221 -0.1442922 0.1164098 -0.8276401 -0.5490544 0.4342468 -0.744754 -0.506726 0.1060377 -0.4365137 0.8934271 0.4365425 1.48179e-6 0.8996837 0.1078435 -3.01135e-6 0.9941679 0.4342594 -0.7447478 0.5067244 0.4046251 -0.4046103 0.8201031 0.4892545 -0.8601225 0.1442893 0.1164034 -0.8276408 0.5490548 0.7447462 -0.4342556 0.50673 0.837791 -1.76468e-6 0.5459912 0.8601211 -0.4892551 0.1442955 0.9885402 -4.39293e-6 0.1509578 0.1060423 0.4365142 -0.8934262 0.4342673 0.7447394 -0.50673 0.4046363 0.404612 -0.8200967 0.4892524 0.8601226 -0.1442951 0.1164152 0.8276389 -0.5490549 0.8601207 0.4892543 -0.1443006 0.7447482 0.4342456 -0.5067355 0.1060466 0.4365139 0.8934258 0.7447334 0.4342563 0.5067482 0.4046193 0.404616 0.8201031 0.86012 0.4892548 0.1443032 0.4892546 0.8601199 0.1443042 0.1164147 0.8276373 0.5490575 0.127325 0.9802001 0.1516448 0.4342534 0.7447346 0.506749 0.1273326 -0.9802003 0.1516372 -0.1273339 -0.9802 -0.1516378 0.1273325 -0.9802002 -0.1516386 0.9802049 0.1273165 0.1516209 0.9802045 -0.1273204 -0.1516208 0.9802051 0.1273135 -0.1516222 -0.1080367 0.1080349 0.9882593 0.1080373 -0.1080383 0.988259 0.1080396 0.1080341 0.9882592 -0.9802047 -0.1273181 0.1516209 -0.9802052 0.1273142 -0.1516211 -0.9802045 -0.127318 -0.1516222 -0.1273197 0.9802045 0.1516209 0.1273184 0.9802048 -0.1516204 -0.1273189 0.9802045 -0.1516222 -0.1060432 -0.4365167 -0.8934249 -0.4365149 -0.1060466 -0.8934254 -0.1080436 -0.1080457 -0.9882575 -0.4342605 -0.7447563 -0.5067108 -0.4046196 -0.4046027 -0.8201096 -0.4892598 -0.8601222 -0.1442739 -0.1164084 -0.8276418 -0.5490521 -0.7447566 -0.434254 -0.506716 -0.827645 -0.1164129 -0.5490463 -0.8601275 -0.4892495 -0.1442765 -0.1164116 -0.8276413 0.5490522 -0.4892614 -0.8601209 0.1442759 -0.1273331 -0.9801999 0.1516391 -0.1060466 -0.4365149 0.8934255 -0.4342654 -0.7447577 0.5067047 -0.4365206 -0.1060486 0.8934223 -0.1080402 -0.1080377 0.9882587 -0.7447579 -0.434258 0.5067107 -0.4046303 -0.4046165 0.8200975 -0.8601281 -0.489248 0.1442788 -0.8276499 -0.1164143 0.5490387 -0.4365192 0.1060433 -0.8934236 -0.1060464 0.4365115 -0.8934271 -0.1080479 0.1080415 -0.9882575 -0.7447535 0.4342565 -0.5067183 -0.4046158 0.4046121 -0.8201068 -0.8601305 0.4892442 -0.1442767 -0.8276482 0.1164091 -0.5490422 -0.4892504 0.8601267 -0.1442782 -0.1164126 0.8276451 -0.5490463 -0.434257 0.7447519 -0.5067202 -0.1060491 0.4365182 0.8934235 -0.4365181 0.106045 0.893424 -0.4342638 0.7447538 0.5067116 -0.4046286 0.4046257 0.8200939 -0.4892476 0.8601282 0.1442787 -0.1164161 0.82765 0.5490381 -0.860128 0.4892474 0.1442804 -0.8276481 0.1164099 0.5490422 -0.980205 0.127314 0.1516224 -0.7447564 0.4342564 0.5067142 0.4365189 -0.1060465 -0.8934234 0.1060429 -0.4365125 -0.8934271 0.1080474 -0.108045 -0.9882571 0.7447572 -0.4342528 -0.5067161 0.4046187 -0.4046057 -0.8201085 0.8601282 -0.4892483 -0.1442764 0.8276476 -0.1164126 -0.5490424 0.4892604 -0.8601217 -0.1442738 0.1164081 -0.8276388 -0.5490567 0.4342607 -0.7447561 -0.506711 0.1060464 -0.4365189 0.8934234 0.4365177 -0.1060495 0.8934237 0.4342655 -0.7447576 0.5067046 0.4046298 -0.4046166 0.8200978 0.4892597 -0.8601217 0.1442757 0.1164115 -0.8276441 0.549048 0.7447578 -0.4342582 0.5067107 0.8276473 -0.1164169 0.5490419 0.8601283 -0.4892474 0.1442788 0.9802047 -0.1273174 0.151622 0.1060467 0.4365157 -0.893425 0.4365152 0.1060429 -0.8934257 0.108044 0.1080422 -0.9882578 0.4342581 0.7447528 -0.506718 0.4046158 0.4046151 -0.8201053 0.4892459 0.8601295 -0.1442764 0.1164126 0.8276475 -0.5490426 0.8601299 0.4892446 -0.1442784 0.8276455 0.1164079 -0.5490466 0.7447544 0.4342513 -0.5067214 0.436521 0.1060461 0.8934226 0.1060492 0.4365139 0.8934257 0.7447564 0.4342593 0.506712 0.4046291 0.4046255 0.8200936 0.8601301 0.4892443 0.144279 0.8276502 0.1164127 0.5490385 0.4892507 0.8601263 0.1442797 0.1164155 0.8276475 0.5490419 0.1273183 0.9802045 0.1516217 0.4342619 0.744754 0.5067131 -1 0 0 0 1 0 1 0 0 0 -1 0 0 0 -1 0 0 1</float_array>
          <technique_common>
            <accessor source="#puff_stern_left-mesh-normals-array" count="182" stride="3">
              <param name="X" type="float"/>
              <param name="Y" type="float"/>
              <param name="Z" type="float"/>
            </accessor>
          </technique_common>
        </source>
        <vertices id="puff_stern_left-mesh-vertices">
          <input semantic="POSITION" source="#puff_stern_left-mesh-positions"/>
        </vertices>
        <triangles material="olive-material" count="156">
          <input semantic="VERTEX" source="#puff_stern_left-mesh-vertices" offset="0"/>
          <input semantic="NORMAL" source="#puff_stern_left-mesh-normals" offset="1"/>
          <p>51 0 0 1 42 2 32 3 61 4 23 5 1 6 2 7 21 8 1 6 6 9 3 10 4 11 5 12 0 1 8 13 6 9 4 11 7 14 8 13 22 15 2 7 9 16 7 14 3 10 6 9 9 16 12 17 13 18 10 19 16 20 14 21 12 17 15 22 16 20 31 23 15 22 20 24 17 25 18 26 19 27 11 28 18 26 14 21 20 24 14 21 17 25 20 24 2 7 24 29 21 8 2 7 27 30 25 31 26 32 7 14 22 15 26 32 30 33 27 30 28 34 29 35 23 5 24 29 30 33 28 34 25 31 27 30 30 33 33 36 15 22 31 23 33 36 37 37 34 38 35 39 36 40 32 3 38 41 37 37 35 39 19 27 38 41 11 28 15 22 39 42 19 27 34 38 37 37 39 42 63 43 43 44 40 45 63 43 47 46 44 47 45 48 46 49 41 50 49 51 47 46 45 48 48 52 49 51 42 2 43 44 50 53 48 52 44 47 47 46 50 53 52 54 53 55 70 56 52 54 57 57 54 58 55 59 56 60 51 0 55 59 60 61 57 57 58 62 59 63 71 64 53 55 60 61 58 62 54 58 57 57 60 61 62 65 63 43 40 45 62 65 67 66 64 67 65 68 66 69 61 4 68 70 67 66 65 68 46 49 68 70 41 50 63 43 69 71 46 49 64 67 67 66 69 71 53 55 73 72 70 56 53 55 76 73 74 74 75 75 58 62 71 64 78 76 76 73 75 75 77 77 78 76 72 78 73 72 79 79 77 77 74 74 76 73 79 79 10 19 4 11 0 1 13 18 8 13 4 11 18 26 22 15 8 13 23 5 35 39 32 3 29 35 38 41 35 39 26 32 11 28 38 41 21 8 62 65 40 45 24 29 66 69 62 65 28 34 61 4 66 69 70 56 33 36 31 23 73 72 36 40 33 36 77 77 32 3 36 40 41 50 75 75 71 64 68 70 78 76 75 75 65 68 72 78 78 76 42 2 55 59 51 0 49 51 59 63 55 59 45 48 71 64 59 63 40 45 1 6 21 8 43 44 5 12 1 6 48 52 0 1 5 12 31 23 52 54 70 56 16 20 56 60 52 54 12 17 51 0 56 60 51 0 10 19 0 1 32 3 72 78 61 4 1 6 3 10 2 7 1 6 5 12 6 9 4 11 6 9 5 12 8 13 9 16 6 9 7 14 9 16 8 13 2 7 3 10 9 16 12 17 14 21 13 18 16 20 17 25 14 21 15 22 17 25 16 20 15 22 19 27 20 24 18 26 20 24 19 27 18 26 13 18 14 21 2 7 25 31 24 29 2 7 7 14 27 30 26 32 27 30 7 14 26 32 29 35 30 33 28 34 30 33 29 35 24 29 25 31 30 33 33 36 34 38 15 22 33 36 36 40 37 37 35 39 37 37 36 40 38 41 39 42 37 37 19 27 39 42 38 41 15 22 34 38 39 42 63 43 44 47 43 44 63 43 46 49 47 46 45 48 47 46 46 49 49 51 50 53 47 46 48 52 50 53 49 51 43 44 44 47 50 53 52 54 54 58 53 55 52 54 56 60 57 57 55 59 57 57 56 60 55 59 59 63 60 61 58 62 60 61 59 63 53 55 54 58 60 61 62 65 64 67 63 43 62 65 66 69 67 66 65 68 67 66 66 69 68 70 69 71 67 66 46 49 69 71 68 70 63 43 64 67 69 71 53 55 74 74 73 72 53 55 58 62 76 73 75 75 76 73 58 62 78 76 79 79 76 73 77 77 79 79 78 76 73 72 74 74 79 79 10 19 13 18 4 11 13 18 18 26 8 13 18 26 11 28 22 15 23 5 29 35 35 39 29 35 26 32 38 41 26 32 22 15 11 28 21 8 24 29 62 65 24 29 28 34 66 69 28 34 23 5 61 4 70 56 73 72 33 36 73 72 77 77 36 40 77 77 72 78 32 3 41 50 68 70 75 75 68 70 65 68 78 76 65 68 61 4 72 78 42 2 49 51 55 59 49 51 45 48 59 63 45 48 41 50 71 64 40 45 43 44 1 6 43 44 48 52 5 12 48 52 42 2 0 1 31 23 16 20 52 54 16 20 12 17 56 60 12 17 10 19 51 0</p>
        </triangles>
        <triangles material="gunmetal-material" count="188">
          <input semantic="VERTEX" source="#puff_stern_left-mesh-vertices" offset="0"/>
          <input semantic="NORMAL" source="#puff_stern_left-mesh-normals" offset="1"/>
          <p>141 80 81 81 130 82 165 83 129 84 154 85 116 86 140 87 164 88 94 89 105 90 82 91 117 92 153 93 106 94 83 95 84 96 80 97 83 95 88 98 85 99 86 100 87 101 81 81 86 100 91 102 88 98 89 103 90 104 82 91 84 96 91 102 89 103 85 99 88 98 91 102 95 105 96 106 92 107 99 108 97 109 95 105 98 110 99 108 93 111 98 110 103 112 100 113 101 114 102 115 94 89 96 106 103 112 101 114 97 109 100 113 103 112 107 116 108 117 104 118 107 116 112 119 109 120 110 121 111 122 105 90 114 123 112 119 110 121 113 124 114 123 106 94 108 117 115 125 113 124 109 120 112 119 115 125 119 126 120 127 116 86 119 126 124 128 121 129 122 130 123 131 117 92 126 132 124 128 122 130 125 133 126 132 118 134 120 127 127 135 125 133 121 129 124 128 127 135 131 136 132 137 128 138 131 136 136 139 133 140 134 141 135 142 129 84 138 143 136 139 134 141 137 144 138 143 130 82 132 137 139 145 137 144 133 140 136 139 139 145 143 146 144 147 140 87 143 146 148 148 145 149 146 150 147 151 141 80 146 150 151 152 148 148 149 153 150 154 142 155 144 147 151 152 149 153 145 149 148 148 151 152 155 156 156 157 152 158 155 156 160 159 157 160 158 161 159 162 153 93 162 163 160 159 158 161 161 164 162 163 154 85 156 157 163 165 161 164 157 160 160 159 163 165 167 166 168 167 164 88 167 166 172 168 169 169 170 170 171 171 165 83 174 172 172 168 170 170 173 173 174 172 166 174 168 167 175 175 173 173 169 169 172 168 175 175 80 97 107 116 104 118 84 96 111 122 107 116 89 103 105 90 111 122 92 107 86 100 81 81 96 106 90 104 86 100 101 114 82 91 90 104 116 86 98 110 93 111 120 127 102 115 98 110 125 133 94 89 102 115 106 94 122 130 117 92 114 123 126 132 122 130 110 121 118 134 126 132 104 118 155 156 152 158 108 117 159 162 155 156 113 124 153 93 159 162 164 88 119 126 116 86 168 167 123 131 119 126 173 173 117 92 123 131 154 85 170 170 165 83 162 163 174 172 170 170 158 161 166 174 174 172 152 158 131 136 128 138 156 157 135 142 131 136 161 164 129 84 135 142 140 87 167 166 164 88 144 147 171 171 167 166 149 153 165 83 171 171 130 82 146 150 141 80 138 143 150 154 146 150 134 141 142 155 150 154 128 138 83 95 80 97 132 137 87 101 83 95 137 144 81 81 87 101 93 111 143 146 140 87 99 108 147 151 143 146 95 105 141 80 147 151 152 158 80 97 104 118 141 80 92 107 81 81 165 83 142 155 129 84 116 86 93 111 140 87 94 89 118 134 105 90 117 92 166 174 153 93 83 95 85 99 84 96 83 95 87 101 88 98 86 100 88 98 87 101 86 100 90 104 91 102 89 103 91 102 90 104 84 96 85 99 91 102 95 105 97 109 96 106 99 108 100 113 97 109 98 110 100 113 99 108 98 110 102 115 103 112 101 114 103 112 102 115 96 106 97 109 103 112 107 116 109 120 108 117 107 116 111 122 112 119 110 121 112 119 111 122 114 123 115 125 112 119 113 124 115 125 114 123 108 117 109 120 115 125 119 126 121 129 120 127 119 126 123 131 124 128 122 130 124 128 123 131 126 132 127 135 124 128 125 133 127 135 126 132 120 127 121 129 127 135 131 136 133 140 132 137 131 136 135 142 136 139 134 141 136 139 135 142 138 143 139 145 136 139 137 144 139 145 138 143 132 137 133 140 139 145 143 146 145 149 144 147 143 146 147 151 148 148 146 150 148 148 147 151 146 150 150 154 151 152 149 153 151 152 150 154 144 147 145 149 151 152 155 156 157 160 156 157 155 156 159 162 160 159 158 161 160 159 159 162 162 163 163 165 160 159 161 164 163 165 162 163 156 157 157 160 163 165 167 166 169 169 168 167 167 166 171 171 172 168 170 170 172 168 171 171 174 172 175 175 172 168 173 173 175 175 174 172 168 167 169 169 175 175 80 97 84 96 107 116 84 96 89 103 111 122 89 103 82 91 105 90 92 107 96 106 86 100 96 106 101 114 90 104 101 114 94 89 82 91 116 86 120 127 98 110 120 127 125 133 102 115 125 133 118 134 94 89 106 94 114 123 122 130 114 123 110 121 126 132 110 121 105 90 118 134 104 118 108 117 155 156 108 117 113 124 159 162 113 124 106 94 153 93 164 88 168 167 119 126 168 167 173 173 123 131 173 173 166 174 117 92 154 85 162 163 170 170 162 163 158 161 174 172 158 161 153 93 166 174 152 158 156 157 131 136 156 157 161 164 135 142 161 164 154 85 129 84 140 87 144 147 167 166 144 147 149 153 171 171 149 153 142 155 165 83 130 82 138 143 146 150 138 143 134 141 150 154 134 141 129 84 142 155 128 138 132 137 83 95 132 137 137 144 87 101 137 144 130 82 81 81 93 111 99 108 143 146 99 108 95 105 147 151 95 105 92 107 141 80 152 158 128 138 80 97</p>
        </triangles>
        <triangles material="orange-material" count="12">
          <input semantic="VERTEX" source="#puff_stern_left-mesh-vertices" offset="0"/>
          <input semantic="NORMAL" source="#puff_stern_left-mesh-normals" offset="1"/>
          <p>177 176 178 176 176 176 179 177 182 177 178 177 183 178 180 178 182 178 181 179 176 179 180 179 182 180 176 180 178 180 179 181 181 181 183 181 177 176 179 176 178 176 179 177 183 177 182 177 183 178 181 178 180 178 181 179 177 179 176 179 182 180 180 180 176 180 179 181 177 181 181 181</p>
        </triangles>
      </mesh>
    </geometry>
  </library_geometries>
  <library_visual_scenes>
    <visual_scene id="Scene" name="Scene">
      <node id="puff_stern_left" name="puff_stern_left" type="NODE">
        <matrix sid="transform">1 0 0 0 0 1 0 0 0 0 1 0 0 0 0 1</matrix>
        <instance_geometry url="#puff_stern_left-mesh" name="puff_stern_left">
          <bind_material>
            <technique_common>
              <instance_material symbol="olive-material" target="#olive-material"/>
              <instance_material symbol="gunmetal-material" target="#gunmetal-material"/>
              <instance_material symbol="orange-material" target="#orange-material"/>
            </technique_common>
          </bind_material>
        </instance_geometry>
      </node>
    </visual_scene>
  </library_visual_scenes>
  <scene>
    <instance_visual_scene url="#Scene"/>
  </scene>
</COLLADA>