<?xml version="1.0" encoding="utf-8"?>
<COLLADA xmlns="http://www.collada.org/2005/11/COLLADASchema" version="1.4.1" xmlns:xsi="http://www.w3.org/2001/XMLSchema-instance">
  <asset>
    <contributor>
      <author>Blender User</author>
      <authoring_tool>Blender 4.2.0 commit date:2024-07-16, commit time:07:50, hash:bf738fd35afe</authoring_tool>
    </contributor>
    <created>2026-09-26T17:43:45</created>
    <modified>2026-09-26T17:43:45</modified>
    <unit name="meter" meter="1"/>
    <up_axis>Z_UP</up_axis>
  </asset>
  <library_effects>
    <effect id="dark_green-effect">
      <profile_COMMON>
        <technique sid="common">
          <lambert>
            <emission>
              <color sid="emission">0 0 0 1</color>
            </emission>
            <diffuse>
              <color sid="diffuse">0.035 0.055 0.022 1</color>
            </diffuse>
            <index_of_refraction>
              <float sid="ior">1.5</float>
            </index_of_refraction>
          </lambert>
        </technique>
      </profile_COMMON>
    </effect>
    <effect id="aluminium-effect">
      <profile_COMMON>
        <technique sid="common">
          <lambert>
            <emission>
              <color sid="emission">0 0 0 1</color>
            </emission>
            <diffuse>
              <color sid="diffuse">0.55 0.55 0.56 1</color>
            </diffuse>
            <reflectivity>
              <float sid="specular">1</float>
            </reflectivity>
            <index_of_refraction>
              <float sid="ior">1.5</float>
            </index_of_refraction>
          </lambert>
        </technique>
      </profile_COMMON>
    </effect>
  </library_effects>
  <library_images/>
  <library_materials>
    <material id="dark_green-material" name="dark_green">
      <instance_effect url="#dark_green-effect"/>
    </material>
    <material id="aluminium-material" name="aluminium">
      <instance_effect url="#aluminium-effect"/>
    </material>
  </library_materials>
  <library_geometries>
    <geometry id="rudder_left-mesh" name="rudder_left">
      <mesh>
        <source id="rudder_left-mesh-positions">
          <float_array id="rudder_left-mesh-positions-array" count="336">-0.1039999 -0.001999974 -0.35 -0.1039999 -0.005999982 -0.346 -0.1079999 -0.001999974 -0.346 -0.1039999 -0.003997385 -0.3494656 -0.1059973 -0.001999974 -0.3494656 -0.1059128 -0.003912806 -0.3489465 -0.1059973 -0.005465626 -0.346 -0.1039999 -0.005465626 -0.3479973 -0.1059128 -0.004946529 -0.3479128 -0.1074656 -0.001999974 -0.3479973 -0.1074656 -0.003997385 -0.346 -0.1069464 -0.003912806 -0.3479128 -0.1039999 -0.005999982 0.346 -0.1039999 -0.001999974 0.35 -0.1079999 -0.001999974 0.346 -0.1039999 -0.005465626 0.3479973 -0.1059973 -0.005465626 0.346 -0.1059128 -0.004946529 0.3479128 -0.1059973 -0.001999974 0.3494656 -0.1039999 -0.003997385 0.3494656 -0.1059128 -0.003912806 0.3489465 -0.1074656 -0.003997385 0.346 -0.1074656 -0.001999974 0.3479973 -0.1069464 -0.003912806 0.3479128 -0.1039999 0.001999974 -0.35 -0.1079999 0.001999974 -0.346 -0.1039999 0.005999982 -0.346 -0.1059973 0.001999974 -0.3494656 -0.1039999 0.003997385 -0.3494656 -0.1059128 0.003912806 -0.3489465 -0.1074656 0.003997385 -0.346 -0.1074656 0.001999974 -0.3479973 -0.1069464 0.003912806 -0.3479128 -0.1039999 0.005465626 -0.3479973 -0.1059973 0.005465626 -0.346 -0.1059128 0.004946529 -0.3479128 -0.1039999 0.001999974 0.35 -0.1039999 0.005999982 0.346 -0.1079999 0.001999974 0.346 -0.1039999 0.003997385 0.3494656 -0.1059973 0.001999974 0.3494656 -0.1059128 0.003912806 0.3489465 -0.1059973 0.005465626 0.346 -0.1039999 0.005465626 0.3479973 -0.1059128 0.004946529 0.3479128 -0.1074656 0.001999974 0.3479973 -0.1074656 0.003997385 0.346 -0.1069464 0.003912806 0.3479128 0.008000016 -0.001999974 -0.35 0.01199996 -0.001999974 -0.346 0.008000016 -0.005999982 -0.346 0.009997367 -0.001999974 -0.3494656 0.008000016 -0.003997385 -0.3494656 0.009912848 -0.003912806 -0.3489465 0.01146566 -0.003997385 -0.346 0.01146566 -0.001999974 -0.3479973 0.01094651 -0.003912806 -0.3479128 0.008000016 -0.005465626 -0.3479973 0.009997367 -0.005465626 -0.346 0.009912848 -0.004946529 -0.3479128 0.008000016 -0.001999974 0.35 0.008000016 -0.005999982 0.346 0.01199996 -0.001999974 0.346 0.008000016 -0.003997385 0.3494656 0.009997367 -0.001999974 0.3494656 0.009912848 -0.003912806 0.3489465 0.009997367 -0.005465626 0.346 0.008000016 -0.005465626 0.3479973 0.009912848 -0.004946529 0.3479128 0.01146566 -0.001999974 0.3479973 0.01146566 -0.003997385 0.346 0.01094651 -0.003912806 0.3479128 0.008000016 0.001999974 -0.35 0.008000016 0.005999982 -0.346 0.01199996 0.001999974 -0.346 0.008000016 0.003997385 -0.3494656 0.009997367 0.001999974 -0.3494656 0.009912848 0.003912806 -0.3489465 0.009997367 0.005465626 -0.346 0.008000016 0.005465626 -0.3479973 0.009912848 0.004946529 -0.3479128 0.01146566 0.001999974 -0.3479973 0.01146566 0.003997385 -0.346 0.01094651 0.003912806 -0.3479128 0.008000016 0.001999974 0.35 0.01199996 0.001999974 0.346 0.008000016 0.005999982 0.346 0.009997367 0.001999974 0.3494656 0.008000016 0.003997385 0.3494656 0.009912848 0.003912806 0.3489465 0.01146566 0.003997385 0.346 0.01146566 0.001999974 0.3479973 0.01094651 0.003912806 0.3479128 0.008000016 0.005465626 0.3479973 0.009997367 0.005465626 0.346 0.009912848 0.004946529 0.3479128 0 0.007999956 -0.37 0 0.007999956 0.37 0.005656838 0.005656838 -0.37 0.005656838 0.005656838 0.37 0.008000016 0 -0.37 0.008000016 0 0.37 0.005656838 -0.005656838 -0.37 0.005656838 -0.005656838 0.37 0 -0.007999956 -0.37 0 -0.007999956 0.37 -0.005656838 -0.005656838 -0.37 -0.005656838 -0.005656838 0.37 -0.008000016 0 -0.37 -0.008000016 0 0.37 -0.005656838 0.005656838 -0.37 -0.005656838 0.005656838 0.37</float_array>
          <technique_common>
            <accessor source="#rudder_left-mesh-positions-array" count="112" stride="3">
              <param name="X" type="float"/>
              <param name="Y" type="float"/>
              <param name="Z" type="float"/>
            </accessor>
          </technique_common>
        </source>
        <source id="rudder_left-mesh-normals">
          <float_array id="rudder_left-mesh-normals-array" count="342">0.1279726 -0.9834867 0.1279736 -0.1279732 -0.9834865 -0.1279737 0.1279724 -0.9834867 -0.1279731 0.983492 0.1279527 0.1279521 0.983492 -0.1279527 -0.1279521 0.9834918 0.1279516 -0.1279547 -0.1279776 0.1279783 0.9834853 0.1279777 -0.127978 0.9834853 0.1279835 0.1279782 0.9834846 -0.983492 -0.127952 0.127952 -0.983492 0.127952 -0.127952 -0.9834918 -0.1279509 -0.1279546 -0.1279732 0.9834865 0.1279737 0.1279726 0.9834865 -0.1279736 -0.1279723 0.9834867 -0.1279731 -0.1216192 -0.4915823 -0.8622967 -0.4915738 -0.1216153 -0.8623021 -0.1279776 -0.1279783 -0.9834853 -0.1216071 -0.8623085 -0.4915647 -0.448852 -0.4488611 -0.7726938 -0.4915656 -0.8623077 -0.1216091 -0.7726911 -0.4488578 -0.4488601 -0.4488418 -0.7727035 -0.4488545 -0.8623113 -0.1216086 -0.4915595 -0.8623098 -0.4915619 -0.1216102 -0.1216071 -0.8623093 0.4915632 -0.4915643 -0.8623085 0.121609 -0.1279723 -0.9834867 0.1279732 -0.448857 -0.4488577 0.7726928 -0.4488419 -0.7727034 0.4488545 -0.4915806 -0.1216148 0.8622984 -0.1216188 -0.4915837 0.8622961 -0.1279835 -0.1279783 0.9834845 -0.8623123 -0.12161 0.4915575 -0.862309 -0.4915627 0.1216108 -0.7726901 -0.4488619 0.4488576 -0.4915806 0.1216148 -0.8622984 -0.1216188 0.4915837 -0.8622961 -0.1279835 0.1279783 -0.9834845 -0.8623123 0.12161 -0.4915575 -0.448857 0.4488577 -0.7726928 -0.862309 0.4915627 -0.1216108 -0.4915643 0.8623085 -0.121609 -0.7726901 0.4488619 -0.4488576 -0.1216071 0.8623093 -0.4915632 -0.4488419 0.7727034 -0.4488545 -0.1216192 0.4915823 0.8622967 -0.4915738 0.1216153 0.8623021 -0.1216071 0.8623085 0.4915647 -0.448852 0.4488611 0.7726938 -0.4915656 0.8623077 0.1216091 -0.7726911 0.4488578 0.4488601 -0.4488418 0.7727035 0.4488545 -0.8623113 0.1216086 0.4915595 -0.8623098 0.4915619 0.1216102 -0.9834918 0.1279509 0.1279546 0.4915806 -0.1216148 -0.8622984 0.1216188 -0.4915833 -0.8622962 0.1279835 -0.1279782 -0.9834846 0.8623122 -0.1216101 -0.4915575 0.448857 -0.4488577 -0.7726929 0.862309 -0.4915629 -0.1216109 0.4915651 -0.862308 -0.121609 0.7726901 -0.4488617 -0.4488576 0.121607 -0.8623093 -0.4915633 0.4488421 -0.7727035 -0.4488546 0.1216193 -0.4915819 0.8622969 0.4915738 -0.1216156 0.8623022 0.121607 -0.8623085 0.4915648 0.448852 -0.448861 0.7726939 0.4915658 -0.8623076 0.1216092 0.7726913 -0.4488574 0.44886 0.4488421 -0.7727035 0.4488546 0.8623112 -0.1216091 0.4915595 0.8623097 -0.4915617 0.1216104 0.9834918 -0.1279516 0.1279547 0.1216193 0.4915819 -0.8622969 0.4915738 0.1216156 -0.8623022 0.1279777 0.127978 -0.9834853 0.121607 0.8623085 -0.4915648 0.448852 0.448861 -0.7726939 0.4915658 0.8623076 -0.1216092 0.7726913 0.4488574 -0.44886 0.4488421 0.7727035 -0.4488546 0.8623112 0.1216091 -0.4915595 0.8623097 0.4915617 -0.1216104 0.4915806 0.1216148 0.8622984 0.1216188 0.4915833 0.8622962 0.8623122 0.1216101 0.4915575 0.448857 0.4488577 0.7726929 0.862309 0.4915629 0.1216109 0.4915651 0.862308 0.121609 0.7726901 0.4488617 0.4488576 0.121607 0.8623093 0.4915633 0.1279724 0.9834867 0.1279731 0.4488421 0.7727035 0.4488546 0.3826805 0.9238808 0 0.9238781 0.382687 0 0.923878 0.3826872 0 0.923878 -0.3826872 0 0.9238781 -0.382687 0 0.9238781 -0.382687 0 0.3826805 -0.9238808 0 -0.3826805 -0.9238808 0 -0.9238781 -0.382687 0 -0.923878 -0.3826872 0 0 0 1 -0.923878 0.3826872 0 -0.9238781 0.382687 0 -0.9238781 0.382687 0 -0.3826805 0.9238808 0 0 0 -1 0.9238781 0.382687 0 -0.9238781 -0.382687 0</float_array>
          <technique_common>
            <accessor source="#rudder_left-mesh-normals-array" count="114" stride="3">
              <param name="X" type="float"/>
              <param name="Y" type="float"/>
              <param name="Z" type="float"/>
            </accessor>
          </technique_common>
        </source>
        <vertices id="rudder_left-mesh-vertices">
          <input semantic="POSITION" source="#rudder_left-mesh-positions"/>
        </vertices>
        <triangles material="dark_green-material" count="188">
          <input semantic="VERTEX" source="#rudder_left-mesh-vertices" offset="0"/>
          <input semantic="NORMAL" source="#rudder_left-mesh-normals" offset="1"/>
          <p>61 0 1 1 50 2 85 3 49 4 74 5 36 6 60 7 84 8 14 9 25 10 2 11 37 12 73 13 26 14 3 15 4 16 0 17 7 18 5 19 3 15 6 20 7 18 1 1 6 20 11 21 8 22 9 23 10 24 2 11 4 16 11 21 9 23 5 19 8 22 11 21 15 25 16 26 12 27 15 25 20 28 17 29 18 30 19 31 13 32 22 33 20 28 18 30 21 34 22 33 14 9 16 26 23 35 21 34 17 29 20 28 23 35 27 36 28 37 24 38 31 39 29 40 27 36 30 41 31 39 25 10 34 42 32 43 30 41 33 44 34 42 26 14 33 44 29 40 35 45 29 40 32 43 35 45 39 46 40 47 36 6 43 48 41 49 39 46 42 50 43 48 37 12 42 50 47 51 44 52 45 53 46 54 38 55 40 47 47 51 45 53 41 49 44 52 47 51 51 56 52 57 48 58 55 59 53 60 51 56 54 61 55 59 49 4 58 62 56 63 54 61 57 64 58 62 50 2 57 64 53 60 59 65 53 60 56 63 59 65 63 66 64 67 60 7 67 68 65 69 63 66 66 70 67 68 61 0 66 70 71 71 68 72 69 73 70 74 62 75 64 67 71 71 69 73 65 69 68 72 71 71 75 76 76 77 72 78 79 79 77 80 75 76 78 81 79 79 73 13 78 81 83 82 80 83 81 84 82 85 74 5 76 77 83 82 81 84 77 80 80 83 83 82 87 86 88 87 84 8 91 88 89 89 87 86 90 90 91 88 85 3 94 91 92 92 90 90 93 93 94 91 86 94 93 93 89 89 95 95 89 89 92 92 95 95 0 17 27 36 24 38 4 16 31 39 27 36 9 23 25 10 31 39 12 27 6 20 1 1 16 26 10 24 6 20 21 34 2 11 10 24 36 6 18 30 13 32 40 47 22 33 18 30 45 53 14 9 22 33 26 14 42 50 37 12 34 42 46 54 42 50 30 41 38 55 46 54 24 38 75 76 72 78 28 37 79 79 75 76 33 44 73 13 79 79 84 8 39 46 36 6 88 87 43 48 39 46 93 93 37 12 43 48 74 5 90 90 85 3 82 85 94 91 90 90 78 81 86 94 94 91 72 78 51 56 48 58 76 77 55 59 51 56 81 84 49 4 55 59 60 7 87 86 84 8 64 67 91 88 87 86 69 73 85 3 91 88 50 2 66 70 61 0 58 62 70 74 66 70 54 61 62 75 70 74 48 58 3 15 0 17 52 57 7 18 3 15 57 64 1 1 7 18 13 32 63 66 60 7 19 31 67 68 63 66 15 25 61 0 67 68 72 78 0 17 24 38 61 0 12 27 1 1 85 3 62 75 49 4 36 6 13 32 60 7 14 9 38 55 25 10 37 12 86 94 73 13 3 15 5 19 4 16 7 18 8 22 5 19 6 20 8 22 7 18 6 20 10 24 11 21 9 23 11 21 10 24 4 16 5 19 11 21 15 25 17 29 16 26 15 25 19 31 20 28 18 30 20 28 19 31 22 33 23 35 20 28 21 34 23 35 22 33 16 26 17 29 23 35 27 36 29 40 28 37 31 39 32 43 29 40 30 41 32 43 31 39 34 42 35 45 32 43 33 44 35 45 34 42 33 44 28 37 29 40 39 46 41 49 40 47 43 48 44 52 41 49 42 50 44 52 43 48 42 50 46 54 47 51 45 53 47 51 46 54 40 47 41 49 47 51 51 56 53 60 52 57 55 59 56 63 53 60 54 61 56 63 55 59 58 62 59 65 56 63 57 64 59 65 58 62 57 64 52 57 53 60 63 66 65 69 64 67 67 68 68 72 65 69 66 70 68 72 67 68 66 70 70 74 71 71 69 73 71 71 70 74 64 67 65 69 71 71 75 76 77 80 76 77 79 79 80 83 77 80 78 81 80 83 79 79 78 81 82 85 83 82 81 84 83 82 82 85 76 77 77 80 83 82 87 86 89 89 88 87 91 88 92 92 89 89 90 90 92 92 91 88 94 91 95 95 92 92 93 93 95 95 94 91 93 93 88 87 89 89 0 17 4 16 27 36 4 16 9 23 31 39 9 23 2 11 25 10 12 27 16 26 6 20 16 26 21 34 10 24 21 34 14 9 2 11 36 6 40 47 18 30 40 47 45 53 22 33 45 53 38 55 14 9 26 14 34 42 42 50 34 42 30 41 46 54 30 41 25 10 38 55 24 38 28 37 75 76 28 37 33 44 79 79 33 44 26 14 73 13 84 8 88 87 39 46 88 87 93 93 43 48 93 93 86 94 37 12 74 5 82 85 90 90 82 85 78 81 94 91 78 81 73 13 86 94 72 78 76 77 51 56 76 77 81 84 55 59 81 84 74 5 49 4 60 7 64 67 87 86 64 67 69 73 91 88 69 73 62 75 85 3 50 2 58 62 66 70 58 62 54 61 70 74 54 61 49 4 62 75 48 58 52 57 3 15 52 57 57 64 7 18 57 64 50 2 1 1 13 32 19 31 63 66 19 31 15 25 67 68 15 25 12 27 61 0 72 78 48 58 0 17</p>
        </triangles>
        <triangles material="aluminium-material" count="28">
          <input semantic="VERTEX" source="#rudder_left-mesh-vertices" offset="0"/>
          <input semantic="NORMAL" source="#rudder_left-mesh-normals" offset="1"/>
          <p>97 96 98 96 96 96 99 97 100 98 98 98 101 99 102 100 100 101 103 102 104 102 102 102 105 103 106 103 104 103 107 104 108 105 106 105 97 106 109 106 105 106 109 107 110 108 108 109 111 110 96 110 110 110 106 111 108 111 110 111 97 96 99 96 98 96 99 97 101 112 100 98 101 99 103 99 102 100 103 102 105 102 104 102 105 103 107 103 106 103 107 104 109 113 108 105 101 106 99 106 97 106 97 106 111 106 109 106 109 106 107 106 105 106 105 106 103 106 101 106 101 106 97 106 105 106 109 107 111 107 110 108 111 110 97 110 96 110 110 111 96 111 102 111 96 111 98 111 102 111 98 111 100 111 102 111 102 111 104 111 110 111 104 111 106 111 110 111</p>
        </triangles>
      </mesh>
    </geometry>
  </library_geometries>
  <library_visual_scenes>
    <visual_scene id="Scene" name="Scene">
      <node id="rudder_left" name="rudder_left" type="NODE">
        <matrix sid="transform">1 0 0 0 0 1 0 0 0 0 1 0 0 0 0 1</matrix>
        <instance_geometry url="#rudder_left-mesh" name="rudder_left">
          <bind_material>
            <technique_common>
              <instance_material symbol="dark_green-material" target="#dark_green-material"/>
              <instance_material symbol="aluminium-material" target="#aluminium-material"/>
            </technique_common>
          </bind_material>
        </instance_geometry>
      </node>
    </visual_scene>
  </library_visual_scenes>
  <scene>
    <instance_visual_scene url="#Scene"/>
  </scene>
</COLLADA>