<?xml version="1.0" encoding="utf-8"?>
<COLLADA xmlns="http://www.collada.org/2005/11/COLLADASchema" version="1.4.1" xmlns:xsi="http://www.w3.org/2001/XMLSchema-instance">
  <asset>
    <contributor>
      <author>Blender User</author>
      <authoring_tool>Blender 4.2.0 commit date:2024-07-16, commit time:07:50, hash:bf738fd35afe</authoring_tool>
    </contributor>
    <created>2026-09-26T17:43:45</created>
    <modified>2026-09-26T17:43:45</modified>
    <unit name="meter" meter="1"/>
    <up_axis>Z_UP</up_axis>
  </asset>
  <library_effects>
    <effect id="aluminium-effect">
      <profile_COMMON>
        <technique sid="common">
          <lambert>
            <emission>
              <color sid="emission">0 0 0 1</color>
            </emission>
            <diffuse>
              <color sid="diffuse">0.55 0.55 0.56 1</color>
            </diffuse>
            <reflectivity>
              <float sid="specular">1</float>
            </reflectivity>
            <index_of_refraction>
              <float sid="ior">1.5</float>
            </index_of_refraction>
          </lambert>
        </technique>
      </profile_COMMON>
    </effect>
    <effect id="blade-effect">
      <profile_COMMON>
        <technique sid="common">
          <lambert>
            <emission>
              <color sid="emission">0 0 0 1</color>
            </emission>
            <diffuse>
              <color sid="diffuse">0.03 0.03 0.032 1</color>
            </diffuse>
            <index_of_refraction>
              <float sid="ior">1.5</float>
            </index_of_refraction>
          </lambert>
        </technique>
      </profile_COMMON>
    </effect>
  </library_effects>
  <library_images/>
  <library_materials>
    <material id="aluminium-material" name="aluminium">
      <instance_effect url="#aluminium-effect"/>
    </material>
    <material id="blade-material" name="blade">
      <instance_effect url="#blade-effect"/>
    </material>
  </library_materials>
  <library_geometries>
    <geometry id="thrust_fan_right-mesh" name="thrust_fan_right">
      <mesh>
        <source id="thrust_fan_right-mesh-positions">
          <float_array id="thrust_fan_right-mesh-positions-array" count="840">-0.01900005 0.055 0 -0.02499997 0.04894822 0 -0.02419614 0.05197411 0 -0.02199995 0.0541892 0 0.02499997 0.04894822 0 0.01900005 0.055 0 0.02419614 0.05197411 0 0.02199995 0.0541892 0 -0.02499997 0.04728031 -0.01266872 -0.01900005 0.05312591 -0.01423501 -0.02419614 0.05020314 -0.01345193 -0.02199995 0.05234277 -0.01402521 0.02499997 0.04728031 -0.01266872 0.01900005 0.05312591 -0.01423501 0.02419614 0.05020314 -0.01345193 0.02199995 0.05234277 -0.01402521 -0.02499997 0.0423904 -0.02447414 -0.01900005 0.04763138 -0.02750003 -0.02419614 0.04501086 -0.02598702 -0.02199995 0.04692924 -0.0270946 0.02499997 0.0423904 -0.02447414 0.01900005 0.04763138 -0.02750003 0.02419614 0.04501086 -0.02598702 0.02199995 0.04692924 -0.0270946 -0.02499997 0.03461158 -0.03461158 -0.01900005 0.03889083 -0.03889083 -0.02419614 0.03675121 -0.03675127 -0.02199995 0.03831756 -0.03831756 0.02499997 0.03461158 -0.03461158 0.01900005 0.03889083 -0.03889083 0.02419614 0.03675121 -0.03675127 0.02199995 0.03831756 -0.03831756 -0.02499997 0.02447408 -0.04239046 -0.01900005 0.02749997 -0.04763138 -0.02419614 0.02598702 -0.04501092 -0.02199995 0.0270946 -0.04692924 0.02499997 0.02447408 -0.04239046 0.01900005 0.02749997 -0.04763138 0.02419614 0.02598702 -0.04501092 0.02199995 0.0270946 -0.04692924 -0.02499997 0.01266872 -0.04728031 -0.01900005 0.01423501 -0.05312597 -0.02419614 0.01345187 -0.05020308 -0.02199995 0.01402521 -0.05234277 0.02499997 0.01266872 -0.04728031 0.01900005 0.01423501 -0.05312585 0.02419614 0.01345187 -0.05020308 0.02199995 0.01402521 -0.05234277 -0.02499997 0 -0.04894816 -0.01900005 0 -0.05499994 -0.02419614 0 -0.05197405 -0.02199995 0 -0.0541892 0.02499997 0 -0.04894816 0.01900005 0 -0.05499994 0.02419614 0 -0.05197405 0.02199995 0 -0.0541892 -0.02499997 -0.01266872 -0.04728031 -0.01900005 -0.01423501 -0.05312597 -0.02419614 -0.01345187 -0.05020308 -0.02199995 -0.01402521 -0.05234277 0.02499997 -0.01266872 -0.04728031 0.01900005 -0.01423501 -0.05312585 0.02419614 -0.01345187 -0.05020308 0.02199995 -0.01402521 -0.05234277 -0.02499997 -0.02447408 -0.04239046 -0.01900005 -0.02749997 -0.04763138 -0.02419614 -0.02598702 -0.04501092 -0.02199995 -0.0270946 -0.04692924 0.02499997 -0.02447408 -0.04239046 0.01900005 -0.02749997 -0.04763138 0.02419614 -0.02598702 -0.04501092 0.02199995 -0.0270946 -0.04692924 -0.02499997 -0.03461158 -0.03461158 -0.01900005 -0.03889083 -0.03889083 -0.02419614 -0.03675121 -0.03675127 -0.02199995 -0.03831756 -0.03831756 0.02499997 -0.03461158 -0.03461158 0.01900005 -0.03889083 -0.03889083 0.02419614 -0.03675121 -0.03675127 0.02199995 -0.03831756 -0.03831756 -0.02499997 -0.0423904 -0.02447414 -0.01900005 -0.04763138 -0.02750003 -0.02419614 -0.04501086 -0.02598702 -0.02199995 -0.04692924 -0.0270946 0.02499997 -0.0423904 -0.02447414 0.01900005 -0.04763138 -0.02750003 0.02419614 -0.04501086 -0.02598702 0.02199995 -0.04692924 -0.0270946 -0.02499997 -0.04728031 -0.01266872 -0.01900005 -0.05312591 -0.01423501 -0.02419614 -0.05020314 -0.01345193 -0.02199995 -0.05234277 -0.01402521 0.02499997 -0.04728031 -0.01266872 0.01900005 -0.05312591 -0.01423501 0.02419614 -0.05020314 -0.01345193 0.02199995 -0.05234277 -0.01402521 -0.02499997 -0.04894822 0 -0.01900005 -0.055 0 -0.02419614 -0.05197411 0 -0.02199995 -0.0541892 0 0.02499997 -0.04894822 0 0.01900005 -0.055 0 0.02419614 -0.05197411 0 0.02199995 -0.0541892 0 -0.02499997 -0.04728031 0.01266872 -0.01900005 -0.05312591 0.01423501 -0.02419614 -0.05020314 0.01345193 -0.02199995 -0.05234277 0.01402521 0.02499997 -0.04728031 0.01266872 0.01900005 -0.05312591 0.01423501 0.02419614 -0.05020314 0.01345193 0.02199995 -0.05234277 0.01402521 -0.02499997 -0.0423904 0.02447414 -0.01900005 -0.04763138 0.02750003 -0.02419614 -0.04501086 0.02598702 -0.02199995 -0.04692924 0.0270946 0.02499997 -0.0423904 0.02447414 0.01900005 -0.04763138 0.02750003 0.02419614 -0.04501086 0.02598702 0.02199995 -0.04692924 0.0270946 -0.02499997 -0.03461158 0.03461158 -0.01900005 -0.03889083 0.03889083 -0.02419614 -0.03675121 0.03675127 -0.02199995 -0.03831756 0.03831756 0.02499997 -0.03461158 0.03461158 0.01900005 -0.03889083 0.03889083 0.02419614 -0.03675121 0.03675127 0.02199995 -0.03831756 0.03831756 -0.02499997 -0.02447408 0.04239046 -0.01900005 -0.02749997 0.04763138 -0.02419614 -0.02598702 0.04501092 -0.02199995 -0.0270946 0.04692924 0.02499997 -0.02447408 0.04239046 0.01900005 -0.02749997 0.04763138 0.02419614 -0.02598702 0.04501092 0.02199995 -0.0270946 0.04692924 -0.02499997 -0.01266872 0.04728031 -0.01900005 -0.01423501 0.05312585 -0.02419614 -0.01345187 0.05020308 -0.02199995 -0.01402521 0.05234277 0.02499997 -0.01266872 0.04728031 0.01900005 -0.01423501 0.05312597 0.02419614 -0.01345187 0.05020308 0.02199995 -0.01402521 0.05234277 -0.02499997 0 0.04894816 -0.01900005 0 0.05499994 -0.02419614 0 0.05197405 -0.02199995 0 0.0541892 0.02499997 0 0.04894816 0.01900005 0 0.05499994 0.02419614 0 0.05197405 0.02199995 0 0.0541892 -0.02499997 0.01266872 0.04728031 -0.01900005 0.01423501 0.05312585 -0.02419614 0.01345187 0.05020308 -0.02199995 0.01402521 0.05234277 0.02499997 0.01266872 0.04728031 0.01900005 0.01423501 0.05312597 0.02419614 0.01345187 0.05020308 0.02199995 0.01402521 0.05234277 -0.02499997 0.02447408 0.04239046 -0.01900005 0.02749997 0.04763138 -0.02419614 0.02598702 0.04501092 -0.02199995 0.0270946 0.04692924 0.02499997 0.02447408 0.04239046 0.01900005 0.02749997 0.04763138 0.02419614 0.02598702 0.04501092 0.02199995 0.0270946 0.04692924 -0.02499997 0.03461158 0.03461158 -0.01900005 0.03889083 0.03889083 -0.02419614 0.03675121 0.03675127 -0.02199995 0.03831756 0.03831756 0.02499997 0.03461158 0.03461158 0.01900005 0.03889083 0.03889083 0.02419614 0.03675121 0.03675127 0.02199995 0.03831756 0.03831756 -0.02499997 0.0423904 0.02447414 -0.01900005 0.04763138 0.02750003 -0.02419614 0.04501086 0.02598702 -0.02199995 0.04692924 0.0270946 0.02499997 0.0423904 0.02447414 0.01900005 0.04763138 0.02750003 0.02419614 0.04501086 0.02598702 0.02199995 0.04692924 0.0270946 -0.02499997 0.04728031 0.01266872 -0.01900005 0.05312591 0.01423501 -0.02419614 0.05020314 0.01345193 -0.02199995 0.05234277 0.01402521 0.02499997 0.04728031 0.01266872 0.01900005 0.05312591 0.01423501 0.02419614 0.05020314 0.01345193 0.02199995 0.05234277 0.01402521 0.02499997 0.05000001 0 0.06499993 0.01199996 0 0.02499997 0.04619395 -0.01913416 0.06499993 0.01108652 -0.00459218 0.02499997 0.03535532 -0.03535532 0.06499993 0.008485257 -0.008485317 0.02499997 0.01913416 -0.04619395 0.06499993 0.00459218 -0.01108658 0.02499997 0 -0.04999995 0.06499993 0 -0.01199996 0.02499997 -0.01913416 -0.04619395 0.06499993 -0.00459218 -0.01108658 0.02499997 -0.03535532 -0.03535532 0.06499993 -0.008485257 -0.008485317 0.02499997 -0.04619395 -0.01913416 0.06499993 -0.01108652 -0.00459218 0.02499997 -0.05000001 0 0.06499993 -0.01199996 0 0.02499997 -0.04619395 0.01913416 0.06499993 -0.01108652 0.00459218 0.02499997 -0.03535532 0.03535532 0.06499993 -0.008485257 0.008485317 0.02499997 -0.01913416 0.04619395 0.06499993 -0.00459218 0.01108658 0.02499997 0 0.04999995 0.06499993 0 0.01199996 0.02499997 0.01913416 0.04619395 0.06499993 0.00459218 0.01108658 0.02499997 0.03535532 0.03535532 0.06499993 0.008485257 0.008485317 0.02499997 0.04619395 0.01913416 0.06499993 0.01108652 0.00459218 -0.0272386 -0.03604245 -0.04999995 0.02045416 0.04028183 -0.04999995 0.0272386 0.03604245 -0.04999995 -0.02045416 -0.04028183 -0.04999995 -0.01439249 -0.02662432 -0.35 0.0069139 0.02946519 -0.35 0.01439249 0.02662432 -0.35 -0.0069139 -0.02946519 -0.35 -0.0272386 0.01661944 -0.05935359 0.02045416 0.06420689 3.19123e-4 0.0272386 0.06156367 -0.002995371 -0.02045416 0.01397627 -0.06266808 -0.01439249 0.257041 -0.2390371 0.0069139 0.2920123 -0.1951845 0.01439249 0.2902411 -0.1974056 -0.0069139 0.2552698 -0.2412582 -0.0272386 0.05676656 -0.0240128 0.02045416 0.03978282 0.05039799 0.0272386 0.04072618 0.04626488 -0.02045416 0.05770993 -0.02814579 -0.01439249 0.3471492 0.05192553 0.0069139 0.3346681 0.1066087 0.01439249 0.3353003 0.1038391 -0.0069139 0.3477814 0.04915583 -0.0272386 0.05416733 0.02941024 0.02045416 -0.01459848 0.0625261 0.0272386 -0.01077896 0.0606867 -0.02045416 0.05798685 0.02757084 -0.01439249 0.175847 0.3037872 0.0069139 0.125312 0.3281236 0.01439249 0.1278716 0.326891 -0.0069139 0.1784065 0.3025546 -0.0272386 0.01077896 0.0606867 0.02045416 -0.05798685 0.02757084 0.0272386 -0.05416733 0.02941024 -0.02045416 0.01459848 0.0625261 -0.01439249 -0.1278715 0.3268911 0.0069139 -0.1784064 0.3025547 0.01439249 -0.1758468 0.3037872 -0.0069139 -0.1253119 0.3281236 -0.0272386 -0.04072618 0.04626488 0.02045416 -0.05770993 -0.02814579 0.0272386 -0.05676662 -0.0240128 -0.02045416 -0.03978282 0.05039799 -0.01439249 -0.3353003 0.1038391 0.0069139 -0.3477814 0.04915583 0.01439249 -0.3471493 0.05192553 -0.0069139 -0.3346682 0.1066087 -0.0272386 -0.06156373 -0.002995252 0.02045416 -0.01397627 -0.06266808 0.0272386 -0.01661944 -0.05935359 -0.02045416 -0.06420689 3.19123e-4 -0.01439249 -0.2902411 -0.1974055 0.0069139 -0.2552699 -0.241258 0.01439249 -0.2570412 -0.239037 -0.0069139 -0.2920124 -0.1951844</float_array>
          <technique_common>
            <accessor source="#thrust_fan_right-mesh-positions-array" count="280" stride="3">
              <param name="X" type="float"/>
              <param name="Y" type="float"/>
              <param name="Z" type="float"/>
            </accessor>
          </technique_common>
        </source>
        <source id="thrust_fan_right-mesh-normals">
          <float_array id="thrust_fan_right-mesh-normals-array" count="1236">0.1301863 -0.2566131 -0.9577063 0.4936158 -0.4348388 -0.7531658 0.1301944 -0.4957402 -0.8586565 0.4936158 0.4348388 -0.7531658 0.8583683 0.3627703 -0.3627694 0.8583698 0.2565149 -0.4442988 0.130191 0.9577045 0.2566173 -0.1302003 0.9914877 -1.57546e-6 -0.130191 0.9577053 0.2566142 0.8583717 -0.1327812 -0.4955475 0.8583698 -0.2565149 -0.4442988 0.1301926 0.495742 -0.8586559 0.4936197 0.6149537 -0.6149566 0.130196 0.8586555 -0.4957416 -0.1301936 0.7010869 -0.7010897 -0.130196 0.8586539 -0.4957444 -0.4936161 -0.4348396 -0.7531652 -0.8583717 -0.1327812 -0.4955475 -0.4936344 -0.2250897 -0.8400356 -0.8583683 0.3627703 -0.3627694 -0.9901459 0.07001978 -0.1212781 -0.990146 0.09902358 -0.09902238 0.1301937 0.7010894 -0.7010873 -0.1301937 0.4957457 -0.8586534 -0.1301919 -0.4957473 -0.8586528 -0.1302 -0.2566193 -0.9577028 -0.4936161 0.4348395 -0.7531652 -0.4936197 0.6149538 -0.6149566 0.1301863 0.2566131 -0.9577063 -0.1302 0.2566193 -0.9577028 0.8583674 0 -0.5130355 0.9901463 -0.03624337 -0.1352659 0.1301898 0 -0.9914891 -0.1301896 0 -0.9914891 0.4936195 -0.2250911 -0.840044 0.8583663 0.4443031 -0.2565196 0.9901463 0.09902185 -0.09902065 -0.8583674 0 -0.5130355 -0.9901461 -0.03624379 -0.1352672 -0.9901461 0 -0.1400387 -0.1301936 -0.7010895 -0.7010872 -0.4936285 0 -0.8696729 -0.8583663 0.444303 -0.2565196 -0.9901462 0.1212766 -0.0700196 0.1301936 -0.7010869 -0.7010897 -0.130196 -0.8586555 -0.4957416 -0.4936259 0.7531593 -0.4348385 0.130196 -0.8586539 -0.4957444 -0.130191 -0.9577053 -0.2566142 0.9901463 0.03624337 -0.1352659 0.9901456 0 -0.1400427 0.130191 -0.9577045 -0.2566173 -0.1302003 -0.9914877 1.57546e-6 0.4936196 0.2250912 -0.840044 0.4936276 0 -0.8696735 0.9901463 0.1352652 -0.03624415 0.9901459 0.1212779 -0.07002031 0.1302003 -0.9914877 -1.57546e-6 -0.130191 -0.9577045 0.2566173 0.4936259 0.7531593 -0.4348385 0.8583716 0.4955474 -0.1327828 0.130191 -0.9577053 0.2566142 -0.130196 -0.8586539 0.4957444 -0.9901462 0.03624367 -0.1352669 -0.8583717 0.1327812 -0.4955475 0.130191 0.9577053 -0.2566142 0.130196 -0.8586555 0.4957416 -0.1301936 -0.7010869 0.7010897 -0.4936344 0.2250897 -0.8400356 -0.9901461 0.1352676 -0.0362448 -0.8583716 0.4955474 -0.1327828 0.1301937 -0.7010894 0.7010873 -0.1301944 -0.4957403 0.8586565 -0.4936202 0.8400436 -0.225091 0.1301919 -0.4957473 0.8586528 -0.1301863 -0.2566131 0.9577063 0.8583717 0.1327812 -0.4955474 0.9901458 0.07001996 -0.121279 -0.130191 0.9577045 -0.2566173 0.1302 -0.2566193 0.9577028 -0.1301898 0 0.9914891 0.8583638 0.5130416 0 0.1302 0.2566193 0.9577028 -0.1301863 0.2566131 0.9577063 0.4936202 0.8400436 -0.225091 0.1301937 0.4957457 0.8586535 -0.1301926 0.4957419 0.8586558 -0.8583698 0.2565149 -0.4442988 0.4936291 0.8696725 0 -0.1301936 0.7010895 0.7010872 -0.8583638 0.5130416 0 -0.9901463 0.140037 0 0.1301936 0.7010869 0.7010897 -0.130196 0.8586555 0.4957416 -0.4936291 0.8696726 0 0.130196 0.8586539 0.4957444 -0.9901459 -0.07001978 -0.1212781 0.990145 0 0.140046 0.1302003 0.9914877 1.57546e-6 0.9901458 -0.07002002 -0.121279 -0.4936197 -0.6149537 -0.6149566 -0.8583683 -0.3627703 -0.3627694 -0.8583698 -0.2565149 -0.4442988 0.4936197 -0.6149537 -0.6149566 0.8583683 -0.3627703 -0.3627694 0.9901462 -0.09902197 -0.09902065 -0.8583663 -0.4443031 -0.2565196 -0.9901463 -0.09902191 -0.09902065 0.4936259 -0.7531593 -0.4348385 0.8583662 -0.444303 -0.2565196 0.9901459 -0.1212779 -0.07002031 -0.4936259 -0.7531593 -0.4348385 -0.8583716 -0.4955474 -0.1327828 -0.9901458 -0.1352694 -0.03624528 -0.9901462 -0.1212766 -0.0700196 0.4936202 -0.8400436 -0.225091 0.8583716 -0.4955474 -0.1327828 0.9901463 -0.1352652 -0.03624415 -0.4936291 -0.8696725 0 -0.4936203 -0.8400436 -0.225091 -0.8583638 -0.5130416 0 0.4936291 -0.8696725 0 0.8583638 -0.5130415 0 0.990146 -0.140039 0 -0.4936202 -0.8400436 0.225091 -0.9901461 -0.1352676 0.0362448 -0.9901463 -0.140037 0 0.4936203 -0.8400436 0.225091 0.8583715 -0.4955473 0.1327828 0.9901463 -0.1352652 0.03624415 -0.4936259 -0.7531593 0.4348385 -0.8583716 -0.4955474 0.1327828 -0.8583663 -0.444303 0.2565196 0.4936259 -0.7531593 0.4348385 0.8583662 -0.444303 0.2565196 0.9901457 -0.1212795 0.07002133 -0.4936197 -0.6149537 0.6149566 -0.9901456 -0.0990253 0.09902405 -0.9901462 -0.1212766 0.0700196 0.4936197 -0.6149538 0.6149566 0.8583683 -0.3627703 0.3627694 0.9901463 -0.09902185 0.09902065 -0.4936158 -0.4348388 0.7531658 -0.8583683 -0.3627703 0.3627694 -0.9901459 -0.07001978 0.1212781 0.4936161 -0.4348396 0.7531652 0.8583698 -0.2565149 0.4442988 0.9901458 -0.07001996 0.121279 -0.8583717 -0.1327812 0.4955475 -0.8583698 -0.2565149 0.4442988 0.4936344 -0.2250897 0.8400356 0.8583717 -0.1327812 0.4955475 0.9901463 -0.03624337 0.1352659 -0.4936196 -0.2250912 0.8400439 -0.8583674 0 0.5130355 -0.9901462 -0.03624367 0.1352669 0.4936285 0 0.8696729 0.1301896 0 0.9914891 0.8583675 0 0.5130355 -0.4936196 0.2250912 0.840044 -0.4936276 0 0.8696735 -0.9901457 0.03624445 0.1352699 -0.9901461 0 0.1400387 0.4936344 0.2250897 0.8400356 0.8583717 0.1327812 0.4955475 0.9901463 0.03624337 0.1352659 -0.4936159 0.4348388 0.7531657 -0.8583717 0.1327812 0.4955475 -0.9901459 0.07001978 0.1212781 0.4936161 0.4348396 0.7531651 0.8583698 0.2565149 0.4442988 0.9901458 0.07002002 0.121279 -0.4936197 0.6149537 0.6149566 -0.8583683 0.3627703 0.3627694 -0.8583698 0.2565149 0.4442988 0.4936197 0.6149537 0.6149566 0.8583683 0.3627703 0.3627694 0.9901462 0.09902197 0.09902065 -0.8583663 0.4443031 0.2565196 -0.9901463 0.09902203 0.09902095 0.4936259 0.7531593 0.4348385 0.8583662 0.444303 0.2565196 0.9901457 0.1212795 0.07002127 -0.4936259 0.7531593 0.4348385 -0.8583716 0.4955474 0.1327828 -0.9901458 0.1352694 0.03624528 -0.9901462 0.1212766 0.0700196 0.4936202 0.8400436 0.225091 0.8583716 0.4955474 0.1327828 0.9901463 0.1352652 0.03624415 -0.4936203 0.8400436 0.225091 0.990146 0.140039 0 0.68875 0.7249989 7.5915e-7 0.6887498 0.6698119 -0.2774453 0.68875 0.724999 -3.05609e-6 0.6887502 0.5126528 -0.5126503 0.6887494 0.5126518 -0.5126523 0.6887494 0.277442 -0.6698137 0.6887504 0.2774406 -0.6698132 0.6887492 0 -0.7249997 0.6887503 -0.2774407 -0.6698132 0.6887493 -0.277442 -0.6698136 0.6887501 -0.5126529 -0.5126503 0.6887494 -0.5126518 -0.5126524 0.6887499 -0.6698129 -0.2774425 0.6887499 -0.6698128 -0.2774426 0.68875 -0.724999 3.05609e-6 0.68875 -0.7249989 -7.5915e-7 0.6887498 -0.6698119 0.2774453 0.6887502 -0.5126528 0.5126503 0.6887494 -0.5126518 0.5126523 0.6887494 -0.277442 0.6698137 0.6887504 -0.2774406 0.6698132 0.6887492 0 0.7249997 0.6887503 0.2774407 0.6698132 0.6887493 0.277442 0.6698136 0.6887501 0.5126529 0.5126503 0.6887494 0.5126518 0.5126524 1 -2.53265e-7 0 1 3.1454e-7 0 1 0 0 0.6887499 0.6698129 0.2774425 0.6887499 0.6698128 0.2774426 -1 0 0 -1 0 0 -1 0 0 -5.82886e-7 0 1 4.21199e-7 0 1 -6.46748e-7 0 1 6.61521e-6 9.28666e-7 -1 -4.67495e-6 9.28666e-7 -1 -5.82078e-6 9.28666e-7 -1 -0.8609097 0.5085907 0.01304793 -0.9214987 0.3878555 -0.02021324 -0.9344363 0.3549586 -0.02886939 0.5265154 0.8487364 -0.04927718 0.3576843 0.9325202 -0.04968011 0.3546682 0.933672 -0.04967159 0.8609096 -0.5085907 0.01304787 0.9214986 -0.3878554 -0.02021324 0.9344363 -0.3549585 -0.02886939 -0.5265155 -0.8487363 -0.04927718 -0.3576841 -0.9325203 -0.04968011 -0.354668 -0.9336721 -0.04967159 4.39901e-6 -0.7818329 0.623488 2.383e-6 -0.7818323 0.6234888 4.52723e-6 -0.7818329 0.623488 3.17148e-7 0.7818326 -0.6234884 3.44211e-6 0.7818315 -0.6234899 3.75925e-6 0.7818314 -0.62349 -0.8609095 0.3068998 0.4057675 -0.9214987 0.2576273 0.2906349 -0.9344362 0.243884 0.259518 0.5265176 0.567704 0.632844 0.3576838 0.6202583 0.6980988 0.3546672 0.62097 0.6990047 0.8609095 -0.3273024 -0.3894971 0.9214985 -0.2260205 -0.3158404 0.9344362 -0.1987419 -0.2955176 -0.5265175 -0.4906511 -0.6942917 -0.3576849 -0.5425751 -0.7600486 -0.354668 -0.5433 -0.7609441 3.52755e-6 -0.9749275 -0.2225227 -2.02182e-6 -0.9749282 -0.2225204 3.8805e-6 -0.9749275 -0.2225229 -4.75274e-7 0.9749283 0.2225198 -2.7686e-6 0.9749276 0.2225226 -2.42531e-7 0.9749283 0.2225195 -0.8609098 -0.1258927 0.4929355 -0.9214986 -0.06659954 0.3826292 -0.9344361 -0.05084025 0.3524834 0.5265192 -0.1408192 0.8384197 0.3576819 -0.1590707 0.9201958 0.3546653 -0.1593353 0.9213169 0.8609095 0.1004512 -0.4987428 0.9214987 0.1060123 -0.373633 0.9344363 0.1071313 -0.3396347 -0.5265097 0.2369042 -0.816495 -0.3576941 0.255939 -0.8980814 -0.3546777 0.256187 -0.8992063 -1.29806e-6 -0.4338843 -0.9009687 -1.36978e-6 -0.4338843 -0.9009687 -1.2935e-6 -0.4338843 -0.9009686 -6.53335e-6 0.4338836 0.900969 5.56323e-6 0.4338842 0.9009686 -7.76101e-6 0.4338836 0.900969 -0.8609096 -0.4638856 0.2089135 -0.9214987 -0.3406755 0.1864957 -0.9344363 -0.3072806 0.1800212 0.5265154 -0.7433044 0.4126501 0.3576884 -0.8186147 0.4493651 0.3546722 -0.8196562 0.4498572 0.8609095 0.4525631 -0.232425 0.9214987 0.3582159 -0.1500727 0.9344363 0.3323326 -0.1280003 -0.5265156 0.7860655 -0.3238556 -0.3576886 0.8617255 -0.3598443 -0.3546726 0.8627596 -0.3603518 1.28779e-6 0.4338843 -0.9009687 1.19814e-6 0.4338843 -0.9009687 1.2935e-6 0.4338843 -0.9009686 8.02704e-6 -0.43388 0.9009706 1.0648e-5 -0.4338802 0.9009706 1.0914e-5 -0.4338802 0.9009706 -0.8609096 -0.4525632 -0.2324247 -0.9214985 -0.3582161 -0.1500726 -0.9344362 -0.3323329 -0.1280003 0.5265172 -0.7860648 -0.3238551 0.3576841 -0.8617272 -0.3598447 0.3546674 -0.8627614 -0.3603522 0.8609097 0.4638857 0.2089133 0.9214985 0.3406757 0.1864956 0.9344362 0.3072808 0.1800212 -0.5265151 0.7433047 0.41265 -0.3576831 0.8186169 0.4493656 -0.3546667 0.8196583 0.4498577 2.19874e-6 0.9749283 -0.2225196 2.44977e-6 0.9749283 -0.2225198 2.18277e-6 0.9749283 -0.2225196 -4.11711e-6 -0.974928 0.2225206 -6.44819e-6 -0.9749288 0.222517 -3.88053e-6 -0.974928 0.222521 -0.8609097 -0.1004512 -0.4987428 -0.9214987 -0.1060123 -0.373633 -0.9344363 -0.1071313 -0.3396347 0.526508 -0.2369043 -0.816496 0.3576924 -0.2559391 -0.898082 0.354676 -0.2561871 -0.8992069 0.8609098 0.1258927 0.4929355 0.9214985 0.06659954 0.3826291 0.9344361 0.05084025 0.3524833 -0.5265187 0.1408193 0.83842 -0.3576806 0.1590709 0.9201963 -0.3546636 0.1593355 0.9213176 3.40838e-6 0.7818307 0.6234909 -4.01469e-6 0.7818329 0.623488 3.88051e-6 0.7818305 0.6234911 -4.09219e-7 -0.7818321 -0.623489 -4.44142e-6 -0.7818309 -0.6234908 0 -0.7818323 -0.6234889 -0.8609098 0.327302 -0.3894969 -0.9214986 0.2260205 -0.3158405 -0.9344362 0.198742 -0.2955178 0.5265179 0.4906507 -0.6942917 0.3576843 0.5425748 -0.7600491 0.3546676 0.5432997 -0.7609444 0.8609095 -0.3068997 0.4057679 0.9214986 -0.257627 0.2906349 0.9344362 -0.2438838 0.259518 -0.5265081 -0.5677074 0.6328487 -0.3576903 -0.6202566 0.6980971 -0.3546739 -0.6209681 0.699003 0.6887501 0.6698129 -0.2774418 0.6887497 0 -0.7249993 0.6887501 -0.6698129 0.2774418 0.6887497 0 0.7249993 1 6.9383e-6 0 1 4.95492e-7 0 1 4.52079e-6 0 1 0 0 1 8.67249e-7 0 1 2.53265e-7 0 1 0 0 1 -1.56433e-6 0 1 7.57209e-7 0 1 4.02929e-6 0 1 -6.9383e-6 0 1 -8.67249e-7 0 -1 0 0 -1 0 0 4.85061e-7 0 1 7.76103e-6 9.28666e-7 -1 -0.8478922 0.5298224 0.01916593 0.5292727 0.8470211 -0.04925483 0.8478921 -0.5298224 0.01916593 -0.5292728 -0.8470209 -0.04925483 2.25477e-6 -0.7818323 0.6234889 0 0.7818328 -0.6234883 -0.8478921 0.3153542 0.4261816 0.5292754 0.5666167 0.6315165 0.8478921 -0.3453234 -0.4022822 -0.5292754 -0.4895988 -0.6929362 -2.37477e-6 -0.9749281 -0.2225201 -3.00134e-6 0.9749275 0.2225229 -0.8478924 -0.1365818 0.5122734 0.5292766 -0.1404593 0.8367423 0.8478921 0.09921097 -0.5208036 -0.5292669 0.2365006 -0.8148276 -1.37434e-6 -0.4338843 -0.9009686 6.7909e-6 0.4338843 0.9009686 -0.8478922 -0.4856692 0.2126134 0.5292731 -0.7417684 0.4118856 0.8478921 0.4690376 -0.2471493 -0.5292733 0.78451 -0.3231315 1.19244e-6 0.4338843 -0.9009686 7.76104e-6 -0.43388 0.9009708 -0.8478921 -0.4690377 -0.247149 0.5292745 -0.7845095 -0.3231309 0.8478921 0.4856692 0.2126132 -0.5292731 0.7417685 0.4118853 2.46574e-6 0.9749283 -0.2225199 -6.68477e-6 -0.9749289 0.2225167 -0.8478921 -0.09921097 -0.5208036 0.5292654 -0.2365008 -0.8148286 0.8478924 0.1365818 0.5122734 -0.5292766 0.1404593 0.8367422 -4.48681e-6 0.7818331 0.6234878 -4.85065e-6 -0.7818307 -0.6234909 -0.8478923 0.345323 -0.4022819 0.5292754 0.4895985 -0.6929364 0.8478919 -0.3153541 0.426182 -0.5292655 -0.5666204 0.6315216</float_array>
          <technique_common>
            <accessor source="#thrust_fan_right-mesh-normals-array" count="412" stride="3">
              <param name="X" type="float"/>
              <param name="Y" type="float"/>
              <param name="Z" type="float"/>
            </accessor>
          </technique_common>
        </source>
        <vertices id="thrust_fan_right-mesh-vertices">
          <input semantic="POSITION" source="#thrust_fan_right-mesh-positions"/>
        </vertices>
        <triangles material="aluminium-material" count="440">
          <input semantic="VERTEX" source="#thrust_fan_right-mesh-vertices" offset="0"/>
          <input semantic="NORMAL" source="#thrust_fan_right-mesh-normals" offset="1"/>
          <p>61 0 71 1 69 2 39 3 30 4 38 5 189 6 0 7 185 8 71 1 62 9 70 10 37 11 31 12 39 3 21 13 25 14 17 15 67 16 58 17 59 18 26 19 32 20 24 21 29 22 33 23 25 14 65 24 59 18 57 25 35 26 26 19 27 27 33 23 45 28 41 29 54 30 60 31 62 9 33 23 27 27 25 14 41 29 53 32 49 33 63 34 54 30 62 9 22 35 28 36 30 4 53 32 57 25 49 33 53 32 63 34 61 0 31 12 22 35 30 4 61 0 65 24 57 25 50 37 56 38 48 39 21 13 31 12 29 22 69 2 73 40 65 24 59 18 50 37 51 41 18 42 24 21 16 43 77 44 81 45 73 40 57 25 51 41 49 33 27 27 18 42 19 46 85 47 89 48 81 45 54 30 44 49 52 50 17 15 27 27 19 46 93 51 97 52 89 48 47 53 54 30 55 54 22 35 12 55 20 56 101 57 105 58 97 52 53 32 47 53 55 54 23 59 14 60 22 35 109 61 113 62 105 58 50 37 40 63 42 64 13 65 23 59 21 13 117 66 121 67 113 62 43 68 50 37 42 64 18 42 8 69 10 70 125 71 129 72 121 67 41 29 51 41 43 68 19 46 10 70 11 73 133 74 137 75 129 72 46 76 36 77 44 49 9 78 19 46 11 73 141 79 145 80 137 75 39 3 46 76 47 53 6 81 12 55 14 60 145 80 157 82 153 83 45 28 39 3 47 53 15 84 6 81 14 60 153 83 165 85 161 86 42 64 32 20 34 87 13 65 7 88 15 84 165 85 169 89 161 86 35 26 42 64 34 87 2 90 8 69 1 91 173 92 177 93 169 89 33 23 43 68 35 26 11 73 2 90 3 94 181 95 185 8 177 93 13 65 17 15 9 78 9 78 3 94 0 7 58 17 64 96 56 38 30 4 36 77 38 5 52 50 20 56 148 97 5 98 9 78 0 7 62 9 68 99 70 10 65 24 75 100 67 16 67 16 74 101 66 102 74 101 64 96 66 102 69 2 79 103 77 44 71 1 78 104 79 103 78 104 68 99 76 105 81 45 75 100 73 40 75 100 82 106 74 101 82 106 72 107 74 101 85 47 79 103 87 108 79 103 86 109 87 108 86 109 76 105 84 110 89 48 83 111 81 45 83 111 90 112 82 106 82 106 88 113 80 114 93 51 87 108 95 115 87 108 94 116 95 115 86 109 92 117 94 116 89 48 99 118 91 119 91 119 98 120 90 112 98 120 88 113 90 112 93 51 103 121 101 57 95 115 102 122 103 121 102 122 92 117 100 123 105 58 99 118 97 52 107 124 98 120 99 118 98 120 104 125 96 126 109 61 103 121 111 127 111 127 102 122 110 128 102 122 108 129 110 128 105 58 115 130 107 124 115 130 106 131 107 124 114 132 104 125 106 131 109 61 119 133 117 66 119 133 110 128 118 134 118 134 108 129 116 135 113 62 123 136 115 130 123 136 114 132 115 130 114 132 120 137 112 138 117 66 127 139 125 71 127 139 118 134 126 140 118 134 124 141 126 140 129 72 123 136 121 67 131 142 122 143 123 136 122 143 128 144 120 137 133 74 127 139 135 145 135 145 126 140 134 146 126 140 132 147 134 146 137 75 131 142 129 72 131 142 138 148 130 149 138 148 128 144 130 149 133 74 143 150 141 79 135 145 142 151 143 150 142 151 132 147 140 152 145 80 139 153 137 75 139 153 146 154 138 148 146 154 136 155 138 148 141 79 151 156 149 157 143 150 150 158 151 156 150 158 140 152 148 97 145 80 155 159 147 160 155 159 146 154 147 160 146 154 152 161 144 162 157 82 151 156 159 163 159 163 150 158 158 164 150 158 156 165 158 164 153 83 163 166 155 159 163 166 154 167 155 159 154 167 160 168 152 161 165 85 159 163 167 169 167 169 158 164 166 170 158 164 164 171 166 170 161 86 171 172 163 166 163 166 170 173 162 174 170 173 160 168 162 174 165 85 175 175 173 92 167 169 174 176 175 175 174 176 164 171 172 177 177 93 171 172 169 89 171 172 178 178 170 173 178 178 168 179 170 173 181 95 175 175 183 180 175 175 182 181 183 180 182 181 172 177 180 182 185 8 179 183 177 93 179 183 186 184 178 178 178 178 184 185 176 186 189 6 183 180 191 187 183 180 190 188 191 187 182 181 188 189 190 188 185 8 3 94 187 190 187 190 2 90 186 184 2 90 184 185 186 184 189 6 7 88 5 98 191 187 6 81 7 88 6 81 188 189 4 191 152 161 184 185 56 38 193 192 194 193 192 194 194 193 197 195 196 196 197 195 198 197 196 196 199 198 200 199 198 197 200 199 203 200 202 201 202 201 205 202 204 203 205 202 206 204 204 203 207 205 208 206 206 204 209 207 210 208 208 206 210 208 213 209 212 210 213 209 214 211 212 210 215 212 216 213 214 211 216 213 219 214 218 215 218 215 221 216 220 217 201 218 197 219 213 220 221 216 222 221 220 217 223 222 192 194 222 221 198 223 206 224 214 225 61 0 63 34 71 1 39 3 31 12 30 4 189 6 5 98 0 7 71 1 63 34 62 9 37 11 29 22 31 12 21 13 29 22 25 14 67 16 66 102 58 17 26 19 34 87 32 20 29 22 37 11 33 23 65 24 67 16 59 18 35 26 34 87 26 19 33 23 37 11 45 28 54 30 52 50 60 31 33 23 35 26 27 27 41 29 45 28 53 32 63 34 55 54 54 30 22 35 20 56 28 36 53 32 61 0 57 25 53 32 55 54 63 34 31 12 23 59 22 35 61 0 69 2 65 24 50 37 58 17 56 38 21 13 23 59 31 12 69 2 77 44 73 40 59 18 58 17 50 37 18 42 26 19 24 21 77 44 85 47 81 45 57 25 59 18 51 41 27 27 26 19 18 42 85 47 93 51 89 48 54 30 46 76 44 49 17 15 25 14 27 27 93 51 101 57 97 52 47 53 46 76 54 30 22 35 14 60 12 55 101 57 109 61 105 58 53 32 45 28 47 53 23 59 15 84 14 60 109 61 117 66 113 62 50 37 48 39 40 63 13 65 15 84 23 59 117 66 125 71 121 67 43 68 51 41 50 37 18 42 16 43 8 69 125 71 133 74 129 72 41 29 49 33 51 41 19 46 18 42 10 70 133 74 141 79 137 75 46 76 38 5 36 77 9 78 17 15 19 46 141 79 149 157 145 80 39 3 38 5 46 76 6 81 4 191 12 55 145 80 149 157 157 82 45 28 37 11 39 3 15 84 7 88 6 81 153 83 157 82 165 85 42 64 40 63 32 20 13 65 5 98 7 88 165 85 173 92 169 89 35 26 43 68 42 64 2 90 10 70 8 69 173 92 181 95 177 93 33 23 41 29 43 68 11 73 10 70 2 90 181 95 189 6 185 8 13 65 21 13 17 15 9 78 11 73 3 94 58 17 66 102 64 96 30 4 28 36 36 77 20 56 12 55 4 191 4 191 188 189 180 182 180 182 172 177 148 97 172 177 164 171 148 97 164 171 156 165 148 97 148 97 140 152 132 147 132 147 124 141 148 97 124 141 116 135 148 97 116 135 108 129 100 123 100 123 92 117 84 110 84 110 76 105 52 50 76 105 68 99 52 50 68 99 60 31 52 50 52 50 44 49 36 77 36 77 28 36 52 50 28 36 20 56 52 50 20 56 4 191 148 97 4 191 180 182 148 97 116 135 100 123 148 97 100 123 84 110 148 97 84 110 52 50 148 97 5 98 13 65 9 78 62 9 60 31 68 99 65 24 73 40 75 100 67 16 75 100 74 101 74 101 72 107 64 96 69 2 71 1 79 103 71 1 70 10 78 104 78 104 70 10 68 99 81 45 83 111 75 100 75 100 83 111 82 106 82 106 80 114 72 107 85 47 77 44 79 103 79 103 78 104 86 109 86 109 78 104 76 105 89 48 91 119 83 111 83 111 91 119 90 112 82 106 90 112 88 113 93 51 85 47 87 108 87 108 86 109 94 116 86 109 84 110 92 117 89 48 97 52 99 118 91 119 99 118 98 120 98 120 96 126 88 113 93 51 95 115 103 121 95 115 94 116 102 122 102 122 94 116 92 117 105 58 107 124 99 118 107 124 106 131 98 120 98 120 106 131 104 125 109 61 101 57 103 121 111 127 103 121 102 122 102 122 100 123 108 129 105 58 113 62 115 130 115 130 114 132 106 131 114 132 112 138 104 125 109 61 111 127 119 133 119 133 111 127 110 128 118 134 110 128 108 129 113 62 121 67 123 136 123 136 122 143 114 132 114 132 122 143 120 137 117 66 119 133 127 139 127 139 119 133 118 134 118 134 116 135 124 141 129 72 131 142 123 136 131 142 130 149 122 143 122 143 130 149 128 144 133 74 125 71 127 139 135 145 127 139 126 140 126 140 124 141 132 147 137 75 139 153 131 142 131 142 139 153 138 148 138 148 136 155 128 144 133 74 135 145 143 150 135 145 134 146 142 151 142 151 134 146 132 147 145 80 147 160 139 153 139 153 147 160 146 154 146 154 144 162 136 155 141 79 143 150 151 156 143 150 142 151 150 158 150 158 142 151 140 152 145 80 153 83 155 159 155 159 154 167 146 154 146 154 154 167 152 161 157 82 149 157 151 156 159 163 151 156 150 158 150 158 148 97 156 165 153 83 161 86 163 166 163 166 162 174 154 167 154 167 162 174 160 168 165 85 157 82 159 163 167 169 159 163 158 164 158 164 156 165 164 171 161 86 169 89 171 172 163 166 171 172 170 173 170 173 168 179 160 168 165 85 167 169 175 175 167 169 166 170 174 176 174 176 166 170 164 171 177 93 179 183 171 172 171 172 179 183 178 178 178 178 176 186 168 179 181 95 173 92 175 175 175 175 174 176 182 181 182 181 174 176 172 177 185 8 187 190 179 183 179 183 187 190 186 184 178 178 186 184 184 185 189 6 181 95 183 180 183 180 182 181 190 188 182 181 180 182 188 189 185 8 0 7 3 94 187 190 3 94 2 90 2 90 1 91 184 185 189 6 191 187 7 88 191 187 190 188 6 81 6 81 190 188 188 189 184 185 1 91 8 69 8 69 16 43 24 21 24 21 32 20 40 63 40 63 48 39 24 21 48 39 56 38 24 21 56 38 64 96 72 107 72 107 80 114 88 113 88 113 96 126 104 125 104 125 112 138 120 137 120 137 128 144 136 155 136 155 144 162 120 137 144 162 152 161 120 137 152 161 160 168 168 179 168 179 176 186 184 185 184 185 8 69 24 21 56 38 72 107 120 137 72 107 88 113 120 137 88 113 104 125 120 137 152 161 168 179 184 185 184 185 24 21 56 38 120 137 152 161 56 38 193 192 195 352 194 193 194 193 195 352 197 195 197 195 199 198 198 197 199 198 201 353 200 199 200 199 201 353 203 200 202 201 203 200 205 202 205 202 207 205 206 204 207 205 209 207 208 206 209 207 211 354 210 208 210 208 211 354 213 209 213 209 215 212 214 211 215 212 217 355 216 213 216 213 217 355 219 214 218 215 219 214 221 216 197 219 195 356 193 357 193 357 223 358 197 219 223 358 221 359 197 219 221 359 219 360 217 361 217 361 215 362 213 220 213 220 211 363 205 364 211 363 209 365 205 364 209 365 207 366 205 364 205 364 203 367 201 218 201 218 199 362 197 219 221 359 217 361 197 219 217 361 213 220 197 219 205 364 201 218 213 220 221 216 223 222 222 221 223 222 193 192 192 194 222 368 192 369 194 369 194 369 196 369 222 368 196 369 198 223 222 368 198 223 200 369 206 224 200 369 202 369 206 224 202 369 204 369 206 224 206 224 208 369 210 369 210 369 212 369 206 224 212 369 214 225 206 224 214 225 216 369 222 368 216 369 218 369 222 368 218 369 220 369 222 368 222 368 198 223 214 225</p>
        </triangles>
        <triangles material="blade-material" count="84">
          <input semantic="VERTEX" source="#thrust_fan_right-mesh-vertices" offset="0"/>
          <input semantic="NORMAL" source="#thrust_fan_right-mesh-normals" offset="1"/>
          <p>227 226 225 227 224 228 231 229 229 230 230 231 224 232 229 233 228 234 225 235 230 236 229 237 226 238 231 239 230 240 227 241 228 242 231 243 235 244 233 245 232 246 239 247 237 248 238 249 232 250 237 251 236 252 233 253 238 254 237 255 234 256 239 257 238 258 235 259 236 260 239 261 243 262 241 263 240 264 244 265 246 266 247 267 240 268 245 269 244 270 241 271 246 272 245 273 242 274 247 275 246 276 243 277 244 278 247 279 251 280 249 281 248 282 252 283 254 284 255 285 248 286 253 287 252 288 249 289 254 290 253 291 250 292 255 293 254 294 251 295 252 296 255 297 259 298 257 299 256 300 263 301 261 302 262 303 256 304 261 305 260 306 257 307 262 308 261 309 258 310 263 311 262 312 259 313 260 314 263 315 267 316 265 317 264 318 268 319 270 320 271 321 264 322 269 323 268 324 265 325 270 326 269 327 266 328 271 329 270 330 267 331 268 332 271 333 275 334 273 335 272 336 276 337 278 338 279 339 272 340 277 341 276 342 273 343 278 344 277 345 274 346 279 347 278 348 275 349 276 350 279 351 227 226 226 370 225 227 231 229 228 371 229 230 224 232 225 372 229 233 225 235 226 373 230 236 226 238 227 374 231 239 227 241 224 375 228 242 235 244 234 376 233 245 239 247 236 377 237 248 232 250 233 378 237 251 233 253 234 379 238 254 234 256 235 380 239 257 235 259 232 381 236 260 243 262 242 382 241 263 244 265 245 383 246 266 240 268 241 384 245 269 241 271 242 385 246 272 242 274 243 386 247 275 243 277 240 387 244 278 251 280 250 388 249 281 252 283 253 389 254 284 248 286 249 390 253 287 249 289 250 391 254 290 250 292 251 392 255 293 251 295 248 393 252 296 259 298 258 394 257 299 263 301 260 395 261 302 256 304 257 396 261 305 257 307 258 397 262 308 258 310 259 398 263 311 259 313 256 399 260 314 267 316 266 400 265 317 268 319 269 401 270 320 264 322 265 402 269 323 265 325 266 403 270 326 266 328 267 404 271 329 267 331 264 405 268 332 275 334 274 406 273 335 276 337 277 407 278 338 272 340 273 408 277 341 273 343 274 409 278 344 274 346 275 410 279 347 275 349 272 411 276 350</p>
        </triangles>
      </mesh>
    </geometry>
  </library_geometries>
  <library_visual_scenes>
    <visual_scene id="Scene" name="Scene">
      <node id="thrust_fan_right" name="thrust_fan_right" type="NODE">
        <matrix sid="transform">1 0 0 0 0 1 0 0 0 0 1 0 0 0 0 1</matrix>
        <instance_geometry url="#thrust_fan_right-mesh" name="thrust_fan_right">
          <bind_material>
            <technique_common>
              <instance_material symbol="aluminium-material" target="#aluminium-material"/>
              <instance_material symbol="blade-material" target="#blade-material"/>
            </technique_common>
          </bind_material>
        </instance_geometry>
      </node>
    </visual_scene>
  </library_visual_scenes>
  <scene>
    <instance_visual_scene url="#Scene"/>
  </scene>
</COLLADA>